<svg id="Layer_1" data-name="Layer 1" xmlns="http://www.w3.org/2000/svg" viewBox="0 0 300 135"><defs><style>.cls-1{fill:#010101;}</style></defs><title>Untitled-1</title><path class="cls-1" d="M129.76,47.59h-0.95l-4.26-4-0.47-1.42-1.23.09-0.47-.38h-1.32l-3-2.36h-1.42l-0.66-.76h-1.23l-0.57-1.32-1-.47L111,35.76l-5.86,5.11h-1l-1.42,1.61-3.88-.19-2.55,2.84L95.51,45l-0.57.66-1.42-.09-3.88,4.07H87.76v1.89l-1,.95-0.19.85H85.11l-0.38,1.8L81.32,57.9l1.61-12.3,4.26-1.14-1.51-.85,0.09-.47,3.59-.38V42l-3-1v-1l-5.11-1.8,1.61-1.42V36.24H79.62l-0.57-7.85-0.57,7.85H75.27v0.47l1.61,1.42-5.11,1.8v1l-3,1v0.76l3.59,0.38,0.09,0.47-1.51.85,4.26,1.14,2.08,15.7L71.2,66.79l-1.14,1.8H69.5V89.3h40.68v3.88c0.38,0,.85.09,1.23,0.09v-4h2.27v4.16c0.38,0,.85.09,1.23,0.09V89.3h2.27v4.45c0.38,0,.85.09,1.23,0.09V89.3h2.27v4.64c0.38,0,.85.09,1.23,0.09V89.3h11.73V49.67h-2.18ZM77.35,68.49H71.2L72,67.36l5.39-4.92v6.05Zm10.5,0h-7V61.87l0.38-2.74,4.35-3.5,0.28-1.42h1.42L87.66,53l0.19-.19v15.7Zm33.49-18.82V43.24H110.18V56.67H98.82V49.86H91l2.93-3.12,1.42,0.09,0.57-.66,0.66,0.09,2.55-2.84L103,43.61,104.5,42h0.95L111,37.09,112.54,38l0.76,0.38L114,39.93h1.42L116,40.68h1.51l3,2.36h1.23l0.47,0.47,0.85-.09,0.28,0.95,4.64,4.45h0.85L129.76,50h-8.42V49.67Z"/><path class="cls-1" d="M117.08,96.21V93.66c-0.76-.09-1.51-0.09-2.27-0.19V96.3C115.57,96.3,116.32,96.21,117.08,96.21Z"/><path class="cls-1" d="M133.07,94.7s-5.2-.28-11.35-0.76v1.89C128,95.36,133.07,94.7,133.07,94.7Z"/><path class="cls-1" d="M120.49,96V93.94c-0.76-.09-1.51-0.09-2.27-0.19v2.36C119.07,96.11,119.73,96,120.49,96Z"/><path class="cls-1" d="M113.58,96.4V93.47c-0.76-.09-1.51-0.09-2.27-0.19v3.22A18.23,18.23,0,0,1,113.58,96.4Z"/><path class="cls-1" d="M120.49,102.07V99.24L118.22,99v3.12H117V98.86c-0.76-.09-1.51-0.09-2.27-0.19v3.41h-1.23v-3.5c-0.57,0-1.23-.09-1.8-0.09h-0.38v3.59h-1.23V98.48a88.22,88.22,0,0,0-15.89,2.18,7.22,7.22,0,0,0,.47-2.55,6.35,6.35,0,0,0-.57-2.65c0.76,0.09,1.51.28,2.08,0.38,2.65,0.76,8,.76,13.91.57V93.09c-2.65-.19-4.82-0.38-6.34-0.57C97,91.76,89,90.44,83.41,90.25s-13.81.38-13.81,0.38v6.05S72,94.6,77.82,94.6h4.26A7.08,7.08,0,0,0,81.13,98a6.65,6.65,0,0,0,1.7,4.45,50.52,50.52,0,0,1-13.15-1.8c5.3,4.26,15.89,6,23.08,6s18.82-3.5,25.64-3.78a60.32,60.32,0,0,1,14.66,1.7V96.21c-2,3.5-6.24,3.41-11.54,2.93v2.74h-1v0.19ZM88,103.87a5.73,5.73,0,0,1-5.77-5.77,5.47,5.47,0,0,1,1.14-3.41l9.84,0.66a5.6,5.6,0,0,1,.66,2.74A5.94,5.94,0,0,1,88,103.87Z"/><path class="cls-1" d="M110.18,96.49v2h1.23v-2h-1.23Z"/><path class="cls-1" d="M113.58,96.4v2.18c0.38,0,.85.09,1.23,0.09V96.3A5.82,5.82,0,0,0,113.58,96.4Z"/><path class="cls-1" d="M117.18,96.21h-0.09v2.65c0.38,0,.85.09,1.23,0.09V96.11C117.93,96.11,117.55,96.21,117.18,96.21Z"/><path class="cls-1" d="M120.49,99.24c0.38,0,.85.09,1.23,0.09V95.93c-0.38,0-.85.09-1.23,0.09v3.22Z"/><path class="cls-1" d="M154.45,85.8a4.1,4.1,0,0,1-2-.57l-0.28.95a4.58,4.58,0,0,0,2.18.57c2,0,2.93-1.14,2.93-2.46s-0.76-1.89-2.18-2.46c-1.14-.47-1.7-0.85-1.7-1.61A1.38,1.38,0,0,1,155,79a4.4,4.4,0,0,1,1.61.38l0.28-.85a4.39,4.39,0,0,0-1.89-.38c-1.61,0-2.74.95-2.74,2.27s0.85,1.89,2.27,2.36c1.14,0.47,1.61.85,1.61,1.7C156.24,85.14,155.58,85.8,154.45,85.8Z"/><path class="cls-1" d="M163,83.16a2.58,2.58,0,0,0-2.55-2.84c-1.8,0-2.84,1.42-2.84,3.31a2.78,2.78,0,0,0,3,3,4.55,4.55,0,0,0,2-.38l-0.19-.76a3.68,3.68,0,0,1-1.7.28,1.93,1.93,0,0,1-2.08-2.08h4.26A3.34,3.34,0,0,0,163,83.16Zm-4.35-.28a1.84,1.84,0,0,1,1.7-1.8,1.59,1.59,0,0,1,1.51,1.8h-3.22Z"/><path class="cls-1" d="M163,85a1.75,1.75,0,0,0,1.89,1.7,2.46,2.46,0,0,0,1.89-.95h0l0.09,0.76h1a6.7,6.7,0,0,1-.09-1.42V82.78c0-1.23-.47-2.46-2.27-2.46a3.29,3.29,0,0,0-2,.57l0.28,0.76a3.19,3.19,0,0,1,1.61-.47,1.31,1.31,0,0,1,1.42,1.42v0.09C164.28,82.68,163,83.44,163,85Zm3.69-1.51v1a0.57,0.57,0,0,1-.09.38,1.6,1.6,0,0,1-1.51,1,1,1,0,0,1-1-1C164,83.63,165.42,83.44,166.65,83.44Z"/><path class="cls-1" d="M168.82,79v1.42h-0.95v0.85h0.95v3.31a2.06,2.06,0,0,0,.47,1.61,1.63,1.63,0,0,0,1.23.47,2,2,0,0,0,.95-0.19l-0.09-.85a5.33,5.33,0,0,1-.66.09c-0.66,0-.85-0.47-0.85-1.14V81.26H172v3.31a2.06,2.06,0,0,0,.47,1.61,1.63,1.63,0,0,0,1.23.47,2,2,0,0,0,.95-0.19l-0.09-.85a5.33,5.33,0,0,1-.66.09c-0.66,0-.85-0.47-0.85-1.14V81.26h1.61V80.41h-1.61v-1.7L172,79v1.42h-2.18v-1.7Z"/><rect class="cls-1" x="175.16" y="77.67" width="1.14" height="8.89"/><path class="cls-1" d="M181.78,86.28l-0.19-.76a3.68,3.68,0,0,1-1.7.28,1.93,1.93,0,0,1-2.08-2.08h4.26V83.25a2.58,2.58,0,0,0-2.55-2.84c-1.8,0-2.84,1.42-2.84,3.31a2.78,2.78,0,0,0,3,3A6.1,6.1,0,0,0,181.78,86.28Zm-2.27-5.2a1.59,1.59,0,0,1,1.51,1.8h-3.22A1.92,1.92,0,0,1,179.51,81.07Z"/><path class="cls-1" d="M186.32,85.8a4.1,4.1,0,0,1-2-.57l-0.28.95a4.58,4.58,0,0,0,2.18.57c2,0,2.93-1.14,2.93-2.46s-0.76-1.89-2.18-2.46c-1.14-.47-1.7-0.85-1.7-1.61A1.38,1.38,0,0,1,186.89,79a4.4,4.4,0,0,1,1.61.38l0.28-.85a4.39,4.39,0,0,0-1.89-.38c-1.61,0-2.74.95-2.74,2.27s0.85,1.89,2.27,2.36c1.14,0.47,1.61.85,1.61,1.7A1.53,1.53,0,0,1,186.32,85.8Z"/><path class="cls-1" d="M194.74,83.16a2.58,2.58,0,0,0-2.55-2.84c-1.8,0-2.84,1.42-2.84,3.31a2.78,2.78,0,0,0,3,3,4.55,4.55,0,0,0,2-.38l-0.19-.76a3.68,3.68,0,0,1-1.7.28,1.93,1.93,0,0,1-2.08-2.08h4.26A0.87,0.87,0,0,0,194.74,83.16Zm-4.26-.28a1.84,1.84,0,0,1,1.7-1.8,1.59,1.59,0,0,1,1.51,1.8h-3.22Z"/><path class="cls-1" d="M203.07,86.56L203,85.71a5.33,5.33,0,0,1-.66.09c-0.66,0-.85-0.47-0.85-1.14V81.36h1.61V80.51h-1.61V78.8l-1,.19v1.42h-0.95v0.09a4.65,4.65,0,0,0-1.42-.28,3.1,3.1,0,0,0-3.31,3.22,2.91,2.91,0,0,0,3,3.12,3.2,3.2,0,0,0,1.7-.38l-0.19-.85a4,4,0,0,1-1.32.28,2,2,0,0,1-2.08-2.27,2.11,2.11,0,0,1,2.18-2.27,2.51,2.51,0,0,1,1.32.28l0.09-.38v0.19h0.95v3.31a2.06,2.06,0,0,0,.47,1.61,1.63,1.63,0,0,0,1.23.47A3.15,3.15,0,0,0,203.07,86.56Z"/><rect class="cls-1" x="203.45" y="80.51" width="1.14" height="6.05"/><path class="cls-1" d="M204,78a0.66,0.66,0,1,0,0,1.32,0.56,0.56,0,0,0,.66-0.66A0.65,0.65,0,0,0,204,78Z"/><path class="cls-1" d="M208,86.66a2.93,2.93,0,0,0,3-3.22,2.83,2.83,0,0,0-2.93-3.12A3.18,3.18,0,0,0,208,86.66Zm0.09-5.49c1.32,0,1.8,1.32,1.8,2.36A2.1,2.1,0,0,1,208,85.9a2.16,2.16,0,0,1-1.89-2.36C206.19,82.4,206.76,81.17,208.08,81.17Z"/><path class="cls-1" d="M216.78,86.56V83c0-2.08-1.32-2.55-2.18-2.55a2.15,2.15,0,0,0-2,1.14h0l-0.09-1h-0.95c0,0.47.09,1,.09,1.61v4.45h1.14V82.87a0.71,0.71,0,0,1,.09-0.47,1.53,1.53,0,0,1,1.51-1.14c1,0,1.42.85,1.42,1.8v3.5h0.95Z"/><path class="cls-1" d="M143.57,96.21h1.7v2.55a4.61,4.61,0,0,1-1.42.19,3.11,3.11,0,0,1-3.31-3.41,3.18,3.18,0,0,1,3.41-3.41,4.75,4.75,0,0,1,1.89.38l0.28-.85a5.06,5.06,0,0,0-2.08-.38,4.22,4.22,0,0,0-4.54,4.35,4.46,4.46,0,0,0,1.14,3.12,4.53,4.53,0,0,0,3.12,1.14,7.16,7.16,0,0,0,2.55-.47V95.36h-2.74v0.85Z"/><path class="cls-1" d="M149.62,93.47c-1.8,0-2.84,1.42-2.84,3.31a2.78,2.78,0,0,0,3,3,4.55,4.55,0,0,0,2-.38l-0.19-.76a3.68,3.68,0,0,1-1.7.28,1.93,1.93,0,0,1-2.08-2.08h4.26V96.4A2.53,2.53,0,0,0,149.62,93.47Zm-1.8,2.65a1.84,1.84,0,0,1,1.7-1.8,1.59,1.59,0,0,1,1.51,1.8h-3.22Z"/><path class="cls-1" d="M155.2,93.47a3,3,0,0,0-3,3.22,2.88,2.88,0,0,0,2.93,3.12A3.18,3.18,0,0,0,155.2,93.47ZM155.11,99a2.16,2.16,0,0,1-1.89-2.36c0-1.14.57-2.36,1.89-2.36s1.8,1.32,1.8,2.36A2,2,0,0,1,155.11,99Z"/><path class="cls-1" d="M160.78,99c-0.66,0-.85-0.47-0.85-1.14V94.51h1.61V93.66h-1.61V92l-1,.28v1.42h-0.95v0.85h0.95v3.31a2.06,2.06,0,0,0,.47,1.61,1.63,1.63,0,0,0,1.23.47,2,2,0,0,0,.95-0.19l-0.09-.85A1.22,1.22,0,0,1,160.78,99Z"/><path class="cls-1" d="M164.28,93.47c-1.8,0-2.84,1.42-2.84,3.31a2.78,2.78,0,0,0,3,3,4.55,4.55,0,0,0,2-.38l-0.19-.76a3.68,3.68,0,0,1-1.7.28,1.93,1.93,0,0,1-2.08-2.08h4.26V96.4C166.74,95.26,166.27,93.47,164.28,93.47Zm-1.8,2.65a1.84,1.84,0,0,1,1.7-1.8,1.59,1.59,0,0,1,1.51,1.8h-3.22Z"/><path class="cls-1" d="M170.15,94.41a2.51,2.51,0,0,1,1.32.28l0.28-.85a3.06,3.06,0,0,0-1.51-.28,3.1,3.1,0,0,0-3.31,3.22,2.91,2.91,0,0,0,3,3.12,3.2,3.2,0,0,0,1.7-.38l-0.19-.85a4,4,0,0,1-1.32.28,2,2,0,0,1-2.08-2.27A2,2,0,0,1,170.15,94.41Z"/><path class="cls-1" d="M175.07,93.47a2.52,2.52,0,0,0-1.14.28,1.47,1.47,0,0,0-.76.76h0V90.72H172v8.89h1.14V96a1.2,1.2,0,0,1,.09-0.57,1.65,1.65,0,0,1,1.51-1.14c1,0,1.42.85,1.42,1.8v3.5h1.14V96A2.35,2.35,0,0,0,175.07,93.47Z"/><path class="cls-1" d="M181.22,93.47a2.15,2.15,0,0,0-2,1.14h0l-0.09-1h-0.95c0,0.47.09,1,.09,1.61v4.45h1.14V95.93a0.71,0.71,0,0,1,.09-0.47A1.53,1.53,0,0,1,181,94.32c1,0,1.42.85,1.42,1.8v3.5h1.14V96C183.3,94,182,93.47,181.22,93.47Z"/><rect class="cls-1" x="184.24" y="93.66" width="1.14" height="6.05"/><path class="cls-1" d="M184.81,91.29a0.66,0.66,0,1,0,0,1.32,0.56,0.56,0,0,0,.66-0.66A0.65,0.65,0,0,0,184.81,91.29Z"/><path class="cls-1" d="M189.07,99A2,2,0,0,1,187,96.68a2.11,2.11,0,0,1,2.18-2.27,2.51,2.51,0,0,1,1.32.28l0.28-.85a3.06,3.06,0,0,0-1.51-.28,3.1,3.1,0,0,0-3.31,3.22,2.91,2.91,0,0,0,3,3.12,3.2,3.2,0,0,0,1.7-.38l-0.19-.85A2.89,2.89,0,0,1,189.07,99Z"/><path class="cls-1" d="M195.31,96c0-1.23-.47-2.46-2.27-2.46a3.29,3.29,0,0,0-2,.57l0.28,0.76a3.19,3.19,0,0,1,1.61-.47,1.31,1.31,0,0,1,1.42,1.42v0.09c-2.36,0-3.69.76-3.69,2.27a1.75,1.75,0,0,0,1.89,1.7,2.46,2.46,0,0,0,1.89-.95h0l0.09,0.76h1a6.7,6.7,0,0,1-.09-1.42V96h-0.19Zm-1,1.7a0.57,0.57,0,0,1-.09.38,1.6,1.6,0,0,1-1.51,1,1,1,0,0,1-1-1c0-1.14,1.32-1.42,2.55-1.32v0.95h0.09Z"/><rect class="cls-1" x="196.26" y="90.82" width="1.14" height="8.89"/><path class="cls-1" d="M205.34,96.21H207v2.55a4.61,4.61,0,0,1-1.42.19,3.11,3.11,0,0,1-3.31-3.41,3.18,3.18,0,0,1,3.41-3.41,4.75,4.75,0,0,1,1.89.38l0.28-.85a5.06,5.06,0,0,0-2.08-.38,4.22,4.22,0,0,0-4.54,4.35,4.46,4.46,0,0,0,1.14,3.12,4.53,4.53,0,0,0,3.12,1.14,7.16,7.16,0,0,0,2.55-.47V95.36h-2.74v0.85Z"/><path class="cls-1" d="M211.87,93.56h-0.28a1.79,1.79,0,0,0-1.7,1.32h0V93.66h-0.95c0,0.57.09,1.14,0.09,1.89v4.16h1.14V96.49a0.71,0.71,0,0,1,.09-0.47,1.54,1.54,0,0,1,1.51-1.42h0.38v-1h-0.28Z"/><path class="cls-1" d="M214.61,93.47a3,3,0,0,0-3,3.22,2.88,2.88,0,0,0,2.93,3.12A3.18,3.18,0,0,0,214.61,93.47ZM214.51,99a2.16,2.16,0,0,1-1.89-2.36c0-1.14.57-2.36,1.89-2.36s1.8,1.32,1.8,2.36A2,2,0,0,1,214.51,99Z"/><path class="cls-1" d="M223.12,93.66H222v3.69a1.2,1.2,0,0,1-.09.57,1.68,1.68,0,0,1-1.42,1c-1,0-1.32-.76-1.32-1.89V93.66H218v3.59c0,2.18,1.14,2.65,2.08,2.65a2.33,2.33,0,0,0,2-1.14h0l0.09,0.95h0.95c0-.47-0.09-1-0.09-1.7V93.66h0.09Z"/><path class="cls-1" d="M227.28,93.47a2.64,2.64,0,0,0-2.18,1.14h0l-0.09-1h-0.95c0,0.57.09,1.23,0.09,2v6.62h1.14V98.86h0a2.2,2.2,0,0,0,1.89.95c1.42,0,2.74-1,2.74-3.31A2.93,2.93,0,0,0,227.28,93.47ZM226.91,99a1.91,1.91,0,0,1-1.7-1.32,4.1,4.1,0,0,1-.09-0.47v-1a0.85,0.85,0,0,1,.09-0.47,1.71,1.71,0,0,1,1.7-1.32c1.14,0,1.8,1,1.8,2.27C228.7,98,228,99,226.91,99Z"/><path class="cls-1" d="M181.88,59c-2.74-1.14-7.19-1.14-7.19-2.84a2,2,0,0,1,4,.38H187s1.89-7.38-8.14-7.38-12.68,6.05-12.68,8,0,4.45,3.5,5.58S177,64.14,177,66.13a2.11,2.11,0,0,1-2.27,2.08c-0.85,0-2.27-.28-2.27-2.55h-8.32s-1.14,7.85,9.08,7.85,12.68-6.72,12.68-9.27S184.62,60.07,181.88,59Z"/><path class="cls-1" d="M196.26,74.07c6.91,0,10.88-4.26,13.34-9.84h-8.7c-0.85,1.8-2,3-2.93,3.12-1.51,0-2.27-2.65-1.7-6.05s2.36-6.15,4-6.15c1.14,0,1.8,1.32,1.89,3.31h8.8c0-5.58-2.27-9.65-9.27-9.65s-12.86,5.86-14.38,12.86S189,74.07,196.26,74.07Z"/><polygon class="cls-1" points="213.85 49.86 209.22 73.03 226.62 73.03 227.85 66.98 218.68 66.98 219.15 64.61 227.66 64.61 228.89 58.56 220.28 58.56 220.85 55.91 230.03 55.91 231.26 49.86 213.85 49.86"/><path class="cls-1" d="M144.7,73l2.18-4.26a47.55,47.55,0,0,1,6.53.38V73h9.46V49.86H149.34L142.72,61.3a14.87,14.87,0,0,0-6.62,1.89s2.46-.38,5.77-0.57a57.84,57.84,0,0,1,8.14-.09,20.64,20.64,0,0,1,6.34,1c-5.68-.57-16.27-1.14-20.24,1.7,0,0,13.81-1.89,20.24.38-5.68-.57-16.27-1.14-20.24,1.7,0,0,13.72-1.89,20.15.28h0c-5.68-.57-16.27-1.14-20.15,1.7,0,0,.76-0.09,2-0.19l-2.18,3.78h8.8V73Zm8.7-11.73c-0.85-.09-1.7-0.09-2.65-0.19l2.65-5.2V61.3Z"/></svg>