<svg id="Layer_1" data-name="Layer 1" xmlns="http://www.w3.org/2000/svg" viewBox="0 0 300 135"><defs><style>.cls-1{fill:#010101;}</style></defs><title>Untitled-1</title><path class="cls-1" d="M150,24a43.5,43.5,0,1,0,43.5,43.5A43.56,43.56,0,0,0,150,24Zm0,85.6a42.1,42.1,0,1,1,42.1-42.1A42.15,42.15,0,0,1,150,109.6Z"/><polygon class="cls-1" points="120.36 78.95 119.98 77.87 113.18 80.41 112.67 79.08 111.78 79.46 113.11 83.08 114 82.7 113.56 81.43 120.36 78.95"/><polygon class="cls-1" points="119.22 75.32 115.59 76.21 115.21 74.69 118.84 73.86 118.58 72.78 110.57 74.62 110.83 75.7 114.32 74.94 114.64 76.4 111.21 77.17 111.46 78.31 119.47 76.47 119.22 75.32"/><polygon class="cls-1" points="118.2 69.22 117.25 69.28 117.5 71.25 114.7 71.51 114.51 69.73 113.56 69.79 113.75 71.63 111.21 71.89 111.02 69.98 110.06 70.04 110.38 73.16 118.58 72.27 118.2 69.22"/><path class="cls-1" d="M118.2,66.67l-2-.51,0.13-1.78,2.1-.25L118.46,63l-8.33,1.14-0.06,1.34,8.08,2.35Zm-3-.7-3.88-1h0l4-.45Z"/><path class="cls-1" d="M112.22,61.78a3.61,3.61,0,0,0,2.73-.83c1.4-1,1.59-.89,2.29-0.76,0.51,0.13.89,0.32,0.76,0.89s-0.45.57-1,.45l-0.64-.13-0.19,1.14,1,0.19a1.49,1.49,0,0,0,1.78-1.46c0.25-1.34-.38-2-1.65-2.23-1-.19-1.4-0.06-2.73.83s-1.65.89-2.16,0.76-0.83-.38-0.76-0.83a0.61,0.61,0,0,1,.83-0.51l0.64,0.13,0.19-1.08-0.76-.13a1.11,1.11,0,0,0-1.08.13,1.86,1.86,0,0,0-.7,1.21A1.74,1.74,0,0,0,112.22,61.78Z"/><path class="cls-1" d="M113.24,57.2a3.17,3.17,0,0,0,2.8-.51c1.46-.76,1.72-0.7,2.35-0.51a0.75,0.75,0,0,1,.64,1c-0.13.45-.51,0.51-1.08,0.32l-0.64-.19-0.38,1.08,1,0.32c1,0.32,1.59-.19,2-1.21,0.45-1.27-.13-2-1.34-2.42-1-.32-1.4-0.25-2.86.45s-1.72.64-2.23,0.51a0.7,0.7,0,0,1-.64-1,0.6,0.6,0,0,1,.89-0.38l0.64,0.19,0.32-1-0.76-.25a1.21,1.21,0,0,0-1.08,0,1.86,1.86,0,0,0-.83,1.14A1.71,1.71,0,0,0,113.24,57.2Z"/><path class="cls-1" d="M115,52.81l3.75,1.78a1.72,1.72,0,0,0,2.67-.83c0.7-1.4-.06-2.16-1.08-2.67l-3.75-1.78a1.71,1.71,0,0,0-2.67.89C113.18,51.54,113.94,52.3,115,52.81Zm-0.32-2.29c0.25-.45.7-0.57,1.4-0.19l3.88,1.84a0.92,0.92,0,0,1,.64,1.21,0.88,0.88,0,0,1-1.34.25l-3.88-1.84A1,1,0,0,1,114.64,50.52Z"/><path class="cls-1" d="M117.18,48.36l3.5,2.23c1.08,0.7,2,.7,2.73-0.51s0.38-1.78-.38-2.23l-0.76-.51-0.57.89,0.51,0.32c0.57,0.38.7,0.76,0.45,1.14s-0.51.45-1.34-.06l-3.37-2.16c-0.83-.51-1.14-0.89-0.83-1.34a0.68,0.68,0,0,1,1.08-.06l0.51,0.32,0.57-.89-0.7-.45a1.42,1.42,0,0,0-2.16.57C115.59,46.89,116.23,47.72,117.18,48.36Z"/><rect class="cls-1" x="120.99" y="41.43" width="1.14" height="8.2" transform="translate(11.24 113.95) rotate(-52.34)"/><path class="cls-1" d="M126,46.58l-1.27-1.72L126,43.59l1.78,1.14,0.76-.83-7.12-4.45-0.89,1,4.71,6.93Zm-4.2-5.72h0L125.2,43l-1,1.08Z"/><polygon class="cls-1" points="124.12 38.25 128.89 43.72 129.71 43.02 125.01 37.48 126.02 36.59 125.39 35.89 122.46 38.37 123.1 39.14 124.12 38.25"/><polygon class="cls-1" points="133.47 40.28 132.89 39.45 131.3 40.6 129.71 38.31 131.24 37.23 130.73 36.47 129.2 37.55 127.74 35.38 129.33 34.3 128.82 33.48 126.28 35.26 130.92 42 133.47 40.28"/><path class="cls-1" d="M135.05,39.39c1.59-.83,1.59-1.59.64-3.43l-1.14-2.16c-1.08-2.1-1.53-2.61-3.18-1.72l-1.65.83,3.82,7.25ZM131.62,33c0.83-.45,1.14-0.13,1.72,1l1.34,2.48c0.64,1.27.7,1.72,0,2.1l-0.51.25-2.93-5.6Z"/><path class="cls-1" d="M138.62,35.64c0.38,1.21,1,1.84,2.42,1.4a11.85,11.85,0,0,0,1.72-.7l-1.14-3.94-1.78.51,0.25,0.89,0.7-.19,0.7,2.29a2.75,2.75,0,0,1-.7.25,0.94,0.94,0,0,1-1.08-.83l-1.14-3.94c-0.25-.83-0.13-1.4.38-1.53a0.76,0.76,0,0,1,1,.7L140,30.93l1.08-.32-0.19-.7c-0.32-1-1-1.27-2.23-.89-1.4.45-1.65,1.14-1.27,2.61Z"/><polygon class="cls-1" points="146.31 35.83 146.18 34.94 144.21 35.26 143.77 32.52 145.61 32.2 145.42 31.25 143.64 31.57 143.19 29.02 145.1 28.71 144.98 27.75 141.92 28.26 143.26 36.34 146.31 35.83"/><polygon class="cls-1" points="147.46 35.77 147.14 28.77 147.2 28.77 148.85 35.7 150.51 35.64 150.13 27.43 149.05 27.5 149.36 34.3 149.3 34.3 147.65 27.56 146.12 27.63 146.5 35.83 147.46 35.77"/><polygon class="cls-1" points="154.13 34.94 152.16 34.81 152.42 32.01 154.2 32.14 154.32 31.19 152.48 31.06 152.67 28.52 154.58 28.64 154.64 27.69 151.59 27.5 150.95 35.7 154.07 35.89 154.13 34.94"/><path class="cls-1" d="M155.34,36.15l0.7-3.5,0.38,0.06c0.76,0.13.83,0.38,0.7,1.14L156.8,35.7a1.54,1.54,0,0,0,0,.76l1.08,0.19a4.94,4.94,0,0,1,.13-1l0.32-1.78a1,1,0,0,0-.76-1.4h0c1-.13,1.21-0.57,1.4-1.65,0.32-1.78.25-2.23-1.4-2.54l-1.72-.32L154.32,36Zm1.4-7.12,0.51,0.13c0.7,0.13.76,0.25,0.51,1.46s-0.38,1.34-1.27,1.21l-0.32-.06Z"/><path class="cls-1" d="M159,37l1-1.84,1.65,0.57-0.32,2.1,1.08,0.38,1.08-8.33-1.27-.45-4.32,7.19Zm3.43-6.23h0l-0.57,4-1.4-.51Z"/><polygon class="cls-1" points="165.39 39.58 165.77 38.75 164.06 37.93 167.24 31.38 166.22 30.87 162.66 38.25 165.39 39.58"/><path class="cls-1" d="M168.57,41.74c1.08,0.76,1.72.45,2.23-.25l0.51-.76-0.89-.64-0.32.45c-0.38.57-.76,0.64-1.14,0.38s-0.45-.51.13-1.34l2.35-3.31c0.57-.83.89-1.08,1.4-0.76s0.32,0.64.06,1.08l-0.32.64,0.89,0.64,0.51-.64a1.42,1.42,0,0,0-.45-2.16c-1.27-.89-2.16-0.32-2.8.64l-2.42,3.37C167.49,40,167.43,40.92,168.57,41.74Z"/><path class="cls-1" d="M171.5,44.16c1.14,1.08,2.1.57,2.86-.25l2.8-3.05c0.89-1,1-1.84-.06-2.8s-2.1-.57-2.86.25l-2.8,3.05C170.61,42.32,170.41,43.14,171.5,44.16Zm0.76-2L175.18,39c0.57-.57,1-0.7,1.4-0.32s0.32,0.83-.19,1.4l-2.93,3.18a0.92,0.92,0,0,1-1.34.25A0.89,0.89,0,0,1,172.26,42.19Z"/><polygon class="cls-1" points="173.91 46.51 179.32 42.06 179.32 42.06 174.8 47.53 175.82 48.8 182.18 43.59 181.48 42.76 176.2 47.15 176.2 47.09 180.59 41.74 179.64 40.53 173.28 45.75 173.91 46.51"/><polygon class="cls-1" points="182.75 46.26 176.65 50.08 177.22 51.09 183.39 47.21 184.09 48.36 184.91 47.85 182.88 44.54 182.05 45.05 182.75 46.26"/><path class="cls-1" d="M178.49,53.38l3.24-1.53,0.19,0.38c0.32,0.7.19,0.89-.51,1.21l-1.65.76a1.62,1.62,0,0,0-.64.45l0.45,1a6.36,6.36,0,0,1,.89-0.51l1.59-.76a1,1,0,0,0,.7-1.46h0c0.64,0.7,1.14.64,2.16,0.19,1.65-.76,2-1.08,1.27-2.61l-0.76-1.59L178,52.36Zm6.61-3.12,0.25,0.51c0.32,0.64.25,0.76-.89,1.27s-1.34.51-1.72-.32l-0.13-.25Z"/><path class="cls-1" d="M180,56.82l2.1-.25,0.51,1.72-1.91,1L181,60.31l7.38-4L188,55l-8.33.7Zm7.12-.83h0l-3.56,1.84-0.45-1.4Z"/><path class="cls-1" d="M187.08,59.3L183,60a1.74,1.74,0,0,0-1.72,2.23,1.43,1.43,0,0,0,1.78,1.4l0.89-.13-0.19-1.08-0.57.13c-0.7.13-1-.13-1.08-0.51s0.06-.7,1-0.83l3.94-.7c1-.19,1.4-0.13,1.53.45a0.73,0.73,0,0,1-.7.83l-0.57.13L187.52,63l0.83-.13a1.43,1.43,0,0,0,1.21-1.91A1.85,1.85,0,0,0,187.08,59.3Z"/><polygon class="cls-1" points="188.92 64.7 181.67 65.08 181.74 66.23 188.99 65.85 189.11 67.18 190.07 67.18 189.81 63.3 188.86 63.37 188.92 64.7"/><path class="cls-1" d="M188,68l-4.13-.25c-1.27-.06-2,0.32-2.16,1.78s0.89,2,2,2.1l4.13,0.25c1.27,0.06,2-.32,2.16-1.78A1.83,1.83,0,0,0,188,68Zm-0.13,2.67-4.32-.25c-0.7-.06-1.08-0.38-1-0.89a0.88,0.88,0,0,1,1.14-.7L188,69.09c0.83,0.06,1.14.32,1.14,0.89S188.67,70.74,187.84,70.68Z"/><path class="cls-1" d="M181.29,73l3.5,0.7-0.06.38c-0.13.76-.38,0.83-1.14,0.7l-1.84-.38a1.54,1.54,0,0,0-.76,0l-0.13,1.08a4.94,4.94,0,0,1,1,.13l1.78,0.32a1,1,0,0,0,1.4-.76h0c0.13,1,.51,1.21,1.65,1.4,1.78,0.32,2.23.25,2.54-1.34l0.32-1.72-8.08-1.59Zm4.39,1.21,0.06-.32,2.67,0.51-0.13.51c-0.13.7-.25,0.76-1.46,0.51S185.55,75.07,185.68,74.18Z"/><path class="cls-1" d="M186.76,77.74a3.36,3.36,0,0,0-2.8.45c-1.46.76-1.72,0.7-2.35,0.51a0.75,0.75,0,0,1-.64-1c0.13-.45.51-0.51,1.08-0.32l0.64,0.19,0.38-1.08-1-.32c-1-.32-1.59.19-2,1.21-0.45,1.27.13,2,1.34,2.42,1,0.32,1.4.25,2.86-.45s1.72-.64,2.23-0.45a0.7,0.7,0,0,1,.64,1,0.6,0.6,0,0,1-.89.38L185.68,80l-0.32,1,0.76,0.25a1.21,1.21,0,0,0,1.08,0,1.86,1.86,0,0,0,.83-1.14A1.71,1.71,0,0,0,186.76,77.74Z"/><path class="cls-1" d="M123.93,91.22c0.13-1.53.32-1.84,0.7-2.16s0.83-.45,1.14-0.06,0.19,0.64-.13,1l-0.51.45,0.7,0.83,0.57-.51a1.3,1.3,0,0,0,.57-1,1.75,1.75,0,0,0-.57-1.27,1.63,1.63,0,0,0-2.67-.13,3.54,3.54,0,0,0-1,2.67c-0.06,1.65-.25,1.84-0.76,2.29a0.75,0.75,0,0,1-1.21.06c-0.32-.32-0.19-0.7.25-1.08l0.51-.45L120.75,91l-0.76.64A1.47,1.47,0,0,0,120,94c0.89,1,1.78.89,2.73,0.06S123.8,92.81,123.93,91.22Z"/><path class="cls-1" d="M128.76,90.78l-6.74,5,0.83,0.76,1.65-1.34,1.34,1.14-1.08,1.84L125.58,99l4.13-7.31Zm-2.42,4.77-1.08-1,3.18-2.48h0Z"/><polygon class="cls-1" points="133.34 94.27 129.59 100 129.59 99.93 132.26 93.51 130.92 92.68 126.34 99.49 127.23 100.06 131.11 94.21 131.11 94.21 128.38 100.83 129.71 101.72 134.23 94.85 133.34 94.27"/><path class="cls-1" d="M138.17,100c1-2.23,1-2.8-.64-3.56l-1.65-.7-3.24,7.57,1.53,0.64c1.65,0.7,2.29.25,3.12-1.72Zm-2,1.78c-0.57,1.27-.89,1.65-1.65,1.34l-0.51-.19,2.48-5.79L137,97.33c0.89,0.38.83,0.83,0.38,1.91Z"/><rect class="cls-1" x="134.76" y="100.78" width="8.2" height="1.14" transform="translate(-0.82 201.58) rotate(-71.78)"/><polygon class="cls-1" points="142.75 102.8 143 101.84 141.16 101.4 141.8 98.92 143.7 99.42 143.96 98.47 140.97 97.71 138.93 105.66 141.92 106.42 142.18 105.53 140.27 105.02 140.97 102.35 142.75 102.8"/><path class="cls-1" d="M145.74,98.66c-1.46-.19-2,0.38-2.23,1.91l-0.57,4.13c-0.19,1.27.19,2.1,1.59,2.29,0.64,0.06,1.46.06,1.91,0.06L147,103l-1.84-.25-0.13,1,0.76,0.13-0.32,2.42h-0.76a1,1,0,0,1-.64-1.21l0.57-4.13c0.13-.89.45-1.34,1-1.21a0.74,0.74,0,0,1,.57,1l-0.06.45,1.14,0.13,0.13-.76C147.52,99.36,146.95,98.79,145.74,98.66Z"/><path class="cls-1" d="M149.62,98.92c-1.53,0-2,1-2,2.16l-0.06,4.13c0,1.27.45,2,1.91,2.1s2-1,2-2.1l0.06-4.13C151.53,99.74,151.08,99,149.62,98.92Zm0.7,6.42a0.83,0.83,0,1,1-1.59,0l0.06-4.32c0-.83.32-1.21,0.83-1.14s0.76,0.38.76,1.21Z"/><path class="cls-1" d="M157.7,104.13l-1.08.19,0.06,0.57c0.13,0.7-.13,1-0.51,1.08s-0.7-.06-0.83-1l-0.64-4c-0.13-1-.13-1.4.51-1.53a0.7,0.7,0,0,1,.76.76l0.06,0.57,1.08-.19L157,99.74a1.4,1.4,0,0,0-1.84-1.21c-1.53.25-1.72,1.27-1.59,2.42l0.64,4.13a1.72,1.72,0,0,0,2.23,1.72,1.37,1.37,0,0,0,1.4-1.78Z"/><polygon class="cls-1" points="159.28 97.64 160.24 101.02 158.78 101.46 157.82 98.03 156.68 98.34 158.9 106.23 160.05 105.98 159.03 102.35 160.49 101.97 161.51 105.53 162.59 105.21 160.37 97.33 159.28 97.64"/><path class="cls-1" d="M161.89,96.69l1.59,8.27,1-.45-0.51-2.1,1.65-.7,1.14,1.78,1-.45L163,96.18Zm2,4.77L163,97.52h0l2.23,3.37Z"/><path class="cls-1" d="M179.06,90.33a1.09,1.09,0,0,0-1.65-.06h0c0.38-.89.13-1.34-0.7-2-1.34-1.21-1.78-1.34-2.93-.06l-1.14,1.27-2.23,2h0l-3,2.29,0.45,0.57c-0.51-.38-1-0.25-1.78.25l-1.59,1,4.2,7.06,1-.57L167.81,99l0.64-.38c1.34-.76,1.4-1.27.38-2.93a4.25,4.25,0,0,0-.83-1.08l1.08-.83,4.39,5.79,0.89-.7L170,93.07l1.08-.83,4.9,5.28,2.29-2.1-0.64-.7-1.46,1.34-1.91-2,1.34-1.27-0.64-.7-1.34,1.27-1.78-1.91,1.4-1.34,5.47,4.77,0.76-.89-2.67-2.35,0.25-.32c0.51-.57.76-0.51,1.34,0l1.4,1.21a2.38,2.38,0,0,0,.64.38l0.7-.83a4.67,4.67,0,0,1-.83-0.64Zm-11.19,7.5-0.51.32L166,95.8l0.51-.32c0.64-.38.83-0.32,1.46,0.76S168.57,97.39,167.87,97.84Zm8.52-7-0.19.25-2-1.78,0.32-.51c0.45-.51.57-0.51,1.53,0.32S177,90.14,176.39,90.84Z"/><circle class="cls-1" cx="181.16" cy="85.31" r="1.02"/><circle class="cls-1" cx="118.84" cy="85.31" r="1.02"/><polygon class="cls-1" points="141.8 76.4 149.94 79.33 158.2 76.34 150 48.23 141.8 76.4"/><path class="cls-1" d="M150,38.05A29.45,29.45,0,1,0,179.45,67.5,29.5,29.5,0,0,0,150,38.05ZM126.72,67.25H123l4.71-11.89h3.88l4.71,11.89h-3.75l-0.7-2h-4.39Zm33,24.48a4.28,4.28,0,0,0,1.72-3.5c-0.13-.89-0.45-2.23-0.57-2.8l-1.14-3.88-9.79,3.5-9.67-3.5-1.08,3.82c-0.13.57-.45,1.91-0.57,2.8a4.36,4.36,0,0,0,1.72,3.5,26.52,26.52,0,0,1-11.26-8.84,3.14,3.14,0,0,0,4.2-2.1c0.83-2.29,1.53-4.32,1.84-5.41L144,45.05c0.51-2.23-1.27-2.61-1.27-2.61a45.78,45.78,0,0,1,7.38-.76,44.72,44.72,0,0,1,7.38.76s-1.84.45-1.21,2.86c0,0.06.06,0.13,0.06,0.19l8.65,29.89c0.32,1.08,1,3.18,1.84,5.41a3.09,3.09,0,0,0,4.2,2.1A25.92,25.92,0,0,1,159.73,91.73ZM174,59.36h-0.38a3.91,3.91,0,0,0-2.73-1c-1.91,0-3.5,1.21-3.5,2.73s1.59,2.73,3.5,2.73a4,4,0,0,0,2.73-1H174v2.73A6.9,6.9,0,0,1,169.78,67c-3.56,0-6.49-2.67-6.49-5.91s2.93-5.91,6.49-5.91A6.9,6.9,0,0,1,174,56.63v2.73H174Z"/><polygon class="cls-1" points="128.06 63.17 131.3 63.17 129.71 58.34 128.06 63.17"/></svg>