<svg id="Layer_1" data-name="Layer 1" xmlns="http://www.w3.org/2000/svg" viewBox="0 0 300 135"><defs><style>.cls-1{fill:#010101;}</style></defs><title>Untitled-1</title><path class="cls-1" d="M100.56,86.65v0.51h-1.4v3.6H98.58v-3.6h-1.4V86.65h3.38Z"/><path class="cls-1" d="M101.22,86.65h0.51v1.54L102,87.9a1.38,1.38,0,0,1,.59-0.15,0.89,0.89,0,0,1,.88.44,1.47,1.47,0,0,1,.15.66v1.91h-0.51V88.86a1.09,1.09,0,0,0-.07-0.51,0.57,0.57,0,0,0-.51-0.22,1,1,0,0,0-.59.22,1.18,1.18,0,0,0-.22.81v1.62h-0.51V86.65Z"/><path class="cls-1" d="M106.37,87.83a0.75,0.75,0,0,1,.44.37,3.58,3.58,0,0,1,.22.51c0,0.15.07,0.37,0.07,0.66H104.9a1.24,1.24,0,0,0,.22.74,0.67,0.67,0,0,0,.59.29,0.6,0.6,0,0,0,.59-0.29,1.61,1.61,0,0,0,.22-0.37H107a1.24,1.24,0,0,1-.15.37c-0.07.15-.15,0.22-0.22,0.37a1.48,1.48,0,0,1-.59.29c-0.15,0-.22.07-0.44,0.07a1.29,1.29,0,0,1-1-.44,1.81,1.81,0,0,1-.37-1.1,1.87,1.87,0,0,1,.37-1.18,1.33,1.33,0,0,1,1-.44A1.47,1.47,0,0,1,106.37,87.83ZM106.59,89a1.06,1.06,0,0,0-.15-0.51,0.77,0.77,0,0,0-.66-0.37,0.83,0.83,0,0,0-.59.22A0.9,0.9,0,0,0,105,89h1.62Z"/><path class="cls-1" d="M109.82,86.65h0.59v4.12h-0.59V86.65Z"/><path class="cls-1" d="M111.44,87.75h0.44v0.44a2,2,0,0,1,.44-0.37,1.36,1.36,0,0,1,.51-0.15,0.89,0.89,0,0,1,.88.44,1.47,1.47,0,0,1,.15.66v1.91h-0.51V88.78a0.93,0.93,0,0,0-.07-0.44,0.44,0.44,0,0,0-.51-0.29h-0.29a1.61,1.61,0,0,0-.37.22,0.56,0.56,0,0,0-.15.29,2.6,2.6,0,0,0-.07.44v1.54h-0.51V87.75h0.07Z"/><path class="cls-1" d="M114.9,86.94h0.51v0.81h0.44v0.44h-0.44v2a0.27,0.27,0,0,0,.07.22h0.37v0.37h-0.37a0.62,0.62,0,0,1-.44-0.15,1,1,0,0,1-.15-0.44v-2h-0.44V87.75h0.44V86.94Z"/><path class="cls-1" d="M118.35,87.83a0.75,0.75,0,0,1,.44.37,3.58,3.58,0,0,1,.22.51c0,0.15.07,0.37,0.07,0.66h-2.21a1.24,1.24,0,0,0,.22.74,0.67,0.67,0,0,0,.59.29,0.6,0.6,0,0,0,.59-0.29,1.61,1.61,0,0,0,.22-0.37H119a1.24,1.24,0,0,1-.15.37c-0.07.15-.15,0.22-0.22,0.37a1.48,1.48,0,0,1-.59.29c-0.15,0-.22.07-0.44,0.07a1.29,1.29,0,0,1-1-.44,1.81,1.81,0,0,1-.37-1.1,1.87,1.87,0,0,1,.37-1.18,1.33,1.33,0,0,1,1-.44A1.47,1.47,0,0,1,118.35,87.83ZM118.57,89a1.06,1.06,0,0,0-.15-0.51,0.77,0.77,0,0,0-.66-0.37,0.83,0.83,0,0,0-.59.22A0.9,0.9,0,0,0,117,89h1.62Z"/><path class="cls-1" d="M119.9,87.75h0.44v0.51c0.07-.07.15-0.22,0.29-0.37a0.67,0.67,0,0,1,.51-0.22h0.22v0.51h-0.15a0.76,0.76,0,0,0-.81.81v1.69H119.9V87.75h0Z"/><path class="cls-1" d="M122,87.75h0.44v0.44a2,2,0,0,1,.44-0.37,1.36,1.36,0,0,1,.51-0.15,0.89,0.89,0,0,1,.88.44,1.47,1.47,0,0,1,.15.66v1.91h-0.51V88.78a0.93,0.93,0,0,0-.07-0.44,0.44,0.44,0,0,0-.51-0.29H123a1.61,1.61,0,0,0-.37.22,0.56,0.56,0,0,0-.15.29,2.6,2.6,0,0,0-.07.44v1.54h-0.51V87.75H122Z"/><path class="cls-1" d="M126.88,88.93a0.18,0.18,0,0,0,.22-0.15V88.56a0.56,0.56,0,0,0-.15-0.37,1.06,1.06,0,0,0-.51-0.15,0.72,0.72,0,0,0-.59.22,1.89,1.89,0,0,0-.15.37h-0.44a0.73,0.73,0,0,1,.37-0.74,1.48,1.48,0,0,1,.81-0.22,1.57,1.57,0,0,1,.88.22,0.72,0.72,0,0,1,.29.66V90.4a0.26,0.26,0,0,0,.15.07h0.15v0.37c-0.07,0-.15,0-0.15.07h-0.15a0.4,0.4,0,0,1-.37-0.22,0.35,0.35,0,0,1-.07-0.29,1.16,1.16,0,0,1-.44.37,1,1,0,0,1-.66.15,0.9,0.9,0,0,1-.66-0.22,0.93,0.93,0,0,1-.29-0.66,0.72,0.72,0,0,1,.29-0.66,1.39,1.39,0,0,1,.66-0.29Zm-1,1.4a0.56,0.56,0,0,0,.37.15,1.36,1.36,0,0,0,.51-0.15,0.71,0.71,0,0,0,.44-0.66V89.3a0.27,0.27,0,0,1-.22.07c-0.07,0-.22.07-0.29,0.07l-0.29.07a1,1,0,0,0-.44.15,0.44,0.44,0,0,0-.22.44A0.4,0.4,0,0,0,125.85,90.33Z"/><path class="cls-1" d="M128.72,86.94h0.51v0.81h0.44v0.44h-0.44v2a0.27,0.27,0,0,0,.07.22h0.37v0.37h-0.37a0.62,0.62,0,0,1-.44-0.15,1,1,0,0,1-.15-0.44v-2h-0.44V87.75h0.44V86.94Z"/><path class="cls-1" d="M130.41,86.65h0.51v0.59h-0.51V86.65Zm0,1.1h0.51v2.94h-0.51V87.75Z"/><path class="cls-1" d="M134,88a1.35,1.35,0,0,1,.37,1.1,1.87,1.87,0,0,1-.37,1.18,1.29,1.29,0,0,1-1.1.44,1.09,1.09,0,0,1-1-.44,1.81,1.81,0,0,1-.37-1.1A1.87,1.87,0,0,1,132,88a1.23,1.23,0,0,1,1-.44A1.91,1.91,0,0,1,134,88Zm-0.29,2a1.89,1.89,0,0,0,0-1.47,0.74,0.74,0,0,0-.74-0.44,0.77,0.77,0,0,0-.66.37,1.57,1.57,0,0,0-.22.88,1.48,1.48,0,0,0,.22.81,0.72,0.72,0,0,0,.66.29A0.86,0.86,0,0,0,133.72,90Z"/><path class="cls-1" d="M135.19,87.75h0.44v0.44a2,2,0,0,1,.44-0.37,1.36,1.36,0,0,1,.51-0.15,0.89,0.89,0,0,1,.88.44,1.47,1.47,0,0,1,.15.66v1.91H137.1V88.78a0.93,0.93,0,0,0-.07-0.44,0.44,0.44,0,0,0-.51-0.29h-0.29a1.61,1.61,0,0,0-.37.22,0.56,0.56,0,0,0-.15.29,2.6,2.6,0,0,0-.07.44v1.54h-0.51V87.75h0.07Z"/><path class="cls-1" d="M140.19,88.93a0.18,0.18,0,0,0,.22-0.15V88.56a0.56,0.56,0,0,0-.15-0.37,1.06,1.06,0,0,0-.51-0.15,0.72,0.72,0,0,0-.59.22,1.89,1.89,0,0,0-.15.37h-0.44a0.73,0.73,0,0,1,.37-0.74,1.48,1.48,0,0,1,.81-0.22,1.57,1.57,0,0,1,.88.22,0.72,0.72,0,0,1,.29.66V90.4c0,0.07.07,0.07,0.15,0.07h0.15v0.37c-0.07,0-.15,0-0.15.07h-0.15a0.4,0.4,0,0,1-.37-0.22,0.35,0.35,0,0,1-.07-0.29,1.16,1.16,0,0,1-.44.37,1,1,0,0,1-.66.15,0.9,0.9,0,0,1-.66-0.22,0.93,0.93,0,0,1-.29-0.66,0.72,0.72,0,0,1,.29-0.66,1.39,1.39,0,0,1,.66-0.29Zm-1.1,1.4a0.56,0.56,0,0,0,.37.15,1.36,1.36,0,0,0,.51-0.15,0.71,0.71,0,0,0,.44-0.66V89.3a0.27,0.27,0,0,1-.22.07c-0.07,0-.22.07-0.29,0.07l-0.29.07a1,1,0,0,0-.44.15,0.44,0.44,0,0,0-.22.44A0.91,0.91,0,0,1,139.08,90.33Z"/><path class="cls-1" d="M142,86.65h0.51v4.12H142V86.65Z"/><path class="cls-1" d="M146.07,86.65h0.66l1.47,4.12h-0.59l-0.44-1.25h-1.62l-0.44,1.25h-0.59Zm0.88,2.43-0.66-1.84-0.66,1.84h1.32Z"/><path class="cls-1" d="M149.08,89.81a0.56,0.56,0,0,0,.15.37,0.9,0.9,0,0,0,.66.22,1.06,1.06,0,0,0,.51-0.15,0.4,0.4,0,0,0,.22-0.37,0.38,0.38,0,0,0-.15-0.29,1.48,1.48,0,0,0-.44-0.15l-0.44-.07a2.49,2.49,0,0,1-.59-0.22,0.6,0.6,0,0,1-.29-0.59A0.72,0.72,0,0,1,149,87.9a1.54,1.54,0,0,1,.81-0.29,1.16,1.16,0,0,1,1,.37,0.79,0.79,0,0,1,.22.51h-0.44a0.38,0.38,0,0,0-.15-0.29,0.72,0.72,0,0,0-.59-0.22,0.68,0.68,0,0,0-.44.07,0.38,0.38,0,0,0-.15.29,0.31,0.31,0,0,0,.22.29,1.89,1.89,0,0,0,.37.15l0.37,0.07a3,3,0,0,1,.74.22,0.6,0.6,0,0,1,.29.59,0.72,0.72,0,0,1-.29.66,1.7,1.7,0,0,1-1.91,0,0.94,0.94,0,0,1-.29-0.74h0.37v0.22Z"/><path class="cls-1" d="M152.1,89.81a0.56,0.56,0,0,0,.15.37,0.9,0.9,0,0,0,.66.22,1.06,1.06,0,0,0,.51-0.15,0.4,0.4,0,0,0,.22-0.37,0.38,0.38,0,0,0-.15-0.29,1.48,1.48,0,0,0-.44-0.15l-0.44-.07a2.49,2.49,0,0,1-.59-0.22,0.6,0.6,0,0,1-.29-0.59A0.72,0.72,0,0,1,152,87.9a1.54,1.54,0,0,1,.81-0.29,1.16,1.16,0,0,1,1,.37,0.79,0.79,0,0,1,.22.51h-0.44a0.38,0.38,0,0,0-.15-0.29,0.72,0.72,0,0,0-.59-0.22,0.68,0.68,0,0,0-.44.07,0.38,0.38,0,0,0-.15.29,0.31,0.31,0,0,0,.22.29,1.89,1.89,0,0,0,.37.15l0.37,0.07a3,3,0,0,1,.74.22,0.6,0.6,0,0,1,.29.59,0.72,0.72,0,0,1-.29.66,1.7,1.7,0,0,1-1.91,0,0.94,0.94,0,0,1-.29-0.74h0.37v0.22Z"/><path class="cls-1" d="M157,88a1.35,1.35,0,0,1,.37,1.1,1.87,1.87,0,0,1-.37,1.18,1.29,1.29,0,0,1-1.1.44,1.09,1.09,0,0,1-1-.44,1.81,1.81,0,0,1-.37-1.1A1.87,1.87,0,0,1,155,88a1.23,1.23,0,0,1,1-.44A2.2,2.2,0,0,1,157,88Zm-0.29,2a1.89,1.89,0,0,0,0-1.47,0.74,0.74,0,0,0-.74-0.44,0.77,0.77,0,0,0-.66.37,1.57,1.57,0,0,0-.22.88,1.48,1.48,0,0,0,.22.81,0.72,0.72,0,0,0,.66.29A0.86,0.86,0,0,0,156.73,90Z"/><path class="cls-1" d="M160.18,87.9a1,1,0,0,1,.37.88H160a0.44,0.44,0,0,0-.22-0.44,1.06,1.06,0,0,0-.51-0.15,0.71,0.71,0,0,0-.66.44,2.17,2.17,0,0,0-.15.74,1.24,1.24,0,0,0,.22.74,0.6,0.6,0,0,0,.59.29,0.75,0.75,0,0,0,.74-0.74h0.51a1.68,1.68,0,0,1-.44.88,1.17,1.17,0,0,1-.88.29,1.19,1.19,0,0,1-1-.44,1.81,1.81,0,0,1-.37-1.1,2.1,2.1,0,0,1,.37-1.25,1.19,1.19,0,0,1,1-.44A2.44,2.44,0,0,1,160.18,87.9Z"/><path class="cls-1" d="M161.21,86.65h0.51v0.59h-0.51V86.65Zm0,1.1h0.51v2.94h-0.51V87.75Z"/><path class="cls-1" d="M164.3,88.93a0.18,0.18,0,0,0,.22-0.15V88.56a0.56,0.56,0,0,0-.15-0.37,1.06,1.06,0,0,0-.51-0.15,0.72,0.72,0,0,0-.59.22,1.89,1.89,0,0,0-.15.37h-0.44A0.73,0.73,0,0,1,163,87.9a1.48,1.48,0,0,1,.81-0.22,1.57,1.57,0,0,1,.88.22,0.72,0.72,0,0,1,.29.66V90.4a0.26,0.26,0,0,0,.15.07h0.15v0.37c-0.07,0-.15,0-0.15.07H165a0.4,0.4,0,0,1-.37-0.22,0.35,0.35,0,0,1-.07-0.29,1.16,1.16,0,0,1-.44.37,1,1,0,0,1-.66.15,0.9,0.9,0,0,1-.66-0.22,0.93,0.93,0,0,1-.29-0.66,0.72,0.72,0,0,1,.29-0.66,1.39,1.39,0,0,1,.66-0.29Zm-1.1,1.4a0.56,0.56,0,0,0,.37.15,1.36,1.36,0,0,0,.51-0.15,0.71,0.71,0,0,0,.44-0.66V89.3a0.27,0.27,0,0,1-.22.07c-0.07,0-.22.07-0.29,0.07l-0.29.07a1,1,0,0,0-.44.15,0.44,0.44,0,0,0-.22.44A0.91,0.91,0,0,1,163.2,90.33Z"/><path class="cls-1" d="M166.14,86.94h0.51v0.81h0.44v0.44h-0.44v2a0.27,0.27,0,0,0,.07.22h0.37v0.37h-0.37a0.62,0.62,0,0,1-.44-0.15,1,1,0,0,1-.15-0.44v-2H165.7V87.75h0.44V86.94Z"/><path class="cls-1" d="M167.75,86.65h0.51v0.59h-0.51V86.65Zm0,1.1h0.51v2.94h-0.51V87.75Z"/><path class="cls-1" d="M171.36,88a1.35,1.35,0,0,1,.37,1.1,1.87,1.87,0,0,1-.37,1.18,1.29,1.29,0,0,1-1.1.44,1.09,1.09,0,0,1-1-.44,1.81,1.81,0,0,1-.37-1.1A1.87,1.87,0,0,1,169.3,88a1.23,1.23,0,0,1,1-.44A1.91,1.91,0,0,1,171.36,88Zm-0.29,2a1.89,1.89,0,0,0,0-1.47,0.74,0.74,0,0,0-.74-0.44,0.77,0.77,0,0,0-.66.37,1.57,1.57,0,0,0-.22.88,1.48,1.48,0,0,0,.22.81,0.72,0.72,0,0,0,.66.29A0.77,0.77,0,0,0,171.06,90Z"/><path class="cls-1" d="M172.61,87.75H173v0.44a2,2,0,0,1,.44-0.37,1.36,1.36,0,0,1,.51-0.15,0.89,0.89,0,0,1,.88.44,1.47,1.47,0,0,1,.15.66v1.91h-0.51V88.78a0.93,0.93,0,0,0-.07-0.44,0.44,0.44,0,0,0-.51-0.29h-0.29a1.61,1.61,0,0,0-.37.22,0.56,0.56,0,0,0-.15.29A2.6,2.6,0,0,0,173,89v1.54h-0.44V87.75Z"/><path class="cls-1" d="M179.88,88a1.35,1.35,0,0,1,.37,1.1,1.87,1.87,0,0,1-.37,1.18,1.29,1.29,0,0,1-1.1.44,1.09,1.09,0,0,1-1-.44,1.81,1.81,0,0,1-.37-1.1,1.87,1.87,0,0,1,.37-1.18,1.23,1.23,0,0,1,1-.44A2.2,2.2,0,0,1,179.88,88Zm-0.37,2a1.89,1.89,0,0,0,0-1.47,0.74,0.74,0,0,0-.74-0.44,0.77,0.77,0,0,0-.66.37,1.57,1.57,0,0,0-.22.88,1.48,1.48,0,0,0,.22.81,0.72,0.72,0,0,0,.66.29A0.7,0.7,0,0,0,179.52,90Z"/><path class="cls-1" d="M181.28,86.87a0.9,0.9,0,0,1,.66-0.22h0.22v0.44h-0.22a0.38,0.38,0,0,0-.29.15,4,4,0,0,0-.07.59h0.51v0.37h-0.51v2.57h-0.51V88.19h-0.44V87.83h0.44V87.39A4.9,4.9,0,0,1,181.28,86.87Z"/><path class="cls-1" d="M184.66,86.65h2.87v0.51h-2.28v1.25h2v0.51h-2v1.84h-0.59V86.65h0Z"/><path class="cls-1" d="M190.4,88a1.35,1.35,0,0,1,.37,1.1,1.87,1.87,0,0,1-.37,1.18,1.29,1.29,0,0,1-1.1.44,1.09,1.09,0,0,1-1-.44,1.81,1.81,0,0,1-.37-1.1,1.87,1.87,0,0,1,.37-1.18,1.23,1.23,0,0,1,1-.44A2.2,2.2,0,0,1,190.4,88Zm-0.29,2a1.89,1.89,0,0,0,0-1.47,0.74,0.74,0,0,0-.74-0.44,0.77,0.77,0,0,0-.66.37,1.57,1.57,0,0,0-.22.88,1.48,1.48,0,0,0,.22.81,0.72,0.72,0,0,0,.66.29A0.86,0.86,0,0,0,190.1,90Z"/><path class="cls-1" d="M192.09,87.75v2a0.55,0.55,0,0,0,.07.37,0.53,0.53,0,0,0,.51.29,0.59,0.59,0,0,0,.66-0.44,1.63,1.63,0,0,0,.07-0.66V87.83h0.51v3h-0.44V90.4a1,1,0,0,1-.22.29,1.19,1.19,0,0,1-.66.22,0.89,0.89,0,0,1-.88-0.44,1.39,1.39,0,0,1-.15-0.59V87.83h0.51V87.75Z"/><path class="cls-1" d="M195,87.75h0.44v0.44a2,2,0,0,1,.44-0.37,1.36,1.36,0,0,1,.51-0.15,0.89,0.89,0,0,1,.88.44,1.47,1.47,0,0,1,.15.66v1.91h-0.51V88.78a0.93,0.93,0,0,0-.07-0.44,0.44,0.44,0,0,0-.51-0.29H196a1.61,1.61,0,0,0-.37.22,0.56,0.56,0,0,0-.15.29,2.6,2.6,0,0,0-.07.44v1.54h-0.51V87.75H195Z"/><path class="cls-1" d="M200,87.83a1.11,1.11,0,0,1,.29.29V86.58h0.51v4.12h-0.44V90.25a0.72,0.72,0,0,1-.44.37,1.36,1.36,0,0,1-.51.15,1.15,1.15,0,0,1-.88-0.44,1.84,1.84,0,0,1,0-2.21,1.15,1.15,0,0,1,1-.51A3.58,3.58,0,0,0,200,87.83Zm-1.18,2.28a0.72,0.72,0,0,0,.66.29,0.67,0.67,0,0,0,.59-0.29,1.57,1.57,0,0,0,.22-0.88,1.18,1.18,0,0,0-.22-0.81,0.91,0.91,0,0,0-.59-0.29,0.67,0.67,0,0,0-.59.29,1.57,1.57,0,0,0-.22.88A1.45,1.45,0,0,0,198.78,90.11Z"/><path class="cls-1" d="M203.26,88.93a0.18,0.18,0,0,0,.22-0.15V88.56a0.56,0.56,0,0,0-.15-0.37,1.06,1.06,0,0,0-.51-0.15,0.72,0.72,0,0,0-.59.22,1.89,1.89,0,0,0-.15.37h-0.44A0.73,0.73,0,0,1,202,87.9a1.48,1.48,0,0,1,.81-0.22,1.57,1.57,0,0,1,.88.22,0.72,0.72,0,0,1,.29.66V90.4a0.26,0.26,0,0,0,.15.07h0.15v0.37c-0.07,0-.15,0-0.15.07H204a0.4,0.4,0,0,1-.37-0.22,0.35,0.35,0,0,1-.07-0.29,1.16,1.16,0,0,1-.44.37,1.76,1.76,0,0,1-.66.15,0.9,0.9,0,0,1-.66-0.22A0.93,0.93,0,0,1,201.5,90a0.72,0.72,0,0,1,.29-0.66,1.39,1.39,0,0,1,.66-0.29Zm-1.1,1.4a0.56,0.56,0,0,0,.37.15,1.36,1.36,0,0,0,.51-0.15,0.71,0.71,0,0,0,.44-0.66V89.3a0.27,0.27,0,0,1-.22.07c-0.07,0-.22.07-0.29,0.07l-0.29.07a1,1,0,0,0-.44.15,0.44,0.44,0,0,0-.22.44A0.91,0.91,0,0,1,202.16,90.33Z"/><path class="cls-1" d="M205.1,86.94h0.51v0.81h0.44v0.44h-0.44v2a0.27,0.27,0,0,0,.07.22h0.37v0.37h-0.37a0.62,0.62,0,0,1-.44-0.15,1,1,0,0,1-.15-0.44v-2h-0.44V87.75h0.44V86.94h0Z"/><path class="cls-1" d="M206.72,86.65h0.51v0.59h-0.51V86.65Zm0,1.1h0.51v2.94h-0.51V87.75Z"/><path class="cls-1" d="M210.32,88a1.35,1.35,0,0,1,.37,1.1,1.87,1.87,0,0,1-.37,1.18,1.29,1.29,0,0,1-1.1.44,1.09,1.09,0,0,1-1-.44,1.81,1.81,0,0,1-.37-1.1,1.87,1.87,0,0,1,.37-1.18,1.23,1.23,0,0,1,1-.44A1.91,1.91,0,0,1,210.32,88ZM210,90a1.89,1.89,0,0,0,0-1.47,0.74,0.74,0,0,0-.74-0.44,0.77,0.77,0,0,0-.66.37,1.57,1.57,0,0,0-.22.88,1.48,1.48,0,0,0,.22.81,0.72,0.72,0,0,0,.66.29A0.86,0.86,0,0,0,210,90Z"/><path class="cls-1" d="M211.57,87.75H212v0.44a2,2,0,0,1,.44-0.37,1.36,1.36,0,0,1,.51-0.15,0.89,0.89,0,0,1,.88.44,1.47,1.47,0,0,1,.15.66v1.91h-0.51V88.78a0.93,0.93,0,0,0-.07-0.44,0.44,0.44,0,0,0-.51-0.29H212.6a1.61,1.61,0,0,0-.37.22,0.56,0.56,0,0,0-.15.29A2.6,2.6,0,0,0,212,89v1.54h-0.44V87.75Z"/><path class="cls-1" d="M216.71,86.65h1.62a1.72,1.72,0,0,1,1.32.59,2.12,2.12,0,0,1,.44,1.4,3,3,0,0,1-.22,1.18,1.61,1.61,0,0,1-1.47,1h-1.69V86.65Zm1.54,3.6a0.8,0.8,0,0,0,.44-0.07,1,1,0,0,0,.51-0.44,1.4,1.4,0,0,0,.22-0.66c0-.15.07-0.29,0.07-0.44a1.86,1.86,0,0,0-.29-1.18,1.09,1.09,0,0,0-1-.44h-1v3.16h1v0.07Z"/><path class="cls-1" d="M221,87.75h0.44v0.51c0.07-.07.15-0.22,0.29-0.37a0.67,0.67,0,0,1,.51-0.22h0.22v0.51H222.3a0.76,0.76,0,0,0-.81.81v1.69H221V87.75h0Z"/><path class="cls-1" d="M223,86.65h0.51v0.59H223V86.65Zm0,1.1h0.51v2.94H223V87.75Z"/><path class="cls-1" d="M224.51,86.65H225v4.12h-0.51V86.65Z"/><path class="cls-1" d="M225.9,86.65h0.51v4.12H225.9V86.65Z"/><path class="cls-1" d="M227.37,86.65h0.51v0.59h-0.51V86.65Zm0,1.1h0.51v2.94h-0.51V87.75Z"/><path class="cls-1" d="M228.77,87.75h0.44v0.44a2,2,0,0,1,.44-0.37,1.36,1.36,0,0,1,.51-0.15,0.89,0.89,0,0,1,.88.44,1.47,1.47,0,0,1,.15.66v1.91h-0.51V88.78a0.93,0.93,0,0,0-.07-0.44,0.44,0.44,0,0,0-.51-0.29H229.8a1.61,1.61,0,0,0-.37.22,0.56,0.56,0,0,0-.15.29,2.6,2.6,0,0,0-.07.44v1.54H228.7V87.75h0.07Z"/><path class="cls-1" d="M233.77,87.9a1.11,1.11,0,0,1,.29.29V87.83h0.44v2.72a2.74,2.74,0,0,1-.15.88,1.13,1.13,0,0,1-1.18.59,1.48,1.48,0,0,1-.81-0.22,0.77,0.77,0,0,1-.37-0.66h0.51a0.38,0.38,0,0,0,.15.29,0.62,0.62,0,0,0,.51.15,0.68,0.68,0,0,0,.74-0.44,2.54,2.54,0,0,0,.07-0.88,0.89,0.89,0,0,1-.37.37,1.14,1.14,0,0,1-.59.15,1.53,1.53,0,0,1-.88-0.37,1.6,1.6,0,0,1-.37-1.18,1.87,1.87,0,0,1,.37-1.18,1,1,0,0,1,.88-0.44A1.38,1.38,0,0,1,233.77,87.9Zm0.07,0.51a0.91,0.91,0,0,0-.59-0.29,0.71,0.71,0,0,0-.74.51,1.83,1.83,0,0,0-.07.66,1,1,0,0,0,.22.74,0.74,0.74,0,0,0,.51.29,0.71,0.71,0,0,0,.74-0.51,1.76,1.76,0,0,0,.15-0.66A1.1,1.1,0,0,0,233.84,88.41Z"/><path class="cls-1" d="M119.9,50H106.66L95.49,84.08h13.16l1.91-5.88h9.34l1.91,5.88H135L123.87,50h-4Zm-6.84,20.8,2.21-6.84,2.21,6.84h-4.41Z"/><path class="cls-1" d="M228.62,71.58v1.1a3.69,3.69,0,0,1-3.68,3.68,3.64,3.64,0,0,1-3.68-3.68V61.51a3.69,3.69,0,0,1,3.68-3.68,3.64,3.64,0,0,1,3.68,3.68v1h12.87a15.44,15.44,0,0,0-15.22-13.31h-3.16a15.41,15.41,0,0,0-15.36,15.36v5.07A15.41,15.41,0,0,0,223.11,85h3.16a15.39,15.39,0,0,0,15.22-13.38H228.62Z"/><path class="cls-1" d="M204.29,69.08c-1.32-2.5-3.9-4-6.4-4.93a67.7,67.7,0,0,0-8.6-2.43c-2.43-.59-3.82-1.4-3.82-2.57,0-1.47,1.4-2.5,3.16-2.5s3.53,0.81,3.53,3h11.76s1.62-10.29-15.73-10.29c-15.29,0-14.56,10.51-14.48,10.51a11,11,0,0,0,.66,4.12,9.76,9.76,0,0,0,4.85,4.7,33.12,33.12,0,0,0,7.5,2.43c1.62,0.44,6,1,6,3.23,0,1.62-1.47,2.72-3.38,2.72s-3.75-.88-3.75-3.23H173s-1.69,11,16.69,11c16.25,0,15.44-11.17,15.44-11.17A9.72,9.72,0,0,0,204.29,69.08Z"/><path class="cls-1" d="M155.33,50H136.8V84.08h18.53a15.56,15.56,0,0,0,15.51-15.51V65.4A15.55,15.55,0,0,0,155.33,50Zm-3.68,31.32-1-2.21,2.21-.74Zm1.4-13.45v1.25c2.21,0.44,7.28,1.54,7.28,2.43s-5.51,1.4-7.28,1.54v1.4c1.47,0.44,3.9,1.25,3.9,1.69,0,0.88-2.5.88-5,1.91-0.51.22-2.5,1-2.5,1l1.1-1.32-0.29-2.57c-2.72-.51-7.13-1.32-7.13-1.76s5.07-.59,6.91-0.59V69.81c-2.87-.51-7.28-1.32-7.28-1.69s5.44-.59,7.28-0.59V64.6c-3-.51-7.72-1.32-7.72-1.76s5.81-.59,7.72-0.59V60.55h0.37V58.64h-0.88V54.45h-5.81V53h14v1.47h-4.19v4.19h-0.88v1.91H153v3.16c2.28,0.44,7.72,1.54,7.72,2.43S154.74,67.68,153.05,67.83Z"/><path class="cls-1" d="M134.16,93.41S71.45,109.66,77,75.7c6.1-37.57,64.4-38.15,64.4-38.15S90.49,40.34,81.45,74.23C72.92,106.5,134.16,93.41,134.16,93.41Z"/><path class="cls-1" d="M87.62,45.78S58.51,53.2,58.51,74.15,86,97.53,93.14,97.46c0,0-33.16-1.18-33.16-23.16C60.05,53.86,87.62,45.78,87.62,45.78Z"/></svg>