<svg id="Layer_1" data-name="Layer 1" xmlns="http://www.w3.org/2000/svg" viewBox="0 0 300 135"><defs><style>.cls-1{fill:#010101;}</style></defs><title>Untitled-1</title><path class="cls-1" d="M137.12,49.09H124.77V92.25h12.36c6.66,0,8.54-1.81,8.54-6.34V55.43C145.67,50.9,143.72,49.09,137.12,49.09Zm-0.52,34c0,2.07-.06,2.33-2.85,2.33V55.89c2.78,0,2.85.26,2.85,2.33V83.06Z"/><polygon class="cls-1" points="167.41 49.09 167.41 92.25 176.46 92.25 162.75 104.99 149.03 92.25 158.09 92.25 158.09 71.8 163.65 71.8 163.65 65.2 158.09 65.2 158.09 56.02 163.65 56.02 163.65 49.09 149.03 49.09 149.03 92.25 149.03 92.25 149.03 107 160.61 107 164.88 107 176.46 107 176.46 92.25 176.46 92.25 176.46 49.09 167.41 49.09"/><path class="cls-1" d="M109.76,93A2.5,2.5,0,0,1,110,91.6a3.15,3.15,0,0,1,.71-0.91,3.56,3.56,0,0,1,.91-0.58,4.87,4.87,0,0,1,2.2-.58,2.45,2.45,0,0,1,2.07,1.36l1.29,2.46-5.69,3-1.29-2.46A1.55,1.55,0,0,1,109.76,93Zm2,1.75,3.75-2-0.58-1.1a1.27,1.27,0,0,0-1.49-.71,4.11,4.11,0,0,0-1.16.39,3.06,3.06,0,0,0-1.16,1,1.33,1.33,0,0,0,.13,1.36Z"/><path class="cls-1" d="M107.3,83.71l1,3.3,1.29-.39-0.91-3,1.1-.32,0.91,3,1.62-.52-1-3.43,1.1-.32,1.42,4.66-6.21,1.94L106.2,84.1Z"/><path class="cls-1" d="M106.2,77l0.52,3.36,1.36-.19L107.62,77l1.1-.19L109.17,80l1.62-.26-0.52-3.56,1.16-.19,0.71,4.85-6.41.91L105,77h1.16Z"/><path class="cls-1" d="M108.66,70.38a2.41,2.41,0,0,1,.45,1.62v1.36l2.33,0.06v1.36L105,74.65,105,71.87a2.36,2.36,0,0,1,.52-1.55,1.71,1.71,0,0,1,1.55-.52A1.91,1.91,0,0,1,108.66,70.38Zm-2.33,1a1.82,1.82,0,0,0-.26.71v1.23h1.88V72.06a1.16,1.16,0,0,0-.19-0.71A1.11,1.11,0,0,0,106.33,71.35Z"/><path class="cls-1" d="M105.94,63.33l1.16-4.46,1.1,0.32-0.84,3.17,1.42,0.39L109.5,60l1.1,0.32-0.71,2.78,2.59,0.71-0.32,1.29Z"/><path class="cls-1" d="M115.71,54.07a2.89,2.89,0,0,1-.26,2.26,2.54,2.54,0,0,1-1.62,1.55,3.46,3.46,0,0,1-2.85-.26,3.66,3.66,0,0,1-2-2.07,2.89,2.89,0,0,1,.26-2.26,2.54,2.54,0,0,1,1.62-1.55,3.47,3.47,0,0,1,2.85.26A3.88,3.88,0,0,1,115.71,54.07Zm-1.29.32a2.58,2.58,0,0,0-1.29-1.16,3,3,0,0,0-1.75-.32,1.54,1.54,0,0,0-1.1.91,1.4,1.4,0,0,0,0,1.42,2.58,2.58,0,0,0,1.29,1.16,3,3,0,0,0,1.75.32,1.54,1.54,0,0,0,1.1-.91A1.4,1.4,0,0,0,114.41,54.4Z"/><path class="cls-1" d="M112.93,47.35l0.84-1.1,3.11,2.46a1.8,1.8,0,0,0,.84.45,1.08,1.08,0,0,0,1.1-.52,1,1,0,0,0,.19-1.16,2.05,2.05,0,0,0-.65-0.71l-3.11-2.46,0.84-1.1,3.11,2.46a4.55,4.55,0,0,1,1.1,1.23,2.34,2.34,0,0,1-.58,2.46,2.37,2.37,0,0,1-2.26,1.16A3.84,3.84,0,0,1,116,49.8Z"/><path class="cls-1" d="M119.07,40.16l1.1-.91L125,41.07l-2.91-3.43,1-.84,4.14,5-1,.84-5-1.81,3,3.49-1,.84Z"/><path class="cls-1" d="M129.75,33a2.5,2.5,0,0,1,1.36.19,3.15,3.15,0,0,1,.91.71,4.59,4.59,0,0,1,.65.91,4.87,4.87,0,0,1,.58,2.2,2.22,2.22,0,0,1-1.36,2.07l-2.46,1.36-3.11-5.69,2.46-1.36A2.34,2.34,0,0,1,129.75,33ZM128,35l2,3.69,1.1-.58a1.35,1.35,0,0,0,.71-1.49,4.11,4.11,0,0,0-.39-1.16,3.06,3.06,0,0,0-1-1.16,1.33,1.33,0,0,0-1.36.13Z"/><path class="cls-1" d="M135.9,30.26l1.49-.45,4.08,5.5-1.42.45-0.78-1.16-2.26.71v1.42l-1.36.39Zm1.16,3.88,1.55-.52-1.55-2.2v2.72Z"/><path class="cls-1" d="M146.44,28.06l0.13,1.16-1.94.26,0.71,5.31L144,35l-0.65-5.31-1.94.26-0.13-1.16Z"/><path class="cls-1" d="M150.39,34.47H149L148.9,28h1.36Z"/><path class="cls-1" d="M157.7,34.66a2.75,2.75,0,0,1-2.2.45,2.89,2.89,0,0,1-2-1,3.3,3.3,0,0,1-.58-2.78,3.71,3.71,0,0,1,1.36-2.52,2.75,2.75,0,0,1,2.2-.45,2.89,2.89,0,0,1,2,1,3.3,3.3,0,0,1,.58,2.78A3.71,3.71,0,0,1,157.7,34.66ZM157,33.56a2.69,2.69,0,0,0,.71-1.62,2.53,2.53,0,0,0-.26-1.75,1.49,1.49,0,0,0-1.16-.78,1.7,1.7,0,0,0-1.36.39,2.69,2.69,0,0,0-.71,1.62,2.53,2.53,0,0,0,.26,1.75,1.49,1.49,0,0,0,1.16.78A1.64,1.64,0,0,0,157,33.56Z"/><path class="cls-1" d="M163.65,30.07l1.29,0.52,0.78,5.11,1.62-4.21,1.16,0.45-2.33,6-1.29-.45-0.71-5.24-1.62,4.27-1.16-.45Z"/><path class="cls-1" d="M170.12,37.83a1,1,0,0,0-.13.71,1.72,1.72,0,0,0,.78,1,2.23,2.23,0,0,0,.71.32,0.8,0.8,0,0,0,.91-0.32,0.49,0.49,0,0,0,0-.58,4.72,4.72,0,0,0-.58-0.71l-0.52-.52a5.52,5.52,0,0,1-1-1.16,1.72,1.72,0,0,1,.19-1.55,1.87,1.87,0,0,1,1.29-.91,2.41,2.41,0,0,1,1.88.52A3.48,3.48,0,0,1,174.91,36a1.89,1.89,0,0,1-.19,1.75l-1.1-.71a0.88,0.88,0,0,0,0-1,2.47,2.47,0,0,0-.58-0.58,1.57,1.57,0,0,0-.84-0.26,0.68,0.68,0,0,0-.58.32,0.49,0.49,0,0,0,0,.58,3.42,3.42,0,0,0,.58.71L173,37.64a3.58,3.58,0,0,1,.71,1,1.45,1.45,0,0,1-.19,1.42,2,2,0,0,1-1.36.91,2.94,2.94,0,0,1-1.94-.52,3.57,3.57,0,0,1-1.42-1.55,2.1,2.1,0,0,1,.19-1.75Z"/><path class="cls-1" d="M176.53,45.15l-1-.91,4.4-4.79,1,0.91Z"/><path class="cls-1" d="M183.45,42.88l0.91,1.1-1.94,4.85L185.91,46l0.78,1-5,4.08-0.84-1,1.94-4.92-3.56,2.85-0.78-1Z"/><path class="cls-1" d="M185.13,52.85a1.09,1.09,0,0,0-.45.52,1.5,1.5,0,0,0,.19,1.23,2.79,2.79,0,0,0,.45.65,0.71,0.71,0,0,0,.91.13,0.75,0.75,0,0,0,.32-0.45,7.42,7.42,0,0,0-.13-0.91l-0.19-.71a5.86,5.86,0,0,1-.26-1.49,1.71,1.71,0,0,1,.91-1.23,1.88,1.88,0,0,1,1.55-.13,3.12,3.12,0,0,1,1.42,1.36,2.61,2.61,0,0,1,.32,1.81,1.91,1.91,0,0,1-1,1.42l-0.58-1.16a1,1,0,0,0,.52-0.84,1.24,1.24,0,0,0-.26-0.78,1.94,1.94,0,0,0-.58-0.65,0.59,0.59,0,0,0-.65,0,0.58,0.58,0,0,0-.32.52,4.5,4.5,0,0,0,.19.91l0.32,1.1a2.93,2.93,0,0,1,.13,1.23,1.51,1.51,0,0,1-.91,1.1,1.78,1.78,0,0,1-1.62.06A2.76,2.76,0,0,1,184,55.11a3.67,3.67,0,0,1-.45-2.07,2.09,2.09,0,0,1,1-1.42Z"/><path class="cls-1" d="M193.48,61.26l-1.1.39-0.58-1.81-5,1.68-0.45-1.29,5-1.68-0.65-1.88,1.1-.39Z"/><path class="cls-1" d="M187.91,66.37l-0.26-1.29L194,63.84l0.26,1.29Z"/><path class="cls-1" d="M195,73l-1.16.06-0.13-1.94-5.31.32-0.06-1.36,5.31-.32-0.13-1.94,1.16-.06Z"/><path class="cls-1" d="M195,76.27l-0.19,1.36-3.95-.52a2.36,2.36,0,0,0-1,0,1,1,0,0,0-.65,1,1,1,0,0,0,.39,1.1,2.55,2.55,0,0,0,1,.26L194.51,80l-0.26,1.49-3.95-.52a2.91,2.91,0,0,1-1.55-.52,3,3,0,0,1,.58-4.53,3.17,3.17,0,0,1,1.62-.13Z"/><path class="cls-1" d="M192,89.47l-1.1-.32,0.58-1.81-5-1.62,0.39-1.29,5,1.62,0.58-1.88,1.1,0.32Z"/><path class="cls-1" d="M187.46,96l1.62-3-1.23-.65-1.49,2.78-1-.52,1.49-2.78L185.39,91l-1.68,3.17-1-.58L185,89.27l5.69,3-2.26,4.21Z"/></svg>