<svg id="Layer_1" data-name="Layer 1" xmlns="http://www.w3.org/2000/svg" viewBox="0 0 300 135"><defs><style>.cls-1{fill:#010101;}</style></defs><title>Untitled-1</title><path class="cls-1" d="M157.49,61.14a11.71,11.71,0,0,0,2.2-.3v-3.9h-2.5v1.2h0.9v1.7c-0.2,0-.5.1-0.8,0.1-0.9,0-1.1-.4-1.1-2.8,0-1.5,0-2.8,1-2.8s1,0.6,1,1.3v0.1h1.4a2.16,2.16,0,0,0-2.4-2.5c-2.6,0-2.7,2-2.7,3.9C154.49,60,154.79,61.14,157.49,61.14Z"/><polygon class="cls-1" points="165.4 59.74 162.7 59.74 162.7 57.54 165.1 57.54 165.1 56.34 162.7 56.34 162.7 54.43 165.3 54.43 165.3 53.33 161.1 53.33 161.1 60.94 165.4 60.94 165.4 59.74"/><path class="cls-1" d="M168.81,61.14c2.6,0,2.6-2,2.6-4s0-4-2.6-4-2.6,2-2.6,4S166.2,61,168.81,61.14Zm0.1-6.81c0.9,0,1,.8,1,2.8s-0.2,2.8-1,2.8-1-.8-1-2.8S168,54.33,168.91,54.33Z"/><rect class="cls-1" x="172.41" y="57.54" width="2.6" height="1.1"/><rect class="cls-1" x="154.69" y="66.45" width="1.6" height="7.61"/><polygon class="cls-1" points="157.49 74.06 159 74.06 159 68.45 161.1 74.06 163.2 74.06 163.2 66.45 161.7 66.45 161.7 71.75 159.69 66.45 157.49 66.45 157.49 74.06"/><path class="cls-1" d="M166.8,73c-0.9,0-.9-0.6-0.9-1.3h-1.6c-0.1,1.3.3,2.5,2.3,2.5,1.2,0,2.7-.2,2.6-2.4,0-2.4-3.2-2.2-3.2-3.7a0.74,0.74,0,0,1,.8-0.8c0.6,0,.7.6,0.7,1.2h1.6c0.1-1.6-.6-2.3-2.2-2.3-1.9,0-2.5,1-2.5,2.2,0,2.2,3.2,2.3,3.2,3.7A0.77,0.77,0,0,1,166.8,73Z"/><polygon class="cls-1" points="173.11 74.06 173.11 67.65 174.91 67.65 174.91 66.35 169.71 66.35 169.71 67.65 171.51 67.65 171.51 74.06 173.11 74.06"/><rect class="cls-1" x="175.52" y="66.45" width="1.6" height="7.61"/><polygon class="cls-1" points="179.52 74.06 181.12 74.06 181.12 67.65 182.93 67.65 182.93 66.35 177.72 66.35 177.72 67.65 179.52 67.65 179.52 74.06"/><path class="cls-1" d="M186.13,74.16a2.31,2.31,0,0,0,2.6-2.4V66.35h-1.6v5.31a1,1,0,1,1-2,0V66.35h-1.6v5.41C183.53,73.26,184.33,74.16,186.13,74.16Z"/><polygon class="cls-1" points="191.13 74.06 192.74 74.06 192.74 67.65 194.54 67.65 194.54 66.35 189.33 66.35 189.33 67.65 191.13 67.65 191.13 74.06"/><polygon class="cls-1" points="199.55 72.86 196.84 72.86 196.84 70.65 199.25 70.65 199.25 69.45 196.84 69.45 196.84 67.65 199.45 67.65 199.45 66.45 195.24 66.45 195.24 74.06 199.55 74.06 199.55 72.86"/><path class="cls-1" d="M156.39,88.88a0.74,0.74,0,0,1,.8-0.8c0.6,0,.7.6,0.7,1.2h1.5c0.1-1.6-.6-2.3-2.2-2.3-1.9,0-2.5,1-2.5,2.2,0,2.2,3.2,2.3,3.2,3.7a0.77,0.77,0,0,1-.8.9c-0.9,0-.9-0.6-0.9-1.3h-1.6c-0.1,1.3.3,2.5,2.3,2.5,1.2,0,2.7-.2,2.7-2.4C159.6,90.18,156.39,90.38,156.39,88.88Z"/><path class="cls-1" d="M162.6,89.48c-2,0-2.2,1.2-2.2,2.7s0.3,2.8,2.2,2.8a2.35,2.35,0,0,0,1.6-.5,1.68,1.68,0,0,0,.6-1.4h-1.5c0,0.5-.1,1-0.6,1-0.7,0-.7-1-0.7-1.6h2.8C164.8,90.78,164.6,89.48,162.6,89.48Zm-0.6,2.1c0-.5,0-1.3.7-1.3s0.7,0.8.7,1.3H162Z"/><path class="cls-1" d="M170,91.28c0-1-.2-1.8-2.1-1.8a2,2,0,0,0-1.4.3,1.38,1.38,0,0,0-.6,1.3h1.5a0.64,0.64,0,0,1,.6-0.8c0.5,0,.6.3,0.6,0.8v0.4c-1.4,0-2.8,0-2.8,1.8a1.46,1.46,0,0,0,1.4,1.7,1.42,1.42,0,0,0,1.4-.8l0.1,0.7h1.4a3.41,3.41,0,0,1-.1-1v-2.6Zm-2.2,2.7a0.64,0.64,0,0,1-.6-0.8c0-.9.6-0.8,1.3-1C168.51,92.78,168.71,94,167.81,94Z"/><path class="cls-1" d="M172.71,88.08l-1.5.7v0.8h-0.6v0.9h0.6v3.4a1.29,1.29,0,0,0,1.5,1.2c0.4,0,.6-0.1.8-0.1v-0.9h-0.3c-0.5,0-.5-0.3-0.5-0.7v-2.9h0.8v-0.9h-0.8v-1.5Z"/><path class="cls-1" d="M175.72,88.08l-1.5.7v0.8h-0.6v0.9h0.6v3.4a1.29,1.29,0,0,0,1.5,1.2c0.4,0,.6-0.1.8-0.1v-0.9h-0.3c-0.5,0-.5-0.3-0.5-0.7v-2.9h0.8v-0.9h-0.8v-1.5Z"/><rect class="cls-1" x="177.22" y="87.28" width="1.5" height="7.61"/><path class="cls-1" d="M182.12,89.48c-2,0-2.2,1.2-2.2,2.7s0.3,2.8,2.2,2.8a2.55,2.55,0,0,0,1.6-.5,1.68,1.68,0,0,0,.6-1.4h-1.5c0,0.5-.1,1-0.6,1-0.7,0-.7-1-0.7-1.6h2.8C184.33,90.78,184.13,89.48,182.12,89.48Zm-0.7,2.1c0-.5,0-1.3.7-1.3s0.7,0.8.7,1.3h-1.4Z"/><path class="cls-1" d="M190.23,88.18c0.5,0,.7.4,0.7,1.4h1.6c0.1-1.6-.6-2.5-2.2-2.5-2.6,0-2.6,2-2.6,4s0,3.9,2.5,3.8c1.5,0,2.3-.7,2.3-2.7h-1.6c0,0.6,0,1.6-.7,1.6-0.9,0-1-.8-1-2.8S189.33,88.18,190.23,88.18Z"/><path class="cls-1" d="M196.24,89.48a1.7,1.7,0,0,0-.7.1,1.21,1.21,0,0,0-.5.5v-2.8h-1.5v7.61H195v-3.7a0.64,0.64,0,0,1,.6-0.8c0.5,0,.6.3,0.6,0.8V95h1.3V90.68A1.18,1.18,0,0,0,196.24,89.48Z"/><path class="cls-1" d="M203.05,91.28c0-1-.2-1.8-2.1-1.8a2,2,0,0,0-1.4.3,1.38,1.38,0,0,0-.6,1.3h1.5a0.64,0.64,0,0,1,.6-0.8c0.5,0,.6.3,0.6,0.8v0.4c-1.4,0-2.8,0-2.8,1.8a1.46,1.46,0,0,0,1.4,1.7,1.42,1.42,0,0,0,1.4-.8l0.1,0.7h1.4a3.41,3.41,0,0,1-.1-1v-2.6Zm-2.2,2.7a0.64,0.64,0,0,1-.6-0.8c0-.9.6-0.8,1.3-1C201.55,92.78,201.75,94,200.85,94Z"/><path class="cls-1" d="M207,89.48a1.36,1.36,0,0,0-1.3.7v-0.6h-1.4v7.61h1.5v-2.8a1.43,1.43,0,0,0,1.2.6c1.5,0,1.5-1.6,1.5-2.7S208.46,89.48,207,89.48Zm-0.5,4.61c-0.5,0-.6-0.6-0.6-1.9,0-1.1,0-1.8.6-1.8s0.6,0.7.6,1.8C207.06,93.48,207,94.08,206.45,94.08Z"/><path class="cls-1" d="M211.06,88.08l-1.5.7v0.8H209v0.9h0.6v3.4a1.29,1.29,0,0,0,1.5,1.2c0.4,0,.6-0.1.8-0.1v-0.9h-0.3c-0.5,0-.5-0.3-0.5-0.7v-2.9h0.8v-0.9h-0.8v-1.5Z"/><path class="cls-1" d="M214.46,89.48c-2,0-2.2,1.2-2.2,2.7s0.3,2.8,2.2,2.8a2.35,2.35,0,0,0,1.6-.5,1.68,1.68,0,0,0,.6-1.4h-1.5c0,0.5-.1,1-0.6,1-0.7,0-.7-1-0.7-1.6h2.8C216.67,90.78,216.47,89.48,214.46,89.48Zm-0.6,2.1c0-.5,0-1.3.7-1.3s0.7,0.8.7,1.3h-1.4Z"/><path class="cls-1" d="M219.27,90.28v-0.7h-1.4v5.31h1.5V92a1,1,0,0,1,1.3-1.2v-1.3A1.42,1.42,0,0,0,219.27,90.28Z"/><rect class="cls-1" x="154.59" y="79.77" width="44.76" height="3"/><path class="cls-1" d="M103.12,75.26a0.52,0.52,0,0,0-.4-0.2,0.62,0.62,0,0,1,.4-0.3c0.7-.1.7-0.1,0.6-0.8v-0.2c-0.1-.2-0.1-0.4-0.3-0.4a0.76,0.76,0,0,0-.4.2c-0.1,0-.1.1-0.2,0.1s-0.2.1-.3,0.1v-0.4c0-.1.1-0.1,0.1-0.2,0.3-.4.3-0.5-0.1-0.8v-0.1c0.1-.4.3-0.9,0.4-1.3a1.86,1.86,0,0,0-.2-0.7h-0.4c-0.3.2-.6,0.4-0.9,0,0-.1-0.2,0-0.3,0s0.1,0.2.1,0.3a4.34,4.34,0,0,0,.1.5,2.65,2.65,0,0,1-.5.6c-0.3.3-.4,0.4-0.2,0.8a2.65,2.65,0,0,0,.5.6,4.34,4.34,0,0,1,.1.5,0.6,0.6,0,0,1-.4-0.1,5.56,5.56,0,0,0-.6-0.8l-0.2-.2c-0.5.1-1.1,0.1-1.6,0.2a0.54,0.54,0,0,0-.5.4c-0.1,0,.1.2,0.3,0.3,0.7,0.5,1.2,1.3,1.9,1.7a3.12,3.12,0,0,1,.7.9,1.08,1.08,0,0,0,1.8.1,0.45,0.45,0,0,0,0-.5,2.72,2.72,0,0,0-1.7-.6h-0.4a0.53,0.53,0,0,1-.2-0.3,1.89,1.89,0,0,1,1.1-.1c0.6,0.3,1.1.7,1.7,1a0.76,0.76,0,0,1-.1.4,0.32,0.32,0,0,0,.3,0c0.2-.1.4-0.3,0.6-0.4l-0.6-.3h-0.2Z"/><path class="cls-1" d="M108.63,69.15c-0.5.1-1,.2-1.6,0.3,0.1,0,0,.1,0,0.2-0.2.7-.5,1.5-0.7,2.2a3.36,3.36,0,0,0,0,1,10.09,10.09,0,0,1,.5,2.5,2.07,2.07,0,0,0,.2.6,6.91,6.91,0,0,0,.4-1,1.86,1.86,0,0,0,.2-0.7c0.2-.5.2-1.1,0.4-1.6,0.4-.6.1-1-0.7-1a4.34,4.34,0,0,1-.5-0.1v-0.2h1a0.55,0.55,0,0,0,.6-0.4c0.1-.5.3-1,0.4-1.5A0.34,0.34,0,0,0,108.63,69.15Z"/><path class="cls-1" d="M99.72,71.45a0.77,0.77,0,0,0-.7-0.8,5,5,0,0,0,.2-1.2,0.85,0.85,0,0,0-.3-0.3,14.79,14.79,0,0,0-2.1-.1,0.62,0.62,0,0,0-.4.3,3.6,3.6,0,0,0,1,2.9,0.48,0.48,0,0,0,.4.1l1.4-.3C99.62,72,99.82,71.86,99.72,71.45Z"/><path class="cls-1" d="M131.16,67.65a2.56,2.56,0,0,0,1-.7,2.18,2.18,0,0,0,.5-0.8c0-.1,0-0.3-0.1-0.3h-0.3c-0.1,0-.2.1-0.3,0.1a1.1,1.1,0,0,0-1.1.7,1,1,0,0,1-.9.6c-0.1,0-.2.1-0.3,0.1-0.3.5-.7,1-1,1.5,0.9,0.6.9,0.6,1.5-.1l0.2-.2c0.2-.1.3-0.2,0.5-0.3v0.9c-0.4.1-.7,0.1-1,0.2-0.1.1-.4,0.3-0.3,0.4a4.36,4.36,0,0,0,.6.7,4,4,0,0,0,.4-0.3c0.1-.1.2-0.3,0.3-0.4l0.3-.3,0.3-.9A0.61,0.61,0,0,0,131.16,67.65Z"/><path class="cls-1" d="M127.65,69.05l0.6-1.5-0.1-.1a4.7,4.7,0,0,1-.9.6c-0.1,0-.1.1-0.1,0.2s-0.1.2-.2,0.3a4.9,4.9,0,0,1-1.3,1.2l-0.1.1c-0.3.2-.5,0.3-0.8,0.5a0.9,0.9,0,0,1-.5.1c-0.2.1-.4,0.7-0.2,0.8a2.36,2.36,0,0,0,1,.5,3.78,3.78,0,0,0,.5-0.8c0.1-.1,0-0.2.1-0.3A4.88,4.88,0,0,0,126,70a1.43,1.43,0,0,0,.2-0.4c0.2,0,.5-0.1.8-0.1a4,4,0,0,0-.3.4,0.55,0.55,0,0,0,0,.4,0.6,0.6,0,0,0,1-.3c0.3-.6.6-1.1,0.9-1.6a9.22,9.22,0,0,1,.5-0.8C128.26,67.85,128.36,68.85,127.65,69.05Z"/><path class="cls-1" d="M106,71.05c-0.3.1-.6,0.1-0.9,0.2a0.1,0.1,0,0,0-.1-0.1,1.33,1.33,0,0,0,.5-0.3,0.47,0.47,0,0,0,.1-0.8,1.42,1.42,0,0,0-.6-0.2,4.65,4.65,0,0,0-2,.1,1,1,0,0,1,.5,1.2v0.9a1.1,1.1,0,0,0,.4.9,4.88,4.88,0,0,0,.7-0.3A1.61,1.61,0,0,0,106,71.05Z"/><path class="cls-1" d="M135.87,67.55a0.37,0.37,0,0,1,.3.1,0.75,0.75,0,0,0-.5,1,0.57,0.57,0,0,0,.7.4c0.3,0,.7-0.1,1-0.1a2.56,2.56,0,0,0,.2.5c0.1,0.1.3,0.2,0.4,0.3,0.1-.1.3-0.3,0.2-0.4a3.13,3.13,0,0,0-.5-1c-0.3-.4-0.6-0.8-0.8-1.1v-0.3a0.37,0.37,0,0,1,.3.1,1.76,1.76,0,0,1,.4.5c0.1,0.1.3,0.2,0.4,0.3a2.25,2.25,0,0,0-.6-1.4c-0.5-.6-1.1,0-1.7-0.1h-0.2l-0.1.1A0.68,0.68,0,0,0,135.87,67.55Z"/><path class="cls-1" d="M124.75,69.85a3.78,3.78,0,0,0,1.6-1.7,5.64,5.64,0,0,0-1.3,0,12.22,12.22,0,0,0-1.7.7c-0.3.1-.7,0.3-0.5,0.7a3.6,3.6,0,0,0-.9.5,1.07,1.07,0,0,0-.2.6,0.47,0.47,0,0,0,.5.5c0.2,0,.5.1,0.7,0.1a0.76,0.76,0,0,0,.4-0.2c0.1-.3.2-0.6,0.3-1s0.2-.4.5-0.3A0.7,0.7,0,0,0,124.75,69.85Z"/><path class="cls-1" d="M119,66.25a1.7,1.7,0,0,1,.7.1,3.46,3.46,0,0,0,2,.1,0.7,0.7,0,0,0,.6-0.8,0.5,0.5,0,0,0-.6-0.5,2.77,2.77,0,0,0-.9-0.1,4.11,4.11,0,0,0-1.1.1c-0.3,0-.6.1-0.8,0.1h-0.7a1.05,1.05,0,0,0-.4.3,0.76,0.76,0,0,0,.2.4C118.34,66,118.64,66.15,119,66.25Z"/><path class="cls-1" d="M98,68.85h0.8c-0.4-.5-0.6-0.9-0.9-1.2a0.78,0.78,0,0,0-.4-0.3c-0.9-.1-1.8-0.3-2.7-0.4a1.65,1.65,0,0,0,0,.7,2.57,2.57,0,0,0,1.7,1.1C97,68.75,97.52,68.85,98,68.85Z"/><path class="cls-1" d="M114.54,69.85a0.76,0.76,0,0,0-.2-0.4c-0.2-.1-0.4-0.1-0.6-0.2s-0.5-.2-0.7-0.3c-0.6-.8-0.7-0.8-1.6-0.5a1.7,1.7,0,0,1-.7.1v-0.1c0.9-.7.9-0.7,0.2-1.2a0.1,0.1,0,0,1,.1-0.1c0.9,0.6,1.8,1.2,2.7,1.7,0.1-.1.1-0.2,0.2-0.3s0.1,0.1.2,0.1c0.4,0.4.8,0.7,1.2,1.1,0.1,0.1.1,0.2,0.2,0.3a3.18,3.18,0,0,0,.5.6,2.49,2.49,0,0,0,.8-0.1,3.56,3.56,0,0,0,.9-0.4,0.6,0.6,0,0,0,.4-0.1c0.2-.2.2-0.4,0.4-0.6a0.76,0.76,0,0,0-.4-0.2,6.89,6.89,0,0,0-1.3.2,0.49,0.49,0,0,1-.7-0.1,1.79,1.79,0,0,1,1.7-.4,1.69,1.69,0,0,0,.5-0.2c-0.1-.1-0.2-0.3-0.3-0.4-0.3-.1-0.6-0.1-1-0.2s-0.9-.1-1.3-0.2a1.61,1.61,0,0,0-1.5.1c-0.1,0-.2.1-0.3,0.1a4.35,4.35,0,0,0-.7-0.4c0.2-.1.5-0.1,0.7-0.2l-0.3-.6,0.1-.1,0.9,0.6a0.39,0.39,0,0,0,.6-0.1,0.21,0.21,0,0,1,.4,0,0.55,0.55,0,0,0,.7.3,0.53,0.53,0,0,1,.3.2,2.62,2.62,0,0,0,.8.3,1.05,1.05,0,0,0,.4-0.3c0.2-.2.3-0.2,0.5,0l0.3,0.3a0.52,0.52,0,0,0,.8.1,9.51,9.51,0,0,0,1.7-1c0.2-.1.3-0.3,0.5-0.4-0.5,0-.9-0.1-1.4-0.1a5.44,5.44,0,0,0-2.2,0,0.76,0.76,0,0,1-.4-0.2l-0.3-.6a0.44,0.44,0,0,0-.7-0.2,1.22,1.22,0,0,1-.6,0,3.36,3.36,0,0,0-1,0c-0.3,0-.6.1-0.9,0.1a0.71,0.71,0,0,0-.6.3l-0.3.6c-0.1.1-.3,0.2-0.4,0.3l-0.1-.1c0.2-.3.3-0.6,0.5-0.9a1.41,1.41,0,0,1,1.8-.6,3.27,3.27,0,0,0,1.7,0,0.53,0.53,0,0,0,.3-0.2,0.38,0.38,0,0,0-.2-0.2c-0.5-.2-1-0.7-1.6-0.3H115a1.16,1.16,0,0,0-1-.2,2.7,2.7,0,0,0-.9,0,4.24,4.24,0,0,1-2.5.2h-0.3a3.29,3.29,0,0,0-1.78,2.14,3.71,3.71,0,0,0-.43,0c-0.7,0-.8.1-0.8,0.9a1.7,1.7,0,0,0,.1.7,0.45,0.45,0,0,0,.3.3,5.86,5.86,0,0,0,1.3-.2c0.1,0.2.1,0.1,0.2,0a1.29,1.29,0,0,0,.4-1.2,0.34,0.34,0,0,0-.2-0.3,7.31,7.31,0,0,0,1.2-.3,13,13,0,0,0,1.7-.8h0.4c-0.1.1-.1,0.2-0.2,0.3s-0.2.1-.3,0.2a3.59,3.59,0,0,0-1.1.4c-0.2.1-.4,0.4-0.6,0.5a1,1,0,0,0-.4,1.1c0.2,0.3.1,0.4-.2,0.5a0.85,0.85,0,0,0-.6,1,2.47,2.47,0,0,0,.9.4l1.6,0.3h0.4a4.56,4.56,0,0,1,2-.5A0.45,0.45,0,0,0,114.54,69.85Zm2.2-3.2,0.1,0.1a2.09,2.09,0,0,0-.6.4l-0.1-.1A0.49,0.49,0,0,1,116.74,66.65Z"/><path class="cls-1" d="M133,66.75a3.17,3.17,0,0,0-.8,1.2,7.5,7.5,0,0,1-.5,1.6c0,0.1-.1.3-0.1,0.4a1.88,1.88,0,0,0,.8,1.1,4.88,4.88,0,0,0,.7-0.3A10.73,10.73,0,0,1,133,66.75Z"/><path class="cls-1" d="M124.85,65.75a5.66,5.66,0,0,1,1.3,0,1.14,1.14,0,0,0,1.2-.6,1.38,1.38,0,0,0,.3-0.4,1.47,1.47,0,0,0,.2-0.4c-0.3,0-.6.1-0.8,0.1s-0.5-.1-0.7-0.1h-0.5a0.34,0.34,0,0,0,.3.2,0.48,0.48,0,0,1-.4.1,0.75,0.75,0,0,0-.5.1,9.44,9.44,0,0,0-1,1c-0.1.1,0,.2-0.1,0.3a0.6,0.6,0,0,0,.4-0.1C124.65,65.95,124.75,65.75,124.85,65.75Z"/><path class="cls-1" d="M106.33,75.06a10.11,10.11,0,0,0-.3-1.7c-0.2-.6-0.3-0.6-0.8-0.4a0.1,0.1,0,0,0-.1.1,0.1,0.1,0,0,1,.1.1c-0.2.3-.3,0.7-0.5,1s-0.2.6,0.2,0.8,0.6,0.3.9,0.4S106.33,75.36,106.33,75.06Z"/><path class="cls-1" d="M137.37,69.85a1.38,1.38,0,0,0-.9-0.5h-0.3c-0.1,0-.3.1-0.4,0.1,0.1,0.1.1,0.3,0.2,0.4a4.36,4.36,0,0,0,.6.7,1.29,1.29,0,0,0,1.3.8,1.69,1.69,0,0,0,.6-0.3,2.09,2.09,0,0,0-.4-0.6A2,2,0,0,1,137.37,69.85Z"/><path class="cls-1" d="M99.62,70.85a1.06,1.06,0,0,0,.2.5,0.36,0.36,0,0,0,.6.2,1.53,1.53,0,0,0,.5-0.7,1.76,1.76,0,0,0-.4-0.5,1.38,1.38,0,0,0,.3-0.4,1.38,1.38,0,0,0-.4-0.3,0.34,0.34,0,0,0-.4-0.2c-0.4-.1-0.7.2-0.5,0.5A1.41,1.41,0,0,1,99.62,70.85Z"/><path class="cls-1" d="M108.43,73.76a6.12,6.12,0,0,0,.5,1.2h0.4a1.43,1.43,0,0,0,.6-1.2c0.1-.5-0.3-0.7-1-0.7C108.53,73.06,108.33,73.26,108.43,73.76Z"/><path class="cls-1" d="M126.75,70.45a0.9,0.9,0,0,0-.9.9,1.37,1.37,0,0,0,1.1.8c0.2,0.1.5-.5,0.5-1A0.75,0.75,0,0,0,126.75,70.45Z"/><path class="cls-1" d="M122.95,66.15a1.07,1.07,0,0,0,.6-0.2,1.28,1.28,0,0,0,.4-0.6c-0.2-.1-0.3-0.2-0.5-0.3a0.85,0.85,0,0,0-.8.7C122.55,65.95,122.65,66.15,122.95,66.15Z"/><path class="cls-1" d="M106.53,76.16a2.24,2.24,0,0,0-1.3-.6,4.87,4.87,0,0,0,.3.7,1,1,0,0,0,.5.4,1.69,1.69,0,0,0,.5-0.2C106.63,76.36,106.63,76.16,106.53,76.16Z"/><path class="cls-1" d="M86.9,66a1.39,1.39,0,0,0,1.3,1.2A1.31,1.31,0,0,0,86.9,66Z"/><path class="cls-1" d="M134.06,72.16c0,0.1-.1.1-0.1,0.2,0.1,0.4.3,0.8,0.4,1.1s0.2,0.3.5,0.2a0.32,0.32,0,0,0,.2-0.5C134.76,72.76,134.36,72.56,134.06,72.16Z"/><path class="cls-1" d="M121.25,69.85a3.18,3.18,0,0,0-.9.3v0.2l0.9,0.3a0.34,0.34,0,0,0,.3-0.2C121.55,70.15,121.55,69.85,121.25,69.85Z"/><path class="cls-1" d="M96.11,71.45c-0.2.5,0.4,0.9,0.2,1.4C96.92,72.56,96.72,71.86,96.11,71.45Z"/><path class="cls-1" d="M104.23,74.06a5.51,5.51,0,0,0,.7-0.9C104.23,73.06,104,73.26,104.23,74.06Z"/><path class="cls-1" d="M106.23,70.15a1.23,1.23,0,0,0,.2-0.5c-0.2,0-.4-0.1-0.6-0.1a0.2,0.2,0,0,1-.1.2C106,69.85,105.83,70.35,106.23,70.15Z"/><path class="cls-1" d="M135.36,72.86c0.1,0.2.1,0.3,0.2,0.5,0.1,0,.2-0.1.3-0.1a1.06,1.06,0,0,0-.2-0.5A0.49,0.49,0,0,0,135.36,72.86Z"/><path class="cls-1" d="M145,29.9l-1.3-.2a274.81,274.81,0,0,0-61.08,0l-1.3.2-0.2,1.3c-6,33.44,4.41,47.66,14.52,61.38l0.4,0.5C105.23,105.6,110.93,107,112.94,107h0.4c2,0,7.71-1.4,16.92-13.92l0.4-.5c10.11-13.72,20.53-27.94,14.52-61.38Zm-61.24,38c-0.06-.18-0.12-0.35-0.17-0.53a1.66,1.66,0,0,1,1.14,1.08,0.32,0.32,0,0,1,0,.3c-0.1,0-.3-0.1-0.4-0.1A4.77,4.77,0,0,1,83.74,67.9Zm0.88,2.55c-0.09-.25-0.19-0.5-0.28-0.76a1.44,1.44,0,0,0,1.07.16,3.34,3.34,0,0,0,.6-0.3,8.75,8.75,0,0,0,1,.8,2.79,2.79,0,0,0-1.8.1A0.71,0.71,0,0,0,84.61,70.45ZM98,76c-0.1.1-.4,0.3-0.3,0.4l0,0.07C97.37,76.23,97,76,96.62,75.8c0,0,0,0,0,0a0.77,0.77,0,0,1,.3.2,0.51,0.51,0,0,0,.7-0.2c0.2-.2,0-0.4-0.2-0.5s-0.3-.2-0.4-0.3a0.76,0.76,0,0,1-.2-0.4,0.75,0.75,0,0,1,.5.1,4.35,4.35,0,0,0,.7.6C98.42,75.66,98.42,75.66,98,76Zm0.39,0.8a0.7,0.7,0,0,0,.41-0.1l0.06,0a0.2,0.2,0,0,0-.06.13,0.59,0.59,0,0,0,.07.21Zm0.62-.2a0.51,0.51,0,0,1,.4,0H99Zm9.61,19-0.2-.8a5.71,5.71,0,0,0-1.3-.1l-0.3.9h-1.7l0.3-.8H105c0.7-.5,2.8-0.4,3.9-0.3a10.79,10.79,0,0,0-4-.1c0.7-.5,2.8-0.4,3.9-0.3a10.84,10.84,0,0,0-4-.1c0.7-.5,2.8-0.4,3.9-0.3a5.07,5.07,0,0,0-1.3-.2h-1.6a6.27,6.27,0,0,0-1.1.1,2.79,2.79,0,0,1,1.2-.4l0.9-2.3h2.8l0.9,4.71h-1.9Zm3.8,0.2a1.85,1.85,0,0,1-2.1-1.6h1.6a0.52,0.52,0,0,0,.5.5c0.2,0,.5-0.1.4-0.4s-0.9-.5-1.6-0.7a1.47,1.47,0,0,1-.9-1.2c-0.1-.4.2-1.6,2.2-1.6s1.9,1.5,1.9,1.5h-1.6a0.51,0.51,0,0,0-.5-0.4c-0.1,0-.4,0-0.3.3s0.9,0.4,1.5.6a1.79,1.79,0,0,1,1,1.1C114.64,94.38,114.44,95.79,112.44,95.79Zm-0.3-22.43a2.56,2.56,0,0,0,.5-0.2h0.2L113,73.25l-0.5.38C112.39,73.58,112.3,73.44,112.14,73.36Zm4.61,21.13a0.65,0.65,0,0,0,.5-0.6h1.7a2.12,2.12,0,0,1-2.2,2,2.63,2.63,0,0,1,.1-5.21,2.12,2.12,0,0,1,2.2,2h-1.7a0.81,0.81,0,0,0-.5-0.7,1.39,1.39,0,0,0-.7,1.3A1.08,1.08,0,0,0,116.74,94.48Zm5.91-2.3h-1.8v0.6h1.7V94h-1.7v0.5h1.8v1.2h-3.4V91h3.4v1.2Zm6.61-16c-0.05.16-.11,0.35-0.16,0.54a1.91,1.91,0,0,1-1.14-.84c-0.1-.19-0.22-0.35-0.3-0.5v-0.3a0.6,0.6,0,0,1,.4.1c0.1,0.2.1,0.4,0.2,0.6a4.88,4.88,0,0,1,.3.7h0.2a2.21,2.21,0,0,0-.1-0.8,4.68,4.68,0,0,0,1-.5l0.1,0.1A4.06,4.06,0,0,0,129.26,76.16Zm0.3-1.5a0.37,0.37,0,0,1-.3-0.1,1.68,1.68,0,0,0-1.2-.3,0.53,0.53,0,0,1-.3-0.2A0.35,0.35,0,0,0,128,74l1.7,0.3a0.77,0.77,0,0,1,.2.3A0.37,0.37,0,0,1,129.56,74.66Zm1.9,0.3c-0.4,0-.5.1-0.4,0.5l0.06,0.32-0.46.36a2.61,2.61,0,0,0-.1-0.58,1.06,1.06,0,0,1-.2-0.5,0.76,0.76,0,0,1,.2-0.5,3.33,3.33,0,0,1,.6-0.3c0.2,0.4.8,0,.9,0.7h-0.6Zm1.21-.18a0.52,0.52,0,0,1,.1-0.22,1.19,1.19,0,0,0,.17.13Zm4.44-.93a1.14,1.14,0,0,0-.34-0.29c-0.3-.2-0.6-0.3-0.8,0a0.68,0.68,0,0,0-.13.48l-0.52.08a0.68,0.68,0,0,0-.45-0.06,0.38,0.38,0,0,0-.34.2l-0.57.12a1.75,1.75,0,0,0-.39-0.42,0.22,0.22,0,1,1,0-.4,0.54,0.54,0,0,0,.2-0.8,1.55,1.55,0,0,0-1-1.2,3.88,3.88,0,0,1-1.1-.6c-0.2-.1-0.4-0.3-0.6-0.4s-0.4-.1-0.4.3a1.51,1.51,0,0,0,.9,1.4,3.51,3.51,0,0,1,.8.5,0.36,0.36,0,0,1,.1.5c-0.6-.2-1-0.4-1.5-0.6l-0.1.1c0.1,0.2.2,0.5,0.3,0.7a0.37,0.37,0,0,1-.1.3c-0.1,0-.2,0-0.2-0.1a3.7,3.7,0,0,1-.5-1.1h0.1c0-.2.1-0.5,0.1-0.7a0.59,0.59,0,0,0-.5-0.2l-0.16,0c0.48-.21.61-0.59,0.16-1a9,9,0,0,0-1-.9,2.08,2.08,0,0,0-.6-0.2,1.28,1.28,0,0,0-.4.6c0,0.1-.1.2-0.1,0.3a0.63,0.63,0,0,0,.2.8c0.6,0,.7.5,1.1,0.7a1.06,1.06,0,0,1,.5-0.2l0.07,0c-0.33.16-.24,0.49-0.07,0.83l-1.5-.3h0.5a9.22,9.22,0,0,1-.5-0.8c-0.4-.1-0.7.2-0.7,0.8h0.06a1.11,1.11,0,0,0-.26.6V73a1.29,1.29,0,0,0-.1,1.2,0.49,0.49,0,0,1-.1.3l-0.07.14-0.23-.34c-0.11-.16-0.23-0.3-0.34-0.45a1.45,1.45,0,0,0-.26-1.36,0.58,0.58,0,0,0-1.07,0,5.05,5.05,0,0,0-3.23-1.17,2.82,2.82,0,0,0-.51.06,1.17,1.17,0,0,0-1.19-.56,9.13,9.13,0,0,0-1.3.8c-0.1.1-.2,0.2-0.1,0.3a0.77,0.77,0,0,0,.3.2,0.83,0.83,0,0,1,.47.09l-0.34.18c-0.21-.11-0.42-0.23-0.63-0.37-0.11.17-.23,0.37-0.36,0.59a2.73,2.73,0,0,1-.42-0.06,0.53,0.53,0,0,0-.32-0.43,1.7,1.7,0,0,0-1,0,2.9,2.9,0,0,0-.73.11,3.9,3.9,0,0,0-1.16.22,0.67,0.67,0,0,0-.71-0.33,1.13,1.13,0,0,1-1.1-.3l-0.9-.6a0.45,0.45,0,0,0-.5,0c-0.3.3-.6,0.7-0.9,1l-0.3.3c0-.2-0.1-0.3-0.1-0.5a0.53,0.53,0,0,1,.2-0.3c0.5-.8.4-0.9-0.5-1.1a0.7,0.7,0,0,0-.9.8v0.8c0,0.2-.1.3-0.1,0.5h0.5a1.52,1.52,0,0,1,1.4.7,0.7,0.7,0,0,0,.4.2c0.2,0.1.5,0.1,0.7,0.2V74a1.69,1.69,0,0,1-.5.2,1,1,0,0,0-1.1.5,1.42,1.42,0,0,0-.51,1.17l-0.15.1a1.84,1.84,0,0,1-1.15-1.37,1.61,1.61,0,0,0-.4.7,2.47,2.47,0,0,0-.4.9,0.47,0.47,0,0,0,.32.65l-0.41.16A1.74,1.74,0,0,0,106,77a9,9,0,0,1-1.6.3c-0.1,0-.1-0.1-0.2-0.1,0.2-.4.5-0.2,0.8-0.3a0.45,0.45,0,0,0,.4-0.3,0.76,0.76,0,0,0-.2-0.5c-0.3-.1-0.5-0.3-0.2-0.7-0.2.1-.4,0.1-0.6,0.2a5.58,5.58,0,0,0-.8.5c-0.1.1-.3,0-0.4,0.1a1.43,1.43,0,0,1-1.1.5,0.47,0.47,0,0,0-.4.6,3,3,0,0,0,.28.47l-0.36,0a6.66,6.66,0,0,0-.62-1c-0.3-.4-0.4-0.4-0.8-0.2a0.75,0.75,0,0,1-.5.1h-0.3a3.56,3.56,0,0,0,1-.2l-0.3-.9a0.34,0.34,0,0,0-.3-0.2c-0.4-.1-0.9-0.1-0.9-0.7l-0.1-.1a15.94,15.94,0,0,1-1.3-1.3,0.56,0.56,0,0,0-.9,0,3.6,3.6,0,0,1-1.8.8l-1.2.3,0,0.1a7.63,7.63,0,0,0-1.16-.27,2.31,2.31,0,0,0-1.79-.63c-0.7.1-1.3,0.2-1.9,0.3a1.51,1.51,0,0,0-.07.74,19.92,19.92,0,0,0-2.09.75c-0.23-.47-0.45-1-0.66-1.44a1.49,1.49,0,0,0,.52-0.44,1.38,1.38,0,0,1,.4-0.3,0.38,0.38,0,0,0,0-.6l-0.6-.3a1.11,1.11,0,0,1-.7-0.9,0.76,0.76,0,0,0,.4.1,8.66,8.66,0,0,0,1,.7c0.4,0.3.6,0.3,0.9-.2a2.41,2.41,0,0,1,.6-0.8,1.47,1.47,0,0,0,.2-0.4H88a0.39,0.39,0,0,1-.5-0.4c0.3,0,.5-0.1.8-0.1a6.9,6.9,0,0,0-.3-0.8c-0.6-.6-0.3-0.7-1.1-0.3-0.1,0-.2,0-0.2.1-0.1-.5.6-1.1,1.6-1.4a1.47,1.47,0,0,1-.2.4,0.81,0.81,0,0,0,.3,1.1c0.4,0,.4.2,0.3,0.5a0.6,0.6,0,0,0,.7.7,2,2,0,0,0,1.6-.7l0.6-.6a0.2,0.2,0,0,1,.1.2v0.1a9.56,9.56,0,0,1-1.6,1.2,2.36,2.36,0,0,0-1,.5,4.3,4.3,0,0,0-.9,1c-0.3.6-.1,1.1,0.6,1.1a4.49,4.49,0,0,0,1.1-.1,1.7,1.7,0,0,0,.7-0.1l-0.3-.6c-0.3-.4-0.5-0.9-0.8-1.3l0.1-.1c0.1,0.1.3,0.2,0.4,0.3a6.49,6.49,0,0,0,1.7,1.6,17.12,17.12,0,0,0,1.4,1.1,0.28,0.28,0,0,0,.5-0.2,0.46,0.46,0,0,1,.4-0.5c0.3-.1.4-0.3,0.1-0.5a4.58,4.58,0,0,1-1.5-1.6,0.34,0.34,0,0,0-.3-0.2,2.09,2.09,0,0,1-.6-0.4v-0.1h0.9a0.54,0.54,0,0,1,.4.4,0.67,0.67,0,0,0,.3.7,14.64,14.64,0,0,0,1.9,1.6h0.2a2.7,2.7,0,0,0,.8-0.7,1.88,1.88,0,0,0-.6-0.7c-0.8-.5-1.2-1.5-2.1-2a0.53,0.53,0,0,1-.2-0.3,2.54,2.54,0,0,0-1.7-1,8,8,0,0,0-1.5-.3,1.69,1.69,0,0,1-.6-0.3,8.46,8.46,0,0,0-1.7-.5,0.88,0.88,0,0,1-.9-0.5c-0.1-.3-0.2-0.5-0.3-0.8A0.36,0.36,0,0,1,86.53,66l0.79-.33c0.66,0.29,1.31.66,1.88,0.94a0.22,0.22,0,0,1,.2.2,1.64,1.64,0,0,1-.7,0c-0.1,0-.2.1-0.3,0.1a0.53,0.53,0,0,0,.3.2,6.8,6.8,0,0,1,2,.7H91a4.76,4.76,0,0,1,2.3.7,1.51,1.51,0,0,1,.4.4l0.6,0.6c0.2,0.2.5,0.4,0.7,0.6a1,1,0,0,0,1,.2,1.2,1.2,0,0,0,0-.6v-0.2a3.13,3.13,0,0,0-.5-1,2.36,2.36,0,0,0-1.7-.6c-0.1,0-.2-0.1-0.3-0.1a0.35,0.35,0,0,0,.2-0.1,0.7,0.7,0,0,0,.4-0.2A0.9,0.9,0,0,0,94,67a0.67,0.67,0,0,0-.5-0.4,11.51,11.51,0,0,0-1.7-.6,2.28,2.28,0,0,1-1.2-.6,1.57,1.57,0,0,0-1.34-.6c0.31-.19.69-0.44,1.14-0.69v0.09a0.53,0.53,0,0,0,.4.7c0.4,0.1.9,0,1.3,0.1a0.76,0.76,0,0,1,.4.1,0.53,0.53,0,0,1-.3.2,2.21,2.21,0,0,1-.8.1v0.1a0.52,0.52,0,0,0,.4.2,3.55,3.55,0,0,1,1.1.3,2.68,2.68,0,0,0,1.7.4c0.7,0,1.3.4,2,.4a10.88,10.88,0,0,0,1.8.1h0.4a0.61,0.61,0,0,0-.1,1l0.4,0.4c0.7,0.4,1.5.9,2.3,1.3a0.9,0.9,0,0,0,.5.1,13.57,13.57,0,0,1,2-.2,2,2,0,0,0,.8-0.4,1.49,1.49,0,0,1,.9.2c0.3,0,.6-0.1.9-0.1a0.51,0.51,0,0,0,.6-0.5,4.88,4.88,0,0,0-.1-1.2c0-.5-0.1-0.5-0.5-0.3a1.36,1.36,0,0,1-1.7-.1l0.12-.12,0.35-.15a0.25,0.25,0,0,1,.13.07,0.75,0.75,0,0,0,1,0,2.13,2.13,0,0,0,.29-0.86l0.41-.25v0.51a1,1,0,0,0,.4.5l0.3-.3c0.1,0,.1-0.1.1-0.2,0.3-.3.6-0.7,0.9-1l-0.1-.1a0.65,0.65,0,0,1-.44-0.11A18.79,18.79,0,0,1,110.63,64a3,3,0,0,0,2.2-.41,1,1,0,0,0,.15-0.22,6.1,6.1,0,0,1,1,0,0.93,0.93,0,0,0-.63.55,4.08,4.08,0,0,0,2.2.1,0.84,0.84,0,0,1,.5,0c0.5,0.3,1,.7,1.5,1a1.22,1.22,0,0,0,1.7-.5,0.48,0.48,0,0,0,0-.1l0.49,0a0.79,0.79,0,0,0-.31.17,0.37,0.37,0,0,0,.1.3,0.3,0.3,0,0,0,.4,0c0.3-.1.7-0.1,1-0.2,0.7-.1,1.5.3,2.2,0.2a3.09,3.09,0,0,1,.8.2h0.3a1.27,1.27,0,0,0,.7-1,1.06,1.06,0,0,0-.9-0.8c-0.3,0-.62.11-0.94,0.17a5.26,5.26,0,0,1,2-.33,1.68,1.68,0,0,0,0,.36c0,0.2.1,0.3,0.3,0.2,0.6-.3.8-0.2,1,0.4,0.5,0.1,1.1.1,1.6,0.2a0.86,0.86,0,0,0,.63-0.1,10.74,10.74,0,0,1,1,.6l0.1,0.05a3,3,0,0,0-1.7.35,1.47,1.47,0,0,0-.6.5,1.44,1.44,0,0,1-1.7.9,1,1,0,0,0-1.1.3c-0.3.3-.5,0.3-0.9,0a1.42,1.42,0,0,0-.6-0.2,2.75,2.75,0,0,0-1.6,1,4.06,4.06,0,0,0,.9.5c0,0.1-.1.1-0.1,0.2a4.88,4.88,0,0,0-.7-0.3A0.66,0.66,0,0,0,121,68a17.41,17.41,0,0,0-1.8,1.1,0.2,0.2,0,0,0,.1.2h0.3a0.37,0.37,0,0,1,.3.1s0,0.2-.1.2h-0.3c-0.1,0-.1-0.1-0.2-0.1-0.4-.3-0.5-0.2-0.5.2a0.76,0.76,0,0,1-.6.8l-0.9.3c-0.4.1-.8,0.3-0.6,0.8l-0.1.1c-0.1-.1-0.2-0.1-0.3-0.2a3.84,3.84,0,0,0-1.1-1.1,0.62,0.62,0,0,0-.7-0.1c-0.6.2-1.3,0.5-1.9,0.7-0.3.1-.2,0.2-0.1,0.4a1.06,1.06,0,0,0,1.2.2,1.09,1.09,0,0,1,.5-0.1c0.2,0,.4,0,0.4.3s0.1,0.5.4,0.4a5.91,5.91,0,0,0,1.4-.2,1.1,1.1,0,0,1,1.1.1c0.6,0.2.7,0.2,1-.4a2.65,2.65,0,0,1,.5-0.6,1.24,1.24,0,0,0,.6-0.8,0.54,0.54,0,0,1,.4-0.4,0.69,0.69,0,0,0,.9-0.3,1.54,1.54,0,0,1,1.4-.6h0.2a4.58,4.58,0,0,1,2-.9,2,2,0,0,1,1.5-.2h0.1c0.9-.3,1.9-0.5,2.3-1.5a0.49,0.49,0,0,1,.6-0.3v0.2c-0.1.2-.3,0.4-0.4,0.6a0.32,0.32,0,0,0,0,.3l0.1,0.1a6,6,0,0,0,1.1-.6,1.78,1.78,0,0,1,.8-0.7,6.8,6.8,0,0,1,1-.3,8.92,8.92,0,0,0,2,.31,0.68,0.68,0,0,0-.13.79,2.27,2.27,0,0,1,.1.4c-0.1.6-.1,1.2-0.2,1.7a0.54,0.54,0,0,0,.3.4c0.5,0.4.9,0.1,1.5-.2-0.2-.5-0.4-0.9-0.6-1.4a0.62,0.62,0,0,1,.1-0.7A0.77,0.77,0,0,0,135,66l-0.2-.1a13.39,13.39,0,0,0,2.3-.34,5.19,5.19,0,0,1,.6.25c0.2,0.1.4,0.1,0.4,0.3a7.38,7.38,0,0,1,.4,1.4,2.92,2.92,0,0,0,.2.9,0.71,0.71,0,0,1-.1,1.1,0.3,0.3,0,0,0,0,.4,2.73,2.73,0,0,0,.9,1.2c0.1,0.1.2,0.3,0.3,0.4h-0.5c-0.1,0-.2-0.1-0.3-0.1a0.78,0.78,0,0,0-1,.2,8.75,8.75,0,0,1-1,.8,1.47,1.47,0,0,0-.2-0.4c-0.2-1-.49-1.19-1.44-0.92a0.37,0.37,0,0,1,.14-0.18c0-.2.1-0.5,0.1-0.7a0.59,0.59,0,0,0-.7-0.5H134c-0.4-.1-0.4.1-0.4,0.4s-0.1.6-.1,1a3.21,3.21,0,0,0,1.73,0c-0.38.08-.76,0.09-1.33,0.19a2.38,2.38,0,0,0,1.3.9,3.5,3.5,0,0,1,1.3.5c0.3,0.1.6,0.4,0.9,0.5a2.29,2.29,0,0,1,.71.43Zm-42.39-9.6c-0.1,0-.2-0.1-0.3-0.1a2.77,2.77,0,0,0-.9.1,0.62,0.62,0,0,0-.1.5,0.76,0.76,0,0,1-.2.4,0.84,0.84,0,0,1-.5,0c0-.1,0-0.2.1-0.2,0.2-.5.2-0.6-0.4-0.6a2.27,2.27,0,0,0-.4-0.1,0.2,0.2,0,0,1,.2-0.1c0.5,0,.9-0.6,1.5-0.4a1,1,0,0,0,.4-0.3l0.07,0a4.26,4.26,0,0,1,.53.16A1.45,1.45,0,0,0,94.71,64.25Zm1.5,0.9a0.66,0.66,0,0,1,.47-0.43l0.65,0.39A4,4,0,0,1,96.22,65.15Zm7.21,2.6a1,1,0,0,1,.5.4c0.1,0.1.2,0.3,0.3,0.4a1.6,1.6,0,0,1-1-.5,2.18,2.18,0,0,0-.8-0.5,2,2,0,0,0-.8-0.1,0.76,0.76,0,0,0-.4.2c-0.1.1-.1,0.2-0.2,0.3a0.37,0.37,0,0,1-.3.1v-0.9a1.7,1.7,0,0,0-.7.1,0.52,0.52,0,0,0-.4.2,2.19,2.19,0,0,0-.3-0.5c-0.58-.29-0.6-0.31-0.51-1,0.49,0.24,1,.46,1.45.65a1.1,1.1,0,0,0,.51.17c0.29,0.1.58,0.19,0.86,0.26l0.5,0.25a1.3,1.3,0,0,0,.28-0.07,7.27,7.27,0,0,0,.92.1l-0.1.07C103.32,67.45,103.32,67.65,103.42,67.75ZM140.66,73c-0.3.12-.6,0.22-0.9,0.32a0.76,0.76,0,0,0,0-.12h-0.3a5.71,5.71,0,0,0-1.3.1v-0.2a1.42,1.42,0,0,1,.6-0.2,15.55,15.55,0,0,0,2.1-.4h0ZM141,72a0.54,0.54,0,0,1,.31-0.78Zm2.09-6.21a0.22,0.22,0,0,1-.16-0.09c-0.4-.2-0.5-0.2-0.4.3s0.16,0.72.19,1.16c-0.08.26-.17,0.52-0.25,0.78l0,0c-0.1,0-.1-0.2-0.1-0.3-0.1-.5-0.1-1-0.2-1.4a1.47,1.47,0,0,0-.5-0.6,0.38,0.38,0,0,0-.7.2c-0.1.2-.1,0.5-0.2,0.7a1.63,1.63,0,0,0,1,1.6c-0.2.2-.5,0.3-0.7,0.5a0.58,0.58,0,0,0-.2,1,3,3,0,0,0,.7.5,0.24,0.24,0,0,0,.21,0c-0.08.21-.16,0.4-0.24,0.61a0.51,0.51,0,0,0-.67-0.34h-0.6a0.37,0.37,0,0,1-.4-0.5,0.76,0.76,0,0,0-.2-0.5c-0.2-.2-0.4-0.3-0.6-0.5a2.1,2.1,0,0,1-.4-0.6c0.1,0,.1-0.1.2-0.1a4.24,4.24,0,0,0,.7.5,6.9,6.9,0,0,0,.8.3c0.1-1.2.1-1.4-.9-1.7a1.53,1.53,0,0,1-1.1-1.1c-0.1-.1-0.1-0.3-0.2-0.4a2.4,2.4,0,0,0-.42-0.42l0.39-.12a3.2,3.2,0,0,1,.73.84,2.34,2.34,0,0,0,.7.7c0.4,0.2.7,0,.7-0.5a2.05,2.05,0,0,0-.77-1.47c0.26-.08.52-0.16,0.78-0.22l0.1,0.09c0.1,0.1.3,0.1,0.4,0.2l1.8,0.3a0.67,0.67,0,0,1,.58.5Zm0.31-1.13-0.3-.37h0.4C143.51,64.47,143.47,64.59,143.44,64.71Zm1.08-5.42a27.65,27.65,0,0,0-4.45-1.15c-2.7-.3-3.8.4-5.51-1-0.8-.6-1.5-0.8-3.6.3a8.74,8.74,0,0,1-7.51.5c-2.9-1.2-3-1.3-5.51-1.4-2-.1-4.31.2-5.31,1.4-0.5.7-1.1,1.9-3.1,0.8s-4.91-1.4-7.41-1.4c-3.3,0-5.91,2-8,2.1-3.2.2-3.4-2.1-7.41-1.8a30.15,30.15,0,0,0-5.05.86c-1-7.37-.81-16.14,1.15-27.1a257.36,257.36,0,0,1,30.34-1.7,256.1,256.1,0,0,1,30.34,1.7C145.49,42.74,145.63,51.76,144.52,59.29Z"/><path class="cls-1" d="M107.63,93.18a0.84,0.84,0,0,0,.5,0l-0.2-1.1Z"/><path class="cls-1" d="M108.43,44.82h2.9a3.15,3.15,0,0,1-.9,1.2,3.42,3.42,0,0,1-4.61-.3,3.94,3.94,0,0,1-1.3-2.9,4.18,4.18,0,0,1,1.1-2.9,3.79,3.79,0,0,1,2.8-1.2,4,4,0,0,1,3.2,1.8L112,41l2.2-2.1-0.4-.4a7.62,7.62,0,0,0-2.5-2,7.18,7.18,0,0,0-2.9-.6,6.84,6.84,0,0,0-6.91,6.91,6.84,6.84,0,0,0,6.81,6.81,6,6,0,0,0,4.71-2.1,8.19,8.19,0,0,0,1.2-2,10.33,10.33,0,0,0,.3-2.6v-1h-6.11v2.9Z"/><rect class="cls-1" x="121.65" y="36.11" width="3" height="13.22"/><rect class="cls-1" x="116.14" y="41.92" width="4.31" height="2.9"/></svg>