<svg id="Layer_1" data-name="Layer 1" xmlns="http://www.w3.org/2000/svg" viewBox="0 0 300 135"><defs><style>.cls-1{fill:#010101;}</style></defs><title>Untitled-1</title><path class="cls-1" d="M91.81,75A3,3,0,0,1,95.29,77h3.4a4,4,0,0,0-1.08-2.24c-1.24-1.33-3.24-2-5.89-2a8.06,8.06,0,0,0-5,1.49,5.72,5.72,0,0,0-2.24,4.81,5.62,5.62,0,0,0,2,4.56,8.21,8.21,0,0,0,5.39,1.66,7.8,7.8,0,0,0,4.56-1.24,5.61,5.61,0,0,0,2.24-3.15H95.38a4.52,4.52,0,0,1-.83,1.41,3.65,3.65,0,0,1-2.65.83,4,4,0,0,1-2.82-1,3.77,3.77,0,0,1-1.08-3,4.27,4.27,0,0,1,1-3.07A3.81,3.81,0,0,1,91.81,75Z"/><path class="cls-1" d="M113.79,74.14a10.7,10.7,0,0,0-10.62,0A5.41,5.41,0,0,0,100.77,79a5.59,5.59,0,0,0,2.41,4.89,10.7,10.7,0,0,0,10.62,0A6.18,6.18,0,0,0,113.79,74.14Zm-2.16,8a5.15,5.15,0,0,1-6.3,0,3.83,3.83,0,0,1-1.16-3.07A4,4,0,0,1,105.33,76,4.42,4.42,0,0,1,108.48,75,4.29,4.29,0,0,1,111.63,76a4.13,4.13,0,0,1,1.16,3.07A3.94,3.94,0,0,1,111.63,82.18Z"/><polygon class="cls-1" points="128.56 81.44 122.25 73.14 118.69 73.14 118.69 85 121.84 85 121.84 76.54 128.39 85 131.71 85 131.71 73.14 128.56 73.14 128.56 81.44"/><polygon class="cls-1" points="134.45 75.22 139.26 75.22 139.26 85 142.66 85 142.66 75.22 147.47 75.22 147.47 73.14 134.45 73.14 134.45 75.22"/><path class="cls-1" d="M162,84.09A3.44,3.44,0,0,1,161.9,83V82.18a2.44,2.44,0,0,0-2.07-2.74,3.15,3.15,0,0,0,1.91-1.16,2.7,2.7,0,0,0,.58-1.66,2,2,0,0,0-.33-1.24,4.4,4.4,0,0,0-.83-1,4.35,4.35,0,0,0-1.49-.83,9.19,9.19,0,0,0-2.57-.33h-7.63V85.17h3.32V80.52h3.32a3.41,3.41,0,0,1,1.91.41,1.79,1.79,0,0,1,.5,1.49v1.08a4.16,4.16,0,0,0,.17,1,3.42,3.42,0,0,0,.25.66h3.73V84.84A1.35,1.35,0,0,1,162,84.09Zm-4-5.89a4.14,4.14,0,0,1-1.58.17h-3.65V75.13h3.73a3.9,3.9,0,0,1,1.58.25,1.49,1.49,0,0,1,.91,1.49A1.32,1.32,0,0,1,158,78.2Z"/><path class="cls-1" d="M169.29,73.14l-5.72,11.95H167l1.08-2.49H174l1.08,2.49h3.65L173,73.14h-3.73ZM169,80.52l2.07-4.73,2,4.73H169Z"/><path class="cls-1" d="M187.37,75A3,3,0,0,1,190.85,77h3.4a4,4,0,0,0-1.08-2.24c-1.24-1.33-3.24-2-5.89-2a8.06,8.06,0,0,0-5,1.49,5.72,5.72,0,0,0-2.24,4.81,5.62,5.62,0,0,0,2,4.56,8.21,8.21,0,0,0,5.39,1.66A7.8,7.8,0,0,0,192,84.09a5.61,5.61,0,0,0,2.24-3.15h-3.32a4.52,4.52,0,0,1-.83,1.41,3.65,3.65,0,0,1-2.65.83,4,4,0,0,1-2.82-1,3.77,3.77,0,0,1-1.08-3,4.27,4.27,0,0,1,1-3.07A3.81,3.81,0,0,1,187.37,75Z"/><polygon class="cls-1" points="195.58 75.22 200.39 75.22 200.39 85 203.79 85 203.79 75.22 208.61 75.22 208.61 73.14 195.58 73.14 195.58 75.22"/><path class="cls-1" d="M223,74.14a10.7,10.7,0,0,0-10.62,0A5.41,5.41,0,0,0,209.93,79a5.59,5.59,0,0,0,2.41,4.89,10.7,10.7,0,0,0,10.62,0A5.6,5.6,0,0,0,225.36,79,5.24,5.24,0,0,0,223,74.14Zm-2.07,8a5.15,5.15,0,0,1-6.3,0,3.83,3.83,0,0,1-1.16-3.07A4,4,0,0,1,214.58,76,4.42,4.42,0,0,1,217.73,75,4.29,4.29,0,0,1,220.88,76,4.13,4.13,0,0,1,222,79.11,3.94,3.94,0,0,1,220.88,82.18Z"/><path class="cls-1" d="M240.54,84.09a3.45,3.45,0,0,1-.08-1.08V82.18a2.44,2.44,0,0,0-2.07-2.74,3.15,3.15,0,0,0,1.91-1.16,2.7,2.7,0,0,0,.58-1.66,2,2,0,0,0-.33-1.24,4.4,4.4,0,0,0-.83-1,4.35,4.35,0,0,0-1.49-.83,9.19,9.19,0,0,0-2.57-.33h-7.71V85.17h3.32V80.52h3.32a3.41,3.41,0,0,1,1.91.41,1.79,1.79,0,0,1,.5,1.49v1.08a4.16,4.16,0,0,0,.17,1,3.41,3.41,0,0,0,.25.66h3.73V84.84A2.29,2.29,0,0,1,240.54,84.09Zm-4-5.89a4.14,4.14,0,0,1-1.58.17h-3.65V75.13h3.73a3.9,3.9,0,0,1,1.58.25,1.49,1.49,0,0,1,.91,1.49A1.32,1.32,0,0,1,236.56,78.2Z"/><path class="cls-1" d="M255.23,79.11a8.2,8.2,0,0,0-2.82-.83l-2.82-.5a9.17,9.17,0,0,1-2.16-.5,1,1,0,0,1-.75-1,1.12,1.12,0,0,1,.83-1.08,5,5,0,0,1,2.16-.41,4.53,4.53,0,0,1,2,.33A1.84,1.84,0,0,1,253,76.62h3.24a3.36,3.36,0,0,0-1.91-2.9,9.06,9.06,0,0,0-4.4-1,7.85,7.85,0,0,0-4.65,1.08,3.28,3.28,0,0,0-1.58,2.65A2.78,2.78,0,0,0,245.35,79a12.5,12.5,0,0,0,3.57.91l1.74,0.25a8.54,8.54,0,0,1,2.24.58,0.93,0.93,0,0,1,.66.91,1.57,1.57,0,0,1-1.41,1.41,6.84,6.84,0,0,1-2,.17,4.51,4.51,0,0,1-2.9-.75,1.77,1.77,0,0,1-.58-1.24h-3.24a3.13,3.13,0,0,0,1.82,2.9,9.63,9.63,0,0,0,5,1.08,8.8,8.8,0,0,0,4.81-1.08,3.23,3.23,0,0,0,1.74-2.74A3.17,3.17,0,0,0,255.23,79.11Z"/><path class="cls-1" d="M96.29,70.57c4.73,0,8-1.08,9.71-3.32a8.33,8.33,0,0,0,1.33-5.06V49.67h-5.81V62.19a5.81,5.81,0,0,1-.66,3.07C100.19,66.42,98.61,67,96.37,67s-3.82-.58-4.56-1.74a5.81,5.81,0,0,1-.66-3.07V49.67H85.34V62.19a8.16,8.16,0,0,0,1.33,5.06C88.32,69.49,91.56,70.57,96.29,70.57Z"/><polygon class="cls-1" points="124.16 55.64 135.36 70.07 141.17 70.07 141.17 49.66 135.77 49.66 135.77 63.93 124.91 49.66 118.85 49.66 118.85 70.07 124.16 70.07 124.16 55.64"/><rect class="cls-1" x="154.44" y="49.67" width="5.72" height="20.41"/><polygon class="cls-1" points="178.41 70.07 184.13 70.07 184.13 53.31 192.43 53.31 192.43 49.66 170.12 49.66 170.12 53.31 178.41 53.31 178.41 70.07"/><polygon class="cls-1" points="222.88 66.42 207.69 66.42 207.69 61.2 221.05 61.2 221.05 57.63 207.69 57.63 207.69 53.31 222.21 53.31 222.21 49.66 202.05 49.66 202.05 70.07 222.88 70.07 222.88 66.42"/><path class="cls-1" d="M253.82,66.26a10.73,10.73,0,0,0,2.24-6.89,13,13,0,0,0-.5-3.4,8.25,8.25,0,0,0-2-3.32,8.84,8.84,0,0,0-4.65-2.57,20.25,20.25,0,0,0-4.23-.41H232.83V70.07h11.86C248.76,70.07,251.83,68.83,253.82,66.26Zm-15.51.25V53.23h5.31c2.65,0,4.4.58,5.23,1.66a7.39,7.39,0,0,1,1.33,4.81,8.2,8.2,0,0,1-.91,3.9c-1.08,2-3,3-5.64,3H238.3V66.5Z"/><path class="cls-1" d="M61.86,77.37c7-1.16,9-5,9.46-8h6.22V57.63H71.4v-8H62.94v8H61c-5.39,0-5.23,5.06-5.23,5.81v0.08c0,0.66-.17,5.81,5.23,5.81h1.16c-0.17.25-.33,0.41-0.5,0.66a5.68,5.68,0,0,1-4.23,1.41H57.13A6,6,0,0,1,52.9,70a5,5,0,0,1-1.24-3.65V54.48a8.33,8.33,0,0,1,6.8-4.81H43.2V85.33H77.46v-8H61.86v0.08ZM43.61,50.08h7.63v5.31h0v11a5.34,5.34,0,0,0,1.41,3.9,6,6,0,0,0,4.56,1.49h0.17c2.49,0,3.9-.83,4.56-1.58a5.34,5.34,0,0,0,1.41-3.9V50.08H71V67.75c0,3.48-1.66,9.12-12.69,9.54H57.22c-11.78-.08-13.52-6-13.52-9.54V50.08H43.61Z"/></svg>