<?xml version="1.0" encoding="utf-8"?>
<!-- Generator: Adobe Illustrator 20.0.0, SVG Export Plug-In . SVG Version: 6.00 Build 0)  -->
<svg version="1.0" id="Layer_1" xmlns="http://www.w3.org/2000/svg" xmlns:xlink="http://www.w3.org/1999/xlink" x="0px" y="0px"
	 viewBox="0 0 967.7 124" style="enable-background:new 0 0 967.7 124;" xml:space="preserve">
<style type="text/css">
	.st0{fill:#231F20;}
</style>
<g>
	<path class="st0" d="M426.9,56.5c12-4.6,21.7-11,28.7-19.3c8.7-10.2,13.1-22.7,13.1-36.9c0-16.7-6.9-30-20.6-39.6
		c-13.4-9.3-31.9-14-55.1-14c-15.9,0-30.3,1.8-42.7,5.2c-12.4,3.5-24.7,9.4-36.6,17.5l-2.1,1.5l27.5,44.2l2.3-1.4
		C356,4.6,370.2,0,383.7,0c7,0,12.5,1.3,16.6,3.8c3.7,2.3,5.4,6.8,5.4,11.7c0,13.6-14.3,21.5-42.6,21.5h-16v49h15.7
		c10.9,0,19.8,0.3,26.5,1.9c6.4,1.5,11,3.5,13.7,6.4c2.6,2.7,3.9,6.7,3.9,12c0,6.9-2.5,11.7-7.7,14.9c-5.5,3.4-14.6,5.1-27.1,5.1
		c-8.2,0-17.3-1.2-27-3.5c-9.7-2.3-20.1-5.9-29.5-10.7l-4.6-2v55.6l2.4,0.7c11.9,4.6,23.4,7.8,33.6,9.5c10.2,1.7,21.6,2.6,33.5,2.6
		c29.3,0,52.6-6.1,69.2-18.1c16.9-12.2,25.5-29.2,25.5-50.5C475.2,80.8,459,62.9,426.9,56.5z M446.6,155.9
		c-15.7,11.4-37.9,17.1-66,17.1c-11.6,0-22.4-0.8-32.3-2.5C339,168.9,329,166,318,162v-43.2c9,4,17.2,7.1,26,9.2
		c10.1,2.4,19.6,3.6,28.2,3.6c13.7,0,23.4-1.9,29.9-5.9c6.8-4.2,10.2-10.7,10.2-19.5c0-6.7-1.8-12-5.4-15.8c-3.5-3.6-9-6.2-16.4-8
		c-7.1-1.7-16.4-2.4-27.7-2.4H352V40h11c31.9,0,48-8.5,48-25.7c0-6.8-2.7-11.8-8-15.2c-4.9-3.1-11.4-4.6-19.4-4.6
		c-13.8,0-28.2,4.4-42.8,13.2l-21.9-35.3c10.7-7.1,21.7-12.2,32.8-15.3c11.9-3.3,25.8-5,41.2-5c22.1,0,39.6,4.4,52.1,13.1
		c12.3,8.6,18.3,20.1,18.3,35.1c0,12.9-4,24.2-11.9,33.4c-7.9,9.3-19.5,16.2-34.7,20.5l-1.8,0.6V60l2.2,0.3
		c35.5,4.5,52.7,20.6,52.7,49.4C469.9,129.5,462.2,144.6,446.6,155.9z"/>
	<path class="st0" d="M637.1-23.6c-13.9-19.7-34.6-29.7-61.6-29.7c-27.7,0-48.6,9.6-62.1,28.5c-13.3,18.7-20.1,48.2-20.1,87.7
		c0,37.7,6.9,66.7,20.5,86c13.8,19.6,34.6,29.5,61.7,29.5c27.7,0,48.6-9.5,62.1-28.3c13.3-18.5,20.1-47.8,20.1-87.2
		C657.7,24.9,650.8-4.2,637.1-23.6z M633.3,147c-12.5,17.3-31.9,26.1-57.7,26.1c-25.3,0-44.5-9.2-57.3-27.2
		c-13-18.4-19.5-46.2-19.5-82.9c0-38.4,6.4-66.8,19.1-84.6c12.5-17.4,31.9-26.3,57.7-26.3c25.2,0,44.4,9.2,57.2,27.4
		c13,18.5,19.6,46.6,19.6,83.5C652.3,101.1,645.9,129.4,633.3,147z"/>
	<path class="st0" d="M575.5-5.7c-8.6,0-14.7,5.4-18.2,16c-3.2,9.8-4.8,27-4.8,52.6c0,25.4,1.6,42.5,4.8,52.2
		c3.5,10.5,9.6,15.8,18.2,15.8c8.7,0,14.9-5.5,18.3-16.3c3.2-10,4.7-26.9,4.7-51.7c0-24.9-1.6-41.9-4.8-52.1
		C590.2-0.2,584.1-5.7,575.5-5.7z M588.7,113c-2.7,8.5-7,12.6-13.2,12.6c-6.1,0-10.4-4-13.1-12.2c-3-9-4.5-26-4.5-50.5
		c0-24.7,1.5-41.8,4.5-51c2.7-8.3,7-12.3,13.1-12.3c6.1,0,10.4,4.2,13.1,12.8c3,9.5,4.5,26.5,4.5,50.5
		C593.1,86.8,591.6,103.7,588.7,113z"/>
</g>
</svg>
