<?xml version="1.0" encoding="utf-8"?>
<!-- Generator: Adobe Illustrator 20.0.0, SVG Export Plug-In . SVG Version: 6.00 Build 0)  -->
<svg version="1.0" id="Layer_1" xmlns="http://www.w3.org/2000/svg" xmlns:xlink="http://www.w3.org/1999/xlink" x="0px" y="0px"
	 viewBox="0 0 967.7 124" style="enable-background:new 0 0 967.7 124;" xml:space="preserve">
<style type="text/css">
	.st0{fill:#231F20;}
</style>
<path class="st0" d="M539.1-51l-3.5,0.9c-2.6,0.7-17.7-2.3-44.8-10.9c-6.1-1.9-6.1-0.9-6.6-0.9H481v5.7c0,1.1,0.6,2.1,0.6,3
	c-4.6-2.9-14.6-4.9-14.6-4.9c-0.1-0.1-0.3-0.3-0.6-0.5c-1-0.8-3.3-2.6-5.9-0.5c-2,1.6-1.8,5.3,0.7,16.8c0.2,1,0.4,2,0.5,2.2
	c0,0.3,0,0.5,0.1,0.8c0.1,0.8-0.1,1.7-0.7,3.3c-0.9,2.2,0,5.2-2,8.1v0.1h0.4c-0.1,0-0.1,1.6-0.2,2.3C458.9-22.6,449.4,5,444,7.7
	c-5.9,3-5.4,10.6-5,16.6c0.1,2,0.2,4,0.1,5.5c-0.5,5-1.3,12.6-4.6,15c-4.9,3.6-3.2,10.5-0.4,14.1c0.4,0.5,0.7,2.7-1.2,10.7
	c-0.1,0.6-0.3,1.1-0.3,1.4c-0.3,1.3,0.3,3.4,1.4,7.2c0.7,2.5,1.9,6.8,1.7,8c-0.6,3,2.2,4,3.3,4.3c0.4,0.1,1,0.3,1.1,0.4
	c0,0,0.1,0.3-0.2,1.1c-2.1,5.5,1.8,12,4.5,15.6c-0.4,0.4-1.2,1-2.4,1.5c-2.6,1.1-1.6,3.6,3.2,15.5c1.6,4,3.3,8.1,3.7,9.9
	c0.8,3.2,0.4,5.8,0.1,7.7c-0.1,0.7-0.2,1.4-0.2,1.9c0,2.5,3.2,3.5,9.4,5.3c1.2,0.3,2.7,0.8,3,0.9c0.4,0.3,1.6,1.8,2.5,2.9
	c2.8,3.5,4.7,5.6,6.7,5.9c0,0.1,0,0.1,0,0.2l-0.1,0.4c-0.1,0.8,0.1,1.7,0.6,2.4c0.8,1.1,2.5,1.8,4.9,2.1c1,0.8,3.5,4.7,5.4,8.1
	l0.7,10.9l29.5,4.2l0.5-0.3c1.3-0.6,3.1-1.4,3.7-1.5c1.6-0.3,2.7-1.8,2.6-3.6c-0.1-1.3-0.8-2.3-1.9-2.7c-0.2-0.6-0.2-1.8-0.1-2.3
	c0.9-1,2.9-3.3,3.1-5.5c0.1-0.9,1.8-3.3,3.7-4.6c3-1.9,1.7-4.1,1.3-4.8c-0.2-0.4-0.4-0.6-0.4-0.9c0-1.6-0.9-3.6-1.8-5.8
	c-0.5-1.2-1.2-2.9-1.2-3.5c0-1.3-1.2-3.6-31.6-48.6c-6.3-9.4-12.3-18.3-13.6-20.4c0.6-4.5,7.8-32.8,9.8-38.9c2.6,0.4,9,2,13.8,3.2
	c14.9,3.7,15.5,3.6,16.6,2.9l0.7-0.5l0.2-0.8c0.2-1,6.8-26.9,7.6-29.4c0.9-3-0.8-4.4-1.9-5.1c1.5-2.5,6.1-7.9,8.2-10.5
	c1.6-2,2.6-3.2,3-3.7c0.6-0.9,1.8-2.6-0.3-4.2c-0.5-0.4-1.4-1.1-2.8-3.4c-1.7-2.9,2.7-23,7.9-40L539.1-51z M443,30L443,30
	C443,30,443,30,443,30C443,30,443,30,443,30z M471.4,83.9c0.2,0.6,0.7,1.5,14.2,21.5c11,16.3,29.3,43.4,30.9,46.8
	c0.1,1.1,0.7,2.5,1.5,4.6c0.6,1.4,1.5,3.5,1.5,4.3c0,1.1,0.3,1.9,0.7,2.5c-2.4,1.6-5,4.8-5.3,7.4c-0.1,0.8-1.2,2.4-2.3,3.4
	c-1.4,1.4-0.9,5.4-0.3,6.7c0.1,0.4,0.3,0.7,0.5,0.9c-0.9,0.3-1.8,0.7-2.5,1l-25.1-3.5l-0.5-8.5l-0.2-0.4
	c-5.5-10.2-7.6-10.4-8.4-10.5c-1.1-0.1-1.8-0.3-2.2-0.5c0.1-0.9,0.3-2.1-0.6-3.2c-0.6-0.8-1.6-1.2-2.8-1.3c-0.8-0.3-3-3-4.2-4.4
	c-1.8-2.2-2.8-3.4-3.8-3.9c-0.6-0.3-1.8-0.7-3.7-1.2c-1.7-0.5-5.1-1.5-6.4-2.1c0-0.2,0.1-0.4,0.1-0.7c0.3-2,0.8-5.2-0.2-9.2
	c-0.5-2.1-2.2-6.1-3.9-10.4c-1.4-3.6-3.5-8.7-4.1-10.9c1.5-0.8,3.2-2.1,3.7-3.8c0.3-1,0-2.1-0.6-3c-1.4-1.8-5.7-7.9-4.2-12
	c0.6-1.7,0.7-3.1,0.1-4.2c-0.8-1.6-2.4-2.1-3.5-2.5c-0.2,0-0.3-0.1-0.5-0.2c0.2-2-0.6-5.1-1.8-9.4c-0.6-2-1.3-4.7-1.3-5.3
	c0.1-0.3,0.2-0.7,0.3-1.3c1.6-6.9,2.3-11.7,0.6-14c-0.8-1.1-3.5-6.1-0.4-8.5c4-3,5.2-9.4,5.9-15c4.6,1.9,15.1,4.9,38.5,10.2
	c-0.9,2.7-2.4,8-5,18.6C470.9,82.4,471.2,83.3,471.4,83.9z M527.3,1.2c-9.6,11.6-10.7,13.5-8.9,15.2c0.5,0.5,1,0.8,1.5,1
	c0.2,0.1,0.4,0.2,0.5,0.3c0,0.1,0,0.2-0.1,0.3c-0.8,2.4-5.8,22.2-7.3,28.2c-2.7-0.5-8.5-1.9-13-3c-11.2-2.7-14.7-3.5-16.1-3.4
	c-17.6-4-36.7-8.9-40.7-10.8c0.1-1.5,0-3.1-0.2-4.9c-0.3-5.2-0.8-11,2.7-12.8c7.6-3.8,15.3-33.4,17.3-36.6c0,0,0,0,0,0
	c0,0.2,1.3,0.6,2.3,1.1l0.5,0.3c0.6,0.3,1,0.6,1.4,0.7c0.2,0.1,0.4,0.2,0.5,0.2c0,0,0.1,0.1,0.3,0.4c0.1,0.2,0.2,1,0.3,1.5
	c0.4,2.5,1,6.7,4.6,8.4c3.1,1.5,4.6,0.7,5.9-0.2c0.4-0.3,0.6-0.4,0.9-0.4c1-0.2,3.6,1.5,4.9,2.2c0.6,0.4,1.2,0.7,1.6,1
	c1.4,0.7,2.6,0.7,3.3,0.6c0.1,0,0.2,0,0.3,0c1.4,1,3.4,0.5,5.5,0c0.7-0.2,1.6-0.4,1.9-0.4c0.1,0,0.1,0.1,0.2,0.1
	c0.9,0.5,1.9,1,4.5,0.8c3.1-0.2,7.3-0.4,11.2,0.5c3.3,0.7,10.8,1.9,13.8,2.4c0.1,0.1,0.1,0.3,0.2,0.4c1.2,2,2.2,3.1,2.9,3.8
	C529.1-1.1,528.2,0,527.3,1.2z M525.9-10.2c-3.4-0.5-9.5-1.5-12.3-2.1c-4.4-1-9-0.7-12.3-0.6c-1.6,0.1-1.9-0.1-2.2-0.3
	c-0.4-0.2-1.1-0.6-2.2-0.6c-0.8,0-1.7,0.2-2.8,0.5c-0.7,0.2-1.9,0.5-2.5,0.5c-1-0.7-2-0.6-2.6-0.6c-0.5,0-0.7,0-1.1-0.2
	c-0.4-0.2-0.8-0.5-1.4-0.8c-2.2-1.4-5-3.1-7.5-2.8c-1.3,0.2-2.2,0.8-2.7,1.2c-0.1,0.1-0.4,0.3-0.4,0.3c0,0-0.3,0.1-1.4-0.4
	c-1.6-0.8-2-3.4-2.3-5.4c-0.2-1.2-0.3-2.2-0.8-2.9c-0.8-1.3-1.3-1.6-2.4-2.2c-0.3-0.1-0.6-0.3-1.1-0.6l-0.5-0.3
	c-1.4-0.8-2.5-1.4-3.7-1.7c0.3-2.1,0.7-4.2,1.2-5.5c1-2.5,0.8-4.1,0.8-5.1c0-0.2,0-0.3,0-0.5c0-0.4-0.1-1-0.5-3
	c-1.5-6.9-2.1-11.2-1.8-12.8c0.3,0.1,0.6,0.4,0.9,0.6c0.7,0.5,1.5,1.1,2.5,1.2c1.5,0.2,11.4,3,13.8,4.4c0.1,3.2,0.9,4.1,1.7,4.5
	c0.8,0.4,2.1,0.3,2.8-0.3c1-0.8,2-1.8,2-10.7v-3c0,0.3,1.7,0.7,3,1.1c24.4,7.7,37.5,11.4,43.7,12C531.1-37.4,525.9-19.3,525.9-10.2z
	"/>
</svg>
