<?xml version="1.0" encoding="utf-8"?>
<!DOCTYPE svg PUBLIC "-//W3C//DTD SVG 1.1//EN" "http://www.w3.org/Graphics/SVG/1.1/DTD/svg11.dtd">
<svg version="1.1" xmlns="http://www.w3.org/2000/svg" xmlns:xlink="http://www.w3.org/1999/xlink" x="0px" y="0px"
	 viewBox="0 0 34.7 37.3" enable-background="new 0 0 34.7 37.3" xml:space="preserve">
	<g>
		<path fill="#FFFFFF" d="M7.5,6.7c0.3,0.1,0.6,0.1,0.9,0.2c1.2,0.4,2,1.4,2,2.7c0,1.3-0.9,2.4-2.2,2.6C7,12.4,5.9,12.3,5,11.4
			C4.7,11,4.5,10.5,4.3,9.9c0-0.3,0-0.6,0-0.9c0,0,0-0.1,0-0.1c0.2-1.1,0.9-1.8,2-2.1C6.7,6.7,7,6.7,7.3,6.7
			C7.3,6.7,7.4,6.7,7.5,6.7z"/>
		<path fill="#FFFFFF" d="M18.4,30.6c-0.1,0-0.2,0-0.3,0c-1.6,0-3.2,0-4.8,0c-0.3,0-0.3-0.1-0.3-0.3c0-0.1,0-0.2,0-0.3
			c0-4.9,0-9.8,0-14.7c0-0.3,0-0.6,0-0.9c1.8,0,3.5,0,5.3,0c0,0.7,0,1.4,0,2.1c0,0,0,0,0.1,0c0.1-0.1,0.2-0.2,0.2-0.3
			c1-1.4,2.4-2.1,4.2-2.2c1.4-0.1,2.7,0.2,3.9,1c1.4,0.9,2.1,2.3,2.4,3.9c0.2,0.8,0.2,1.6,0.2,2.4c0,3,0,5.9,0,8.9
			c0,0.1,0,0.2,0,0.4c-1.8,0-3.6,0-5.4,0c0-0.1,0-0.2,0-0.4c0-2.8,0-5.6,0-8.4c0-0.6-0.1-1.1-0.2-1.7c-0.3-1-0.9-1.7-1.9-1.8
			c-1.1-0.2-2.1,0.2-2.8,1.1c-0.4,0.6-0.7,1.2-0.7,1.9c0,3,0,5.9,0,8.9C18.4,30.4,18.4,30.5,18.4,30.6z"/>
		<path fill="#FFFFFF" d="M4.7,14.5c1.8,0,3.6,0,5.4,0c0,5.4,0,10.8,0,16.2c-0.1,0-0.2,0-0.3,0c-1.6,0-3.2,0-4.8,0
			c-0.2,0-0.3-0.1-0.3-0.3c0-5.2,0-10.4,0-15.6C4.7,14.7,4.7,14.6,4.7,14.5z"/>
	</g>
</svg>
