<?xml version="1.0" encoding="utf-8"?>
<!-- Generator: Adobe Illustrator 20.0.0, SVG Export Plug-In . SVG Version: 6.00 Build 0)  -->
<svg version="1.0" id="Layer_1" xmlns="http://www.w3.org/2000/svg" xmlns:xlink="http://www.w3.org/1999/xlink" x="0px" y="0px"
	 viewBox="0 0 413.1 69.9" style="enable-background:new 0 0 413.1 69.9;" xml:space="preserve">
<style type="text/css">
	.st0{fill:#E96024;}
	.st1{fill:#5E656F;}
	.st2{fill:#5F666E;}
	.st3{fill:#DD7E27;}
	.st4{fill:#FFFFFF;}
</style>
<g>
	<polygon class="st0" points="96.2,38.4 85.9,38.4 85.9,69.2 57.5,69.2 47,54.4 65.7,54.4 71.1,62 71.1,38.4 63.4,38.4 52.8,23.7 
		85.6,23.7 85.7,23.8 85.9,24 	"/>
	<path class="st1" d="M121.9,20.3c-1.4,0-2.8-0.3-4-0.8c-1.2-0.5-2.3-1.2-3.2-2.1c-0.9-0.9-1.6-2-2.1-3.2s-0.8-2.5-0.8-3.9v-0.1
		c0-1.4,0.3-2.7,0.8-3.9s1.2-2.3,2.1-3.2c0.9-0.9,2-1.7,3.2-2.2c1.3-0.5,2.6-0.8,4.1-0.8c0.9,0,1.8,0.1,2.5,0.2s1.4,0.4,2.1,0.6
		c0.6,0.3,1.2,0.6,1.7,1c0.5,0.4,1,0.8,1.5,1.2l-2.7,3.2c-0.8-0.7-1.5-1.2-2.3-1.6C123.9,4.2,123,4,122,4c-0.8,0-1.6,0.2-2.3,0.5
		c-0.7,0.3-1.3,0.8-1.8,1.3s-0.9,1.2-1.2,1.9c-0.3,0.7-0.4,1.5-0.4,2.4v0.1c0,0.8,0.1,1.6,0.4,2.4s0.7,1.4,1.2,2
		c0.5,0.6,1.1,1,1.8,1.3s1.5,0.5,2.3,0.5c1.1,0,2.1-0.2,2.8-0.6s1.5-1,2.3-1.7l2.7,2.8c-0.5,0.5-1,1-1.6,1.5
		c-0.5,0.4-1.1,0.8-1.8,1.1c-0.6,0.3-1.3,0.5-2.1,0.7C123.7,20.2,122.9,20.3,121.9,20.3z"/>
	<path class="st1" d="M143.5,20.3c-1.5,0-2.9-0.3-4.2-0.8c-1.3-0.5-2.4-1.3-3.3-2.2c-0.9-0.9-1.6-2-2.2-3.2
		c-0.5-1.2-0.8-2.5-0.8-3.9v-0.1c0-1.4,0.3-2.7,0.8-3.9s1.2-2.3,2.2-3.2c0.9-0.9,2-1.7,3.3-2.2c1.3-0.5,2.7-0.8,4.2-0.8
		c1.5,0,2.9,0.3,4.2,0.8C149,1.3,150.1,2,151,3c0.9,0.9,1.6,2,2.2,3.2c0.5,1.2,0.8,2.5,0.8,3.9v0.1c0,1.4-0.3,2.7-0.8,3.9
		c-0.5,1.2-1.2,2.3-2.2,3.2s-2,1.7-3.3,2.2C146.4,20,145,20.3,143.5,20.3z M143.5,16.3c0.9,0,1.7-0.2,2.4-0.5
		c0.7-0.3,1.3-0.8,1.9-1.3s0.9-1.2,1.2-1.9c0.3-0.7,0.4-1.5,0.4-2.4v-0.1c0-0.8-0.1-1.6-0.4-2.4c-0.3-0.7-0.7-1.4-1.2-2
		c-0.5-0.6-1.2-1-1.9-1.3c-0.7-0.3-1.5-0.5-2.4-0.5c-0.9,0-1.7,0.2-2.4,0.5s-1.3,0.8-1.8,1.3S138.3,7,138,7.7
		c-0.3,0.7-0.4,1.5-0.4,2.4v0.1c0,0.8,0.1,1.6,0.4,2.4s0.7,1.4,1.2,2s1.2,1,1.9,1.3C141.8,16.1,142.6,16.3,143.5,16.3z"/>
	<path class="st1" d="M158.3,0.3h4l9.2,12.1V0.3h4.3v19.6h-3.7l-9.5-12.5v12.5h-4.3V0.3z"/>
	<path class="st1" d="M181,0.3h7.6c1.5,0,2.9,0.2,4.2,0.7s2.4,1.2,3.3,2.1c0.9,0.9,1.6,1.9,2.1,3.1c0.5,1.2,0.8,2.5,0.8,3.9v0.1
		c0,1.4-0.3,2.7-0.8,3.9c-0.5,1.2-1.2,2.2-2.1,3.1c-0.9,0.9-2,1.6-3.3,2.1s-2.7,0.8-4.2,0.8H181V0.3z M188.6,16
		c0.9,0,1.7-0.1,2.4-0.4c0.7-0.3,1.3-0.7,1.9-1.2c0.5-0.5,0.9-1.1,1.2-1.8s0.4-1.5,0.4-2.4v-0.1c0-0.9-0.1-1.7-0.4-2.4
		s-0.7-1.4-1.2-1.9c-0.5-0.5-1.1-0.9-1.9-1.2c-0.7-0.3-1.5-0.4-2.4-0.4h-3.3V16H188.6z"/>
	<path class="st1" d="M213,20.3c-1.5,0-2.9-0.3-4.2-0.8c-1.3-0.5-2.4-1.3-3.3-2.2c-0.9-0.9-1.6-2-2.2-3.2c-0.5-1.2-0.8-2.5-0.8-3.9
		v-0.1c0-1.4,0.3-2.7,0.8-3.9s1.2-2.3,2.2-3.2c0.9-0.9,2-1.7,3.3-2.2c1.3-0.5,2.7-0.8,4.2-0.8c1.5,0,2.9,0.3,4.2,0.8
		c1.3,0.5,2.4,1.3,3.3,2.2c0.9,0.9,1.6,2,2.2,3.2c0.5,1.2,0.8,2.5,0.8,3.9v0.1c0,1.4-0.3,2.7-0.8,3.9c-0.5,1.2-1.2,2.3-2.2,3.2
		s-2,1.7-3.3,2.2C215.9,20,214.5,20.3,213,20.3z M213,16.3c0.9,0,1.7-0.2,2.4-0.5c0.7-0.3,1.3-0.8,1.9-1.3s0.9-1.2,1.2-1.9
		c0.3-0.7,0.4-1.5,0.4-2.4v-0.1c0-0.8-0.1-1.6-0.4-2.4c-0.3-0.7-0.7-1.4-1.2-2c-0.5-0.6-1.2-1-1.9-1.3C214.6,4.1,213.8,4,213,4
		c-0.9,0-1.7,0.2-2.4,0.5s-1.3,0.8-1.8,1.3s-0.9,1.2-1.2,1.9c-0.3,0.7-0.4,1.5-0.4,2.4v0.1c0,0.8,0.1,1.6,0.4,2.4s0.7,1.4,1.2,2
		s1.2,1,1.9,1.3C211.3,16.1,212.1,16.3,213,16.3z"/>
	<path class="st1" d="M227.8,0.3h4l9.2,12.1V0.3h4.3v19.6h-3.7l-9.5-12.5v12.5h-4.3V0.3z"/>
	<path class="st1" d="M269.5,20.2c-1.5,0-2.8-0.3-3.8-0.9s-1.9-1.3-2.6-2.1l2.7-3c0.6,0.6,1.1,1.1,1.7,1.4c0.6,0.3,1.2,0.5,1.9,0.5
		c0.8,0,1.5-0.3,1.9-0.8c0.5-0.5,0.7-1.3,0.7-2.5V0.3h4.4v12.8c0,1.2-0.2,2.2-0.5,3.1c-0.3,0.9-0.8,1.6-1.4,2.2
		c-0.6,0.6-1.3,1-2.2,1.4S270.6,20.2,269.5,20.2z"/>
	<path class="st1" d="M290.9,20.3c-1.5,0-2.9-0.3-4.2-0.8c-1.3-0.5-2.4-1.3-3.3-2.2c-0.9-0.9-1.6-2-2.2-3.2
		c-0.5-1.2-0.8-2.5-0.8-3.9v-0.1c0-1.4,0.3-2.7,0.8-3.9s1.2-2.3,2.2-3.2c0.9-0.9,2-1.7,3.3-2.2c1.3-0.5,2.7-0.8,4.2-0.8
		c1.5,0,2.9,0.3,4.2,0.8c1.3,0.5,2.4,1.3,3.3,2.2c0.9,0.9,1.6,2,2.2,3.2c0.5,1.2,0.8,2.5,0.8,3.9v0.1c0,1.4-0.3,2.7-0.8,3.9
		c-0.5,1.2-1.2,2.3-2.2,3.2s-2,1.7-3.3,2.2C293.8,20,292.4,20.3,290.9,20.3z M291,16.3c0.9,0,1.7-0.2,2.4-0.5
		c0.7-0.3,1.3-0.8,1.9-1.3s0.9-1.2,1.2-1.9c0.3-0.7,0.4-1.5,0.4-2.4v-0.1c0-0.8-0.1-1.6-0.4-2.4c-0.3-0.7-0.7-1.4-1.2-2
		c-0.5-0.6-1.2-1-1.9-1.3c-0.7-0.3-1.5-0.5-2.4-0.5c-0.9,0-1.7,0.2-2.4,0.5s-1.3,0.8-1.8,1.3s-0.9,1.2-1.2,1.9
		c-0.3,0.7-0.4,1.5-0.4,2.4v0.1c0,0.8,0.1,1.6,0.4,2.4s0.7,1.4,1.2,2s1.2,1,1.9,1.3C289.3,16.1,290.1,16.3,291,16.3z"/>
	<path class="st1" d="M305.8,0.3h4.3v7.8h8V0.3h4.3v19.6H318v-7.9h-8v7.9h-4.3V0.3z"/>
	<path class="st1" d="M327.6,0.3h4l9.2,12.1V0.3h4.3v19.6h-3.7l-9.5-12.5v12.5h-4.3V0.3z"/>
	<path class="st1" d="M357.3,20.2c-1.5,0-3-0.3-4.4-0.8s-2.7-1.3-3.9-2.4l2.5-3.1c0.9,0.7,1.8,1.3,2.8,1.7c0.9,0.4,2,0.6,3.1,0.6
		c0.9,0,1.6-0.2,2.1-0.5c0.5-0.3,0.7-0.8,0.7-1.4v-0.1c0-0.3-0.1-0.5-0.2-0.7c-0.1-0.2-0.3-0.4-0.6-0.6s-0.7-0.4-1.2-0.6
		s-1.2-0.4-2-0.6c-1-0.2-1.9-0.5-2.7-0.8c-0.8-0.3-1.5-0.7-2-1.1s-1-1-1.3-1.6c-0.3-0.7-0.5-1.5-0.5-2.4V6c0-0.9,0.2-1.7,0.5-2.4
		c0.3-0.7,0.8-1.3,1.4-1.9s1.3-0.9,2.2-1.2c0.8-0.3,1.8-0.4,2.8-0.4c1.4,0,2.8,0.2,4,0.6c1.2,0.4,2.3,1,3.3,1.8l-2.2,3.2
		c-0.9-0.6-1.7-1.1-2.6-1.4c-0.8-0.3-1.7-0.5-2.5-0.5c-0.8,0-1.5,0.2-1.9,0.5c-0.4,0.3-0.6,0.7-0.6,1.2v0.1c0,0.3,0.1,0.6,0.2,0.8
		s0.3,0.4,0.7,0.6c0.3,0.2,0.8,0.4,1.3,0.5c0.6,0.2,1.2,0.4,2.1,0.6c1,0.3,1.9,0.6,2.7,0.9c0.8,0.3,1.4,0.7,2,1.2s0.9,1,1.2,1.6
		c0.3,0.6,0.4,1.4,0.4,2.2v0.1c0,1-0.2,1.8-0.5,2.6s-0.8,1.4-1.5,1.9c-0.6,0.5-1.4,0.9-2.3,1.2C359.3,20.1,358.3,20.2,357.3,20.2z"
		/>
	<path class="st1" d="M378.3,20.3c-1.5,0-2.9-0.3-4.2-0.8c-1.3-0.5-2.4-1.3-3.3-2.2c-0.9-0.9-1.6-2-2.2-3.2
		c-0.5-1.2-0.8-2.5-0.8-3.9v-0.1c0-1.4,0.3-2.7,0.8-3.9s1.2-2.3,2.2-3.2c0.9-0.9,2-1.7,3.3-2.2c1.3-0.5,2.7-0.8,4.2-0.8
		c1.5,0,2.9,0.3,4.2,0.8c1.3,0.5,2.4,1.3,3.3,2.2c0.9,0.9,1.6,2,2.2,3.2c0.5,1.2,0.8,2.5,0.8,3.9v0.1c0,1.4-0.3,2.7-0.8,3.9
		c-0.5,1.2-1.2,2.3-2.2,3.2s-2,1.7-3.3,2.2C381.2,20,379.8,20.3,378.3,20.3z M378.3,16.3c0.9,0,1.7-0.2,2.4-0.5
		c0.7-0.3,1.3-0.8,1.9-1.3s0.9-1.2,1.2-1.9c0.3-0.7,0.4-1.5,0.4-2.4v-0.1c0-0.8-0.1-1.6-0.4-2.4c-0.3-0.7-0.7-1.4-1.2-2
		c-0.5-0.6-1.2-1-1.9-1.3c-0.7-0.3-1.5-0.5-2.4-0.5c-0.9,0-1.7,0.2-2.4,0.5s-1.3,0.8-1.8,1.3s-0.9,1.2-1.2,1.9
		c-0.3,0.7-0.4,1.5-0.4,2.4v0.1c0,0.8,0.1,1.6,0.4,2.4s0.7,1.4,1.2,2s1.2,1,1.9,1.3C376.7,16.1,377.5,16.3,378.3,16.3z"/>
	<path class="st1" d="M393.1,0.3h4l9.2,12.1V0.3h4.3v19.6h-3.7l-9.5-12.5v12.5h-4.3V0.3z"/>
	<path class="st1" d="M119.1,40.1c-1.1,1-2.3,1.6-3.9,1.6c-2.4,0-4.1-1.4-4.1-3.6v0c0-1.6,1-2.8,2.7-3.5c-0.7-0.9-1-1.7-1-2.6v0
		c0-1.7,1.4-3.2,3.6-3.2c2,0,3.3,1.4,3.3,3v0c0,1.7-1.1,2.6-2.8,3.3l2.2,2.2c0.5-0.7,0.9-1.5,1.4-2.4l1.7,0.9c-0.5,1-1.1,2-1.7,2.9
		l2,2l-1.7,1.2L119.1,40.1z M117.8,38.8l-2.8-2.9c-1.2,0.5-1.7,1.3-1.7,2.1v0c0,1.1,0.9,1.8,2.1,1.8
		C116.3,39.9,117.1,39.5,117.8,38.8z M117.7,31.9L117.7,31.9c0-0.9-0.6-1.5-1.4-1.5c-0.9,0-1.5,0.6-1.5,1.5v0c0,0.6,0.3,1.1,1,1.9
		C117,33.4,117.7,32.8,117.7,31.9z"/>
	<path class="st1" d="M145.5,28.8h2.1l5.5,12.7h-2.3l-1.3-3h-6l-1.3,3H140L145.5,28.8z M148.7,36.5l-2.2-5l-2.2,5H148.7z"/>
	<path class="st1" d="M161.1,39.7l1.3-1.6c1.2,1,2.4,1.6,4,1.6c1.4,0,2.2-0.6,2.2-1.6v0c0-0.9-0.5-1.4-2.8-1.9
		c-2.7-0.6-4.2-1.4-4.2-3.8v0c0-2.2,1.8-3.7,4.3-3.7c1.8,0,3.3,0.6,4.6,1.6l-1.2,1.7c-1.1-0.8-2.3-1.3-3.4-1.3
		c-1.3,0-2.1,0.7-2.1,1.5v0c0,1,0.6,1.4,3,2c2.7,0.6,4,1.6,4,3.7v0c0,2.4-1.9,3.8-4.5,3.8C164.4,41.7,162.6,41,161.1,39.7z"/>
	<path class="st1" d="M179.3,39.7l1.3-1.6c1.2,1,2.4,1.6,4,1.6c1.4,0,2.2-0.6,2.2-1.6v0c0-0.9-0.5-1.4-2.8-1.9
		c-2.7-0.6-4.2-1.4-4.2-3.8v0c0-2.2,1.8-3.7,4.3-3.7c1.8,0,3.3,0.6,4.6,1.6l-1.2,1.7c-1.1-0.8-2.3-1.3-3.4-1.3
		c-1.3,0-2.1,0.7-2.1,1.5v0c0,1,0.6,1.4,3,2c2.7,0.6,4,1.6,4,3.7v0c0,2.4-1.9,3.8-4.5,3.8C182.6,41.7,180.8,41,179.3,39.7z"/>
	<path class="st1" d="M197.9,35.3L197.9,35.3c0-3.6,2.7-6.6,6.6-6.6s6.6,2.9,6.6,6.5v0c0,3.5-2.7,6.5-6.6,6.5
		C200.6,41.8,197.9,38.8,197.9,35.3z M208.8,35.3L208.8,35.3c0-2.5-1.8-4.5-4.3-4.5c-2.5,0-4.2,2-4.2,4.4v0c0,2.4,1.8,4.5,4.3,4.5
		C207,39.7,208.8,37.7,208.8,35.3z"/>
	<path class="st1" d="M220,35.3L220,35.3c0-3.6,2.7-6.6,6.5-6.6c2.3,0,3.7,0.8,4.9,2l-1.4,1.6c-1-0.9-2.1-1.6-3.5-1.6
		c-2.4,0-4.2,2-4.2,4.4v0c0,2.5,1.7,4.5,4.2,4.5c1.5,0,2.5-0.6,3.6-1.6l1.4,1.4c-1.3,1.4-2.8,2.2-5.1,2.2
		C222.8,41.8,220,38.9,220,35.3z"/>
	<path class="st1" d="M240.9,28.9h2.2v12.6h-2.2V28.9z"/>
	<path class="st1" d="M257.7,28.8h2.1l5.5,12.7H263l-1.3-3h-6l-1.3,3h-2.3L257.7,28.8z M260.9,36.5l-2.2-5l-2.2,5H260.9z"/>
	<path class="st1" d="M275.8,31h-4v-2.1H282V31h-4v10.6h-2.2V31z"/>
	<path class="st1" d="M291.2,28.9h9.3v2h-7.1v3.3h6.3v2h-6.3v3.4h7.2v2h-9.4V28.9z"/>
	<path class="st1" d="M309.3,39.7l1.3-1.6c1.2,1,2.4,1.6,4,1.6c1.4,0,2.2-0.6,2.2-1.6v0c0-0.9-0.5-1.4-2.8-1.9
		c-2.7-0.6-4.2-1.4-4.2-3.8v0c0-2.2,1.8-3.7,4.3-3.7c1.8,0,3.3,0.6,4.6,1.6l-1.2,1.7c-1.1-0.8-2.3-1.3-3.4-1.3
		c-1.3,0-2.1,0.7-2.1,1.5v0c0,1,0.6,1.4,3,2c2.7,0.6,4,1.6,4,3.7v0c0,2.4-1.9,3.8-4.5,3.8C312.6,41.7,310.8,41,309.3,39.7z"/>
	<path class="st1" d="M327.5,43.2c1.1-0.2,1.6-0.8,1.5-1.7h-0.9v-2.5h2.4v2.1c0,2-1,2.8-2.8,3L327.5,43.2z"/>
	<path class="st1" d="M352.5,28.9h2.2v12.6h-2.2V28.9z"/>
	<path class="st1" d="M364.9,28.9h2.1l6.8,8.7v-8.7h2.2v12.6h-1.9l-7-9v9h-2.2V28.9z"/>
	<path class="st1" d="M385.4,35.3L385.4,35.3c0-3.6,2.7-6.6,6.5-6.6c2.3,0,3.7,0.8,4.9,2l-1.4,1.6c-1-0.9-2.1-1.6-3.5-1.6
		c-2.4,0-4.2,2-4.2,4.4v0c0,2.5,1.7,4.5,4.2,4.5c1.5,0,2.5-0.6,3.6-1.6l1.4,1.4c-1.3,1.4-2.8,2.2-5.1,2.2
		C388.2,41.8,385.4,38.9,385.4,35.3z"/>
	<path class="st1" d="M407.2,39.1h2.4v2.5h-2.4V39.1z"/>
	<polygon class="st0" points="56.6,35.2 46.1,51.2 21.2,51.2 0,21.8 15.6,0.2 40.5,0.2 51,15.2 32.3,15.2 28,9 18.7,21.9 33.4,42.2 
		37.9,35.2 	"/>
	<rect x="110.4" y="51.5" class="st2" width="302.8" height="1"/>
	<rect x="253.8" y="8.9" class="st3" width="2.4" height="2.4"/>
	<path class="st2" d="M34.8,63.3c-0.6,0.8,0,1.9,1,1.9h7v4H31.2c-1,0-1.6-1.1-1-1.9l7.6-10.8h6.6l9,12.7h-6.6l-8.1-11.5L34.8,63.3z"
		/>
	<g>
		<path class="st1" d="M111,65.5L111,65.5c0-2.5,1.9-4.4,4.4-4.4c1.7,0,2.8,0.7,3.6,1.7l-1.8,1.4c-0.5-0.6-1-1-1.8-1
			c-1.2,0-2,1-2,2.2v0c0,1.3,0.8,2.2,2,2.2c0.9,0,1.4-0.4,1.9-1L119,68c-0.8,1.1-1.9,1.9-3.7,1.9C112.9,69.9,111,68,111,65.5z"/>
		<path class="st1" d="M123.6,65.5L123.6,65.5c0-2.4,1.9-4.4,4.5-4.4c2.6,0,4.5,1.9,4.5,4.3v0c0,2.4-1.9,4.4-4.5,4.4
			C125.5,69.9,123.6,67.9,123.6,65.5z M130.2,65.5L130.2,65.5c0-1.2-0.9-2.3-2.1-2.3c-1.3,0-2.1,1-2.1,2.2v0c0,1.2,0.9,2.3,2.2,2.3
			C129.4,67.8,130.2,66.7,130.2,65.5z"/>
		<path class="st1" d="M137.9,61.3h2.2l3.5,4.4v-4.4h2.3v8.4h-2l-3.6-4.6v4.6h-2.3V61.3z"/>
		<path class="st1" d="M153.4,63.3h-2.5v-2h7.4v2h-2.5v6.4h-2.3V63.3z"/>
		<path class="st1" d="M163.4,61.3h4c1.3,0,2.2,0.3,2.7,0.9c0.5,0.5,0.7,1.1,0.7,2v0c0,1.3-0.7,2.1-1.7,2.6l2,2.9h-2.7l-1.7-2.5h-1
			v2.5h-2.3V61.3z M167.3,65.3c0.8,0,1.2-0.4,1.2-1v0c0-0.7-0.5-1-1.3-1h-1.5v2H167.3z"/>
		<path class="st1" d="M178.8,61.2h2.2l3.6,8.5h-2.5l-0.6-1.5h-3.3l-0.6,1.5h-2.4L178.8,61.2z M180.9,66.4L180,64l-0.9,2.4H180.9z"
			/>
		<path class="st1" d="M188.8,65.5L188.8,65.5c0-2.5,1.9-4.4,4.4-4.4c1.7,0,2.8,0.7,3.6,1.7l-1.8,1.4c-0.5-0.6-1-1-1.8-1
			c-1.2,0-2,1-2,2.2v0c0,1.3,0.8,2.2,2,2.2c0.9,0,1.4-0.4,1.9-1l1.8,1.2c-0.8,1.1-1.9,1.9-3.7,1.9C190.7,69.9,188.8,68,188.8,65.5z"
			/>
		<path class="st1" d="M203.9,63.3h-2.5v-2h7.4v2h-2.5v6.4h-2.3V63.3z"/>
		<path class="st1" d="M213.2,65.5L213.2,65.5c0-2.4,1.9-4.4,4.5-4.4s4.5,1.9,4.5,4.3v0c0,2.4-1.9,4.4-4.5,4.4
			S213.2,67.9,213.2,65.5z M219.9,65.5L219.9,65.5c0-1.2-0.9-2.3-2.1-2.3s-2.1,1-2.1,2.2v0c0,1.2,0.9,2.3,2.2,2.3
			C219,67.8,219.9,66.7,219.9,65.5z"/>
		<path class="st1" d="M227.6,61.3h4c1.3,0,2.2,0.3,2.7,0.9c0.5,0.5,0.7,1.1,0.7,2v0c0,1.3-0.7,2.1-1.7,2.6l2,2.9h-2.7l-1.7-2.5h-1
			v2.5h-2.3V61.3z M231.4,65.3c0.8,0,1.2-0.4,1.2-1v0c0-0.7-0.5-1-1.3-1h-1.5v2H231.4z"/>
		<path class="st1" d="M239.6,68.4l1.3-1.5c0.8,0.7,1.8,1,2.7,1c0.6,0,1-0.2,1-0.6v0c0-0.4-0.3-0.5-1.4-0.8
			c-1.8-0.4-3.2-0.9-3.2-2.6v0c0-1.6,1.2-2.7,3.2-2.7c1.4,0,2.5,0.4,3.5,1.1l-1.2,1.6c-0.8-0.6-1.6-0.8-2.4-0.8
			c-0.6,0-0.8,0.2-0.8,0.5v0c0,0.4,0.3,0.6,1.5,0.8c1.9,0.4,3.1,1,3.1,2.6v0c0,1.7-1.4,2.7-3.4,2.7
			C242.1,69.8,240.7,69.4,239.6,68.4z"/>
		<path class="st1" d="M262.5,61.2h2.2l3.6,8.5h-2.5l-0.6-1.5H262l-0.6,1.5h-2.4L262.5,61.2z M264.5,66.4l-0.9-2.4l-0.9,2.4H264.5z"
			/>
		<path class="st1" d="M273.2,61.3h2.2l3.5,4.4v-4.4h2.3v8.4h-2l-3.6-4.6v4.6h-2.3V61.3z"/>
		<path class="st1" d="M286.7,61.3h3.3c3,0,4.7,1.7,4.7,4.1v0c0,2.4-1.8,4.2-4.8,4.2h-3.2V61.3z M289,63.3v4.3h0.9
			c1.4,0,2.3-0.8,2.3-2.1v0c0-1.3-0.9-2.1-2.3-2.1H289z"/>
		<path class="st1" d="M307.4,61.3h6.8v2h-4.5v1.3h4v1.8h-4v1.3h4.5v2h-6.8V61.3z"/>
		<path class="st1" d="M319.5,61.3h2.2l3.5,4.4v-4.4h2.3v8.4h-2l-3.6-4.6v4.6h-2.3V61.3z"/>
		<path class="st1" d="M332.7,65.5L332.7,65.5c0-2.5,1.9-4.4,4.5-4.4c1.5,0,2.5,0.4,3.4,1.2l-1.4,1.7c-0.6-0.5-1.2-0.8-2-0.8
			c-1.2,0-2.1,1-2.1,2.3v0c0,1.4,0.9,2.3,2.3,2.3c0.6,0,1-0.1,1.3-0.3v-1h-1.6v-1.7h3.8v3.8c-0.9,0.7-2.1,1.3-3.6,1.3
			C334.6,69.9,332.7,68.1,332.7,65.5z"/>
		<path class="st1" d="M346.3,61.3h2.3v8.4h-2.3V61.3z"/>
		<path class="st1" d="M354.3,61.3h2.2l3.5,4.4v-4.4h2.3v8.4h-2l-3.6-4.6v4.6h-2.3V61.3z"/>
		<path class="st1" d="M367.8,61.3h6.8v2h-4.5v1.3h4v1.8h-4v1.3h4.5v2h-6.8V61.3z"/>
		<path class="st1" d="M379.9,61.3h6.8v2h-4.5v1.3h4v1.8h-4v1.3h4.5v2h-6.8V61.3z"/>
		<path class="st1" d="M392,61.3h4c1.3,0,2.2,0.3,2.7,0.9c0.5,0.5,0.7,1.1,0.7,2v0c0,1.3-0.7,2.1-1.7,2.6l2,2.9H397l-1.7-2.5h-1v2.5
			H392V61.3z M395.9,65.3c0.8,0,1.2-0.4,1.2-1v0c0-0.7-0.5-1-1.3-1h-1.5v2H395.9z"/>
		<path class="st1" d="M404.1,68.4l1.3-1.5c0.8,0.7,1.8,1,2.7,1c0.6,0,1-0.2,1-0.6v0c0-0.4-0.3-0.5-1.4-0.8
			c-1.8-0.4-3.2-0.9-3.2-2.6v0c0-1.6,1.2-2.7,3.2-2.7c1.4,0,2.5,0.4,3.5,1.1l-1.2,1.6c-0.8-0.6-1.6-0.8-2.4-0.8
			c-0.6,0-0.8,0.2-0.8,0.5v0c0,0.4,0.3,0.6,1.5,0.8c1.9,0.4,3.1,1,3.1,2.6v0c0,1.7-1.4,2.7-3.4,2.7
			C406.5,69.8,405.1,69.4,404.1,68.4z"/>
	</g>
</g>
</svg>
