<?xml version="1.0" encoding="utf-8"?>
<!DOCTYPE svg PUBLIC "-//W3C//DTD SVG 1.1//EN" "http://www.w3.org/Graphics/SVG/1.1/DTD/svg11.dtd">
<svg version="1.1" xmlns="http://www.w3.org/2000/svg" xmlns:xlink="http://www.w3.org/1999/xlink" x="0px" y="0px"
	 viewBox="0 0 108 83" enable-background="new 0 0 108 83" xml:space="preserve">
	<g>
		<path fill="none" stroke="#000000" stroke-width="1.0184" stroke-miterlimit="10" d="M84.3,47H66.3v-9.3c0-0.3-0.3-0.6-0.6-0.6H50
			c-0.3,0-0.6,0.3-0.6,0.6v2.9L25.5,10.7l-3.2,2.4l27,39.6v5.1c0,0.3,0.3,0.6,0.6,0.6h8.9h6.8H77v-2h7.3c0.4,0,0.7-0.3,0.7-0.7v-8.1
			C84.9,47.3,84.6,47,84.3,47z"/>
		<rect x="81.9" y="47.9" fill="none" stroke="#000000" stroke-width="1.0184" stroke-miterlimit="10" width="0.6" height="4.2"/>
		<rect x="77.9" y="47.9" fill="none" stroke="#000000" stroke-width="1.0184" stroke-miterlimit="10" width="0.6" height="4.2"/>
		<rect x="73.6" y="47.9" fill="none" stroke="#000000" stroke-width="1.0184" stroke-miterlimit="10" width="0.6" height="4.2"/>
		<rect x="49.4" y="39.3" fill="none" stroke="#000000" stroke-width="1.0184" stroke-miterlimit="10" width="3.5" height="14.1"/>
		<path fill="none" stroke="#000000" stroke-width="1.0184" stroke-miterlimit="10" d="M64.9,57.4h-7c-0.4,0-0.7-0.3-0.7-0.7V40.5
			c0-0.4,0.3-0.7,0.7-0.7h7c0.4,0,0.7,0.3,0.7,0.7v16.3C65.5,57.1,65.2,57.4,64.9,57.4z"/>
		<rect x="53.7" y="58.4" fill="none" stroke="#000000" stroke-width="1.0184" stroke-miterlimit="10" width="21.1" height="2.4"/>
		<path fill="none" stroke="#000000" stroke-width="1.0184" stroke-miterlimit="10" d="M53.1,70.1c-2.6,0-4.7-2.1-4.7-4.7
			c0-2.6,2.1-4.7,4.7-4.7h22.2c2.6,0,4.7,2.1,4.7,4.7c0,2.6-2.1,4.7-4.7,4.7H53.1z"/>
		<line fill="none" stroke="#000000" stroke-width="1.0184" stroke-miterlimit="10" x1="22.4" y1="13.1" x2="22.4" y2="46.8"/>
		<path fill="none" stroke="#000000" stroke-width="1.0184" stroke-miterlimit="10" d="M23.4,51.9c-1.5,0.2-1.5-0.8-1.5-2
			c0-0.6,1.3-2,1.3-2c0.1,0,0.1-0.1,0.1-0.1c0-0.3-0.1-0.5-0.3-0.8c0,0,0,0,0,0c-0.8-0.6-1.7,0-1.7,0.8c0,0.1,0,0.3,0.1,0.4
			c0,0.1,0,0.2-0.1,0.2c-0.7,0.4-1.1,1.1-1.1,1.9c0,1.2,1,2.1,2.1,2.1c0.2,0,0.7,0,1.1-0.2C23.6,52.2,23.6,51.9,23.4,51.9
			C23.4,51.9,23.4,51.9,23.4,51.9z"/>
	</g>
</svg>
