<?xml version="1.0" encoding="utf-8"?>
<!DOCTYPE svg PUBLIC "-//W3C//DTD SVG 1.1//EN" "http://www.w3.org/Graphics/SVG/1.1/DTD/svg11.dtd">
<svg version="1.1" xmlns="http://www.w3.org/2000/svg" xmlns:xlink="http://www.w3.org/1999/xlink" x="0px" y="0px"
	 viewBox="0 0 108 83" enable-background="new 0 0 108 83" xml:space="preserve">
	<g>
		<path fill="none" stroke="#000000" stroke-width="0.9728" stroke-miterlimit="10" d="M51.9,11c0.2,0,11.3,3.7,12.6,3.3
			c0,0-2.6,8.8-1.9,10.1s1.1,0.8,0.8,1.3c-0.3,0.5-3.1,3.7-2.9,3.9c0.2,0.2,0.8,0.3,0.6,0.9c-0.2,0.6-1.8,6.9-1.9,7.2
			S52,36,51.8,36.2s-2.6,9.7-2.5,10c0.1,0.3,11,16.2,11,16.6s0.7,1.7,0.7,2.3c0,0.5,0.5,0.6,0,1c-0.5,0.3-1.1,1-1.1,1.5
			s-0.5,1-0.7,1.1c-0.1,0.1-0.1,1.3,0.2,1.3c0.3,0,0.3,0.5,0,0.6c-0.3,0-1,0.4-1,0.4L51.7,70l-0.1-2.4c0,0-1.2-2.3-1.7-2.3
			c-0.4,0-1-0.2-1-0.5s0.1-0.6-0.4-0.7s-1.7-1.9-2.1-2.1s-2.7-0.7-2.7-1.1s0.3-1.3,0-2.4c-0.3-1.2-2.3-5.4-2-5.6
			c0.3-0.1,1.2-0.6,0.8-1c-0.3-0.4-1.6-2.1-1.1-3.4c0.5-1.3-1.1-0.7-1-1.5c0.1-0.7-0.8-3.2-0.7-3.7c0.1-0.5,0.7-2.7,0.3-3.3
			s-1-2,0-2.7c1-0.7,1.2-2.6,1.3-4c0.1-1.4-0.6-4.1,0.9-4.9c1.6-0.8,3.9-7.8,4-8.5c0-0.7,0.2-1.8,0.4-2.4c0.2-0.6,0.1-0.9,0.1-1.2
			c0-0.2-0.9-3.8-0.4-4.2c0.5-0.4,0.9,0.3,1.2,0.3c0.3,0,3.8,1,3.8,1.4s0,1,0.2,0.8c0.2-0.1,0.2-1.7,0.2-2.2
			C51.9,11.9,51.9,11,51.9,11z"/>
		<path fill="none" stroke="#000000" stroke-width="0.9728" stroke-miterlimit="10" d="M62.5,24.1c0,0-2.6-0.4-3.6-0.6
			c-1-0.2-2-0.2-2.8-0.1c-0.9,0-0.7-0.2-1.1-0.2s-1.3,0.4-1.5,0.2c-0.2-0.2-0.5,0-0.9-0.2s-1.3-0.9-1.9-0.8
			c-0.6,0.1-0.5,0.6-1.4,0.2s-0.8-1.9-1-2.2s-0.2-0.2-0.7-0.5c-0.5-0.3-0.7-0.4-1-0.4c-0.3,0-0.3-0.2-0.3,0"/>
		<path fill="none" stroke="#000000" stroke-width="0.9728" stroke-miterlimit="10" d="M51.8,36.2c0,0-10.4-2.4-10.4-2.9"/>
	</g>
</svg>
