<?xml version="1.0" encoding="utf-8"?>
<!DOCTYPE svg PUBLIC "-//W3C//DTD SVG 1.1//EN" "http://www.w3.org/Graphics/SVG/1.1/DTD/svg11.dtd">
<svg version="1.1" xmlns="http://www.w3.org/2000/svg" xmlns:xlink="http://www.w3.org/1999/xlink" x="0px" y="0px"
	 viewBox="0 0 115.1 103.1" enable-background="new 0 0 115.1 103.1" xml:space="preserve">
	<g>
		<rect x="78.3" y="38.5" fill="none" stroke="#000000" stroke-width="1.097" stroke-miterlimit="10" width="11" height="44.8"/>
		<rect x="60.9" y="47.8" fill="none" stroke="#000000" stroke-width="1.097" stroke-miterlimit="10" width="11" height="35.4"/>
		<rect x="44.3" y="53.7" fill="none" stroke="#000000" stroke-width="1.097" stroke-miterlimit="10" width="11" height="29.6"/>
		<rect x="27.2" y="47.8" fill="none" stroke="#000000" stroke-width="1.097" stroke-miterlimit="10" width="11" height="35.4"/>
		<polyline fill="none" stroke="#000000" stroke-width="1.097" stroke-miterlimit="10" points="78.3,32.3 49.7,45.1 32.7,40.8 		"/>
		<polygon fill="none" stroke="#000000" stroke-width="1.097" stroke-miterlimit="10" points="78.3,27.6 82,35.2 89.2,27.6 		"/>
		<g>
			<path fill="none" stroke="#000000" stroke-width="1.097" stroke-miterlimit="10" d="M47.9,39c-2-0.3-3.9-1-5.4-2.2l1.8-2.6
				c1.2,0.9,2.4,1.6,3.7,1.9v-3.7c-3.3-0.9-4.9-2.2-4.9-4.9v0c0-2.6,1.9-4.2,4.8-4.5v-1.3h2.4V23c1.6,0.2,3,0.8,4.3,1.7l-1.5,2.7
				c-0.9-0.6-1.9-1.1-2.8-1.4v3.5c3.5,0.9,5,2.4,5,4.9v0c0,2.6-2,4.2-4.9,4.5v2.3h-2.4V39z M48,25.8c-1.1,0.1-1.6,0.7-1.6,1.4v0
				c0,0.7,0.3,1.2,1.6,1.6V25.8z M51.8,34.7L51.8,34.7c0-0.8-0.4-1.3-1.6-1.7v3.2C51.3,36,51.8,35.5,51.8,34.7z"/>
		</g>
	</g>
</svg>
