<?xml version="1.0" encoding="utf-8"?>
<!DOCTYPE svg PUBLIC "-//W3C//DTD SVG 1.1//EN" "http://www.w3.org/Graphics/SVG/1.1/DTD/svg11.dtd">
<svg version="1.1" xmlns="http://www.w3.org/2000/svg" xmlns:xlink="http://www.w3.org/1999/xlink" x="0px" y="0px"
	 viewBox="0 0 115.1 103.1" enable-background="new 0 0 115.1 103.1" xml:space="preserve">
	<g>
		<circle fill="none" stroke="#000000" stroke-width="1.3329" stroke-miterlimit="10" cx="59.5" cy="28.1" r="8.6"/>
		<circle fill="none" stroke="#000000" stroke-width="1.3329" stroke-miterlimit="10" cx="81" cy="41.8" r="7.1"/>
		<path fill="none" stroke="#000000" stroke-width="1.3329" stroke-miterlimit="10" d="M81,51.5c-7.1,0-12.9,5.8-12.9,12.9v17.1H94
			V64.4C94,57.3,88.2,51.5,81,51.5z"/>
		<circle fill="none" stroke="#000000" stroke-width="1.3329" stroke-miterlimit="10" cx="37.6" cy="38.7" r="8.2"/>
		<path fill="none" stroke="#000000" stroke-width="1.3329" stroke-miterlimit="10" d="M37.6,50c-8.3,0-15,6.7-15,15v19.8h30V65
			C52.6,56.7,45.9,50,37.6,50z"/>
		<path fill="none" stroke="#000000" stroke-width="1.3329" stroke-miterlimit="10" d="M55,72.9v-8.7c0-5.2-3.8-13.1-9.9-15.1
			c1.8-4.9,8.1-9.3,14.3-9.3c7.1,0,13.7,5.6,15.1,11.1c-6,1.8-8.6,8.3-8.6,12.7v9.2H55z"/>
	</g>
</svg>
