<?xml version="1.0" encoding="utf-8"?>
<!DOCTYPE svg PUBLIC "-//W3C//DTD SVG 1.1//EN" "http://www.w3.org/Graphics/SVG/1.1/DTD/svg11.dtd">
<svg version="1.1" xmlns="http://www.w3.org/2000/svg" xmlns:xlink="http://www.w3.org/1999/xlink" x="0px" y="0px"
	 viewBox="0 0 115.1 103.1" enable-background="new 0 0 115.1 103.1" xml:space="preserve">
	<g>
		<path fill="none" stroke="#000000" stroke-width="1.2112" stroke-miterlimit="10" d="M52.9,22.8c-9.8,2.3-17,11-17,21.5l-1.8,2.2
			l7.6,7.9h16.6h16.6l7.6-7.9l-1.8-2.2c0-10.6-7.1-19.2-17-21.5"/>
		<path fill="none" stroke="#000000" stroke-width="1.2112" stroke-miterlimit="10" d="M63.6,22.8c0-1.9-2.4-3.4-5.3-3.4
			s-5.3,1.5-5.3,3.4v13.7"/>
		<line fill="none" stroke="#000000" stroke-width="1.2112" stroke-miterlimit="10" x1="63.6" y1="36.6" x2="63.6" y2="22.8"/>
		<path fill="none" stroke="#000000" stroke-width="1.2112" stroke-miterlimit="10" d="M36.2,47.9c-1.2,0.6-2.1,2-2.1,3.6
			c0,1.7,0.9,3.2,2.3,3.7c0,11,2.7,17.8,7.3,20.8l6.8,4.8c1.6,0.9,3.4,1.4,5.3,1.4h2.5h0h2.5c1.9,0,3.7-0.5,5.3-1.4l6.8-4.8
			c4.6-3,7.3-9.8,7.3-20.8c1.3-0.5,2.3-2,2.3-3.7c0-1.6-0.8-3-1.9-3.6"/>
	</g>
</svg>
