<?xml version="1.0" encoding="utf-8"?>
<!DOCTYPE svg PUBLIC "-//W3C//DTD SVG 1.1//EN" "http://www.w3.org/Graphics/SVG/1.1/DTD/svg11.dtd">
<svg version="1.1" xmlns="http://www.w3.org/2000/svg" xmlns:xlink="http://www.w3.org/1999/xlink" x="0px" y="0px"
	 viewBox="0 0 330 148" enable-background="new 0 0 330 148" xml:space="preserve">
	<g>
		<path fill="#272628" d="M137.3,88.8c-0.4-1.1-0.7-2.2-1.1-3.3c-0.1-0.4-0.2-0.8-0.4-1.2c-0.2-0.5-0.4-1.1-0.6-1.6
			c0-0.3-0.2-0.6-0.3-1c0-0.3-0.1-0.5-0.2-0.7c0.1-0.2-0.2-0.3-0.1-0.5c-0.1-0.4-0.2-0.7-0.4-1.1c-0.2-0.4-0.3-0.9-0.5-1.3
			c-0.1-0.4-0.2-0.8-0.4-1.2c-0.1-0.4-0.2-0.7-0.4-1.1c-0.1-0.4-0.2-0.9-0.4-1.3l0,0l0,0c-0.2-0.4-0.2-0.8-0.4-1.2
			c-0.1-0.4-0.3-0.9-0.4-1.3c-0.1-0.4-0.2-0.8-0.4-1.2c-0.2-0.4-0.3-0.9-0.5-1.3c-0.1-0.4-0.2-0.7-0.4-1.1c0-0.4-0.2-0.8-0.4-1.2
			c-0.1-0.5-0.2-0.9-0.5-1.3c0-0.3-0.2-0.6-0.3-1c-0.1-0.4-0.2-0.7-0.4-1.1c-0.1-0.3-0.1-0.7-0.3-1c-0.2-0.6-0.3-1.1-0.5-1.7
			c-0.1-0.4-0.2-0.8-0.4-1.2c-0.1-0.3-0.2-0.6-0.4-1c-0.1-0.4-0.2-0.7-0.3-1.1c-0.1-0.5-0.3-1.1-0.5-1.6c-0.1-0.3-0.1-0.7-0.3-1
			c-0.1-0.4-0.2-0.7-0.3-1.1c-0.2-0.4-0.3-0.9-0.5-1.3c-0.2-0.8-0.5-1.5-0.7-2.3c-0.3-1.2-0.3-1.2-1.5-1.2c-6.2,0-12.3,0-18.5,0
			c-1,0-1,0-1.2,1c0,0,0,0,0,0.1c-0.4,0.8-0.6,1.6-0.8,2.4l0,0l0,0c-0.1,0.4-0.3,0.9-0.4,1.3h0c-0.2,0.3-0.3,0.7-0.4,1.1
			c-0.1,0.3-0.2,0.6-0.3,1c-0.2,0.5-0.3,1-0.5,1.6c-0.2,0.3-0.3,0.6-0.3,1c-0.2,0.3-0.3,0.7-0.4,1.1c-0.2,0.4-0.4,0.9-0.4,1.3
			c-0.2,0.5-0.3,1-0.5,1.6c-0.1,0.3-0.2,0.6-0.4,1c-0.1,0.4-0.3,0.7-0.3,1.1c-0.2,0.3-0.3,0.6-0.3,1c-0.2,0.4-0.3,0.9-0.5,1.3
			c-0.1,0.4-0.2,0.8-0.4,1.2c-0.1,0.4-0.2,0.7-0.4,1.1c-0.1,0.5-0.4,0.8-0.4,1.3c-0.2,0.4-0.3,0.8-0.4,1.2c-0.2,0.4-0.4,0.9-0.5,1.3
			c-0.2,0.4-0.3,0.8-0.4,1.2c-0.2,0.4-0.3,0.9-0.5,1.3c-0.1,0.4-0.3,0.7-0.3,1.1c-0.2,0.4-0.3,0.8-0.4,1.2c-0.1,0.4-0.3,0.9-0.4,1.3
			c-0.1,0.4-0.2,0.7-0.3,1.1C94.1,80.7,94,80.9,94,81c-0.2,0.2-0.2,0.5-0.2,0.7c-0.2,0.4-0.4,0.7-0.3,1.1c-0.2,0.5-0.4,0.9-0.5,1.5
			c-0.2,0.3-0.3,0.7-0.4,1.1c-0.4,1.3-0.8,2.5-1.3,3.9c0.3,0,0.5,0,0.7,0c3.1,0,6.2,0,9.4,0c1.6,0,3.2,0,4.8,0
			c0.2,0,0.4,0.1,0.4-0.2c0.3-1.2,0.6-2.3,0.8-3.5c0.2-0.4,0.2-0.8,0.3-1.2c0.1-0.5,0.3-1,0.4-1.4c3.7,0,7.5,0,11.2,0l0,0
			c0.1,0.5,0.3,1,0.4,1.4c0.1,0.4,0.1,0.8,0.3,1.2c0.2,1.2,0.5,2.3,0.8,3.5c0.1,0.3,0.3,0.3,0.5,0.3c5.2,0,10.3,0,15.5,0
			C137.3,89.3,137.4,89.1,137.3,88.8z M111.4,69.4c0.3-0.3,0.4-0.7,0.3-1c0.3-0.3,0.4-0.6,0.1-1c0,0,0,0,0,0
			c0.4-0.3,0.6-1.1,0.4-1.6c0,0,0,0,0,0c0.2-0.3,0.3-0.6,0.2-0.9c0.4-0.4,0.4-0.7,0.2-1.1c0,0,0,0,0,0c0.4-0.2,0.4-0.6,0.3-0.9
			c0.4-0.4,0.5-1.1,0.3-1.6c0,0,0,0,0,0c0.4-0.4,0.5-0.9,0.3-1.3c0,0,0,0,0,0c0.3-0.3,0.4-0.6,0.2-1c0.1,0,0.2,0,0.3,0
			c-0.1,0.4-0.1,0.7,0.2,1c0,0,0,0,0,0c-0.3,0.5,0,0.9,0.2,1.3c0,0,0,0,0,0c-0.2,0.6,0,1.1,0.3,1.6c-0.2,0.4-0.1,0.7,0.2,0.9
			c-0.2,0.5-0.1,0.8,0.2,1.1c-0.2,0.3-0.1,0.6,0.2,0.9c0,0,0,0,0,0c-0.2,0.5,0,1.1,0.3,1.5c-0.2,0.4-0.1,0.8,0.2,1.1
			c-0.2,0.5-0.1,0.9,0.2,1.2c-0.1,0.4-0.1,0.8,0.3,1.2c-0.2,0.4-0.1,0.8,0.2,1.1c-0.1,0.1-0.1,0.2-0.1,0.3c-0.1,0.7-0.1,0.7-0.7,0.7
			c-1.5,0-3,0-4.5,0c-0.4,0-0.7-0.1-0.6-0.6c0-0.1,0-0.2-0.1-0.3c0.3-0.3,0.5-0.7,0.2-1.2C111.5,70.3,111.6,69.8,111.4,69.4
			C111.4,69.4,111.4,69.4,111.4,69.4z"/>
		<path fill="#272628" d="M259.4,74.4c-4.2,0-8.4,0-12.7,0c-1.4,0-1.4,0-1.5,1.4c-0.2,0.3-0.2,0.7-0.2,1.1c-0.2,0.4-0.3,0.8-0.5,1.2
			c-0.3,0.5-0.7,0.9-1.1,1.2c-1.2,0.6-2.3,0.6-3.5,0c-0.5-0.3-0.9-0.8-1.2-1.2h0c-0.2-0.4-0.3-0.8-0.5-1.2c-0.1-0.4-0.2-0.7-0.2-1.1
			c-0.1-0.4-0.2-0.9-0.2-1.3c0-0.4-0.1-0.8-0.1-1.2c0-0.5,0.1-0.9-0.1-1.3c0-0.4,0-0.8,0-1.2c0-0.4,0-0.9,0-1.3c0-0.4,0-0.7,0-1.1
			c0-0.4,0-0.7,0-1.1c0-0.5,0.1-1,0.1-1.5c0-0.3,0-0.6,0-1c0.2-0.3,0.2-0.7,0.1-1.1c0.2-0.3,0.1-0.6,0.2-1c0.2-0.4,0.3-0.9,0.4-1.3
			c0.1-0.1,0.2-0.3,0.2-0.5c0.3-0.4,0.4-0.8,0.7-1.1c0.4-0.5,1-0.7,1.6-1c0.8-0.2,1.5-0.2,2.3,0l0,0c0.6,0.2,1,0.5,1.5,1
			c0.2,0.4,0.4,0.9,0.6,1.3c0.2,0.5,0.4,1,0.4,1.6l0,0c0,0.2,0.1,0.5,0.1,0.7h0c-0.1,0.6,0,0.7,0.7,0.7c4.4,0,8.7,0,13.1,0
			c0.6,0,0.8-0.2,0.7-0.7c0-0.2,0-0.5,0-0.7c0-0.5,0-1,0-1.6c-0.1-0.4-0.2-0.9-0.2-1.3c-0.1-0.4-0.1-0.8-0.3-1.1
			c0-0.3-0.2-0.6-0.3-1c-0.2-0.6-0.4-1.1-0.7-1.6c-0.1-0.4-0.3-0.7-0.6-1c-0.1-0.4-0.5-0.7-0.8-1.1c-0.2-0.3-0.4-0.5-0.7-0.7
			c-0.1-0.1-0.1-0.2-0.2-0.2c-0.1-0.1-0.3-0.2-0.4-0.4c-1.1-1.2-2.4-1.9-3.9-2.5c0,0-0.1-0.1-0.1-0.1c-2.5-1.1-5.2-1.7-8-1.8
			c-2.1-0.1-4.2-0.1-6.2,0.2c-2.1,0.3-4.1,0.8-6,1.7c-0.1,0-0.2,0-0.2,0.1c-1.4,0.7-2.7,1.5-3.9,2.5c-0.1,0.1-0.2,0.2-0.4,0.4
			c-0.1,0.1-0.2,0.2-0.2,0.2v0c-0.2,0.2-0.5,0.5-0.7,0.7c-0.4,0.3-0.7,0.6-1,1.1c-0.3,0.3-0.5,0.6-0.7,1c-0.4,0.5-0.7,1-0.9,1.6
			c-0.2,0.4-0.4,0.7-0.5,1.1c-0.2,0.3-0.3,0.7-0.4,1c-0.1,0.3-0.2,0.6-0.3,0.8c-0.1,0.2-0.2,0.5-0.2,0.7c-0.2,0.4-0.3,0.9-0.4,1.3
			c-0.2,0.3-0.1,0.6-0.2,1c-0.2,0.3-0.2,0.7-0.2,1.1c0,0.3-0.1,0.6-0.1,1c0,0.4,0,0.9,0,1.3c-0.2,0.4-0.2,0.8-0.1,1.2
			c-0.1,0.4,0.1,0.7,0.1,1.1c0,0.4,0,0.9,0,1.3c0,0.4,0,0.8,0,1.2c0.3,0.4-0.1,0.9,0.2,1.3c-0.1,0.4,0,0.8,0.1,1.2
			c0.1,0.4,0.2,0.9,0.2,1.3l0,0l0,0c0.1,0.4,0.2,0.7,0.3,1.1l0,0c0,0.4,0.1,0.8,0.4,1.2c0.1,0.5,0.3,0.9,0.5,1.3
			c0.1,0.4,0.3,0.7,0.5,1.1c0.2,0.4,0.4,0.8,0.6,1.2c0.2,0.4,0.5,0.7,0.7,1.1c0.4,0.5,0.7,1.1,1.2,1.5c0.4,0.4,0.9,0.9,1.3,1.3
			c1,1,2.1,1.7,3.3,2.3c3,1.6,6.3,2.2,9.7,2.3c1.9,0.1,3.7,0,5.6-0.3c1.8-0.3,3.7-0.8,5.4-1.5c1.6-0.7,3.1-1.5,4.3-2.8
			c0.4-0.4,0.9-0.9,1.3-1.3c0.4-0.5,0.8-0.9,1.1-1.5l0,0c0.2-0.4,0.4-0.7,0.6-1.1c0.2-0.4,0.4-0.8,0.6-1.2h0
			c0.1-0.4,0.2-0.7,0.4-1.1c0.1-0.4,0.3-0.9,0.3-1.3c0.1-0.4,0.3-0.8,0.2-1.2c0-0.4,0-0.7,0-1.1c0-0.3,0-0.6,0-0.8
			C260.1,74.5,259.9,74.4,259.4,74.4z"/>
		<path fill="#272628" d="M176.7,79.5c0.3-0.4,0.5-0.9,0.6-1.3c0.2-0.4,0.3-0.8,0.4-1.2c0.2-0.3,0.4-0.7,0.3-1.1
			c0.2-0.4,0.3-0.9,0.4-1.3c0-0.4,0.2-0.8,0.2-1.2c0.2-0.4,0-0.9,0.2-1.3c0-0.4,0-0.8,0-1.2h0l0,0c0-0.4,0-0.9,0-1.3l0,0h0
			c0-0.4,0-0.7,0-1.1c0-0.3,0-0.6,0-1c0-0.5-0.1-1-0.1-1.6c0-0.3-0.1-0.6-0.1-1c-0.1-0.4-0.2-0.7-0.2-1.1c0-0.3-0.1-0.7-0.2-1
			c-0.1-0.5-0.1-0.9-0.4-1.3c-0.1-0.2,0.1-0.4-0.1-0.5h0h0c0-0.4-0.3-0.7-0.4-1.1c0-0.4-0.2-0.7-0.4-1c-0.1-0.4-0.3-0.7-0.5-1.1
			c-0.3-0.6-0.6-1.1-1.1-1.6c-0.1-0.4-0.5-0.7-0.7-1c-0.4-0.4-0.7-0.7-1.1-1.1l0,0l0,0c-0.5-0.5-1.1-0.9-1.7-1.3
			c-1.6-1.1-3.4-1.9-5.3-2.4c-0.1,0-0.1-0.1-0.2-0.1c-2.6-0.7-5.3-1-8-1c-5.9,0-11.9,0-17.8,0c-1.2,0-1.2,0-1.1,1.2
			c0,0.8,0,1.5,0,2.3c0,0.1,0,0.2,0,0.4c0,0.3,0,0.6,0,1c0,0.4,0,0.7,0,1.1c0,0.3,0,0.6,0,1c0,0.5,0,1,0,1.6c0,0.4,0,0.7,0,1.1
			c0,0.3,0,0.6,0,1c0,0.4,0,0.9,0,1.3c0,0.5,0,1,0,1.6c0,0.3,0,0.6,0,1c0,0.4,0,0.7,0,1.1c0,0.3,0,0.6,0,1c0,0.5,0,1,0,1.6
			c0,0.3,0,0.6,0,1v0c0,0.4,0,0.9,0,1.3l0,0l0,0c0,0.4,0,0.7,0,1.1c0,0.4,0,0.8,0,1.2c0,0.4,0,0.9,0,1.3c0,0.4,0,0.8,0,1.2
			c0,0.4,0,0.9,0,1.3c0,0.4,0,0.7,0,1.1c0,0.4,0,0.8,0,1.2c0,0.4,0,0.9,0,1.3c0,0.4,0,0.7,0,1.1c0,0.4,0,0.8,0,1.2
			c0,0.2,0,0.4,0,0.6c0,0.2,0,0.3,0,0.5c0,0.5,0,1,0,1.5c0,0.4,0,0.8,0,1.2c0,1,0,2.1,0,3.1c0,0.5,0.1,0.6,0.6,0.6
			c7.1-0.1,14.1,0.1,21.2-0.1c0.5,0,1-0.1,1.5-0.2c1.9-0.3,3.7-0.7,5.4-1.4c1.2-0.5,2.4-1.1,3.4-1.9c0.4-0.1,0.7-0.4,1-0.7
			c0.4-0.1,0.5-0.4,0.7-0.6c0.6-0.3,1-0.9,1.5-1.5c0.4-0.3,0.6-0.7,0.8-1.1c0.3-0.4,0.6-0.8,0.8-1.2l0,0
			C176.3,80.2,176.5,79.8,176.7,79.5z M162.4,80.1C162.4,80,162.4,80.2,162.4,80.1c-0.2,0-0.2,0-0.3-0.1
			C162.2,80.1,162.2,80.1,162.4,80.1C162.4,80.1,162.4,80.1,162.4,80.1z M154.6,78c-0.1-0.3-0.5-0.3-0.7-0.3c-2.3-0.4-4.7-0.5-7-0.9
			c0-0.1,0-0.2,0.2-0.2c0.8-0.1,1.5-0.3,2.2-0.4c0.1,0,0.3,0,0.4-0.1c1.1,0,2.3-0.2,3.4-0.1c0.6,0,1.1-0.3,1.4-0.8
			c0.1-0.2,0.3-0.4,0.1-0.6c0.4-0.4,0.4-0.8,0.1-1.2c0.2-0.5,0.1-1-0.3-1.4c-0.1-0.3-0.4-0.3-0.7-0.3c-1.2-0.2-2.4-0.3-3.6-0.5
			c-1.4-0.2-2.7-0.4-4.1-0.5c-0.1-0.1-0.3-0.1-0.3-0.3c0.9-0.1,1.9-0.2,2.8-0.4c0.2,0,0.4,0,0.5-0.1c0,0,0,0,0,0c0.2,0,0.5,0,0.7,0
			c1.4,0,2.9-0.2,4.3-0.2c0.9-0.1,1.2-0.5,0.7-1.3c0.3-0.4,0.2-0.7-0.1-0.9c0.3-0.6,0.2-1-0.4-1.3c-0.5-0.2-1.1-0.5-1.7-0.5
			c-0.1-0.2-0.4-0.2-0.6-0.2c-1.4-0.4-2.8-0.4-4.2-0.7c-0.2,0-0.4-0.1-0.5,0.1c0,0,0,0,0,0c0-0.2-0.4-0.2-0.4-0.5
			c0.6-0.1,1.2-0.2,1.8-0.2c1.7,0.2,3.4,0.4,5.2,0.5c0.3,0,0.6,0.1,0.7-0.2c0.1-0.3-0.1-0.5-0.4-0.6c0.2-0.3,0.2-0.7-0.1-0.9
			c0,0,0,0,0,0c0.1-0.5,0.3-0.8,0.7-1c0.2-0.1,0.3-0.4,0.1-0.6c0.3-0.6,0.3-1-0.1-1.4c-0.1-0.4-0.3-0.6-0.6-0.8
			c0.2-0.4,0.3-0.7,0-1.1c0.2-0.5,0.1-1.2-0.3-1.6c0.2-0.4,0.1-0.7-0.2-1c-0.1-0.3-0.5-0.2-0.7-0.2c-1.3,0-2.6,0-3.9-0.1
			c-0.6,0-1-0.2-1.2-0.7c0.2-0.3,0.2-0.5,0.1-0.8c0.4-0.1,0.7-0.1,1.1-0.1c4.4,0,8.8,0,13.2,0c1,0,1,0,1.4,0.9l0,0
			c-0.6,0.1-1.3,0-1.9,0.1c-0.8,0-1.6,0-2.4,0c-0.7,0-0.8,0.4-0.6,1c-0.2,0.3-0.3,0.6-0.1,1c-0.3,0.5-0.5,1-0.2,1.6h0
			c-0.3,0.3-0.4,0.7-0.1,1.1c-0.3,0.2-0.4,0.5-0.6,0.8c-0.5,0.3-0.7,0.7-0.5,1.2c0,0,0,0,0,0c-0.2,0.2-0.2,0.3,0,0.5
			c-0.2,0.2,0,0.3,0.2,0.4c0.3,0.1,0.6,0,0.9,0.1c0,0.3-0.5,0.6-0.3,0.9c-0.2,0.3-0.2,0.6-0.1,0.9c0,0,0,0,0,0
			c-0.2,0.4-0.2,0.8,0,1.2c-0.2,0.2-0.3,0.6,0,0.7c0.6,0.2,1.2,0.5,1.9,0.2c0,0,0,0,0,0c0,0.1,0,0.1,0.1,0.2
			c0.2,0.1,0.4,0.2,0.6,0.2c1.1,0.2,2.1,0.4,3.2,0.6c0.8,0.2,1.6,0.6,2.5,0.7c0.2,0.3,0.6,0.4,0.7,0.7c-1,0.4-1.9,0.8-2.9,0.9
			c-0.1,0-0.2,0-0.2,0.1c0,0,0,0,0,0c-0.1,0-0.2,0-0.4,0c-1.8,0.1-3.5,0.4-5.3,0.4c-0.6,0-0.8,0.5-0.5,1.2c-0.2,0.4-0.4,0.7-0.1,1.2
			c-0.3,0.3-0.1,0.6,0.3,0.8c0.2,0.1,0.4,0.1,0.6,0.1c1.2,0.2,2.4,0.1,3.5,0.4c0.5,0.1,1,0.2,1.5,0.2c0.1,0.2,0.4,0.2,0.6,0.2
			c0.7,0.2,1.3,0.3,1.9,0.8c-0.8,0.6-1.7,0.9-2.6,1.1c-0.1,0-0.2,0-0.3,0.1c0,0,0,0,0,0c-1.7,0.1-3.4,0.3-5.1,0.3
			c-0.6,0-0.7,0.4-0.4,1c-0.2,0.5-0.2,0.9,0.2,1.3c0,0.1,0,0.2,0.1,0.2c0.9,0.5,1.8,1.1,2.9,1.2c0.1,0.2,0.3,0.2,0.5,0.2
			c0.1,0,0.2,0.1,0.3,0.1c-0.7-0.1-1.3,0.1-2,0.3c-0.1,0-0.2,0.1-0.3,0.2c-0.9,0.1-1.7,0.6-2.5,1c-0.1,0.1-0.3,0.2-0.2,0.4
			c0,0,0,0,0,0c-0.5-0.1-0.8,0.2-1.2,0.5c0.1-0.1,0.2-0.2,0.2-0.4c0.4-0.4,0.4-0.8,0-1.3c0.1-0.4-0.1-0.8-0.4-1.1c0,0,0,0,0,0
			C155.4,79,155.2,78.3,154.6,78z M160,81.7C160,81.7,160,81.7,160,81.7C160,81.8,160,81.8,160,81.7C160,81.7,160,81.7,160,81.7z
			 M160.6,81.8c0,0.1-0.1,0.1-0.1,0.1C160.5,81.8,160.5,81.8,160.6,81.8C160.6,81.7,160.6,81.7,160.6,81.8
			C160.6,81.7,160.6,81.7,160.6,81.8C160.6,81.8,160.6,81.8,160.6,81.8z"/>
		<path fill="#272628" d="M218.2,80.6c0.2-0.3,0.2-0.7,0.3-1.1c0-0.4,0.2-0.9,0.1-1.3c0.3-0.4,0.1-0.8,0.1-1.2c0-0.4,0-0.7,0-1.1
			c0.1-0.5,0-0.9-0.1-1.3c0-0.4-0.1-0.8-0.2-1.2c0-0.5-0.3-0.9-0.4-1.3c-0.2-0.4-0.4-0.8-0.6-1.2l0,0l0,0c-0.2-0.5-0.5-1-0.9-1.3
			c-0.2-0.5-0.6-0.8-1-1.1c-0.6-0.4-1-1-1.7-1.2c-0.7-0.6-1.6-1-2.5-1.3c-1-0.4-2-0.8-3-1.1c-1.3-0.5-2.6-0.9-4-1.1
			c-1.3-0.4-2.6-0.7-3.9-1c0-0.1-0.1-0.1-0.2-0.1c-1.2-0.3-2.4-0.6-3.4-1.5c-0.1-0.4-0.4-0.8-0.4-1.2c0-0.3,0.1-0.7,0.2-1
			c0.2-0.5,0.7-0.7,1.1-1c1.4-0.6,2.7-0.6,4.1-0.1c0.5,0.3,0.9,0.6,1.1,1.1c0.1,0.3,0.2,0.6,0.4,1c0,0.9,0,1,0.9,1
			c4.2,0,8.4,0,12.5,0c0.9,0,0.9,0,0.8-0.9c0,0,0,0,0-0.1c0.1-0.3,0-0.7-0.1-1c0.1-0.4-0.1-0.7-0.1-1.1c-0.1-0.5-0.2-1.1-0.5-1.6
			c0-0.4-0.2-0.7-0.4-1c-0.2-0.4-0.3-0.8-0.6-1.1c-0.3-0.5-0.6-1-1.1-1.3c-1-1.2-2.2-2-3.6-2.5c0,0-0.1-0.1-0.1-0.1
			c-2.7-1.2-5.5-1.7-8.5-1.8c-1.9-0.1-3.8-0.1-5.7,0.1c-1.4,0.1-2.8,0.3-4.2,0.6c-1.2,0.3-2.4,0.6-3.4,1.2c-1.5,0.5-2.8,1.5-4,2.5
			c-0.5,0.4-0.8,0.9-1.2,1.3c-0.2,0.4-0.5,0.7-0.7,1.1c-0.2,0.3-0.3,0.6-0.5,1c-0.2,0.5-0.5,1-0.5,1.6c-0.2,0.3-0.2,0.7-0.2,1.1
			c-0.2,0.3,0,0.7-0.2,1c0,0.4,0,0.9,0,1.3c0,0.5,0,1,0,1.6c0,0.3,0.1,0.6,0.1,1c0.1,0.4,0.2,0.7,0.2,1.1c0.1,0.3,0.1,0.7,0.3,1
			c0.2,0.6,0.4,1.1,0.8,1.6c0.2,0.3,0.4,0.7,0.7,1c0.4,0.5,0.9,0.9,1.3,1.3c0.6,0.4,1.1,0.9,1.8,1.1c0.9,0.6,1.9,1,3,1.2
			c1.5,0.5,3,1,4.5,1.3c1.3,0.5,2.7,0.9,4.1,1.2c1.3,0.5,2.6,0.7,3.9,1.3c0.4,0.3,0.8,0.6,1,1.1c0.2,0.4,0.2,0.8,0.2,1.2
			c0,0.5-0.3,0.9-0.4,1.3c-0.3,0.4-0.7,0.8-1.1,1.1c-0.4,0.2-0.8,0.3-1.2,0.5c-0.8,0.1-1.5,0-2.3,0v0c-0.4-0.2-0.7-0.3-1.1-0.5
			c-0.4-0.3-0.7-0.7-1-1.1c-0.2-0.4-0.3-0.9-0.5-1.3c0-0.2,0-0.4,0-0.7c0.1-0.6-0.2-0.7-0.7-0.7c-4.4,0-8.9,0-13.3,0
			c-1.3,0-1.3,0-1.3,1.3c0.1,0.4,0,0.9,0.2,1.3c0.1,0.4,0.1,0.7,0.2,1.1h0c0.1,0.1,0,0.4,0.2,0.5c0,0.3,0,0.5,0.2,0.7
			c0,0.4,0.3,0.7,0.4,1.1c0.3,0.5,0.5,1,0.9,1.5c0.3,0.5,0.6,1,1.1,1.3c0.8,0.9,1.8,1.6,2.9,2.2c3.1,1.7,6.5,2.2,9.9,2.4
			c1.8,0.1,3.7,0.1,5.5-0.1c1.5-0.1,2.9-0.3,4.3-0.6c3-0.6,5.7-1.7,7.9-3.8c0.6-0.4,0.9-0.9,1.3-1.4c0.4-0.4,0.7-0.9,1-1.5
			c0.2-0.3,0.4-0.7,0.5-1.1c0.1-0.2,0.2-0.5,0.2-0.7C218.2,80.9,218.2,80.7,218.2,80.6z"/>
		<path fill="#272628" d="M129.3,101.1c-1.3,0.2-2.7,0.5-4,0.7c-1,0.1-1.9,0.4-2.9,0.4h0h0c0.6-0.2,1.3-0.3,1.9-0.4
			c1.8-0.4,3.6-0.8,5.5-1.2c0.7-0.1,1.3-0.3,2-0.5c-0.6,0-1.2,0.1-1.8,0.3c-2,0.4-4,0.8-6,1.1c-1.8,0.3-3.5,0.7-5.3,0.9
			c-1.8,0.3-3.6,0.5-5.4,0.8c-1.7,0.2-3.5,0.4-5.2,0.6c-0.3,0-0.6-0.1-0.8,0.1h0c-0.1,0-0.2,0-0.4,0c-0.4,0-0.9,0-1.3,0
			c-3.2,0-6.4,0-9.5,0c-1.8,0-3.5-0.3-5.2-0.6c-2.6-0.5-5.2-1.1-7.7-2.3c-2.5-1.1-4.8-2.5-6.6-4.7c-1.9-2.3-2.8-5-2.9-7.9
			c0-0.9,0-1.8,0.1-2.8c0.1-1.7,0.3-3.3,0.6-5c0.6-3.3,1.7-6.5,3.1-9.5c1.4-3,3.2-5.8,5.3-8.4c1.8-2.3,3.7-4.4,5.9-6.4
			c1.5-1.4,3.1-2.7,4.7-3.9c2.9-2.2,6-4.1,9.2-5.9c2.7-1.5,5.6-2.8,8.4-4c3.3-1.4,6.7-2.5,10.1-3.5c1.9-0.5,3.9-1,5.8-1.5
			c1.8-0.4,3.7-0.8,5.6-1.2c1.5-0.3,3-0.6,4.5-0.7c1.3-0.1,2.5-0.3,3.8-0.4c1.6-0.2,3.1-0.3,4.7-0.5c0.7-0.1,1.4,0,2.1-0.2
			c-1.6-0.1-3.3,0-4.9,0.1c-0.1,0-0.3,0-0.4,0c-1.5,0-3,0.1-4.4,0.2c-0.9,0-1.8,0.1-2.7,0.2c-0.7,0-1.4,0.1-2.1,0.1
			c-1.6,0.1-3.3,0.3-4.9,0.4c-1,0.1-2,0.2-3,0.3c-1.6,0.1-3.1,0.4-4.7,0.6c-1.4,0.2-2.8,0.3-4.2,0.5c-2,0.3-4,0.6-6,1
			c-2.4,0.4-4.8,0.8-7.2,1.2c-2.5,0.5-5.1,1.1-7.6,1.7c-4.9,1.2-9.7,2.5-14.4,4.2c-4.5,1.6-8.9,3.3-13.1,5.6
			c-1.4,0.8-2.8,1.6-4.2,2.5c-3,1.9-5.8,4.1-8.2,6.8c-0.9,1-1.7,2-2.5,3c-1.6,2.4-2.9,4.9-3.7,7.7c-0.4,1.4-0.7,2.9-0.8,4.3
			c0,2-0.1,4.1,0.2,6.1c0.3,2,0.8,3.9,1.6,5.7c1.6,3.6,4.1,6.6,7.2,9c2.9,2.3,6.1,3.9,9.5,5.2c4.4,1.6,8.9,2.6,13.5,3.1
			c2.1,0.3,4.2,0.5,6.4,0.5c0.1,0,0.2,0,0.3,0.1c4.4,0,8.8,0,13.2,0c0.2-0.2,0.4-0.1,0.6-0.1c1.4,0,2.8-0.2,4.2-0.2
			c2.1-0.1,4.1-0.4,6.2-0.5c0.2,0,0.5,0.1,0.7-0.1h0c0.1,0,0.2,0,0.2,0c0.3,0,0.6,0,1,0c1.3-0.1,2.6-0.3,3.9-0.5
			c1.1-0.1,2.1-0.2,3.2-0.4c1.5-0.2,3-0.5,4.5-0.7c1.3-0.2,2.6-0.4,3.8-0.7c2.1-0.4,4.2-0.8,6.3-1.3c1-0.2,2.1-0.4,3.1-0.8
			c-0.5,0.1-1,0.1-1.6,0.2C134.2,100.2,131.7,100.7,129.3,101.1z M87,104.2c-1.6-0.2-3.2-0.5-4.8-0.8c-3.2-0.4-6.4-1-9.5-1.9
			c-5.5-1.5-10.6-3.8-14.9-7.6c-2.8-2.5-4.9-5.4-6.2-8.9c-1.2-3.3-1.7-6.7-1.4-10.1c0.3-3.3,1.1-6.4,2.6-9.3c1.9-3.7,4.7-6.8,8-9.5
			c4.5-3.7,9.6-6.4,14.9-8.7c5.6-2.4,11.4-4,17.3-5.5c6.1-1.5,12.4-2.8,18.6-3.8c4.4-0.7,8.8-1.3,13.2-1.8c1.4-0.1,2.8-0.3,4.2-0.4
			c-1.3,0.2-2.5,0.4-3.7,0.6c-5.3,1-10.4,2.5-15.5,4.3c-2.7,1-5.4,2-8,3.3c-4,1.9-7.9,4.1-11.6,6.6c-4.1,2.9-7.9,6.2-11.2,10
			c-3.5,4-6.3,8.5-8.1,13.5c-1.8,4.8-2.7,9.8-2.5,15c0.2,3,1.1,5.6,3.1,7.9c2.6,3,5.9,4.7,9.7,5.6c4.8,1.1,9.8,1.7,14.7,1.7
			c-0.3,0-0.5,0-0.8,0C92.5,104.5,89.7,104.5,87,104.2z"/>
		<path fill="#272628" d="M234.8,91.8c-0.7-0.2-1.4,0-2.1-0.1c-0.3,0-0.4,0.1-0.4,0.4c0,0.7,0,1.5,0,2.2c0,0.8,0,1.5,0,2.3
			c0,0.3,0.1,0.4,0.4,0.4c0.7,0,1.3,0,2-0.1c1-0.2,1.8-1.1,1.8-2.1c0-0.3,0-0.6,0-1C236.4,92.8,235.8,92.1,234.8,91.8z M233.1,96.4
			c-0.3,0-0.2-0.2-0.2-0.3c0-0.6,0-1.2,0-1.8c0-0.6,0-1.2,0-1.7c0-0.1-0.1-0.3,0.1-0.3c1-0.3,2.6,0.5,2.7,1.6
			C236.1,95.9,235.1,96.6,233.1,96.4z"/>
		<path fill="#272628" d="M253.2,93.3c-0.1,0-0.4-0.1-0.5,0.1c-0.1,0.3-0.1,0.2-0.3,0.1c-1-0.6-2.1-0.4-2.5,1
			c-0.3,1.2,0.3,2.2,1.4,2.5c0.5,0.1,0.9-0.1,1.3-0.4c0,0.7-0.2,1.1-0.8,1.3c-0.4,0.2-0.8,0-1.1-0.3c-0.2-0.3-0.5-0.3-0.7-0.2
			c-0.2,0.2,0,0.5,0.2,0.6c0.4,0.4,1.4,0.5,1.9,0.3c0.7-0.3,0.9-0.8,0.9-1.5C253.1,95.6,253.2,94.4,253.2,93.3z M251.5,96.4
			c-0.6,0-1-0.5-1-1.4c0-0.6,0.6-1.3,1-1.3c0.6,0,1.2,0.7,1.1,1.4C252.6,95.8,252.1,96.4,251.5,96.4z"/>
		<path fill="#272628" d="M152.4,96.7c-0.6-1.6-1.3-3.1-1.9-4.7c-0.1-0.3-0.3-0.3-0.5-0.3c-0.2,0-0.3,0.1-0.4,0.3
			c-0.1,0.3-0.2,0.5-0.3,0.8c-0.5,1.3-1,2.6-1.5,3.8c-0.1,0.1-0.1,0.3,0,0.3c0.2,0,0.4,0.2,0.5-0.1c0.1-0.2,0.2-0.4,0.2-0.6
			c0.1-0.5,0.4-0.8,1-0.7c0.5,0.1,0.9,0,1.4,0c0.2,0,0.4,0,0.5,0.3c0.1,0.3,0.3,0.6,0.4,1c0.1,0.3,0.3,0.1,0.5,0.2
			c0.1,0,0.1-0.1,0.1-0.2C152.5,96.7,152.4,96.7,152.4,96.7z M149.1,95.1c0.3-0.9,0.7-1.8,1-2.7c0.4,0.9,0.7,1.8,1,2.7
			C150.4,95.1,149.8,95.1,149.1,95.1z"/>
		<path fill="#272628" d="M213.8,92.1c0-0.2,0-0.4-0.3-0.4c-0.4,0-0.3,0.2-0.3,0.4c0,0.5,0,1,0,1.5c-0.8-0.6-1.5-0.6-2.1-0.1
			c-0.6,0.5-0.5,1.2-0.5,1.8c-0.1,1.3,1,2.3,2.4,1.5c0.1,0,0.3-0.3,0.3,0.1c0,0.3,0.3,0.1,0.5,0.1c0.2,0,0.1-0.2,0.1-0.3
			C213.8,95.1,213.8,93.6,213.8,92.1z M213.2,95.1c0,0.9-0.4,1.4-1,1.5c-0.5,0-0.7-0.2-0.9-0.6c-0.2-0.5-0.3-1.1,0-1.6
			c0.2-0.4,0.5-0.7,1-0.7c0.4,0,0.9,0.6,1,1.1C213.2,94.9,213.2,95,213.2,95.1z"/>
		<path fill="#272628" d="M116.1,95.3c0.4,0,0.7,0,1.1,0c0.3,0,0.6,0,1,0c0.2,0,0.3,0,0.3-0.3c0.1-0.9-0.5-1.7-1.2-1.9
			c-0.9-0.2-1.8,0.3-2,1.2c-0.1,0.3,0,0.7,0,1.1c0,0.9,0.5,1.5,1.5,1.7c0.7,0.1,1.4-0.3,1.7-1c0.1-0.1,0.2-0.3,0-0.4
			c-0.2-0.1-0.4-0.1-0.5,0.1c-0.1,0.1-0.1,0.2-0.1,0.3c-0.3,0.5-0.7,0.6-1.2,0.5c-0.4-0.1-0.6-0.5-0.7-0.9
			C115.8,95.4,115.8,95.3,116.1,95.3z M116.1,94c0.6-0.6,1.4-0.3,1.7,0.3c0.2,0.3,0.1,0.4-0.3,0.4c-0.2,0-0.5,0-0.7,0
			c-0.1,0-0.3,0-0.4,0c-0.2,0-0.5,0.1-0.5-0.1C115.7,94.4,115.9,94.2,116.1,94z"/>
		<path fill="#272628" d="M101.7,95.3c0.7,0,1.4,0,2.1,0c0.1,0,0.3,0.1,0.4-0.2c0.1-0.6-0.4-1.7-1-1.9c-1.3-0.4-2.2,0.3-2.4,1.6
			c-0.1,0.9,0.4,2,1.1,2.1c1.2,0.3,2-0.1,2.3-1.3c-0.3,0-0.6-0.1-0.7,0.2c-0.2,0.5-0.6,0.6-1.1,0.6c-0.5-0.1-0.7-0.4-0.9-0.8
			C101.3,95.4,101.4,95.3,101.7,95.3z M102.5,93.6c0.6,0,1,0.4,1.1,1c-0.7,0-1.4,0-2.1,0C101.6,94.1,101.9,93.7,102.5,93.6z"/>
		<path fill="#272628" d="M171.8,94.3c0-0.4-0.2-0.7-0.5-1c-0.9-0.5-1.9-0.1-2.3,0.9c0.3,0.1,0.5,0,0.7-0.2c0.2-0.2,0.5-0.4,0.9-0.3
			c0.3,0.1,0.5,0.3,0.5,0.5c0,0.2,0.1,0.5-0.3,0.4c-0.4-0.1-0.8,0-1.2,0.2c-0.6,0.2-0.9,1-0.7,1.6c0.2,0.5,0.9,0.8,1.6,0.7
			c0.3-0.1,0.5-0.5,0.9,0c0.1,0.1,0.5,0.1,0.4-0.3C171.8,95.9,171.8,95.1,171.8,94.3z M171.2,95.5c0,0.6-0.4,1-1,1
			c-0.4,0-0.8-0.1-0.7-0.6c0-0.5,0.3-0.7,1.1-0.7C170.9,95.2,171.3,95,171.2,95.5z"/>
		<path fill="#272628" d="M143.9,94.4c-0.1-0.5-0.1-1-0.8-1.2c-0.7-0.2-1.4,0-1.7,0.4c-0.1,0.2-0.4,0.4-0.1,0.6
			c0.1,0.1,0.4,0.1,0.6-0.2c0.3-0.4,0.7-0.4,1.1-0.2c0.3,0.1,0.4,0.4,0.3,0.7c0,0.3-0.3,0.1-0.5,0.2c-0.3,0.1-0.6,0-0.9,0.1
			c-0.5,0.1-0.8,0.3-0.9,0.8c-0.1,0.4-0.2,1,0.3,1.3c0.5,0.3,1,0.4,1.5,0.1c0.1-0.1,0.4-0.4,0.5,0.1c0,0,0.5,0.2,0.5-0.3
			c0-0.4,0-0.7,0-1.1C143.9,95.2,143.9,94.8,143.9,94.4z M143.3,95.5c0,0.6-0.4,1-1,1c-0.5,0-0.8-0.2-0.8-0.6c0-0.4,0.5-0.7,1.2-0.7
			C142.9,95.3,143.3,95,143.3,95.5z"/>
		<path fill="#272628" d="M217.3,94.3c0-0.4-0.2-0.8-0.5-1c-0.9-0.5-1.9-0.1-2.2,0.9c0.4,0,0.4,0,0.7-0.2c0.3-0.4,0.9-0.4,1.3-0.1
			c0.2,0.2,0.2,0.4,0.2,0.6c-0.1,0.3-0.3,0.1-0.4,0.1c-0.5,0.2-1,0-1.4,0.3c-0.5,0.3-0.6,1-0.4,1.5c0.2,0.5,0.9,0.7,1.4,0.6
			c0.3-0.1,0.6-0.4,1,0c0.1,0.1,0.4,0.1,0.4-0.3C217.3,95.9,217.3,95.1,217.3,94.3z M216.7,95.5c0,0.6-0.4,1-1,1
			c-0.5,0-0.7-0.2-0.7-0.7c0-0.4,0.4-0.7,1.2-0.7C216.4,95.2,216.8,95,216.7,95.5z"/>
		<path fill="#272628" d="M127.5,94.7c-0.3,0-0.6,0-0.9,0.1c-0.6,0-1,0.3-1.2,0.8c-0.2,0.5,0,0.9,0.4,1.3c0.3,0.3,1.1,0.4,1.7,0
			c0.2-0.1,0.2-0.3,0.3,0.1c0,0.2,0.3,0.1,0.5,0.1c0.1,0,0.1-0.1,0.1-0.2c-0.2-0.5,0-1-0.1-1.4c0-0.4,0-0.7,0-0.9
			c0-0.8-0.2-1.1-0.8-1.3c-0.6-0.1-1.5,0.1-1.8,0.6c-0.1,0.2-0.2,0.4,0,0.5c0.1,0,0.4,0.2,0.5-0.1c0.1-0.4,0.5-0.5,0.8-0.4
			c0.4,0,0.6,0.3,0.7,0.6C127.9,94.5,127.7,94.6,127.5,94.7z M127.8,95.4c0.1,0.4-0.2,0.8-0.5,1c-0.3,0.2-0.6,0.2-0.9,0
			c-0.2-0.1-0.4-0.3-0.3-0.6c0.1-0.4,0.4-0.5,0.7-0.6c0.1-0.1,0.3,0,0.5,0C127.4,95.3,127.7,95,127.8,95.4z"/>
		<path fill="#272628" d="M99.7,97c0.3,0,0.3-0.1,0.3-0.3c0-0.8,0-1.6,0-2.4c0-0.7-0.4-1.1-1.1-1.2c-0.4,0-0.8,0.1-1.2,0.3
			c0-0.5,0-1,0-1.5c0-0.2-0.1-0.3-0.3-0.3c-0.2,0-0.3,0.1-0.3,0.3c0,1.6,0,3.1,0,4.7c0,0.2,0,0.3,0.3,0.3c0.3,0,0.3-0.1,0.3-0.4
			c0-0.6,0-1.2,0-1.9c0-0.6,0.4-1.1,0.9-1.2c0.5,0,0.9,0.4,0.9,1.1c0,0.6,0,1.3,0,1.9C99.5,96.8,99.4,97,99.7,97z"/>
		<path fill="#272628" d="M189.2,93.4c-0.6-0.3-1.2-0.4-1.8,0c-0.7,0.4-0.9,1-0.9,1.7c0,1.2,0.8,2.1,1.8,2c0.8-0.1,1.5-0.7,1.7-1.6
			C190.1,94.9,189.8,93.7,189.2,93.4z M188.2,96.5c-0.7,0-1.1-0.5-1.1-1.5c0-0.7,0.5-1.4,1.1-1.4c0.6,0,1.2,0.7,1.2,1.4
			C189.4,95.8,188.8,96.5,188.2,96.5z"/>
		<path fill="#272628" d="M224.5,93.3c-1.4-0.6-2.6,0.5-2.5,1.8c0,0.1,0,0.3,0,0.4c0.1,1.2,0.9,1.7,2.1,1.6c0.9-0.1,1.4-1.2,1.4-2
			C225.4,94.3,225.3,93.6,224.5,93.3z M224.6,96.1c-0.3,0.4-0.7,0.6-1.2,0.4c-0.5-0.1-0.7-0.6-0.8-1.1c0-0.1,0-0.2,0-0.4
			c-0.1-0.4,0.1-0.8,0.5-1.1c0.4-0.3,1-0.3,1.4,0C225,94.4,225,95.6,224.6,96.1z"/>
		<path fill="#272628" d="M201.1,93.3c-0.6-0.3-1.3-0.3-1.9,0.2c-0.6,0.4-0.8,1.7-0.5,2.5c0.4,0.9,1,1.2,2,1c0.9-0.2,1.3-0.8,1.3-2
			C202.1,94.3,201.8,93.7,201.1,93.3z M201.3,95.8c-0.2,0.5-0.6,0.8-1.1,0.7c-0.6-0.1-0.8-0.5-1-1c0-0.1,0-0.3,0-0.5
			c0-0.4,0.1-0.7,0.3-1c0.7-0.7,1.3-0.6,1.7,0.3C201.5,94.8,201.5,95.3,201.3,95.8z"/>
		<path fill="#272628" d="M177.6,93.3c-0.8,0.3-1.2,1.5-0.9,2.6c0.2,0.9,1.1,1.4,2,1.2c0.9-0.2,1.3-0.8,1.3-1.9
			C180.1,93.4,178.7,92.8,177.6,93.3z M179.1,96.1c-0.3,0.4-0.7,0.6-1.2,0.4c-0.5-0.1-0.7-0.6-0.8-1.1c0-0.1,0-0.2,0-0.4
			c-0.1-0.4,0.1-0.8,0.5-1.1c0.4-0.3,1-0.3,1.4,0C179.5,94.4,179.5,95.6,179.1,96.1z"/>
		<path fill="#272628" d="M133,95.1c0,1.2,0.7,2,1.8,2c0.9,0,1.7-0.9,1.7-2c0-1.2-0.7-2-1.7-2C133.7,93,133,94.1,133,95.1z
			 M135.9,95.1c0,0.7-0.5,1.6-1.2,1.5c-0.6-0.1-1.1-0.7-1.1-1.4c0-0.8,0.5-1.5,1.1-1.5C135.3,93.6,135.9,94.3,135.9,95.1z"/>
		<path fill="#272628" d="M162.6,93.5c-0.6-0.5-1.3-0.5-2-0.1c-0.7,0.4-0.8,1.1-0.8,1.9c0.1,0.2-0.1,0.4,0.1,0.7
			c0.4,0.7,0.9,1.2,1.6,1.2c0.8,0,1.4-0.5,1.6-1.3C163.4,95,163.1,93.9,162.6,93.5z M162.6,95.1c0,0.3,0,0.5-0.1,0.7
			c-0.2,0.6-1,0.9-1.5,0.5c-0.9-0.5-0.8-2.1,0-2.5c0.7-0.4,1.5,0,1.6,0.8C162.7,94.8,162.6,95,162.6,95.1z"/>
		<path fill="#272628" d="M154.9,94.9c-0.4-0.1-0.8-0.2-1.2-0.4c-0.2-0.1-0.4-0.2-0.3-0.4c0-0.2,0.1-0.3,0.4-0.4
			c0.5-0.2,0.9-0.1,1.1,0.3c0.2,0.3,0.4,0.2,0.6,0.1c0.2-0.1,0.1-0.3,0-0.5c-0.3-0.5-0.7-0.6-1.2-0.5c-0.1,0-0.3,0-0.4,0
			c-0.4,0.1-0.9,0.2-1,0.8c-0.1,0.8,0.1,1.1,0.8,1.3c0.3,0.1,0.6,0.2,1,0.2c0.2,0.1,0.4,0.2,0.5,0.5c0,0.3-0.2,0.5-0.4,0.6
			c-0.4,0.2-0.9,0.2-1.3-0.2c-0.2-0.2-0.4-0.5-0.6-0.3c-0.2,0.2-0.1,0.5,0.2,0.8c0.5,0.4,1.4,0.4,2,0.2c0.5-0.2,0.7-0.6,0.7-1.1
			C155.6,95.3,155.4,95.1,154.9,94.9z"/>
		<path fill="#272628" d="M197.8,94c-0.2,0-0.4,0-0.7,0c-1.5,0-1.5,0-1.4-1.5c0-0.3,0.1-0.4,0.4-0.4c0.5,0,1,0,1.6,0
			c0.2,0,0.5,0.2,0.5-0.2c0-0.4-0.3-0.2-0.4-0.2c-0.7,0-1.5,0-2.2,0c-0.4,0-0.4,0.1-0.4,0.4c0,0.7,0,1.5,0,2.2c0,0.8,0,1.5,0,2.3
			c0,0.2-0.1,0.4,0.3,0.4c0.4,0,0.3-0.2,0.3-0.4c0-0.5,0-1.1,0-1.6c0-0.4,0.1-0.5,0.5-0.5c0.5,0,1,0,1.6,0c0.2,0,0.4,0,0.4-0.3
			C198.2,93.9,198,94,197.8,94z"/>
		<path fill="#272628" d="M158.2,94.8c-0.3,0-0.6-0.1-0.9-0.2c-0.2-0.1-0.4-0.2-0.4-0.4c0-0.2,0.2-0.3,0.3-0.4
			c0.5-0.3,0.9-0.1,1.2,0.3c0.2,0.3,0.4,0.2,0.6,0.1c0.2-0.1,0-0.3,0-0.5c-0.3-0.5-0.7-0.6-1.3-0.6c-0.1,0-0.2,0-0.4,0
			c-0.6,0.1-1,0.5-1,1c-0.1,0.6,0.2,0.9,0.8,1c0.4,0.1,0.7,0.2,1.1,0.3c0.2,0.1,0.3,0.2,0.4,0.4c0,0.2-0.1,0.4-0.3,0.5
			c-0.5,0.3-1.1,0.2-1.5-0.3c-0.2-0.3-0.4-0.2-0.6-0.1c-0.2,0.1,0,0.3,0,0.5c0.3,0.6,1.2,0.8,2.1,0.5c0.6-0.2,0.9-0.6,0.8-1.1
			C159.2,95.2,158.8,94.9,158.2,94.8z"/>
		<path fill="#272628" d="M140.2,94.5c-0.1-1.2-1-1.6-2-1.2c-0.2,0.1-0.3,0.1-0.5,0c-0.2-0.1-0.5-0.1-0.5,0.4c0,0.5,0,1,0,1.4
			c0,0.5,0,1,0,1.5c0,0.2,0,0.4,0.3,0.4c0.3,0,0.3-0.2,0.3-0.4c0-0.7,0-1.3,0-2c0-0.5,0.5-1,0.9-1c0.5,0,0.9,0.4,0.9,1
			c0,0.7,0,1.4,0,2.1c0,0.2,0.1,0.3,0.3,0.3c0.2,0,0.3-0.1,0.3-0.3C140.3,96,140.3,95.2,140.2,94.5z"/>
		<path fill="#272628" d="M249.2,94.5c-0.1-1.2-0.9-1.7-2-1.2c-0.1,0.1-0.2,0.2-0.5,0c-0.2-0.2-0.6-0.2-0.5,0.4c0,0.5,0,1,0,1.4
			c0,0.5,0,1,0,1.5c0,0.2-0.1,0.4,0.3,0.4c0.3,0,0.3-0.2,0.3-0.4c0-0.6,0-1.3,0-1.9c0-0.5,0.5-1.1,0.9-1.1c0.5,0,0.9,0.4,0.9,1.1
			c0,0.7,0,1.3,0,2c0,0.2,0,0.4,0.3,0.4c0.3,0,0.3-0.1,0.3-0.3C249.2,96,249.2,95.2,249.2,94.5z"/>
		<path fill="#272628" d="M124.1,93.3c-0.5-0.3-1.1-0.3-1.6,0.1c-0.2,0.1-0.3,0.4-0.4-0.1c0,0-0.2,0-0.3,0c-0.1,0-0.1,0.2-0.1,0.2
			c0,0.5,0,1,0,1.6s0,1,0,1.6c0,0.2,0,0.4,0.3,0.4c0.3,0,0.3-0.2,0.3-0.4c0-0.6,0-1.2,0-1.9c0-0.6,0.4-1.1,0.9-1.1
			c0.5,0,0.9,0.4,0.9,1.1c0,0.6,0,1.3,0,1.9c0,0.2-0.1,0.4,0.2,0.4c0.3,0,0.2-0.2,0.2-0.4c0-0.7,0-1.4,0-2.2
			C124.7,94,124.5,93.5,124.1,93.3z"/>
		<path fill="#272628" d="M165.5,93.6c0.3,0,0.7,0.2,0.7,0.6c0.1,0.4,0.3,0.3,0.5,0.3c0.3,0,0.2-0.3,0.1-0.4
			c-0.1-0.3-0.3-0.6-0.6-0.7c-1.4-0.6-2.5,0.3-2.4,1.9c-0.1,0.4,0.1,0.9,0.3,1.3c0.3,0.5,0.9,0.6,1.3,0.6c0.5,0,1.1-0.2,1.3-0.8
			c0.1-0.2,0.2-0.5-0.1-0.6c-0.2-0.1-0.4-0.1-0.5,0.3c-0.2,0.6-0.9,0.7-1.3,0.3c-0.6-0.6-0.6-1.3-0.2-2.1
			C164.9,93.8,165.2,93.6,165.5,93.6z"/>
		<path fill="#272628" d="M96.3,92.2c0.1,0,0.1,0,0.2,0c0.2,0,0.2-0.1,0.2-0.2c0-0.2-0.1-0.2-0.2-0.2c-1.2,0-2.3,0-3.5,0
			c-0.2,0-0.2,0.1-0.2,0.2c0,0.2,0.1,0.2,0.2,0.2c0.4,0,0.7,0,1.1,0c0.3,0,0.4,0.1,0.4,0.4c0,0.7,0,1.4,0,2.1c0,0.7,0,1.3,0,2
			c0,0.2-0.1,0.4,0.3,0.4c0.4,0,0.3-0.2,0.3-0.4c0-1,0-2.1,0-3.1C95,92.2,95,92.2,96.3,92.2z"/>
		<path fill="#272628" d="M209.7,94.5c0-0.5-0.1-1-0.6-1.2c-0.5-0.2-1.1-0.3-1.5,0.1c-0.1,0.1-0.2,0.2-0.3-0.1
			c0-0.2-0.3-0.1-0.5-0.1c-0.2,0-0.1,0.2-0.1,0.3c0.2,0.6,0,1.2,0.1,1.6c0,0.6,0,1,0,1.5c0,0.2,0,0.3,0.3,0.3c0.2,0,0.2-0.1,0.2-0.3
			c0-0.2,0-0.4,0-0.6c0-0.6-0.1-1.3,0.2-1.9c0.2-0.4,0.5-0.6,0.9-0.6c0.4,0,0.7,0.3,0.8,0.7c0.2,0.8,0.1,1.5,0.1,2.3
			c0,0.2,0,0.4,0.3,0.3c0.3,0,0.2-0.2,0.2-0.3C209.7,96,209.7,95.2,209.7,94.5z"/>
		<path fill="#272628" d="M111.7,97c0.4,0,0.3-0.3,0.3-0.5c0-0.7,0-1.3,0-2c0-0.5-0.1-1-0.6-1.3c-0.5-0.2-1.1-0.3-1.6,0.2
			c-0.2,0.2-0.2,0.1-0.3-0.1c-0.1-0.2-0.3-0.1-0.5-0.1c-0.1,0-0.1,0.1-0.1,0.2c0.2,0.6,0,1.2,0.1,1.7c0,0.6,0,1.1,0,1.6
			c0,0.2,0,0.3,0.2,0.3c0.2,0,0.3,0,0.3-0.2c0-0.2,0-0.3,0-0.5c0-0.7-0.1-1.3,0.1-2c0.1-0.5,0.5-0.7,0.9-0.7c0.4,0,0.7,0.2,0.8,0.7
			c0.2,0.7,0,1.5,0.1,2.2C111.5,96.7,111.3,97,111.7,97z"/>
		<path fill="#272628" d="M229.2,94.6c0-0.5-0.1-1-0.6-1.3c-0.5-0.3-1.1-0.3-1.7,0.2c-0.1,0-0.2,0.3-0.2,0c0-0.3-0.2-0.2-0.3-0.2
			c-0.2,0-0.1,0.2-0.1,0.3c0,0.5,0,1,0,1.5c0,0.5,0,1,0,1.5c0,0.2-0.1,0.4,0.3,0.4c0.3,0,0.2-0.2,0.2-0.4c0.1-0.7-0.1-1.4,0.1-2.1
			c0.2-0.5,0.6-1,1-0.9c0.4,0.1,0.8,0.6,0.9,1.1c0,0.6,0,1.2,0,1.9c0,0.2-0.1,0.4,0.3,0.4c0.4,0,0.2-0.3,0.2-0.4
			C229.2,95.9,229.2,95.2,229.2,94.6z"/>
		<path fill="#272628" d="M183.7,94.5c0-0.5-0.1-1-0.6-1.2c-0.5-0.2-1.1-0.3-1.6,0.1c-0.1,0.1-0.2,0.4-0.3,0c0-0.3-0.3-0.1-0.5-0.1
			c-0.2,0,0,0.2,0,0.3c0,0.5,0,1,0,1.4c0,0.5,0,1.1,0,1.6c0,0.2,0,0.4,0.3,0.3c0.3,0,0.2-0.2,0.2-0.3c0-0.6,0-1.2,0-1.8
			c0-0.8,0.5-1.3,1-1.3c0.6,0,0.9,0.5,0.9,1.3c0,0.6,0,1.1,0,1.7c0,0.2-0.1,0.4,0.2,0.4c0.3,0,0.2-0.2,0.2-0.4
			C183.7,95.9,183.7,95.2,183.7,94.5z"/>
		<path fill="#272628" d="M205.5,93.3c-0.4,0-0.3,0.2-0.3,0.4c0,0.5,0,1,0,1.6c0,0.8-0.5,1.3-1.1,1.3c-0.6,0-0.9-0.4-0.9-1.3
			c0-0.5,0-0.9,0-1.4c0-0.2,0.2-0.6-0.2-0.6c-0.4,0-0.2,0.4-0.2,0.6c0,0.6,0.1,1.2,0,1.8c-0.1,1.1,1,1.8,2,1.3
			c0.1-0.1,0.4-0.4,0.5,0.1c0,0.1,0.4,0.1,0.4-0.3c0-0.5,0-1,0-1.6c0-0.5,0-1,0-1.5C205.7,93.5,205.8,93.3,205.5,93.3z"/>
		<path fill="#272628" d="M129.6,96.1c0,0.8,0.3,1.1,1.1,0.9c0.2,0,0.4,0.1,0.4-0.3c0-0.3-0.2-0.2-0.4-0.2c-0.4,0-0.5-0.2-0.5-0.6
			c0-0.6,0-1.2,0-1.8c0-0.3,0.1-0.5,0.4-0.4c0.2,0,0.3,0,0.3-0.2c0-0.2-0.1-0.3-0.3-0.2c-0.4,0.1-0.5-0.1-0.4-0.5c0-0.2,0-0.3,0-0.5
			c-0.4,0.1-0.7,0.1-0.6,0.6c0.1,0.4-0.2,0.4-0.4,0.4c-0.2,0-0.3,0-0.3,0.2c0,0.2,0.1,0.3,0.3,0.2c0.4-0.1,0.4,0.2,0.4,0.5
			C129.6,94.8,129.6,95.5,129.6,96.1z"/>
		<path fill="#272628" d="M113.3,96.2c0,0.7,0.5,1,1.2,0.8c0.2-0.1,0.3-0.1,0.3-0.3c0-0.3-0.2-0.2-0.3-0.2c-0.4,0.1-0.5-0.2-0.5-0.6
			c0-0.6,0-1.2,0-1.8c0-0.3,0-0.5,0.4-0.4c0.2,0,0.4,0.1,0.4-0.2c0-0.3-0.2-0.2-0.4-0.2c-0.3,0-0.4-0.1-0.4-0.4c0-0.2,0-0.4,0-0.6
			c-0.4,0-0.7,0.2-0.6,0.6c0.1,0.3-0.1,0.4-0.4,0.3c-0.2,0-0.4,0-0.4,0.3c0,0.3,0.2,0.2,0.3,0.2c0.4-0.1,0.4,0.1,0.4,0.4
			C113.3,94.9,113.3,95.5,113.3,96.2z"/>
		<path fill="#272628" d="M192.1,93.3c-0.3,0-0.6,0.1-0.5-0.4c0-0.4,0-0.8,0.5-0.7c0.2,0,0.3,0.1,0.3-0.2c0-0.2-0.1-0.4-0.3-0.4
			c-0.6-0.1-1,0.3-1,0.9c0,0.4,0.2,1-0.6,0.8c-0.2,0-0.2,0.1-0.2,0.3c0,0.1,0,0.3,0.2,0.2c0.6-0.1,0.5,0.3,0.5,0.7
			c0,0.3,0,0.6,0,0.9c0,0.4,0,0.8,0,1.2c0,0.2-0.2,0.5,0.3,0.5c0.4,0,0.2-0.3,0.2-0.4c0-0.8,0-1.5,0-2.3c0-0.4,0.1-0.6,0.5-0.5
			c0.2,0,0.4,0,0.3-0.3C192.4,93.2,192.2,93.3,192.1,93.3z"/>
		<path fill="#272628" d="M219.7,93.7c0.2,0,0.4,0,0.3-0.3c0-0.3-0.2-0.2-0.3-0.2c-0.4,0.1-0.6-0.1-0.5-0.5c0-0.1,0.1-0.4-0.1-0.4
			c-0.2,0-0.4,0.1-0.3,0.4c0.1,0.4,0,0.6-0.5,0.5c-0.2,0-0.3,0-0.3,0.2c0,0.2,0,0.3,0.2,0.3c0.5-0.1,0.5,0.2,0.5,0.6
			c0,0.3,0,0.6,0,0.9c0,0.4,0,0.7,0,1.1c0,0.6,0.5,0.9,1.1,0.7c0.2-0.1,0.2-0.1,0.2-0.3c0-0.2-0.1-0.2-0.3-0.2
			c-0.5,0-0.6-0.3-0.6-0.7c0-0.5,0-1,0-1.5C219.1,93.9,219.1,93.6,219.7,93.7z"/>
		<path fill="#272628" d="M174.2,93.7c0.1,0,0.3,0.1,0.3-0.2c0-0.3-0.2-0.3-0.3-0.3c-0.4,0.1-0.6-0.1-0.5-0.5c0-0.1,0-0.3,0-0.5
			c-0.4,0.1-0.5,0.3-0.5,0.6c0,0.3,0,0.4-0.3,0.4c-0.2,0-0.4-0.1-0.4,0.2c0,0.3,0.2,0.3,0.4,0.3c0.3,0,0.4,0.1,0.4,0.4
			c0,0.7,0,1.4,0,2.1c0,0.7,0.4,1,1.1,0.8c0.2-0.1,0.3-0.1,0.3-0.3c0-0.2-0.1-0.2-0.3-0.2c-0.5,0-0.6-0.3-0.6-0.7c0-0.5,0-1,0-1.5
			C173.6,93.9,173.7,93.6,174.2,93.7z"/>
		<path fill="#272628" d="M243.3,91.7c-0.3,0-0.3,0.2-0.3,0.4c0,0.7,0,1.5,0,2.2c0,0.8,0,1.6,0,2.4c0,0.2,0,0.4,0.3,0.4
			c0.3,0,0.3-0.2,0.3-0.4c0-1.5,0-3.1,0-4.6C243.6,91.8,243.6,91.7,243.3,91.7z"/>
		<path fill="#272628" d="M107.5,91.7c-0.3,0-0.3,0.2-0.3,0.4c0,0.7,0,1.5,0,2.2c0,0.8,0,1.6,0,2.4c0,0.2,0,0.4,0.3,0.4
			c0.3,0,0.3-0.2,0.3-0.4c0-1.5,0-3.1,0-4.6C107.8,91.8,107.8,91.7,107.5,91.7z"/>
		<path fill="#272628" d="M120.8,93.6c0.2,0,0.3,0.1,0.3-0.2c0-0.2-0.1-0.3-0.3-0.3c-0.5,0-0.9,0.4-1.4,0.2
			c-0.2-0.1-0.1,0.2-0.1,0.3c0,0.5,0,1,0,1.5c0,0.5,0,1,0,1.6c0,0.2,0,0.3,0.3,0.3c0.3,0,0.3-0.1,0.3-0.4c0-0.6,0-1.3,0-1.9
			C119.9,94.1,120.3,93.7,120.8,93.6z"/>
		<path fill="#272628" d="M238.9,93.1c-0.5-0.1-0.8,0.6-1.3,0.2c-0.1-0.1-0.2,0.1-0.2,0.3c0,0.5,0,1,0,1.6c0,0.5,0,1,0,1.6
			c0,0.2,0,0.3,0.3,0.3c0.3,0,0.3-0.1,0.3-0.3c0-0.7,0-1.3,0-2c0-0.8,0.4-1,1-1c0.2,0,0.2,0,0.2-0.2
			C239.3,93.3,239.2,93.2,238.9,93.1z"/>
		<path fill="#272628" d="M145.1,91.7c-0.3,0-0.3,0.2-0.3,0.3c0,1.6,0,3.1,0,4.7c0,0.2,0,0.3,0.2,0.3c0.3,0,0.3-0.2,0.3-0.3
			c0-0.8,0-1.6,0-2.4c0-0.7,0-1.5,0-2.2C145.3,91.9,145.4,91.7,145.1,91.7z"/>
		<path fill="#272628" d="M241.9,92c0-0.2,0.1-0.4-0.2-0.4c-0.3,0-0.2,0.2-0.2,0.4c0,0.7,0,1.5,0,2.2c0,0.8,0,1.6,0,2.4
			c0,0.2-0.1,0.4,0.2,0.4c0.3,0,0.2-0.2,0.2-0.4C241.9,95.1,241.9,93.6,241.9,92z"/>
		<path fill="#272628" d="M244.9,93.2c-0.2,0-0.3,0.1-0.3,0.3c0,1,0,2.1,0,3.1c0,0.2,0.1,0.3,0.3,0.3c0.2,0,0.3-0.1,0.3-0.3
			c0-0.5,0-1,0-1.6s0-1,0-1.6C245.2,93.3,245.1,93.2,244.9,93.2z"/>
		<path fill="#272628" d="M168.2,95.1c0-0.5,0-1,0-1.5c0-0.2,0-0.4-0.3-0.4c-0.3,0-0.3,0.1-0.3,0.4c0,1,0,2.1,0,3.1
			c0,0.2,0,0.3,0.3,0.3c0.3,0,0.3-0.1,0.3-0.4C168.2,96.1,168.2,95.6,168.2,95.1z"/>
		<path fill="#272628" d="M132,93.2c-0.2,0-0.3,0.1-0.3,0.3c0,1,0,2.1,0,3.1c0,0.2,0.1,0.3,0.3,0.3c0.2,0,0.3-0.1,0.3-0.3
			c0-0.5,0-1,0-1.5c0-0.5,0-1.1,0-1.6C132.3,93.3,132.2,93.3,132,93.2z"/>
		<path fill="#272628" d="M240.1,93.2c-0.3,0-0.2,0.2-0.2,0.3c0,1,0,2.1,0,3.1c0,0.2,0,0.3,0.3,0.3c0.3,0,0.2-0.2,0.2-0.3
			c0-0.5,0-1,0-1.5c0-0.5,0-1,0-1.6C240.3,93.4,240.4,93.2,240.1,93.2z"/>
		<path fill="#272628" d="M221,93.3c-0.3,0-0.3,0.1-0.3,0.3c0,1,0,2.1,0,3.1c0,0.1-0.1,0.3,0.2,0.3c0.3,0,0.3-0.1,0.3-0.3
			c0-0.5,0-1,0-1.5c0-0.5,0-1,0-1.6C221.2,93.4,221.3,93.3,221,93.3z"/>
		<path fill="#272628" d="M175.7,93.6c0-0.2,0-0.4-0.3-0.3c-0.3,0-0.2,0.2-0.2,0.3c0,1,0,2.1,0,3.1c0,0.2,0,0.4,0.3,0.3
			c0.3,0,0.2-0.2,0.2-0.3c0-0.5,0-1,0-1.5C175.7,94.6,175.7,94.1,175.7,93.6z"/>
		<path fill="#272628" d="M240.1,91.7c-0.2,0-0.4-0.1-0.4,0.2c0,0.2,0,0.4,0.4,0.3c0.1,0,0.3,0.1,0.3-0.2
			C240.5,91.8,240.4,91.6,240.1,91.7z"/>
		<path fill="#272628" d="M175.5,91.7c-0.2,0-0.4,0-0.4,0.3c0,0.3,0.1,0.3,0.4,0.3c0.2,0,0.4,0,0.4-0.3
			C175.8,91.7,175.7,91.7,175.5,91.7z"/>
		<path fill="#272628" d="M132.3,92c0-0.2,0-0.3-0.3-0.3c-0.2,0-0.3,0-0.3,0.3c0,0.2,0,0.4,0.3,0.4C132.2,92.3,132.3,92.2,132.3,92z
			"/>
		<path fill="#272628" d="M167.9,91.7c-0.3,0-0.3,0.1-0.3,0.4c0,0.3,0.2,0.2,0.3,0.3c0.3,0,0.3-0.1,0.3-0.3
			C168.3,91.7,168.1,91.7,167.9,91.7z"/>
		<path fill="#272628" d="M221,91.7c-0.2,0-0.3,0.1-0.3,0.3c0,0.3,0.1,0.3,0.4,0.3c0.3,0,0.2-0.2,0.3-0.3
			C221.4,91.7,221.2,91.7,221,91.7z"/>
		<path fill="#272628" d="M244.9,91.7c-0.2,0-0.4,0-0.3,0.3c0,0.2,0,0.4,0.3,0.4c0.2,0,0.4,0,0.3-0.3
			C245.2,91.8,245.2,91.7,244.9,91.7z"/>
	</g>
</svg>
