<?xml version="1.0" encoding="utf-8"?>
<!DOCTYPE svg PUBLIC "-//W3C//DTD SVG 1.1//EN" "http://www.w3.org/Graphics/SVG/1.1/DTD/svg11.dtd">
<svg version="1.1" xmlns="http://www.w3.org/2000/svg" xmlns:xlink="http://www.w3.org/1999/xlink" x="0px" y="0px"
	 viewBox="0 0 330 148" enable-background="new 0 0 330 148" xml:space="preserve">
	<g>
		<path fill="#272628" d="M132.4,105.3c0-19.6,0-39.1,0-58.7c0.2,0,0.3-0.1,0.5-0.1c5.5,0,10.9-0.1,16.4,0.1
			c2.3,0.1,4.6,0.5,6.8,0.9c2.2,0.4,3.6,1.8,4,4c0.4,2.1,0.8,4.2,0.8,6.2c0.1,12.1,0.1,24.3,0,36.4c0,2.1-0.4,4.2-0.8,6.3
			c-0.4,2.2-1.9,3.6-4.1,4c-2.4,0.4-4.8,0.8-7.3,0.8c-5.2,0.1-10.4,0-15.6,0C132.8,105.3,132.6,105.3,132.4,105.3z M144.8,55.8
			c0,13.4,0,26.7,0,40c0.2,0,0.4,0,0.6,0.1c2.6,0.1,3-0.3,3-2.8c0-11.3,0-22.5,0-33.8c0-0.6-0.1-1.2-0.1-1.8
			c-0.1-0.7-0.5-1.3-1.2-1.4C146.3,55.9,145.6,55.9,144.8,55.8z"/>
		<path fill="#272628" d="M178.4,68.2c2.4,0,4.8,0,7.3,0c0,3.2,0,6.3,0,9.5c-2.4,0-4.8,0-7.3,0c0,9.2,0,18.3,0,27.5
			c-4.1,0-8.1,0-12,0c0,0.1-0.1,0.1-0.1,0.2c6,5.7,12.1,11.4,18.2,17.1c6.1-5.7,12.1-11.4,18.3-17.2c0,6.8,0,13.4,0,20.1
			c-12.1,0-24.3,0-36.6,0c0-26.3,0-52.6,0-79c6.5,0,13,0,19.6,0c0,3.1,0,6.2,0,9.4c-2.4,0-4.8,0-7.3,0
			C178.4,60.1,178.4,64.1,178.4,68.2z"/>
		<path fill="#272628" d="M190.4,46.5c4.1,0,8.1,0,12.3,0c0,19.6,0,39.2,0,58.8c-4.1,0-8.1,0-12.3,0
			C190.4,85.7,190.4,66.1,190.4,46.5z"/>
		<path fill="#272628" d="M210.8,40.7c-1.6,1.3-3,2.4-4.5,3.6c-0.5-0.6-0.9-1.2-1.5-1.8c2.4-1.9,4.7-3.8,7-5.7
			c1,0.8,1.5,1.7,1.2,3.1c-0.4,1.6-0.6,3.4-0.9,5c0,0.2,0,0.3,0,0.6c1.4-1.2,2.8-2.2,4.2-3.4c0.5,0.6,0.9,1.1,1.5,1.8
			c-2.4,1.9-4.7,3.8-7,5.7c-0.9-0.8-1.4-1.5-1.1-2.8C210.1,45,210.4,43,210.8,40.7z"/>
		<path fill="#272628" d="M132.6,34.8c-1.2-1.5-2.4-2.8-3.5-4.2c0.6-0.5,1.1-0.9,1.8-1.5c2,2.3,3.9,4.6,5.8,6.9
			c-0.7,1.1-1.7,1.4-3,1.1c-1.9-0.4-3.9-0.7-6-1c1.3,1.6,2.5,3,3.7,4.5c-0.6,0.5-1.1,0.9-1.7,1.5c-2-2.3-3.9-4.6-5.8-7
			c0.8-0.9,1.6-1.6,3-1.2C128.6,34.4,130.5,34.5,132.6,34.8z"/>
		<path fill="#272628" d="M184.6,20.2c0.1,0,0.2,0,0.2,0c1.4,0.2,2.1,1.1,2.5,2.5c0.5,1.7,1.2,3.3,1.8,5.1c0.7-1.8,1.3-3.5,2-5.1
			c0.7,0.3,1.4,0.5,2.1,0.8c-1.1,2.9-2.2,5.7-3.2,8.4c-1.3-0.1-2-0.8-2.4-2c-0.6-1.9-1.3-3.7-2-5.8c-0.7,1.9-1.4,3.6-2.1,5.4
			c-0.7-0.3-1.4-0.5-2.1-0.8C182.4,25.8,183.5,23,184.6,20.2z"/>
		<path fill="#272628" d="M138.4,34.9c-1.4-2.8-2.8-5.4-4.2-8.3c1.9-0.8,3.6-1.7,5.5-2.3c2-0.6,3.9,0.5,4.9,2.5
			c0.9,1.9,0.5,4-1.2,5.3c-0.9,0.7-1.9,1.1-2.8,1.7C139.9,34.2,139.2,34.5,138.4,34.9z M137.1,27.3c0.9,1.7,1.7,3.4,2.6,5
			c3.4-1.3,3.4-3.1,2.6-4.6C141.3,25.8,139.6,25.7,137.1,27.3z"/>
		<path fill="#272628" d="M115,59.7c-2.3,0-4.1-1.6-4.5-4c-0.5-2.8,1.9-5.9,4.7-6.2c2.9-0.3,5.4,2.2,4.9,5.2
			C119.7,57.6,117.6,59.6,115,59.7z M115.4,51.7c-1.5,0-2.8,1.5-2.8,3.1c0,1.4,1.4,2.7,2.9,2.7c1.5,0,2.9-1.5,2.8-3.1
			C118.2,52.9,116.9,51.7,115.4,51.7z"/>
		<path fill="#272628" d="M175,27.6c-1.2,0-2.7-0.4-3.8-1.7c-1.3-1.5-1.6-3.5-0.7-5.2c0.9-1.7,3-2.7,5.1-2.5c1.9,0.2,3.5,1,4.4,2.8
			C181.5,24.1,179.1,27.6,175,27.6z M175.2,20.1c-1.7,0-2.9,1.1-2.9,2.8c0,1.6,1.2,2.7,3,2.8c1.6,0,2.7-1.1,2.8-2.8
			C178.1,21.2,176.9,20.1,175.2,20.1z"/>
		<path fill="#272628" d="M122,107.4c-2.8,1.4-5.5,2.8-8.4,4.3c-0.8-1.8-1.7-3.6-2.3-5.4c-0.6-1.9,0.5-3.8,2.3-4.8
			c1.9-1,4-0.8,5.3,0.8C120,103.9,120.9,105.7,122,107.4z M119.3,106.2c-0.7-1.4-1.2-2.9-3-3c-1.3-0.1-2.3,0.5-2.9,1.6
			c-0.8,1.5,0.2,2.7,0.8,4C115.9,107.9,117.5,107.1,119.3,106.2z"/>
		<path fill="#272628" d="M115.4,44.8c0.5-0.6,1-1.2,1.5-1.8c1.3,1.1,2.6,2.1,3.8,3.1c1.2,1,2.3,0.9,3.3-0.2
			c0.9-1.1,0.8-2.3-0.4-3.3c-1.3-1-2.5-2-3.8-3.1c0.5-0.6,0.9-1.2,1.4-1.8c1.5,1.3,3.1,2.4,4.5,3.7c1.2,1.1,1.5,2.5,0.8,4.1
			c-0.6,1.3-1.4,2.3-2.6,3c-1.2,0.8-2.5,0.9-3.7,0C118.6,47.4,117,46.1,115.4,44.8z"/>
		<path fill="#272628" d="M156.2,27.6c-0.7,0.2-1.3,0.5-2,0.6c-0.3,0-0.7-0.3-0.9-0.6c-0.4-0.6-0.8-0.8-1.5-0.5
			c-0.6,0.3-1.3,0.5-2,0.6c-0.7,0.2-1.1,0.5-1,1.2c0.1,0.9-0.3,1.3-1.1,1.4c-0.4,0.1-0.7,0.2-1.2,0.4c0.1-1.5,0.2-3,0.3-4.4
			c0.1-1.5,0.2-3.1,0.3-4.6c0-0.6,0.2-0.8,0.7-1c1.3-0.6,2.2-0.4,3.1,0.7c1.5,2,3.3,3.7,5,5.6C155.9,27.2,156,27.4,156.2,27.6z
			 M151.5,25.6c-0.8-1-1.6-1.8-2.5-2.8c-0.1,1.4-0.1,2.5-0.2,3.7C149.7,26.1,150.5,25.9,151.5,25.6z"/>
		<path fill="#272628" d="M228.2,89.7c-0.1,0.8-0.2,1.4-0.3,2.2c-1.4-0.2-2.8-0.3-4.1-0.5c-0.6-0.1-1.2-0.1-1.8-0.3
			c-1.4-0.3-2.3-1.3-2.6-2.7c-0.3-1.4-0.2-2.9,0.5-4.2c0.6-1.3,1.7-2.1,3.2-2c2,0.1,3.9,0.4,5.9,0.6c-0.1,0.8-0.2,1.5-0.2,2.3
			c-1.3-0.1-2.5-0.3-3.7-0.4c-0.5-0.1-0.9-0.1-1.4-0.2c-1.3-0.2-2.2,0.5-2.4,1.8c-0.2,1.3,0.4,2.4,1.7,2.6
			C224.6,89.2,226.4,89.4,228.2,89.7z"/>
		<path fill="#272628" d="M220.1,111.9c-0.5-0.3-1-0.5-1.5-0.8c0.6-1.3,1.3-2.6,1.9-3.9c-0.5-0.3-1.1-0.6-1.6-0.9
			c-0.6,1.2-1.3,2.4-1.9,3.7c-0.5-0.3-0.9-0.5-1.5-0.8c0.6-1.2,1.2-2.4,1.9-3.7c-0.6-0.3-1.2-0.6-1.9-1c-0.7,1.3-1.3,2.6-2,3.9
			c-0.5-0.3-1-0.5-1.5-0.8c1-2,2-4,3.1-6c2.7,1.4,5.4,2.7,8.1,4.1C222.1,107.9,221.1,109.9,220.1,111.9z"/>
		<path fill="#272628" d="M108.3,100.2c-0.6-2.2-1.1-4.2-1.7-6.4c0.6-0.1,1-0.3,1.6-0.4c0.4,1.4,0.8,2.8,1.2,4.2
			c0.6-0.2,1.1-0.3,1.8-0.5c-0.3-1.3-0.7-2.6-1-4c0.6-0.2,1-0.3,1.6-0.4c0.4,1.3,0.7,2.6,1.1,4c0.7-0.2,1.3-0.3,2.1-0.5
			c-0.4-1.4-0.7-2.8-1.1-4.3c0.5-0.1,1-0.3,1.6-0.4c0.6,2.2,1.1,4.3,1.7,6.5C114.2,98.7,111.3,99.4,108.3,100.2z"/>
		<path fill="#272628" d="M114.9,89.7c-3,0.4-6,0.7-9.1,1.1c-0.3-2.2-0.5-4.3-0.8-6.6c0.6-0.1,1.1-0.1,1.7-0.2
			c0.2,1.5,0.4,2.8,0.5,4.3c0.6-0.1,1.2-0.1,1.8-0.2c-0.2-1.4-0.3-2.7-0.5-4.1c0.6-0.1,1.1-0.1,1.6-0.2c0.2,1.4,0.4,2.7,0.5,4.1
			c0.7-0.1,1.4-0.2,2.1-0.3c-0.2-1.5-0.3-2.9-0.5-4.4c0.5-0.1,1-0.2,1.6-0.3C114.3,85.3,114.6,87.4,114.9,89.7z"/>
		<path fill="#272628" d="M200.7,30.5c-0.4-0.5-0.7-1-1.1-1.4c-0.3-0.4-0.7-0.7-1.2-0.9c-0.3-0.2-0.8-0.1-1.2-0.1
			c0,0.4,0,0.8,0.2,1.1c0.4,0.7,0.9,1.3,1.3,1.9c0.7,1.2,0.7,2.3,0,3.3c-0.7,0.9-1.9,1.2-3.2,0.7c-1.3-0.5-2.4-1.4-3.1-2.6
			c-0.1-0.2-0.1-0.6,0-0.8c0.2-0.4,0.5-0.8,0.8-1.3c0.2,0.3,0.3,0.6,0.4,0.8c0.6,0.7,1.2,1.4,1.9,2c0.2,0.2,0.8,0,1.2,0
			c0-0.4,0.1-0.8-0.1-1.1c-0.4-0.7-0.9-1.2-1.3-1.9c-0.8-1.2-0.8-2.4,0-3.4c0.7-0.9,2-1.2,3.3-0.5c0.9,0.5,1.7,1.3,2.6,2
			c0.5,0.4,0.5,0.9,0.1,1.4C201,29.9,200.9,30.2,200.7,30.5z"/>
		<path fill="#272628" d="M220.7,53.6c-0.1-0.6-0.2-1.2-0.4-1.7c-0.2-0.5-0.4-1.1-0.7-1.6c-0.2-0.2-0.6-0.3-0.8-0.4
			c-0.1,0.3-0.4,0.6-0.4,0.9c0,0.7,0.2,1.4,0.3,2.2c0.1,1.1,0,2.1-0.9,2.8c-1.2,1-2.8,0.8-3.9-0.5c-0.9-1.1-1.4-2.4-1.5-3.8
			c0-0.2,0.1-0.5,0.3-0.6c0.4-0.3,0.8-0.5,1.3-0.8c0.1,0.7,0.1,1.4,0.2,2c0.2,0.6,0.4,1.1,0.8,1.6c0.1,0.2,0.6,0.4,0.8,0.3
			c0.3-0.1,0.5-0.5,0.5-0.8c0-0.6-0.2-1.2-0.2-1.8c-0.1-1.1-0.2-2.2,0.7-3.1c1.1-1.1,2.6-1,3.8,0.2c1,1,1.5,2.3,1.7,3.7
			c0,0.2-0.1,0.5-0.3,0.6C221.5,53.2,221.1,53.3,220.7,53.6z"/>
		<path fill="#272628" d="M104.9,80.7c0.1-1.7,0.1-3.2,0.2-4.7c0.2-1.5,1.5-2.4,3-2.2c1.3,0.1,2.4,1.2,2.4,2.7c0,0.7,0,1.4,0,2.2
			c1.2,0.1,2.3,0.1,3.5,0.2c0,0.7,0,1.4,0,2.3C111,81,108,80.9,104.9,80.7z M108.8,78.5c-0.1-0.8,0.3-1.7-0.5-2.2
			c-0.2-0.2-0.8-0.2-1-0.1c-0.8,0.5-0.5,1.4-0.6,2.3C107.4,78.5,108.1,78.5,108.8,78.5z"/>
		<path fill="#272628" d="M108,60.2c0.6,0.2,1,0.3,1.6,0.4c-0.4,1.3-0.7,2.5-1.1,3.8c0.6,0.2,1.2,0.4,1.9,0.6
			c0.4-1.3,0.7-2.5,1.1-3.8c0.5,0.1,1,0.3,1.6,0.4c-0.4,1.3-0.7,2.5-1.1,3.8c1.2,0.3,2.3,0.7,3.6,1.1c-0.2,0.7-0.4,1.4-0.6,2.2
			c-2.9-0.8-5.8-1.7-8.8-2.5C106.8,64.2,107.4,62.3,108,60.2z"/>
		<path fill="#272628" d="M217.2,63.3c-0.3-0.7-0.5-1.4-0.7-2.1c2.3-0.8,4.6-1.6,7-2.4c-0.3-1.1-0.7-2.1-1-3.1
			c0.5-0.2,1-0.4,1.6-0.6c1,2.8,1.9,5.6,2.9,8.4c-0.5,0.2-1,0.4-1.6,0.6c-0.4-1-0.7-2-1.1-3.1C221.9,61.7,219.5,62.5,217.2,63.3z"/>
		<path fill="#272628" d="M216.7,97.5c0.2-0.7,0.5-1.4,0.7-2.2c2.4,0.8,4.7,1.5,7.1,2.3c0.4-1,0.7-2,1-3.1c0.5,0.2,1,0.3,1.6,0.5
			c-0.9,2.8-1.8,5.6-2.7,8.4c-0.5-0.2-1-0.3-1.6-0.5c0.3-1,0.6-2,1-3.1C221.4,99,219.1,98.2,216.7,97.5z"/>
		<path fill="#272628" d="M160.7,27.2c-0.8,0.1-1.5,0.2-2.2,0.3c-0.3-2.5-0.6-4.9-0.9-7.4c-1.1,0.1-2.1,0.2-3.2,0.3
			c-0.1-0.5-0.2-1-0.2-1.6c2.9-0.4,5.8-0.7,8.8-1.1c0.1,0.6,0.1,1.1,0.2,1.7c-1.1,0.1-2.1,0.3-3.2,0.4
			C160.1,22.2,160.4,24.7,160.7,27.2z"/>
		<path fill="#272628" d="M227,76.5c-2.5,0.2-4.9,0.4-7.4,0.6c-0.1-0.7-0.2-1.5-0.2-2.3c2.5-0.2,4.9-0.4,7.4-0.7
			c-0.1-1.1-0.2-2.1-0.2-3.2c0.5-0.1,1-0.1,1.6-0.2c0.3,2.9,0.5,5.9,0.8,8.9c-0.6,0-1,0.1-1.6,0.1C227.3,78.7,227.2,77.6,227,76.5z"
			/>
		<path fill="#272628" d="M207.4,32.8c0.6,0.5,1.1,1,1.7,1.5c-2,2.3-3.9,4.6-5.9,7c-0.6-0.5-1.1-0.9-1.8-1.5
			C203.4,37.5,205.4,35.2,207.4,32.8z"/>
		<path fill="#272628" d="M227.5,66.1c0.2,0.8,0.3,1.5,0.4,2.2c-2.9,0.6-5.9,1.1-8.9,1.7c-0.2-0.7-0.3-1.4-0.5-2.2
			C221.5,67.3,224.4,66.7,227.5,66.1z"/>
		<path fill="#272628" d="M165.5,17.7c0.7,0,1.3,0,2.1,0c0,3,0,6,0,9c-0.6,0-1.3,0-2.1,0C165.5,23.7,165.5,20.7,165.5,17.7z"/>
		<path fill="#272628" d="M216.2,121.6c0,2.1-1.7,3.7-3.8,3.7c-2.1,0-3.8-1.7-3.7-3.8c0-2.1,1.7-3.8,3.8-3.8
			C214.6,117.9,216.2,119.6,216.2,121.6z M215.5,121.6c0-1.7-1.3-3-3-3c-1.6,0-3,1.3-3,2.9c0,1.7,1.3,3,2.9,3.1
			C214.1,124.6,215.5,123.3,215.5,121.6z"/>
		<path fill="#272628" d="M211.6,122.1c0,0.4,0,0.7,0,1c0,0.2-0.3,0.3-0.4,0.5c-0.1-0.2-0.4-0.3-0.4-0.5c0-1.1,0-2.2,0-3.4
			c0.8,0,1.6-0.1,2.3,0c0.3,0,0.8,0.5,0.8,0.8c0,0.5-0.3,0.9-0.5,1.4c-0.1,0-0.2,0-0.3-0.1c0.3,0.5,0.6,1.1,1,1.6
			c-0.7,0.3-1,0.1-1.3-0.5C212.7,122.5,212.5,121.9,211.6,122.1z M211.6,121.3c0.6-0.1,1.3,0.3,1.5-0.5c0-0.1-0.7-0.5-1-0.5
			C211.3,120.3,211.7,120.8,211.6,121.3z"/>
	</g>
</svg>
