<?xml version="1.0" encoding="utf-8"?>
<!DOCTYPE svg PUBLIC "-//W3C//DTD SVG 1.1//EN" "http://www.w3.org/Graphics/SVG/1.1/DTD/svg11.dtd">
<svg version="1.1" xmlns="http://www.w3.org/2000/svg" xmlns:xlink="http://www.w3.org/1999/xlink" x="0px" y="0px"
	 viewBox="0 0 330 148" enable-background="new 0 0 330 148" xml:space="preserve">
	<g>
		<path fill="#272628" d="M72.2,63.2c0-2.9,0-5.8,0-8.8c3,0,5.9,0,8.8,0c0,1,0,2,0,2.9c0,1,0,1.9,0,2.9c0,1,0,1.9,0,2.9
			c2.6,0,5.1,0,7.6,0c0,4.1,0,8.2,0,12.4c-2.6,0-5.1,0-7.7,0c-0.1,0.2-0.1,0.4-0.2,0.5c-0.6,3.8-2.9,6.2-6.4,7.5
			c-0.8,0.3-1.7,0.5-2.5,0.7c-0.1,0-0.1,0-0.2,0.1c0,0,0,0.1,0,0.1c0.2,0,0.4,0,0.6,0c3.4,0,6.9,0,10.3,0c1.8,0,3.6,0,5.4,0
			c0.2,0,0.4,0,0.6,0c0,3.1,0,6.1,0,9.1c-12.6,0-25.2,0-37.8,0c0-0.1,0-0.3,0-0.4c0-5.9-0.1-11.9,0-17.8c0.2-6.8,0-13.6,0.1-20.3
			c0-0.7,0-0.7,0.7-0.7c2.4,0,4.8,0.1,7.2,0c2.6-0.1,5.1,0,7.7-0.1c0.2,0,0.4,0,0.6,0c-0.5,0.1-1,0.2-1.4,0.3
			c-2.4,0.7-4.2,2.1-5.5,4.2c-0.2,0.3-0.3,0.6-0.5,0.9c-0.1,0.2-0.1,0.4-0.1,0.5c0,1.4,0,2.8,0,4.1c0,2.7,0,5.3,0,8
			c0,0.7,0.1,1.4,0.2,2c0.4,2.1,1.7,3.3,3.8,3.7c1.7,0.3,3.4,0.3,5.1-0.2c1-0.3,1.8-0.8,2.4-1.7c0.1-0.1,0.2-0.3,0.3-0.4
			c0-0.1,0-0.1,0-0.2c-0.5,0-1.1,0-1.6-0.1c-0.6-0.1-1.3-0.2-1.9-0.4c-1.6-0.5-2.6-1.6-3-3.2c-0.4-1.6-0.4-3.3-0.1-5
			c0.4-2,1.7-3.2,3.7-3.6c0.8-0.1,1.6-0.2,2.4-0.2C71.4,63.2,71.7,63.2,72.2,63.2z"/>
		<path fill="#272628" d="M134,54.4c0.2,0,0.3,0,0.5,0c2.5,0,5,0,7.5,0c0.4,0,0.6,0.1,0.8,0.4c3.2,4.3,6.4,8.6,9.6,13
			c0.1,0.1,0.2,0.3,0.4,0.4c0-4.6,0-9.1,0-13.7c2.4,0,4.8,0,7.1,0c0.1,0.4,0.2,21.2,0,22.2c-0.1,0-0.3,0-0.4,0c-2.4,0-4.9,0-7.3,0
			c-0.4,0-0.6-0.1-0.8-0.4c-3.2-4.2-6.3-8.3-9.5-12.5c-0.3-0.3-0.5-0.7-0.8-1c-0.1,1.5-0.1,3.1-0.1,4.6c0,1.5,0,3.1,0,4.6
			c0,1.5,0,3.1,0,4.6c-0.4,0.1-6,0.2-7.2,0.1C134,69.2,134,61.9,134,54.4z"/>
		<path fill="#272628" d="M259.6,76.6c0-7.4,0-14.8,0-22.2c0.2,0,0.3,0,0.4,0c5.4,0,10.8,0,16.2,0c1.5,0,3,0.3,4.5,0.9
			c2.6,1.1,4.2,3.1,4.9,5.7c0.5,1.8,0.6,3.6,0.5,5.5c-0.1,1.5-0.3,3-0.9,4.4c-1,2.6-3,4.3-5.7,5.1c-1.3,0.4-2.7,0.6-4,0.6
			c-5.3,0-10.5,0-15.8,0C259.8,76.6,259.7,76.6,259.6,76.6z M267,71.7c0.5,0,0.9,0,1.4,0c1.9,0,3.8,0,5.6-0.1c1.9-0.1,3.3-1.1,4-3
			c0.7-1.9,0.7-3.8,0.1-5.8c-0.5-1.6-1.6-2.7-3.2-3.1c-0.7-0.2-1.5-0.3-2.2-0.3c-1.8,0-3.5,0-5.3,0c-0.1,0-0.3,0-0.4,0
			C267,63.5,267,67.6,267,71.7z"/>
		<path fill="#272628" d="M225.7,54.4c7.4,0,14.8,0,22.2,0c0,1.6,0,3.2,0,4.8c-5,0-9.9,0-14.8,0c0,1.3,0,2.6,0,4c1.5,0,3,0,4.6,0
			c1.6,0,3.1,0,4.7,0c1.5,0,3.1,0,4.6,0c0,1.6,0,3.1,0,4.6c-4.6,0-9.2,0-13.8,0c0,1.3,0,2.6,0,4c1.6,0,3.3,0,4.9,0
			c1.6,0,3.3,0,4.9,0c1.6,0,3.3,0,4.9,0c0.1,0.4,0.2,3.9,0.1,4.8c-7.4,0-14.8,0-22.1,0C225.7,76.3,225.6,55.2,225.7,54.4z"/>
		<path fill="#272628" d="M96.3,54.4c2.5,0,4.9,0,7.4,0c0,0.2,0,0.4,0,0.6c0,4,0,8.1,0,12.1c0,0.5,0,1.1,0.1,1.6
			c0.2,1.9,1.2,3,3.1,3.4c1.3,0.3,2.7,0.3,4,0c1.7-0.4,2.6-1.4,2.9-3.1c0.1-0.5,0.1-1.1,0.1-1.6c0-4.1,0-8.2,0-12.3
			c0-0.2,0-0.4,0-0.6c0.4-0.1,6.8-0.1,7.4,0c0,0.1,0,0.3,0,0.4c0,4.7,0,9.5,0,14.2c0,2.1-0.6,4-2.2,5.5c-0.9,0.9-2.1,1.5-3.3,1.9
			c-1.5,0.5-3.1,0.8-4.7,0.8c-0.9,0-1.9,0.1-2.8,0.1c-2,0-4.1-0.2-6-0.8c-0.9-0.3-1.8-0.7-2.7-1.2c-1.9-1.2-2.9-2.9-3.1-5.1
			c-0.1-0.6-0.1-1.2-0.1-1.9c0-4.4,0-8.8,0-13.3C96.3,54.9,96.3,54.7,96.3,54.4z"/>
		<path fill="#272628" d="M191.3,54.4c7.9,0,15.8,0,23.7,0c0,1.6,0,3.3,0,5c-2.7,0-5.4,0-8.1,0c0,5.8,0,11.5,0,17.2
			c-2.5,0-4.9,0-7.4,0c0-5.7,0-11.4,0-17.2c-1.4,0-2.7,0-4.1,0c-1.3,0-2.7,0-4.1,0C191.3,57.7,191.3,56.1,191.3,54.4z"/>
		<path fill="#272628" d="M173.1,54.4c2.5,0,4.9,0,7.3,0c0.1,0.4,0.1,21.4,0,22.2c-2.4,0-4.9,0-7.3,0C173,76.2,173,55.3,173.1,54.4z
			"/>
		<path fill="#272628" d="M137.9,84c0,3.1,0,6.1,0,9.2c-1.2,0-2.3,0-3.4,0c-0.1-0.4-0.2-11.8-0.1-13.5c0.1,0,0.3,0,0.4,0
			c1.1,0,2.2,0,3.3,0c0.3,0,0.5,0.1,0.7,0.4c2,2.8,4.1,5.6,6.1,8.4c0.1,0.2,0.2,0.3,0.3,0.4c0,0,0.1,0,0.1,0c0,0,0,0,0,0
			c0-0.1,0-0.1,0-0.2c0-3,0-5.9,0-8.9c0,0,0,0,0-0.1c0.3-0.1,2.7-0.1,3.4,0c0,4.5,0,8.9,0,13.4c-0.2,0-0.3,0-0.5,0c-1,0-2,0-2.9,0
			c-0.3,0-0.5-0.1-0.7-0.4c-2.1-2.8-4.2-5.6-6.3-8.3c-0.1-0.2-0.3-0.4-0.4-0.6C138,84,138,84,137.9,84z"/>
		<path fill="#272628" d="M243.5,93.6c-1.1,0-2.4-0.1-3.6-0.6c-2.2-0.8-3.6-2.3-4.1-4.6c-0.3-1.4-0.3-2.9,0.1-4.3
			c0.6-2.3,2.2-3.8,4.5-4.4c1.5-0.4,3.1-0.5,4.7-0.4c0.9,0.1,1.8,0.2,2.7,0.5c2.3,0.8,3.6,2.4,4.1,4.8c0.2,1.2,0.2,2.4,0,3.6
			c-0.5,2.5-2,4-4.4,4.8C246.3,93.5,245.1,93.6,243.5,93.6z M243.7,91.1C243.7,91.1,243.7,91,243.7,91.1c0.2-0.1,0.3,0,0.5-0.1
			c1.6-0.1,2.8-0.9,3.5-2.4c0.6-1.4,0.6-2.8,0-4.2c-0.5-1.3-1.5-2.1-2.9-2.3c-0.6-0.1-1.1-0.1-1.7-0.1c-1.6,0.2-2.7,1-3.3,2.4
			c-0.6,1.4-0.6,2.9,0.1,4.3c0.5,1.1,1.3,1.8,2.5,2.2C242.8,91,243.2,91,243.7,91.1z"/>
		<path fill="#272628" d="M122.7,93.6c-1.2,0-2.4-0.1-3.6-0.5c-2.4-0.7-3.9-2.3-4.4-4.8c-0.3-1.4-0.3-2.8,0.1-4.1
			c0.6-2.4,2.2-3.8,4.5-4.5c1.5-0.4,3.1-0.5,4.7-0.4c0.9,0.1,1.7,0.2,2.6,0.5c2.2,0.8,3.5,2.3,4,4.5c0.3,1.4,0.3,2.9,0,4.3
			c-0.6,2.3-2.1,3.7-4.3,4.4C125.1,93.5,123.9,93.6,122.7,93.6z M118.4,86.5c0.1,0.4,0.1,0.9,0.2,1.3c0.4,1.5,1.2,2.6,2.8,3
			c0.7,0.2,1.4,0.2,2.1,0.1c1.4-0.2,2.5-0.9,3.1-2.3c0.6-1.3,0.6-2.7,0.2-4c-0.5-1.4-1.5-2.3-2.9-2.6c-0.7-0.1-1.4-0.2-2.1,0
			c-1.1,0.2-2,0.7-2.6,1.7C118.6,84.6,118.4,85.5,118.4,86.5z"/>
		<path fill="#272628" d="M168.3,93.3c0-4.5,0-9,0-13.5c0.1,0,0.3,0,0.4,0c3.1,0,6.2,0,9.3,0c0.6,0,1.2,0.1,1.8,0.3
			c1.1,0.4,1.8,1.2,2.1,2.3c0.2,0.7,0.2,1.4,0,2.1c-0.2,0.9-0.7,1.5-1.5,1.9c-0.1,0.1-0.2,0.1-0.3,0.2c0,0,0,0,0,0.1
			c0.1,0,0.2,0.1,0.2,0.1c0.4,0.2,0.7,0.5,0.9,0.9c0.3,0.5,0.4,1.1,0.4,1.6c0,0.4,0,0.8,0,1.2c0.1,0.9,0.1,1.8,0.6,2.6
			c-1.3,0-2.6,0-3.8,0c-0.3-0.4-0.3-0.8-0.3-1.2c0-0.7,0-1.4-0.1-2.1c-0.1-1.1-0.7-1.6-1.8-1.6c-1.3,0-2.7,0-4,0c-0.1,0-0.2,0-0.4,0
			c0,1.6,0,3.2,0,4.9C170.7,93.3,169.5,93.3,168.3,93.3z M171.9,82.3c0,1.2,0,2.3,0,3.4c0.1,0,0.3,0,0.4,0c1.4,0,2.8,0,4.1,0
			c0.2,0,0.3,0,0.5-0.1c0.8-0.2,1.3-0.7,1.3-1.6c0-0.9-0.4-1.5-1.2-1.7c-0.2-0.1-0.5-0.1-0.8-0.1c-1.3,0-2.6,0-3.9,0
			C172.2,82.3,172.1,82.3,171.9,82.3z"/>
		<path fill="#272628" d="M269.5,93.2c-1.3,0-2.6,0-3.8,0c-0.3-0.5-0.3-1-0.4-1.5c0-0.4,0-0.9,0-1.3c0-0.3,0-0.6-0.1-0.9
			c-0.2-0.8-0.7-1.2-1.5-1.2c-1,0-2,0-2.9,0c-0.5,0-1.1,0-1.7,0c0,1.7,0,3.3,0,4.9c-1.2,0-2.3,0-3.5,0c0-4.5,0-9,0-13.5
			c0.1,0,0.3,0,0.4,0c3.1,0,6.2,0,9.3,0c0.5,0,1.1,0.1,1.6,0.2c1.5,0.4,2.4,1.6,2.4,3.1c0,0.4,0,0.7,0,1.1c-0.1,1.1-0.7,1.9-1.7,2.4
			c-0.1,0-0.1,0.1-0.2,0.1c0,0,0,0,0,0.1c1.1,0.4,1.4,1.4,1.5,2.4c0.1,0.4,0.1,0.9,0.1,1.3C268.9,91.4,269,92.3,269.5,93.2z
			 M259,85.7c0.1,0,0.2,0,0.3,0c1.4,0,2.9,0,4.3,0c0.2,0,0.4,0,0.7-0.1c0.7-0.2,1.1-0.8,1.1-1.6c0-0.8-0.4-1.4-1.1-1.6
			c-0.3-0.1-0.5-0.1-0.8-0.1c-1.3,0-2.7,0-4,0c-0.1,0-0.3,0-0.4,0C259,83.5,259,84.6,259,85.7z"/>
		<path fill="#272628" d="M285.6,83.6c-1.3,0-2.6,0-3.9,0c0,0,0-0.1-0.1-0.1c-0.2-1-0.9-1.5-1.8-1.7c-0.7-0.1-1.5-0.2-2.3,0
			c-0.4,0.1-0.7,0.2-1,0.4c-0.9,0.6-0.7,1.7,0.3,2.1c0.5,0.2,1.1,0.2,1.6,0.3c1.4,0.2,2.8,0.4,4.2,0.7c0.6,0.1,1.3,0.4,1.8,0.7
			c1.1,0.6,1.6,1.5,1.6,2.8c0,0.4,0,0.8-0.1,1.2c-0.2,1.1-0.8,1.9-1.8,2.5c-0.8,0.5-1.6,0.7-2.5,0.9c-1.9,0.3-3.8,0.3-5.7-0.1
			c-0.9-0.2-1.8-0.5-2.5-1c-1.1-0.8-1.5-2-1.5-3.4c1.3,0,2.6,0,4,0c0,0.1,0.1,0.3,0.1,0.4c0.1,0.7,0.5,1.1,1.2,1.4
			c0.3,0.1,0.6,0.2,0.8,0.2c0.9,0.2,1.8,0.2,2.7,0c0.3-0.1,0.6-0.2,0.8-0.3c0.5-0.3,0.7-0.8,0.6-1.3c0-0.5-0.4-0.9-0.9-1.1
			c-0.5-0.2-1.1-0.3-1.7-0.4c-1.4-0.3-2.8-0.5-4.2-0.7c-0.7-0.1-1.3-0.4-1.9-0.8c-0.7-0.5-1.2-1.2-1.3-2.2c0-0.5,0-1.1,0-1.6
			c0.2-1.2,0.9-2,2-2.5c0.8-0.4,1.6-0.6,2.5-0.7c1.5-0.2,3-0.2,4.5,0.1c0.9,0.1,1.7,0.4,2.5,0.9c1.1,0.7,1.7,1.7,1.9,2.9
			C285.7,83.4,285.6,83.5,285.6,83.6z"/>
		<path fill="#272628" d="M111.7,84.9c-1.2,0-2.5,0-3.7,0c0-0.1-0.1-0.3-0.1-0.4c-0.4-1.4-1.4-2.1-2.8-2.4c-0.6-0.1-1.3-0.1-1.9,0
			c-1.3,0.3-2.2,1.1-2.7,2.4c-0.5,1.3-0.5,2.7,0,4.1c0.5,1.5,1.7,2.4,3.4,2.5c0.6,0,1.2,0,1.7-0.2c1.2-0.4,1.9-1.1,2.2-2.3
			c0-0.1,0.1-0.3,0.1-0.5c1.3,0,2.5,0,3.9,0c-0.2,1.8-1,3.3-2.5,4.3c-0.9,0.6-1.9,0.9-2.9,1.1c-1.8,0.3-3.6,0.3-5.4-0.2
			c-2.6-0.7-4.2-2.6-4.6-5.2c-0.1-1.2-0.1-2.4,0.1-3.5c0.5-2.4,1.8-4,4.2-4.7c2.4-0.7,4.9-0.7,7.3,0.1c2,0.7,3.3,2.2,3.7,4.3
			c0,0.2,0,0.3,0.1,0.5C111.7,84.7,111.7,84.8,111.7,84.9z"/>
		<path fill="#272628" d="M213.9,88.1c1.3,0,2.6,0,3.9,0c0,0.2-0.1,0.4-0.1,0.6c-0.4,2.1-1.6,3.5-3.6,4.3c-1.5,0.6-3.1,0.7-4.7,0.7
			c-0.9,0-1.8-0.2-2.7-0.4c-2.3-0.7-3.7-2.2-4.2-4.6c-0.3-1.6-0.3-3.1,0.1-4.7c0.6-2.2,2-3.6,4.1-4.2c2.3-0.7,4.7-0.6,7,0.1
			c2.3,0.7,3.6,2.3,4,4.7c0,0.1,0,0.2,0,0.3c-1.3,0-2.5,0-3.8,0c0-0.1-0.1-0.2-0.1-0.3c-0.4-1.4-1.3-2.2-2.7-2.5
			c-0.8-0.2-1.6-0.1-2.3,0.1c-1,0.3-1.8,0.9-2.2,1.9c-0.7,1.6-0.7,3.2,0,4.8c0.5,1.3,1.5,1.9,2.8,2.1c0.7,0.1,1.4,0.1,2.1-0.2
			c1.1-0.4,1.9-1.1,2.2-2.2c0-0.1,0-0.2,0.1-0.2C213.8,88.3,213.9,88.2,213.9,88.1z"/>
		<path fill="#272628" d="M195.1,90.5c-2,0-4,0-6,0c-0.4,0.9-0.7,1.8-1.1,2.7c-1.3,0-2.5,0-3.9,0c1.9-4.5,3.8-9,5.7-13.5
			c1.4,0,2.9,0,4.3,0c1.9,4.5,3.8,8.9,5.7,13.5c-1.3,0-2.6,0-3.9,0C195.8,92.3,195.5,91.4,195.1,90.5z M192.2,82.9c0,0-0.1,0-0.1,0
			c-0.7,1.7-1.3,3.4-2,5.1c1.4,0,2.7,0,4,0C193.5,86.2,192.8,84.5,192.2,82.9z"/>
		<path fill="#272628" d="M160.4,93.2c-1.2,0-2.4,0-3.5,0c-0.1-1.2,0-2.4,0-3.6c0-1.2,0-2.4,0-3.6c0-1.2,0-2.4,0-3.7
			c-1.6,0-3.2,0-4.7,0c-0.1-0.4-0.1-1.9,0-2.5c4.4,0,8.8,0,13.2,0c0,0.8,0,1.7,0,2.5c-1.6,0-3.2,0-4.8,0
			C160.4,86,160.4,89.6,160.4,93.2z"/>
		<path fill="#272628" d="M220,82.3c0-0.9,0-1.7,0-2.5c4.4,0,8.8,0,13.2,0c0.1,0.4,0.1,1.9,0,2.5c-1.6,0-3.1,0-4.8,0
			c0,3.7,0,7.3,0,10.9c-0.4,0.1-2.6,0.2-3.6,0.1c0-0.6,0-1.2,0-1.8c0-0.6,0-1.2,0-1.8c0-0.6,0-1.2,0-1.9c0-0.6,0-1.2,0-1.8
			c0-0.6,0-1.2,0-1.8c0-0.6,0-1.2,0-1.8C223.2,82.3,221.6,82.3,220,82.3z"/>
	</g>
</svg>
