<?xml version="1.0" encoding="utf-8"?>
<!DOCTYPE svg PUBLIC "-//W3C//DTD SVG 1.1//EN" "http://www.w3.org/Graphics/SVG/1.1/DTD/svg11.dtd">
<svg version="1.1" xmlns="http://www.w3.org/2000/svg" xmlns:xlink="http://www.w3.org/1999/xlink" x="0px" y="0px"
	 viewBox="0 0 330 148" enable-background="new 0 0 330 148" xml:space="preserve">
	<g>
		<path fill="#272628" d="M222.5,73.9c-0.1-4-0.5-8-1.4-11.9C218.2,50,212,39.9,202.5,32c-8.9-7.4-19.1-11.6-30.6-12.7
			c-0.6-0.1-1.3,0-1.9-0.2c-2.1,0-4.2,0-6.2,0c-0.2,0.1-0.4,0.1-0.7,0.1c-1.1,0-2.2,0-3.3,0.2c-4.4,0.6-8.7,1.6-12.9,3.2
			c-4,1.5-7.8,3.5-11.3,5.9c-3.3,2.2-6.3,4.8-9,7.6c-2.4,2.5-4.6,5.2-6.5,8.1c-3.1,4.7-5.4,9.7-6.9,15.1c-0.9,3-1.5,6.1-1.8,9.3
			c-0.1,0.9,0,1.8-0.2,2.7c0,2.2,0,4.5,0,6.7c0.1,0,0.1,0.2,0.1,0.3c0.1,3,0.6,5.9,1.2,8.8c2.3,10,6.9,18.7,14,26.1
			c4.6,4.9,10,8.8,16.1,11.8c7.8,3.8,16.1,5.6,24.8,5.5c4.5-0.1,8.8-0.5,13.1-1.6c10.2-2.6,19-7.7,26.3-15.2
			c6.1-6.3,10.5-13.6,13.1-21.9C221.8,85.9,222.6,80,222.5,73.9z M220.5,75.4c-0.3,29.2-24.2,53.3-54.3,53
			c-29.6-0.3-53.1-24.6-53-53.7c-0.1-29.5,24.3-54.2,54.6-53.6C196.4,21.6,220.8,45,220.5,75.4z"/>
		<path fill="#272628" d="M166.9,35.6c-21.8,0-39.2,17.4-39.2,39.2c0,22,17.6,38.7,38.3,39.2c22.4,0.5,40.2-17.6,40.1-39.2
			C206.1,53.6,189,35.6,166.9,35.6z M166.3,111.9c-19.8-0.3-36.6-16.4-36.6-37.2c0-20.4,16.7-37.1,37.2-37.1
			c20.8,0.1,37.2,17,37.1,37.1C204.1,95.1,187.2,112.2,166.3,111.9z"/>
		<path fill="#272628" d="M167.6,115.8c-0.3-0.2-0.9-0.1-1.4-0.1c-0.3,0-0.4,0.1-0.5,0.4c-0.3,1.1-0.7,2.2-1,3.2
			c0,0.1,0,0.3-0.2,0.3c-0.2-1.1-0.5-2.1-0.6-3.2c-0.1-0.7-0.4-1-1.1-1c-1,0-1-0.1-1,1c-0.2,3.1-0.4,6.2-0.7,9.2
			c-0.1,0.8-0.1,0.8,0.7,0.9c0.1,0,0.1,0,0.2,0c0.4,0.1,0.6,0,0.6-0.5c0.1-1.5,0.3-3,0.4-4.5c0,0.1,0.1,0.1,0.1,0.2
			c0.2,1.5,0.4,3,0.6,4.5c0,0.4,0.2,0.4,0.5,0.4c0.3,0.1,0.3-0.2,0.4-0.4c0.4-1.5,0.8-3,1.2-4.3c0,1.1,0,2.5,0,3.8
			c0,0.9,0,0.9,0.9,1.1c0.4,0.1,0.6,0,0.6-0.4c0.2-3.1,0.3-6.1,0.5-9.2C167.7,116.7,168,116.1,167.6,115.8z"/>
		<path fill="#272628" d="M167.6,33.5c0.5,0,0.5-0.2,0.5-0.6c0-1.4,0-2.8,0.2-4.3c0.3,1.3,0.7,2.6,1.1,3.9c0.3,1,0.3,1,1.3,1.1
			c0.4,0,0.5-0.1,0.5-0.5c0.1-3.1,0.3-6.3,0.4-9.4c0-1.2,0-1.2-1.2-1.2c-0.3,0-0.4,0.1-0.4,0.4c-0.1,1.5-0.2,3-0.2,4.5
			c-0.5-1.5-0.9-3-1.3-4.5c-0.1-0.4-0.2-0.5-0.6-0.5c-1.1,0-1.1,0-1.2,1.1c0,0.2,0,0.3,0,0.5c-0.1,2.6-0.2,5.3-0.3,7.9
			C166.2,33.5,166.2,33.4,167.6,33.5z"/>
		<path fill="#272628" d="M202.6,55c0.2,0.3,0.3,0.4,0.6,0.2c0.5-0.3,1-0.6,1.4-0.9c0.8-0.5,1.6-0.9,2.4-1.4
			c-0.9,1.1-1.9,2.2-2.9,3.2c-0.5,0.5-0.5,0.8-0.2,1.4c0.3,0.5,0.5,0.5,1,0.2c2.6-1.5,5.3-3,8-4.5c1.1-0.6,1.1-0.6,0.4-1.8
			c-0.2-0.3-0.3-0.3-0.6-0.1c-1.1,0.6-2.2,1.2-3.3,1.8c-0.2,0.1-0.4,0.3-0.6,0.2c0.9-0.9,1.8-1.9,2.7-2.8c0.8-0.8,0.7-0.8,0.2-1.7
			c-0.2-0.4-0.3-0.5-0.8-0.2c-2.6,1.5-5.2,2.9-7.8,4.4C201.8,53.7,201.8,53.7,202.6,55z"/>
		<path fill="#272628" d="M144.9,39.2c0.2,0.3,0.3,0.4,0.6,0.2c0.7-0.5,1.5-0.9,2.2-1.3c0.7-0.4,1-1,1-1.8c0-0.1,0-0.3,0-0.4
			c0-0.2-0.1-0.4-0.1-0.5c-0.9-2.2-2.2-4.3-3.7-6.2c-0.8-0.9-1.7-1-2.7-0.4c-0.7,0.4-1.5,0.9-2.2,1.3c-0.3,0.2-0.3,0.3-0.1,0.6
			C141.5,33.4,143.2,36.3,144.9,39.2z M142.2,30.6c0.8-0.6,1.3-0.6,1.8,0.2c1,1.4,1.9,3,2.7,4.5c0.1,0.2,0.2,0.4,0.1,0.5
			c0,0.4-0.8,1.2-1.1,1.2c-0.1,0-0.2-0.2-0.2-0.3c-1.1-1.9-2.3-3.9-3.4-5.8C142.1,30.9,142,30.8,142.2,30.6z"/>
		<path fill="#272628" d="M122.4,98.5c2.6-1.2,5.1-2.5,7.7-3.7c0.2-0.1,0.5-0.1,0.5-0.4c-0.2-0.4-0.4-0.7-0.5-1.1
			c-0.1-0.3-0.2-0.3-0.5-0.2c-0.9,0.5-1.8,0.9-2.8,1.4c-1.2,0.6-1.2,0.6-1.8-0.6c-0.2-0.4-0.1-0.5,0.2-0.6c0.9-0.4,1.8-0.9,2.7-1.3
			c1.2-0.6,1.2-0.6,0.6-1.8c-0.2-0.3-0.3-0.3-0.6-0.2c-2.8,1.4-5.5,2.7-8.3,4c-1.2,0.6-1.1,0.6-0.6,1.7c0.2,0.4,0.3,0.3,0.6,0.2
			c0.8-0.4,1.6-0.8,2.3-1.1c1.2-0.6,1.2-0.5,1.7,0.6c0.2,0.4,0.1,0.5-0.2,0.6c-1.1,0.5-2.1,1-3.2,1.5c-0.3,0.1-0.3,0.2-0.2,0.5
			c0.6,1.3,0.6,1.3,1.8,0.7C122.2,98.7,122.3,98.6,122.4,98.5z"/>
		<path fill="#272628" d="M119.2,59.6c1.6,1,3.4,1.7,5.2,2.3c0.6,0.2,1.1,0.4,1.6,0.4c1.3,0,2.1-0.6,2.5-1.9c0.4-1.2,0-2.2-1.1-2.9
			c-2-1.2-4.1-2.1-6.3-2.7c-1.1-0.3-2.1,0-2.7,0.9C117.4,57.1,117.6,58.7,119.2,59.6z M119.6,57c0.2-0.4,0.6-0.7,1.1-0.5
			c1.9,0.6,3.8,1.5,5.6,2.4c0.4,0.2,0.7,0.5,0.6,1c-0.1,0.4-0.4,0.6-0.9,0.7c-0.3,0-0.6-0.1-0.9-0.2c-1.6-0.6-3.1-1.3-4.6-2
			c-0.2-0.1-0.4-0.2-0.6-0.3C119.5,57.8,119.4,57.4,119.6,57z"/>
		<path fill="#272628" d="M142,108.2c-0.7,0-1.3,0.3-1.8,0.8c-1.4,1.5-2.4,3.2-3.5,5c-0.2,0.4-0.4,0.8-0.5,1.2c-0.4,1.3,0,2.3,1.2,3
			c1.1,0.7,2.3,0.6,3.1-0.4c1.6-1.8,2.9-3.7,3.9-5.8C145.3,110.1,143.9,108.2,142,108.2z M142.8,111.2c-1,1.8-2.1,3.5-3.4,5.1
			c-0.2,0.3-0.6,0.6-1,0.4c-0.3-0.2-0.6-0.4-0.6-0.9c0-0.2,0.1-0.5,0.3-0.8c0.9-1.6,1.9-3.1,3-4.5c0.1-0.1,0.2-0.2,0.3-0.3
			c0.3-0.3,0.7-0.5,1.1-0.1C143,110.4,143,110.8,142.8,111.2z"/>
		<path fill="#272628" d="M199.2,49.4c0,2.1,2.2,3.3,3.9,2.3c1.9-1.2,3.6-2.6,5.2-4.2c0.4-0.4,0.6-0.8,0.7-1.3
			c0.2-1.2-0.3-2-1.1-2.7c-0.9-0.7-2-0.6-2.9,0c-1.8,1.2-3.5,2.5-5,4.1C199.5,48,199.1,48.6,199.2,49.4z M201,49.2
			c0.1-0.3,0.3-0.5,0.5-0.7c1.3-1.1,2.6-2.2,3.9-3.2c0.2-0.1,0.4-0.2,0.6-0.4c0.4-0.3,0.8-0.3,1.2,0.2c0.3,0.4,0.3,0.9-0.1,1.2
			c-0.7,0.6-1.3,1.2-2,1.8c-0.8,0.6-1.6,1.2-2.4,1.8c-0.3,0.2-0.6,0.4-0.9,0.4C201.2,50.3,200.7,49.7,201,49.2z"/>
		<path fill="#272628" d="M214.3,87.9c-0.9-0.4-1.8-0.7-2.7-0.9c-1.4-0.4-2.7-0.8-3.7-0.9c-1.5-0.1-2.3,0.3-2.8,1.3
			c-0.8,1.6-0.3,3.1,1.4,3.7c2,0.8,4.1,1.4,6.2,1.8c1.4,0.3,2.5-0.4,3-1.7C216.1,89.7,215.6,88.6,214.3,87.9z M213,91.2
			c-2-0.4-3.9-0.9-5.8-1.6c-0.7-0.3-0.9-0.7-0.7-1.2c0.2-0.5,0.6-0.7,1.3-0.5c1.8,0.4,3.6,0.9,5.4,1.5c0.4,0.2,0.9,0.3,0.9,0.7
			C214.1,90.8,213.6,91.3,213,91.2z"/>
		<path fill="#272628" d="M213.5,95.9c-2.7-1.3-5.5-2.7-8.2-4c-1.1-0.5-1.1-0.5-1.6,0.5c-0.2,0.4-0.1,0.5,0.2,0.6
			c1.2,0.6,2.5,1.2,3.7,1.8c0,0,0,0,0,0.1c-1.4-0.3-2.9-0.5-4.3-0.8c-0.2,0-0.4-0.1-0.5,0.2c-0.2,0.4-0.4,0.9-0.6,1.3
			c1.6,0.3,3.1,0.6,4.7,0.9c0.2,0,0.4,0,0.5,0.3c0.4,1.4,1.6,2,2.8,2.4c1.5,0.4,2.4,0,3.1-1.4c0.2-0.4,0.3-0.8,0.5-1.1
			C214,96.2,213.9,96,213.5,95.9z M211.6,97c-0.1,0.3-0.3,0.5-0.6,0.6c-0.1,0-0.2,0-0.4,0c-0.7-0.1-1.4-0.4-1.8-1.1
			c-0.2-0.3-0.1-0.6,0-0.8c0.2-0.3,0.4,0,0.6,0.1c0.5,0.2,1.1,0.5,1.6,0.8C211.3,96.7,211.7,96.6,211.6,97z"/>
		<path fill="#272628" d="M178.8,120.3c0.9-1.5,0.5-2.9-0.4-4.3c-0.5-0.8-1.3-1.2-2.3-1c-0.5,0.1-1,0.3-1.5,0.3
			c-0.6,0.1-0.6,0.3-0.5,0.9c0.8,2.9,1.5,5.8,2.2,8.7c0.3,1.1,0.3,1.1,1.4,0.8c0.4-0.1,0.5-0.2,0.4-0.6c-0.4-1.3-0.7-2.7-1-4
			c0.8,1.2,1.5,2.4,2.2,3.7c0.2,0.3,0.3,0.4,0.7,0.3c0.4-0.1,0.8-0.2,1.2-0.3c-0.8-1.4-1.6-2.7-2.4-4.1
			C178.8,120.6,178.6,120.5,178.8,120.3z M177.5,119.2c-0.1,0.2-0.4,0.4-0.6,0.4c-0.3,0-0.2-0.3-0.3-0.5c-0.2-0.6-0.3-1.3-0.5-1.9
			c-0.1-0.4,0.1-0.4,0.4-0.5c0.3,0,0.6,0.1,0.8,0.4c0.3,0.4,0.4,0.9,0.4,1.5C177.6,118.7,177.6,119,177.5,119.2z"/>
		<path fill="#272628" d="M206.5,63.9c-0.1,0-0.3,0-0.3,0.1c0,0.5,0.1,1,0.3,1.4c0.1,0.3,0.5,0.1,0.7,0c1.2-0.2,2.4-0.5,3.6-0.7
			c0,0,0,0.1,0,0.1c-1,0.5-2,1-3.1,1.6c-1.1,0.6-1.1,0.6-0.8,1.8c0.1,0.4,0.1,0.5,0.5,0.3c1.2-0.7,2.5-1.3,3.8-2
			c0.2-0.1,0.4-0.2,0.6,0c1.5,0.9,2.9,0.6,4.3-0.2c0.7-0.4,1.1-1.1,1-1.9c0-0.7-0.2-1.4-0.3-2c0-0.3-0.1-0.4-0.5-0.3
			C213.1,62.6,209.8,63.2,206.5,63.9z M215.3,64.8c-0.4,0.4-1,0.5-1.5,0.5c-0.5,0-0.8-0.1-1.1-0.5c-0.2-0.3-0.1-0.5,0.3-0.6
			c0.6-0.1,1.3-0.3,1.9-0.4c0.2,0,0.5-0.2,0.6,0C215.6,64.2,215.6,64.6,215.3,64.8z"/>
		<path fill="#272628" d="M178.1,35.1c0.4,0.1,0.5,0.1,0.6-0.3c0.4-1.3,0.8-2.5,1.2-3.8c0,1.2,0,2.3,0,3.4c-0.1,1.4-0.1,1.4,1.2,1.8
			c0.4,0.1,0.5,0.1,0.5-0.3c0-1.4,0.1-2.8,0.1-4.3c0-0.2,0-0.4,0.2-0.5c1.1-0.5,1.6-1.5,1.8-2.7c0.3-1.9-0.1-2.9-2-3.5
			c-0.3-0.1-0.7-0.2-1-0.3c-0.4-0.2-0.5-0.1-0.7,0.3c-0.9,3-1.8,5.9-2.8,8.8C177,34.8,177,34.8,178.1,35.1z M180.6,28.7
			c0.1-0.6,0.3-1.1,0.5-1.7c0.1-0.2,0-0.5,0.3-0.5c0.2,0,0.5,0.1,0.7,0.4c0.1,0.2,0.1,0.4,0.1,0.7c0,0.6-0.2,1.1-0.7,1.6
			c-0.3,0.2-0.6,0.3-0.9,0.2C180.3,29.2,180.6,28.9,180.6,28.7z"/>
		<path fill="#272628" d="M124.5,79c0,0-0.1,0-0.1,0c-0.9-0.1-0.9-0.1-0.9-1c-0.1-1.4-0.1-1.4,1.2-1.7c1.1-0.3,1.1-0.3,1.1-1.4
			c0-0.6-0.2-0.6-0.7-0.5c-2.9,0.7-5.8,1.3-8.7,2c-1.5,0.3-1.4,0.3-1.5,1.8c0,0.6,0.2,0.8,0.8,0.9c3.4,0.5,6.8,1.1,10.2,1.7
			C126,79.2,126,79.2,124.5,79z M120.6,78.4c-1-0.1-2.1-0.4-3.1-0.4c-0.1,0-0.2-0.1-0.3-0.2c1.4-0.2,2.7-0.4,4-0.7
			c0.4-0.1,0.6,0,0.6,0.4C121.6,78.6,121.7,78.6,120.6,78.4z"/>
		<path fill="#272628" d="M159.3,115.4c-0.4-0.1-0.9-0.2-1.3-0.4c-0.3-0.1-0.5,0-0.7,0.3c-1.5,3.1-3,6.1-4.5,9.2
			c-0.1,0.3-0.2,0.4,0.2,0.5c1.2,0.3,1.1,0.3,1.7-0.7c0-0.1,0.1-0.2,0.1-0.3c0.4-0.9,0.4-0.9,1.4-0.6c1.2,0.3,1.2,0.3,1.1,1.5
			c-0.1,1.3-0.1,1.3,1.2,1.6c0,0,0,0,0.1,0c0.3,0.1,0.4,0,0.4-0.3c0-0.4,0-0.8,0.1-1.2c0.2-3,0.4-6.1,0.6-9.2
			C159.8,115.5,159.6,115.5,159.3,115.4z M157.5,121.7c-0.5,0.3-0.8-0.1-1.3-0.1c-0.2,0-0.3-0.2-0.2-0.4c0.6-1.3,1.2-2.7,1.9-4
			C157.8,118.7,157.7,120.2,157.5,121.7C157.5,121.7,157.5,121.7,157.5,121.7z"/>
		<path fill="#272628" d="M189.9,109.1c-0.1-0.1-0.2-0.2-0.3-0.2c-0.5,0.3-1,0.7-1.5,1c-0.3,0.1-0.3,0.3-0.2,0.5
			c1.2,3.2,2.4,6.4,3.7,9.7c0.1,0.3,0.2,0.4,0.5,0.2c1-0.6,1-0.6,0.6-1.7c0-0.1-0.1-0.1-0.1-0.2c-0.4-1-0.4-1,0.6-1.7
			c0.9-0.6,0.9-0.6,1.6,0.2c0.9,1,0.9,1,2.1,0.3c0.3-0.2,0.3-0.3,0.1-0.6C194.5,114.1,192.2,111.6,189.9,109.1z M191.7,115.5
			c-0.2,0.2-0.3,0-0.4-0.1c-0.5-1.4-1-2.7-1.6-4c1,1.1,1.9,2.2,2.9,3.3c0,0,0,0,0,0C192.5,115.2,192,115.2,191.7,115.5z"/>
		<path fill="#272628" d="M129.4,45.2c1.3,1.8,2.6,3.6,3.9,5.4c0.1-0.2,0.2-0.3,0.4-0.4c0.7-0.8,0.7-0.8,0.1-1.6
			c-0.8-1.1-0.8-1.1,0.2-2.2c0.4-0.4,0.7-0.5,1.2-0.1c0.4,0.3,0.9,0.9,1.4,0.8c0.5-0.1,0.9-0.7,1.3-1.1c-2.8-1.7-5.4-3.4-8-5.1
			c-0.5-0.3-1-0.9-1.5-0.8c-0.5,0.1-0.8,0.8-1.3,1.2c-0.3,0.3-0.2,0.4,0,0.7C127.9,43,128.7,44.1,129.4,45.2z M132.7,44.7
			c0.1,0.1,0.3,0.2,0.1,0.4c-0.3,0.3-0.5,0.5-0.8,0.8c-0.2,0.3-0.3,0-0.4-0.1c-0.8-1.1-1.7-2.3-2.6-3.5
			C130.3,43.1,131.5,43.9,132.7,44.7z"/>
		<path fill="#272628" d="M182,36.7c1,0.5,1,0.5,1.7-0.4c0.1-0.1,0.2-0.2,0.3-0.4c0.3-0.6,0.7-0.7,1.3-0.4c1.2,0.6,1.2,0.6,0.9,1.9
			c-0.3,1-0.3,1,0.7,1.5c0.2,0.1,0.4,0.2,0.7,0.3c0.8-3,1.5-6,2.3-9c0.1-0.6,0.5-1.3,0.3-1.7c-0.2-0.4-1-0.5-1.5-0.8
			c-0.4-0.2-0.5-0.1-0.7,0.2c-1,1.4-2,2.8-3.1,4.2c-1,1.3-2,2.7-3,4C181.7,36.3,181.7,36.5,182,36.7z M188.3,29.8
			c-0.4,1.5-0.8,2.9-1.2,4.3c-0.1,0.2-0.2,0.3-0.4,0.1c-0.4-0.2-0.7-0.3-1.1-0.5C186.5,32.4,187.3,31.1,188.3,29.8z"/>
		<path fill="#272628" d="M207.1,69.2c0,0.4,0,0.9,0.2,1.3c0.1,0.1,0.6,0.1,0.9,0.1c1.6,0.1,1.6,0.1,1.8,1.7c0,0.4,0,0.7-0.5,0.8
			c-0.4,0.1-0.8,0.3-1.3,0.4c-0.4,0.1-0.6,0.2-0.5,0.7c0.1,0.4,0.1,0.8,0.2,1.3c0.2-0.1,0.4-0.1,0.5-0.1c2.8-0.9,5.6-1.9,8.5-2.8
			c0.5-0.2,1.1-0.2,1.4-0.6c0.3-0.4-0.1-1-0.1-1.5c0-0.1-0.1-0.2-0.1-0.4c0-0.2-0.1-0.3-0.3-0.3c-3.5-0.2-6.9-0.5-10.4-0.7
			C207.3,69,207,68.9,207.1,69.2z M211.9,70.8c1.5,0.1,2.9,0.2,4.4,0.2c-1.4,0.4-2.9,0.8-4.3,1.3c0,0-0.1,0-0.1,0
			c-0.3-0.4-0.2-0.8-0.3-1.3C211.4,70.7,211.7,70.8,211.9,70.8z"/>
		<path fill="#272628" d="M206.3,99.5c-0.8,0.2-1.5,0.5-2.2,0.9c-0.5,0.2-1.1,0.2-1.6-0.1c-0.7-0.4-1-0.9-0.8-1.3
			c0.3-0.5,0.7-0.6,1.5-0.1c0,0,0,0,0.1,0c0.3,0.3,0.5,0.2,0.8-0.2c0.7-1.2,0.7-1.2-0.6-1.7c-0.2-0.1-0.4-0.1-0.6-0.2
			c-0.9-0.3-1.7,0-2.3,0.8c-0.7,0.8-1.1,1.8-0.6,2.8c0.8,1.7,3.3,2.6,5,1.8c0.6-0.2,1.1-0.5,1.7-0.7c0.6-0.1,1.4,0.2,1.7,0.7
			c0.2,0.2,0.2,0.5,0.1,0.7c-0.2,0.3-0.4,0.3-0.7,0.3c-0.3,0-0.6-0.2-0.8-0.3c-0.3-0.2-0.5-0.2-0.7,0.1c-0.7,1.2-0.7,1.3,0.7,1.8
			c1.7,0.7,3.4-0.5,3.4-2.3C210.4,100.7,208.1,99,206.3,99.5z"/>
		<path fill="#272628" d="M121,66.1c0.6-0.4,1.1-0.9,1.6-1.3c0.7-0.5,1.5-0.5,2.2,0c0.3,0.2,0.5,0.5,0.4,0.9
			c-0.1,0.4-0.4,0.6-0.8,0.6c-0.3,0-0.6-0.1-1-0.2c-0.1,0-0.2-0.1-0.3,0c-0.1,0.5-0.3,1-0.4,1.5c0,0.1,0.1,0.2,0.2,0.2
			c2,1,3.9-0.2,4-2.6c0-0.5-0.1-1-0.5-1.5c-1.4-1.4-3.9-1.5-5.4-0.2c-0.4,0.3-0.7,0.6-1.2,0.9c-0.6,0.4-1.2,0.3-1.8,0
			c-0.3-0.2-0.4-0.4-0.4-0.8c0.1-0.3,0.4-0.5,0.7-0.5c0.3,0,0.6,0.1,1,0.2c0.2,0.1,0.3,0,0.4-0.2c0.5-1.3,0.4-1.6-1-1.8
			c-0.9-0.1-1.8,0.1-2.3,1c-0.5,0.9-0.7,1.8-0.1,2.8C117.1,66.6,119.6,67.1,121,66.1z"/>
		<path fill="#272628" d="M120.3,72.6c0.5-0.5,0.9-1.1,1.4-1.6c0.6-0.6,1.5-0.7,2.2-0.3c0.3,0.2,0.5,0.4,0.4,0.7
			c0,0.3-0.2,0.5-0.5,0.7c-0.2,0.1-0.5,0.1-0.7,0.1c-0.6-0.1-0.8,0.1-0.8,0.7c0,1,0,1.1,1,1.1c0.9,0,1.8-0.2,2.3-1.1
			c0.4-0.8,0.5-1.6,0.2-2.5c-0.3-1.1-1.2-1.4-2.1-1.6c-1.6-0.3-2.9-0.1-4,1.3c-0.3,0.4-0.6,0.7-0.9,1c-0.4,0.4-0.8,0.6-1.4,0.5
			c-0.7-0.1-1.1-0.4-1-0.8c0.1-0.6,0.6-0.6,1-0.6c0.1,0,0.1,0,0.2,0c0.6,0.2,0.7-0.2,0.8-0.7c0.1-1.1,0.1-1.1-1-1.1
			c-0.2,0-0.4,0-0.6,0c-0.9,0.1-1.6,0.5-1.9,1.3c-0.3,0.9-0.4,1.8,0.2,2.6C116.2,73.4,119.1,74,120.3,72.6z"/>
		<path fill="#272628" d="M155.5,33.9c0.4,0.7,0.9,1.1,1.8,1.1c0.8,0,1.3-0.5,1.9-1.2c0,0.5,0.2,0.6,0.6,0.5
			c0.3-0.1,0.5-0.2,0.4-0.6c-0.4-1.6-0.9-3.2-1.3-4.9c-0.1-0.2-0.2-0.3-0.4-0.3c-0.5,0.1-1.1,0.3-1.6,0.4c-0.2,0.1-0.3,0.2-0.2,0.4
			c0.2,0.4,0,1,0.5,1.3c0,0,0,0,0.1,0c0.5-0.2,0.6,0.1,0.7,0.5c0.1,0.4,0.2,0.9,0.3,1.3c0.1,0.4,0,0.6-0.4,0.7c-0.7,0.1-1,0-1.2-0.8
			c-0.3-1.3-0.6-2.7-0.9-4c-0.1-0.7-0.3-1.3-0.3-2c0-0.4,0.3-0.6,0.6-0.7c0.3-0.1,0.6,0.2,0.7,0.5c0.1,0.2,0.1,0.4,0.2,0.6
			c0.1,0.4,0.2,0.5,0.6,0.4c1-0.3,1-0.3,0.7-1.2c-0.1-0.3-0.2-0.6-0.3-0.9c-0.4-0.8-1.2-1.2-2-1c-1.4,0.3-1.9,1-1.9,2.4
			c0,1.5,0.4,3,0.7,4.4C154.8,31.8,154.9,32.9,155.5,33.9z"/>
		<path fill="#272628" d="M121.4,53.1c1.9,1.4,3.8,2.5,5.9,3.4c0.4,0.2,0.8,0.2,1.3,0.3c0.1,0,0.2,0,0.3-0.1c1.3-0.3,1.7-1.3,2-2.4
			c0.2-1-0.3-1.6-1.1-2.1c-1.4-1-1.4-1-2.1,0.3c-0.1,0.3-0.1,0.4,0.1,0.5c0.3,0.2,0.6,0.4,0.9,0.6c0.3,0.3,0.5,0.6,0.2,1
			c-0.2,0.4-0.6,0.5-0.9,0.3c-0.2-0.1-0.5-0.2-0.7-0.3c-1.5-0.8-2.9-1.5-4.3-2.4c-0.3-0.2-0.5-0.4-0.7-0.6c-0.3-0.3-0.3-0.6-0.1-0.9
			c0.2-0.3,0.5-0.5,0.9-0.3c0.3,0.1,0.6,0.2,0.9,0.4c0.2,0.1,0.4,0.2,0.5-0.1c0.2-0.4,0.8-1,0.5-1.3c-0.7-0.6-1.6-1.1-2.6-0.9
			c-1.2,0.2-1.8,1-2.1,2.1C120.2,51.7,120.6,52.5,121.4,53.1z"/>
		<path fill="#272628" d="M216.5,75.8c-1.2-0.2-2.4-0.2-3.4-0.2c-1.2-0.1-2.2-0.1-3.2,0c-2.1,0.1-2.9,1.6-2.4,3.6
			c0.2,0.8,0.7,1.2,1.4,1.4c0.6,0.1,1.2,0.2,1.8,0.2c0.1,0,0.3,0,0.3-0.1c0.1-0.5,0.1-1,0.1-1.4c-0.1-0.4-0.5-0.2-0.7-0.2
			c-1-0.1-1.3-0.4-1.3-0.9c0-0.5,0.5-0.8,1.4-0.8c1.6,0,3.3,0,4.9,0.1c0.3,0,0.6,0.1,0.9,0.2c0.3,0.1,0.6,0.4,0.5,0.7
			c0,0.4-0.2,0.6-0.6,0.7c-0.3,0.1-0.6,0.1-1,0.1c-0.4,0-0.5,0.1-0.5,0.5c0,1.2,0,1.2,1.2,1.2c0.1,0,0.2,0,0.3,0
			c0.8,0,1.4-0.3,1.8-0.9C218.9,78.7,218.7,76.2,216.5,75.8z"/>
		<path fill="#272628" d="M189.5,118.5c-0.3-0.8-0.3-0.8-1-0.5c-0.8,0.4-0.8,0.4-0.6,1.2c0.3,0.9,0.2,1.3-0.3,1.5
			c-0.5,0.2-0.8,0-1.2-0.8c-0.7-1.4-1.4-2.9-1.9-4.4c-0.1-0.4-0.3-0.7-0.3-1.1c-0.1-0.4,0-0.8,0.5-0.9c0.4-0.2,0.7,0.1,0.9,0.4
			c0.2,0.2,0.3,0.5,0.4,0.8c0.1,0.2,0.2,0.4,0.5,0.2c1.3-0.6,1.3-0.6,0.6-1.9c-0.5-0.8-1.1-1.4-2.1-1.3c-1.9,0-3.1,1.5-2.6,3.3
			c0.7,2.2,1.6,4.2,2.7,6.2c0.8,1.3,2,1.6,3.3,0.9c1.3-0.6,1.7-1.6,1.2-3.1C189.7,118.9,189.6,118.7,189.5,118.5z"/>
		<path fill="#272628" d="M196.3,46.9c1,0.8,1.8,0.9,2.8,0.2c0.6-0.4,1-0.9,1.5-1.5c-0.4-0.4-0.8-0.8-1.3-1
			c-0.1-0.1-0.6,0.5-0.9,0.7c-0.4,0.3-0.8,0.5-1.2,0.1c-0.4-0.4-0.2-0.8,0-1.2c0.2-0.2,0.3-0.5,0.5-0.7c0.8-0.9,1.6-1.8,2.4-2.7
			c0.4-0.4,0.8-0.8,1.3-1.2c0.3-0.2,0.7-0.3,1,0c0.3,0.3,0.3,0.7,0,1c-0.1,0.2-0.2,0.4-0.4,0.5c-0.4,0.3-0.3,0.6,0,0.9
			c0.9,0.8,0.9,0.8,1.6-0.1c1.3-1.6,0.7-3.6-1.3-4.2c-1-0.3-1.8,0.1-2.5,0.8c-1.4,1.3-2.6,2.6-3.8,4c-0.4,0.4-0.7,0.9-0.9,1.5
			C195,45.1,195.4,46.1,196.3,46.9z"/>
		<path fill="#272628" d="M160.7,27.7c0.2,1.9,0.4,3.8,0.6,5.8c0,0.3,0.1,0.4,0.4,0.3c0.9-0.1,1.7-0.2,2.6-0.2
			c1.4-0.1,1.5-0.2,1.2-1.5c-0.1-0.3-0.1-0.3-0.4-0.3c-0.6,0.1-1.3,0.1-1.9,0.2c-0.3,0-0.3,0-0.4-0.3c0-0.6-0.1-1.3-0.2-1.9
			c-0.1-0.5,0-0.9,0.7-0.8c0.3,0,0.6-0.1,1-0.1c0.5,0,0.8-0.1,0.6-0.6c-0.1-1.2-0.1-1.1-1.1-1.1c-0.5,0-1,0.4-1.3,0
			c-0.2-0.3-0.1-0.9-0.2-1.4c0-0.4-0.2-0.8-0.1-1.1c0.2-0.3,0.7-0.1,1.1-0.2c0.4-0.1,1,0.1,1.2-0.2c0.3-0.3-0.1-0.9,0-1.3
			c0,0,0,0,0-0.1c0-0.3-0.1-0.3-0.4-0.3c-1.1,0.1-2.3,0.2-3.4,0.3c-0.4,0-0.5,0.2-0.4,0.5C160.5,24.9,160.6,26.3,160.7,27.7z"/>
		<path fill="#272628" d="M173.6,124.7c-0.6,0.1-1.1,0.1-1.7,0.2c-0.4,0.1-0.5-0.1-0.5-0.4c0-0.5-0.1-1.1-0.2-1.6
			c-0.1-0.9-0.1-0.9,0.8-1c0.2,0,0.4-0.1,0.7-0.1c0.6,0,0.9-0.1,0.7-0.8c0-0.2,0-0.3,0-0.4c0-0.5-0.1-0.8-0.7-0.6
			c-0.5,0.1-0.9,0.1-1.4,0.1c-0.3,0-0.3-0.1-0.4-0.3c0-0.6-0.1-1.3-0.2-1.9c0-0.3,0.1-0.4,0.4-0.4c0.5,0,1.1-0.1,1.6-0.1
			c0.1,0,0.2,0,0.3-0.1c0.1-0.1,0-1.6-0.1-1.7c-0.1-0.1-0.2,0-0.3,0c-1.1,0.1-2.1,0.2-3.2,0.3c-0.4,0-0.6,0.2-0.5,0.6
			c0.2,1.9,0.3,3.8,0.5,5.6c0.1,1.4,0.3,2.8,0.4,4.2c0,0.3,0.1,0.5,0.5,0.4c0.8-0.1,1.7-0.2,2.5-0.2c1.4-0.1,1.3-0.1,1.2-1.4
			C174,124.7,173.9,124.6,173.6,124.7z"/>
		<path fill="#272628" d="M136.4,35.8c1.5,2,3,4.1,4.5,6.1c0.1,0.2,0.2,0.5,0.5,0.2c1-0.8,2-1.5,3-2.2c0.2-0.1,0.2-0.3,0.1-0.4
			c-0.4-0.3-0.4-0.9-1-1.1c-0.1,0-0.2,0.1-0.2,0.2c-0.5,0.3-0.9,0.7-1.4,1c-0.2,0.2-0.4,0.2-0.6-0.1c-0.4-0.6-0.8-1.2-1.3-1.8
			c-0.2-0.3-0.1-0.4,0.1-0.6c0.4-0.3,0.8-0.6,1.2-0.9c0.1-0.1,0.3-0.2,0.2-0.4c-0.3-0.4-0.5-0.8-0.8-1.1c-0.1-0.2-0.3,0-0.3,0.1
			c-0.5,0.3-0.9,0.7-1.4,1c-0.1,0.1-0.3,0.2-0.4,0c-0.4-0.7-0.9-1.3-1.4-1.9c0.3-0.2,0.6-0.4,0.9-0.7c0.3-0.3,1-0.5,1-0.8
			c0-0.3-0.5-0.7-0.7-1.1c-0.2-0.2-0.3-0.3-0.5-0.1c-0.9,0.7-1.9,1.4-2.9,2.1c-0.3,0.2-0.2,0.3-0.1,0.5
			C135.5,34.5,136,35.1,136.4,35.8z"/>
		<path fill="#272628" d="M172.8,33.9c1.2,0.2,2.3,0.4,3.5,0.7c0.2,0,0.3,0,0.4-0.2c0.4-1.2,0.3-1.5-1-1.7c-0.1,0-0.1,0-0.2,0
			c-1.1-0.2-1.1-0.2-0.9-1.3c0-0.1,0-0.2,0-0.3c0.1-0.5,0-1.2,0.4-1.4c0.3-0.2,0.9,0.1,1.4,0.2c0.8,0.1,0.8,0.1,0.9-0.6
			c0.2-1,0.2-1-0.8-1.1c-0.4-0.1-1-0.1-1.3-0.3c-0.2-0.1,0.1-0.7,0.2-1.1c0-0.1,0-0.2,0-0.2c0.2-1.2,0.2-1.2,1.4-0.9
			c1.3,0.3,1.3,0.3,1.5-1c0-0.1,0-0.1,0.1-0.3c0.1-0.2-0.1-0.2-0.3-0.3c-1.2-0.2-2.3-0.4-3.5-0.7c-0.3-0.1-0.3,0-0.4,0.3
			c-0.2,1.2-0.4,2.4-0.7,3.6c-0.4,2.1-0.8,4.3-1.2,6.4C172.3,33.7,172.4,33.8,172.8,33.9z"/>
		<path fill="#272628" d="M128.1,88.6c-0.3-0.8-0.5-1.7-0.8-2.5c-0.4-1.3-0.4-1.3-1.7-0.9c-0.3,0.1-0.4,0.3-0.3,0.6
			c0.2,0.5,0.3,1.1,0.5,1.6c0.1,0.3,0.1,0.5-0.3,0.6c-0.5,0.1-1,0.3-1.4,0.4c-1,0.3-1,0.3-1.3-0.7c-0.4-1.3-0.4-1.3-1.7-0.8
			c-0.3,0.1-0.3,0.2-0.2,0.4c0.2,0.5,0.3,1,0.5,1.5c0.1,0.3,0.1,0.4-0.2,0.5c-0.6,0.2-1.2,0.3-1.8,0.5c-0.3,0.1-0.4,0-0.5-0.3
			c-0.1-0.5-0.3-1.1-0.5-1.6c0-0.1,0-0.4-0.3-0.3c-0.4,0.1-0.8,0.3-1.3,0.4c-0.3,0.1-0.2,0.2-0.1,0.4c0.3,1.1,0.7,2.2,1,3.4
			c0.1,0.3,0.2,0.4,0.5,0.3c3.2-1,6.4-2,9.6-3C128.1,89,128.2,88.9,128.1,88.6z"/>
		<path fill="#272628" d="M149.4,112.2c-1-0.5-1.9-1-2.9-1.5c-0.4-0.2-0.5-0.1-0.7,0.2c-1.4,2.7-2.8,5.4-4.3,8.1
			c-0.6,1.2-0.6,1.2,0.6,1.8c0.3,0.2,0.4,0.1,0.6-0.2c0.4-0.9,0.9-1.8,1.4-2.7c0.6-1.1,0.6-1.1,1.7-0.5c0.9,0.5,0.9,0.5,1.4-0.4
			c0.3-0.5,0.2-0.8-0.3-1c-0.5-0.2-1.2-0.4-1.3-0.8c-0.1-0.4,0.4-0.9,0.6-1.4c0.5-0.9,0.5-0.9,1.4-0.4c0.4,0.2,0.7,0.4,1.1,0.6
			c0.2,0,0.2-0.1,0.3-0.2c0.2-0.3,0.3-0.6,0.5-0.8C149.8,112.6,149.8,112.4,149.4,112.2z"/>
		<path fill="#272628" d="M125.5,102c2.2-1.5,4.4-3.1,6.6-4.6c0.1-0.1,0.3-0.1,0.4-0.4c-0.2-0.3-0.4-0.6-0.6-0.9
			c-0.2-0.4-0.5-0.4-0.8-0.1c-1.9,1.4-3.9,2.7-5.8,4.1c-0.4,0.3-0.8,0.7-1.1,0.7c-0.4,0-0.5-0.7-0.8-1c-0.1-0.1-0.1-0.3-0.3-0.3
			c-0.5,0.3-0.9,0.6-1.3,0.9c-0.1,0.1,0,0.2,0.1,0.3c0.9,1.3,1.8,2.6,2.7,3.9c0.1,0.2,0.2,0.2,0.4,0.1c1.3-0.7,1.3-0.7,0.5-1.9
			c0,0,0,0,0,0C125,102.4,125.2,102.2,125.5,102z"/>
		<path fill="#272628" d="M217.8,82.5c-1.3-0.5-1.4-0.5-1.7,0.9c0,0,0,0,0,0.1c0,0.5-0.3,0.5-0.7,0.4c-2.4-0.6-4.7-1.1-7.1-1.6
			c-1.3-0.3-1.3-0.3-1.6,1c-0.1,0.3,0,0.4,0.4,0.5c2.4,0.5,4.7,1.1,7,1.6c1.4,0.3,1.4,0.3,1.1,1.7c0,0.1,0,0.1-0.1,0.2
			c-0.1,0.2,0,0.3,0.2,0.3c0.4,0.1,0.8,0.1,1.2,0.3c0.3,0.1,0.3-0.1,0.4-0.2c0.4-1.6,0.7-3.2,1.1-4.7
			C218.1,82.6,218,82.6,217.8,82.5z"/>
		<path fill="#272628" d="M131.7,38.7C131.8,38.7,131.8,38.7,131.7,38.7c0.3-0.3,0.5-0.3,0.7,0c1.6,1.9,3.3,3.7,5,5.5
			c0.9,0.9,0.8,0.9,1.8,0.1c0.3-0.3,0.3-0.4,0-0.7c-1.9-2.1-3.8-4.2-5.8-6.4c0.1-0.1,0.3-0.3,0.4-0.4c1-0.9,1-0.9,0-1.9
			c-0.2-0.2-0.3-0.2-0.5,0c-1.2,1.1-2.3,2.1-3.5,3.2c-0.2,0.2-0.2,0.3,0,0.5C130.7,39.6,130.7,39.7,131.7,38.7z"/>
		<path fill="#272628" d="M213.5,56.4c0,0.1,0.1,0.2,0.1,0.3c0.2,0.3,0.1,0.4-0.3,0.5c-2.4,0.8-4.7,1.7-7,2.6
			c-1.1,0.4-1.1,0.4-0.7,1.6c0.1,0.4,0.3,0.5,0.7,0.4c2.3-0.9,4.5-1.7,6.8-2.5c1.2-0.5,1.2-0.5,1.7,0.8c0,0.1,0.1,0.2,0.1,0.2
			c0.1,0.2,0.2,0.2,0.3,0.1c0.4-0.1,0.8-0.3,1.1-0.4c0.1,0,0.2-0.1,0.2-0.3c0-0.1-0.1-0.2-0.1-0.3c-0.5-1.3-1-2.7-1.5-4
			c-0.2-0.5-0.3-0.6-0.8-0.4C213.1,55.3,213.1,55.3,213.5,56.4z"/>
		<path fill="#272628" d="M188,39.7c0.9,0.6,1.8,1.3,2.7,1.9c0.1,0.1,0.2,0.1,0.3,0.2c0.2-0.3,0.4-0.6,0.6-0.9
			c0.3-0.4,0.4-0.6-0.1-0.9c-0.4-0.2-0.6-0.5-1-0.7c-0.3-0.2-0.4-0.4-0.1-0.7c1.4-2,2.8-4,4.3-6c0.8-1.1,0.8-1.1-0.3-1.9
			c-0.3-0.2-0.4-0.2-0.6,0.1c-1.9,2.7-3.9,5.5-5.8,8.2C187.7,39.4,187.7,39.6,188,39.7z"/>
		<path fill="#272628" d="M123.5,46.4c2.7,1.9,5.4,3.8,8.1,5.7c0.1,0.1,0.2,0.2,0.3,0.2c0.2,0.1,0.2-0.1,0.3-0.2
			c0.2-0.2,0.3-0.5,0.5-0.7c0.3-0.3,0.2-0.5-0.1-0.7c-2.5-1.7-5-3.5-7.5-5.3c-1-0.7-1-0.7-1.7,0.3C123.2,46,123.2,46.2,123.5,46.4z"
			/>
		<path fill="#272628" d="M181.4,114.5c-0.4-1.1-0.4-1.1-1.6-0.8c-0.5,0.1-0.5,0.3-0.3,0.7c0.9,2.6,1.8,5.3,2.7,8
			c0.2,0.5,0.4,1,0.5,1.5c0.1,0.2,0.2,0.4,0.4,0.3c0.4-0.2,1-0.2,1.3-0.6c-0.1-0.2-0.1-0.3-0.1-0.4
			C183.4,120.3,182.4,117.4,181.4,114.5z"/>
		<path fill="#272628" d="M198.8,107.3c-0.8-0.1-1.4,0.5-1.5,1.3c-0.1,0.8,0.5,1.5,1.3,1.6c0.8,0.1,1.5-0.6,1.5-1.4
			C200.2,108,199.6,107.3,198.8,107.3z"/>
		<path fill="#272628" d="M133.2,105.9c-0.8,0-1.4,0.6-1.4,1.4c0,0.8,0.6,1.4,1.4,1.4c0.8,0,1.4-0.6,1.4-1.4
			C134.6,106.5,134,105.9,133.2,105.9z"/>
		<path fill="#272628" d="M192.7,58.1c-7.1,0.2-9.9,7.2-8.1,12.1c1.6,4.5,7.2,6.6,11.5,4.6c1-0.5,1.6-1,1.4-2.2
			c-0.1-1.3,0-2.6,0-3.9c0-0.2,0-0.4,0-0.6c-0.1,0-0.1-0.1-0.2-0.1c0,0.1-0.1,0.2-0.1,0.3c-0.9,1.3-2.3,1.7-3.8,1.6
			c-1.2-0.1-2.2-0.8-2.3-1.9c-0.4-2.5,0.8-4.6,4.1-3.8c0.9,0.2,1.6,0.7,2.3,1.4c0-1.7,0-3.3,0-4.9c0-1.2-0.3-1.5-1.4-2
			C195,58.2,193.8,58.1,192.7,58.1z"/>
		<path fill="#272628" d="M194.3,94.8c-0.6,0.3-1.2,0.6-1.9,0.8c-0.7,0.2-1.3,0-1.8-0.6c-0.3-0.3-0.5-0.7-0.6-1.1
			c-0.3-1-0.6-2.1-0.9-3.2c-1.2-4.2-2.4-8.4-3.5-12.6c-1.3-4.7-2.7-9.5-4-14.2c-1.4-4.8-2.7-9.5-4.1-14.3c-0.4-1.2-0.8-2.5-1-3.8
			c-0.2-1.7,0.6-3,2.3-3.4c0.4-0.1,0.7-0.2,1.1-0.3c-1.3-1.8-3.2-2.5-5.1-2.9c-3.4-0.7-6.8-0.8-10.2-0.6c-2.4,0.1-4.7,0.4-7,1.1
			c-1.5,0.5-2.7,1.4-3.8,2.6c0.8,0.1,1.6,0.2,2.4,0.3c1.8,0.2,2.6,1.3,2.2,3.1c0,0.1-0.1,0.2-0.1,0.4c-0.3,0.8-0.6,1.6-0.8,2.4
			c-1.2,4-2.3,8-3.5,12c-1.2,4.1-2.4,8.1-3.6,12.2c-0.2,0.7-0.3,1.4-0.7,2.1c-0.1-0.2-0.1-0.2-0.2-0.3c-0.7-2.3-1.3-4.6-2-7
			c-0.8-2.9-1.6-5.8-2.4-8.8c-0.1-0.3-0.2-0.5-0.6-0.5c-2.2,0-4.4,0-6.7,0c-0.4,0-0.5,0.1-0.6,0.5c-0.6,1.9-1.2,3.8-1.8,5.7
			c-1,3.3-2,6.6-3.1,9.9c-0.1,0.4-0.1,0.6,0.4,0.6c1.6,0,3.3,0,4.9,0c0.5,0,0.7-0.2,0.8-0.6c0.2-0.5,0.4-1,0.5-1.6
			c0.1-0.3,0.2-0.4,0.5-0.4c1,0,2,0,2.9,0c0.3,0,0.4,0.1,0.5,0.4c0.2,0.6,0.4,1.2,0.6,1.8c0.1,0.3,0.2,0.4,0.6,0.4
			c1.7,0,3.4,0,5.1,0c0.4,0,0.6,0,0.4,0.5c-1.5,5.2-3,10.5-4.5,15.7c-0.4,1.3-0.8,2.5-1.7,3.5c-0.9,1-1.9,1.1-3,0.3
			c-0.3-0.2-0.6-0.5-0.9-0.7c-0.4-0.3-0.7-0.7-1.2-1c-0.1,1.6-0.3,3,0.9,4.2c0.3,0.3,0.6,0.7,1,1.1c2.1,2.2,4.5,4.2,7,6
			c1.7,1.3,3.4,2.4,5.4,3.2c1.7,0.7,3.2,0.5,4.2-0.5c-0.4-0.3-0.8-0.5-1.2-0.8c-1.8-1.2-2.6-2.9-2-5c0.5-1.8,1.1-3.5,1.6-5.2
			c0.1-0.4,0.4-0.3,0.7-0.2c3.6,1.5,7.2,2.9,10.8,4.4c0.4,0.1,0.7,0.2,1,0c3.7-1.6,7.4-3.1,11.1-4.6c0.4-0.2,0.6-0.2,0.7,0.3
			c0.1,0.4,0.2,0.8,0.3,1.2c0.4,1.4,0.9,2.8,1.1,4.2c0.3,1.8,0,3.4-1.7,4.4c-0.2,0.1-0.2,0.3-0.2,0.5c0.1,0.4,0.1,0.8,0.2,1.1
			c0,0.4,0.3,0.5,0.6,0.4c1-0.2,1.9-0.5,2.8-0.9c3.5-1.7,6.6-4.1,9.4-6.6c1.1-1,2.2-2,3-3.4c0.5-0.8,0.5-1.5,0-2.3
			C194.7,94.7,194.6,94.7,194.3,94.8z M141.4,68.2c0,0-0.1,0-0.1,0c-1.6,0.2-1.6,0.1-1.1-1.4c0.2-0.5,0.3-1,0.6-1.6
			c0.3,1,0.6,1.8,0.8,2.7C141.6,68.1,141.6,68.2,141.4,68.2z M182.7,105c-0.2-0.3,0-0.6,0.1-0.8c0.3-1.5,0-3-0.4-4.4
			c-0.6-2.1-1.2-4.1-1.8-6.2c-0.1-0.4-0.2-0.4-0.6-0.3c-4.2,1.7-8.4,3.5-12.5,5.2c-0.4,0.2-0.7,0.2-1.1,0c-4.1-1.7-8.2-3.3-12.2-5
			c-0.3-0.1-0.5-0.3-0.6,0.2c-0.6,2.3-1.3,4.6-2.1,6.9c-0.5,1.5-0.5,3.1,0.1,4.8c-3.6-2.2-6.7-4.7-9.7-7.6c3.1-0.7,4.2-3.2,4.9-5.8
			c4-14.2,8.3-28.4,12.4-42.6c0.3-1.2,0.9-2.3,1.1-3.5c0.3-1.7-0.1-3.2-1.6-4.4c5.8-1.2,11.4-1.2,17.2,0.2c-0.7,0.8-1.1,1.5-1.3,2.4
			c-0.3,1.2-0.2,2.5,0.2,3.7c3,10,5.7,20.1,8.6,30.1c1.5,5.3,3,10.7,4.5,16c0.1,0.2,0.2,0.5,0.2,0.7c0.8,2.1,1.7,2.9,4,3.3
			C189.2,100.6,186.2,103,182.7,105z"/>
		<path fill="#272628" d="M176,76.5c-2.9-10.7-5.9-21.3-8.9-32.1c-0.1,0.2-0.1,0.3-0.2,0.4c-3.9,14.3-7.9,28.6-11.8,42.8
			c-0.1,0.4,0.1,0.5,0.4,0.6c3.7,1.5,7.4,3,11.1,4.5c0.3,0.1,0.5,0.1,0.9,0c3.7-1.5,7.3-3.1,11-4.5c0.5-0.2,0.6-0.4,0.4-0.9
			C178,83.7,177,80.1,176,76.5z M176,87c-2.8,1.1-5.7,2.3-8.5,3.5c-0.3,0.1-0.6,0.1-0.9,0c-2.8-1.1-5.7-2.3-8.5-3.4
			c-0.5-0.2-0.6-0.4-0.4-0.9c0.6-1.9,1.1-3.8,1.6-5.7c0-0.1,0-0.3,0.3-0.4c0,0.9,0.1,1.9,0.2,2.8c0.5,3.1,2.9,5.6,6,6.2
			c2.6,0.5,4.9-0.1,7.1-1.5c0.8-0.5,1.3-1.2,1.2-2.3c-0.1-1.5,0-3.1,0-4.6c0-0.4-0.1-0.6-0.5-0.6c-1.4,0-2.8,0-4.2,0
			c-0.5,0-0.6,0.2-0.6,0.6c0,0.7,0,1.3,0,2c0,0.5-0.2,0.7-0.7,0.7c-1,0-2-1.1-2.1-2.3c-0.2-1.8,1.6-3.2,3.5-2.9
			c0.9,0.2,1.8,0.4,2.7,0.8c0.5,0.2,0.6,0.1,0.6-0.4c0-1.4,0-2.9,0-4.3c0-0.4-0.1-0.6-0.5-0.9c-0.6-0.4-1.3-0.7-2-0.8
			c-2.1-0.4-4.2-0.4-6.2,0.6c-1.2,0.6-2.1,1.5-2.8,2.6c-0.3,0.4-0.6,0.7-0.8,1.2l0,0l0,0c-0.1,0.3-0.2,0.6-0.4,1
			c-0.1-0.4,0.1-0.6,0.2-0.9c0.1-1.1,0.6-2.1,0.8-3.2c1.1-4,2.2-8,3.3-12c0.8-3,1.7-6,2.5-9c0-0.2,0.1-0.4,0.3-0.5
			c0.3,1,0.6,2,0.9,3c1,3.8,2.1,7.5,3.1,11.3c1.3,4.6,2.5,9.1,3.8,13.7c0.5,1.9,1,3.8,1.6,5.7C176.6,86.5,176.6,86.8,176,87z"/>
		<path fill="#272628" d="M160.4,77c-0.1,0-0.1,0.1-0.2,0.1C160.4,77.2,160.4,77.1,160.4,77z"/>
	</g>
</svg>
