<?xml version="1.0" encoding="utf-8"?>
<!DOCTYPE svg PUBLIC "-//W3C//DTD SVG 1.1//EN" "http://www.w3.org/Graphics/SVG/1.1/DTD/svg11.dtd">
<svg version="1.1" xmlns="http://www.w3.org/2000/svg" xmlns:xlink="http://www.w3.org/1999/xlink" x="0px" y="0px"
	 viewBox="0 0 330 148" enable-background="new 0 0 330 148" xml:space="preserve">
	<g>
		<path fill="#272628" d="M32.6,57.4c0.1,0,0.2,0,0.4,0c0.6,0.5,0.6,1.2,0.6,1.9c0,8.3,0,16.7,0,25c0,0.6,0,1.1-0.3,1.6
			c-0.1,0.1-0.2,0.2-0.3,0.3l-0.2,0l-0.2,0C32.6,76.6,32.6,67,32.6,57.4z"/>
		<path fill="#272628" d="M140.7,70.9c0,1.9-0.1,3.8,0,5.6c0,1-0.4,1.3-1.3,1.3c-3.3,0.2-3.3,0.2-3.4-3.2c0-0.8,0.5-2.2-0.5-2.4
			c-1.6-0.4-3.3-0.3-4.9,0c-0.2,0-0.3,0.6-0.3,0.9c-0.1,0.6,0,1.2,0,1.9c0,2.8-1.1,3.6-3.9,2.9c-0.8-0.2-0.7-0.7-0.7-1.3
			c0-3.8,0-7.5,0-11.3c0-1,0.4-1.3,1.4-1.3c0.6,0,1.1,0.1,1.7,0c1.2-0.1,1.7,0.3,1.7,1.6c0,1-0.6,2.5,0.5,2.8c1.5,0.4,3.2,0.3,4.7,0
			c1-0.2,0.4-1.4,0.5-2.2c0.1-0.7-0.4-1.9,0.4-2.1c1.2-0.3,2.6-0.2,3.9,0c0.5,0.1,0.4,0.8,0.4,1.3C140.7,67.3,140.7,69.1,140.7,70.9
			C140.7,70.9,140.7,70.9,140.7,70.9z"/>
		<path fill="#272628" d="M143.2,70.8c0-1.7,0.1-3.5,0-5.2c-0.1-1.3,0.4-1.7,1.7-1.6c2.1,0.1,4.3,0.1,6.5,0c1.3,0,2,0.1,2,1.7
			c0,1.6-0.8,1.7-1.9,1.6c-0.9,0-1.8,0-2.7,0c-0.6,0-0.8,0.4-0.8,1c0,0.5,0.3,0.7,0.8,0.8c0.8,0,1.5,0.1,2.3,0c1.3-0.1,2,0.2,2,1.8
			c0,1.6-0.9,1.6-2,1.5c-0.7,0-1.4,0-2.1,0c-0.7,0-1,0.2-1,1c0,0.8,0.2,1.2,1.1,1.2c1,0,2.1,0.1,3.1,0c1.1-0.1,1.7,0.3,1.6,1.5
			c-0.1,1,0.1,1.9-1.5,1.9c-2.5-0.1-5-0.1-7.5,0c-1.2,0-1.5-0.4-1.5-1.6C143.2,74.5,143.2,72.7,143.2,70.8z"/>
		<path fill="#272628" d="M116.7,64c1.9,0,3.9,0.1,5.8,0c1.4-0.1,1.4,0.7,1.4,1.7c0,1-0.1,1.6-1.4,1.6c-3.5,0-3.5,0.1-3.5,3.7
			c0,1.5,0,3.1,0,4.6c0,0.7,0.5,1.8-0.4,2c-1.2,0.3-2.6,0.4-3.9-0.1c-0.5-0.2-0.3-0.8-0.3-1.3c0-2.4-0.1-4.9,0-7.3
			c0-1.3-0.4-1.8-1.7-1.7c-0.6,0.1-1.3-0.1-1.9,0c-1.3,0.2-1.5-0.5-1.5-1.6c0-1.1,0.1-1.8,1.5-1.8C112.8,64.1,114.8,64,116.7,64z"/>
		<path fill="#272628" d="M84.8,87.7c-0.5,0.6-1.2,0.5-1.9,0.5c-15.3,0-30.7,0-46,0c-0.6,0-1.3,0.1-1.8-0.4c0.5-0.4,1.1-0.2,1.6-0.2
			c15,0,30,0,45,0c0.5,0,1-0.2,1.1,0c-15.9-0.1-31.9,0.1-48-0.1c-0.3-0.2-0.3-0.4-0.1-0.7c0.7-0.5,1.4-0.5,2.2-0.5
			c15.4,0,30.7,0,46.1,0C83.9,86.5,84.6,86.7,84.8,87.7z"/>
		<path fill="#272628" d="M84.8,87.7c-0.3-0.4-0.6-0.7-1.2-0.7c-0.3-0.1-0.5-0.2-0.8-0.3c-0.5-0.2-0.8-0.5-0.9-1.1
			c0.2-0.7,0.4-1.4,1.3-1.2c0.4,0.2,0.6,0.9,1.3,0.5c0.6-0.2,1.2-0.1,1.8,0c0.3,0.1,0.5,0.3,0.6,0.5c0.4,0.5,0.5,1.2,1.2,1.4
			c0.4,0.1,0.8,0.1,1.2,0c0.3-0.3,0.1-0.6,0.2-0.9c0.2-0.4,0.4-0.6,0.8-0.7c0.2,0,0.4,0,0.6,0.1c0.2,0.1,0.4,0.3,0.6,0.6
			c0.2,0.3,0.4,0.8,1,0.6c0.2-0.1,0.5-0.1,0.8-0.1c0.2,0,0.3,0,0.5,0c0.2,0,0.3,0,0.5,0c0.3,0,0.5,0,0.8,0c0.2,0,0.3,0,0.5,0
			c0.4,0.1,0.8-0.1,1.2-0.2c0.2-0.1,0.3-0.1,0.5-0.1c0.2,0,0.3,0.1,0.5,0.2c0.2,0.2,0.4,0.5,0.7,0.7c0.1,0.1,0.3,0.1,0.4,0.1
			c0.2,0,0.4-0.1,0.6-0.2c0.2,0,0.3-0.1,0.5-0.1c0.3,0,0.5,0,0.7,0.1c0.5,0.2,0.8,0.6,1.2,0.9c0.2,0.2,0.3,0.4,0.4,0.7
			c-0.2,0.3-0.6,0.4-0.9,0.4c-2.8,0-5.7,0.2-8.5,0.4C90.1,89.3,87.4,88.7,84.8,87.7z"/>
		<path fill="#272628" d="M69.8,53.7c0,0.7,0,1.3,0.7,1.7c0.2,0.3,0.2,0.6,0.1,0.8c-0.3,0.3-0.6,0.5-1,0.6c-1.5,0.6-3.1,0-4.6,0.4
			c-0.6-0.2-1.1-0.6-1.7,0c-0.6,0.4-0.9,1.5-1.9,0.8c-0.1-0.1-0.2-0.3-0.2-0.3c-0.2,0.1-0.2,0.3-0.3,0.5c-0.2,0.5-0.5,0.7-1.1,0.6
			c-0.6-0.4-0.7-1.1-1-1.6c-0.1-0.2-0.2-0.5-0.3-0.7c-0.1-0.2-0.2-0.5-0.3-0.7c-0.1-0.3-0.3-0.6-0.3-1c0.1-0.5,0.5-0.7,0.9-1
			c0.2-0.1,0.3-0.1,0.5-0.2c0.9-0.2,1.7-0.5,2.5-1c0.3-0.1,0.5-0.1,0.8,0c0.5,0.3,1,0.5,1.5,0.4c1.1,0.6,2.2,0.3,3.3,0
			c0.3-0.1,0.6-0.2,0.9-0.2c0.5-0.1,1.1-0.1,1.5,0.2C69.9,53.3,69.9,53.5,69.8,53.7z"/>
		<path fill="#272628" d="M59.2,51.6c-0.6-1.9,1.7-4.3,4.2-4.2c0.8,0.8,1.9,0.3,2.7,0.8c0.7,0.4,1.5,0.7,1.4,1.7
			c-0.1,0.4-0.4,0.6-0.8,0.7c-0.6,0-1.2-0.2-1.8-0.2c0.1,0.4,0.6,0.5,0.7,0.8c0.5,1.4,0,2-1.5,1.9c-0.3,0-0.6,0.1-0.9,0
			c-0.8,0.1,0.5-1.1-0.5-0.9c-0.7-0.1-1.3-0.1-2-0.1C60.2,52,59.6,52,59.2,51.6z"/>
		<path fill="#272628" d="M70.5,56c0-0.2,0-0.4,0-0.6c9.1,0,18.3-0.1,27.4-0.1c0.6,0,1.2,0.3,1.8,0.5c0,0.5-0.4,0.7-0.8,0.8
			c-8.9,0.3-17.8,0.1-26.8,0.1C71.6,56.7,70.9,56.6,70.5,56z"/>
		<path fill="#272628" d="M34.7,87.3c14,0,28.1,0.1,42.1,0.1c2.3,0,4.6,0,6.8,0.5c-16.2,0-32.4,0-48.6,0c-0.1,0-0.3,0-0.4-0.1
			c-0.1-0.1-0.2-0.2-0.1-0.3C34.6,87.4,34.6,87.3,34.7,87.3z"/>
		<path fill="#272628" d="M100.9,57c0.4,5,0.1,10,0.2,14.9c0,2.9,0,5.8,0,8.7c0,0.6,0.5,1.4-0.5,1.8c-0.4-0.4-0.5-1-0.5-1.5
			c0-7.7-0.2-15.4,0.1-23.1C100.2,57.4,100.4,57,100.9,57z"/>
		<path fill="#272628" d="M100.5,57.4c0,8.3,0,16.7,0,25c-0.1,0-0.3,0-0.4,0c-0.1-0.1-0.2-0.2-0.3-0.3c-0.5-8.1-0.5-16.3,0-24.4
			C100,57.4,100.2,57.3,100.5,57.4z"/>
		<path fill="#272628" d="M125,83c0.3,1.8,0.2,3.3,0.1,5.4c-1-1.2-0.2-2.9-2.3-2.7c-1.9,0.1-0.8,1.7-1.8,2.4
			c-0.5-1.7-0.4-3.2,0.1-4.8c0.4,1.1,0.6,2,2.2,2C124.8,85.1,124,83.7,125,83z"/>
		<path fill="#272628" d="M149,87.8c-1,0-2.4,0.5-2.7-0.2c-0.4-1.2-0.4-2.8,0-4c0.3-0.7,1.7-0.3,2.6-0.2c-0.3,1.2-1.9,0-1.9,1.1
			c0,1.2,1.4,0.1,1.7,1c-0.2,0.9-1.9-0.4-1.8,1.1C147.1,87.8,148.5,86.6,149,87.8z"/>
		<path fill="#272628" d="M170.9,85.5c-0.5,0.7-1.8-0.4-1.8,0.9c0,1.4,1.7,0.1,2,1.3c-0.9,0.1-2.3,0.5-2.6-0.1
			c-0.6-1.2-0.5-2.8-0.1-4c0.3-0.9,1.7-0.3,2.6-0.3c-0.1,1.3-2,0-1.9,1.3C169.2,85.6,170.6,84.5,170.9,85.5z"/>
		<path fill="#272628" d="M175.1,82.9c-0.8,1.5-2.1,0.5-2.2,1.5c-0.1,1.2,1.4,0.1,1.7,1c-0.2,0.9-1.9-0.4-1.8,1.1
			c0.1,1.3,1.5,0.1,2,1.1c-0.9,0.3-2.3,0.6-2.7-0.1c-0.5-1.1-0.5-2.7-0.1-3.8C172.5,82.5,173.8,83.6,175.1,82.9z"/>
		<path fill="#272628" d="M129.2,82.8c-0.8,1.6-2.1,0.6-2.2,1.6c-0.2,1.3,1.6,0.1,1.8,1.1c-0.4,0.8-1.8-0.4-1.8,1
			c0,1.3,1.5,0.1,1.9,1.2c-0.9,0.4-2.3,0.6-2.6,0c-0.5-1.1-0.5-2.7-0.1-3.8C126.6,82.4,127.9,83.7,129.2,82.8z"/>
		<path fill="#272628" d="M177.3,83.6c1.3-0.1,2.1,0.4,1.2,1.7c-0.4,0.6,0.3,1-0.1,1.5c-0.9,0.3-0.8-1.1-1.6-1
			c-0.6,0.5,0.1,1.4-1,2.4c0-1.8-0.2-3.3,0.1-4.6C175.9,83,176.8,83,177.3,83.6c-0.1,0.2-0.2,0.4-0.1,0.6c0,0.1,0.1,0,0.1-0.2
			C177.2,83.8,177.2,83.7,177.3,83.6z"/>
		<path fill="#272628" d="M221.9,83.6c1.3-0.1,2.1,0.4,1.2,1.7c-0.4,0.6,0.3,1-0.1,1.5c-0.9,0.3-0.8-1.1-1.6-1
			c-0.6,0.5,0.1,1.4-1,2.4c0-1.8-0.2-3.3,0.1-4.6C220.6,83,221.4,83,221.9,83.6c-0.1,0.2-0.2,0.4-0.1,0.6c0,0.1,0.1,0,0.1-0.2
			C221.8,83.8,221.9,83.7,221.9,83.6z"/>
		<path fill="#272628" d="M217.4,88.1c-1.1-1.5,1-4.4-2.3-4.7c1.5,0,3,0,4.5,0C216.4,83.7,218.6,86.5,217.4,88.1z"/>
		<path fill="#272628" d="M288.8,88.1c-1.1-1.5,1-4.4-2.3-4.7c1.5,0,3,0,4.5,0C287.8,83.7,289.9,86.5,288.8,88.1z"/>
		<path fill="#272628" d="M235.4,83.3c1.4,0,2.9,0,4.3,0c-3.1,0.3-1.2,3.2-2.2,4.7c-1.1-1.4,0.7-4.1-2.2-4.2
			C235.1,83.6,235.1,83.5,235.4,83.3z"/>
		<path fill="#272628" d="M66.8,50.3c0.3-0.1,0.5-0.3,0.8-0.4c0.3,0.7,1.2,1.1,1,2c0.3,0.6,0.1,1-0.5,1.3c-0.2,0.1-0.3,0.3-0.5,0.4
			c-1.2-0.3-2.1-0.7-1.8-2.2C65.9,50.8,66.5,50.8,66.8,50.3z"/>
		<path fill="#272628" d="M131.5,84.1c0.2-0.4,0.3-1.2,0.8-0.4c0.9,1.2,1.5,2.6,2.3,4c-1.2,0.4-1.1-0.5-1.4-1
			c-0.9-0.6-2,0.1-2.9-0.5c0.2-0.5,0.3-1,0.8-1.3C132,85.1,130.9,84.1,131.5,84.1z"/>
		<path fill="#272628" d="M257.5,84.1c0.2-0.5,0.3-1.3,0.9-0.2c0.7,1.2,1.4,2.3,2.1,3.5c0.1,0.1,0.1,0.2,0.1,0.3
			c-0.1,0.1-0.1,0.1-0.2,0.1c-1,0.3-1-0.6-1.3-1.1c-0.9-0.6-2,0.1-2.9-0.5c0.2-0.5,0.3-1,0.8-1.3C258.1,85.1,257,84.1,257.5,84.1z"
			/>
		<path fill="#272628" d="M282.2,86.2c0.2-0.5,0.3-1,0.8-1.3c1,0.2-0.1-0.7,0.4-0.8c0.2-0.4,0.3-1.2,0.8-0.4c0.9,1.2,1.5,2.6,2.3,4
			c-1.2,0.4-1.1-0.5-1.4-1C284.2,86,283.1,86.7,282.2,86.2z"/>
		<path fill="#272628" d="M115.6,84.1c0.2-0.4,0.3-1.2,0.8-0.4c0.9,1.2,1.5,2.6,2.3,4c-1.2,0.4-1.1-0.5-1.4-1
			c-0.9-0.6-2,0.1-2.9-0.5c0.2-0.5,0.3-1,0.8-1.3C116.2,85.1,115.1,84.1,115.6,84.1z"/>
		<path fill="#272628" d="M102.3,88.3c-0.2-0.1-0.3-0.3-0.5-0.4c0.1-0.4,0.3-0.7,0.6-1c0,0,0-0.1,0-0.1s-0.1,0-0.1,0
			c-0.2,0-0.4,0-0.6-0.1c-0.1-0.1-0.2-0.3-0.2-0.5c0-0.5,0.1-0.9,0.2-1.4c0.2-0.7,0.6-1,1.3-0.7C104.6,85.3,104.2,87.3,102.3,88.3z"
			/>
		<path fill="#272628" d="M300.3,87.8c0-1.4,0-2.9,0-4.3C301.4,84,301.4,84,300.3,87.8z"/>
		<path fill="#272628" d="M249.3,87.8c-0.9-1.4-0.3-2.9-0.6-4.7C251.4,84.7,248.6,86.4,249.3,87.8z"/>
		<path fill="#272628" d="M206.5,83.5c1,0.7,1,0.7,0,4.4C206.5,86.4,206.5,85,206.5,83.5z"/>
		<path fill="#272628" d="M182.6,83.4c1.7,1.4,0,2.9,0.3,4.4C182.1,86.4,182.5,84.9,182.6,83.4z"/>
		<path fill="#272628" d="M162.7,82.9c2.3,1.9,0.1,3.4,0.6,4.9C162.5,86.4,162.9,84.9,162.7,82.9z"/>
		<path fill="#272628" d="M149.8,82.9c2.3,1.8,0.1,3.4,0.6,4.9C149.5,86.4,150,84.9,149.8,82.9z"/>
		<path fill="#272628" d="M103.1,84.1c-0.1,0.4-1.1,0-0.8,0.8c-1.3,1.2-1.8,0.2-2.3-0.8c-0.1-0.2-0.1-0.4-0.1-0.6
			c0-0.3,0.1-0.6,0.4-0.8C101.3,82.9,102.2,83.5,103.1,84.1z"/>
		<path fill="#272628" d="M241,87.8c-0.7-1.5-0.7-3,0-4.5C241,84.8,241,86.3,241,87.8z"/>
		<path fill="#272628" d="M292.2,87.8c-0.5-1.5-0.5-3,0-4.5C292.7,84.8,292.6,86.3,292.2,87.8z"/>
		<path fill="#272628" d="M161.2,87.8c-0.6-1.5-0.6-3-0.1-4.5C161.8,84.8,161.4,86.3,161.2,87.8z"/>
		<path fill="#272628" d="M280.1,83.3c0.4,1.5,0.5,3,0,4.5C279.5,86.3,279.6,84.8,280.1,83.3z"/>
		<path fill="#272628" d="M180.7,87.8c-0.4-1.5-0.5-3,0.1-4.5C181.1,84.8,181.3,86.3,180.7,87.8z"/>
		<path fill="#272628" d="M204.9,87c-1.4,1.2-2.8,1.2-4.2,0.1c-0.2-0.2-0.2-0.4,0-0.6c1.2-0.4,2.5,0.1,3.8-0.2
			C204.8,86.4,205,86.6,204.9,87z"/>
		<path fill="#272628" d="M226.2,87.5c-2.1-1-0.9-2.7-0.9-4.2c0.9,1.1,0.1,2.6,0.9,3.7C226.4,87.2,226.4,87.4,226.2,87.5z"/>
		<path fill="#272628" d="M141.8,87.8c-0.5-1.2-0.2-2.7-1.8-3.6C142.6,84.6,142.7,84.7,141.8,87.8z"/>
		<path fill="#272628" d="M235.4,83.3c0,0.2,0,0.3-0.1,0.5c-1.2,0.6-2.6-0.3-3.7,0.7c-0.3,0.1-0.6,0-0.4-0.4
			C232.4,82.7,234,83.4,235.4,83.3z"/>
		<path fill="#272628" d="M247.5,87c-1.4,1.2-2.8,1.3-4.2,0c0.1-0.3,0.3-0.5,0.6-0.6c1.1,0.1,2.1,0,3.2,0
			C247.4,86.5,247.6,86.6,247.5,87z"/>
		<path fill="#272628" d="M273.4,87c-1.4,1.2-2.8,1.3-4.2,0c0.1-0.3,0.3-0.5,0.6-0.6c1.1,0.1,2.1,0,3.2,0
			C273.3,86.5,273.5,86.6,273.4,87z"/>
		<path fill="#272628" d="M298.8,87c-1.4,1.2-2.8,1.3-4.2,0c0.1-0.3,0.3-0.5,0.6-0.6c1.1,0.1,2.1,0,3.2,0
			C298.7,86.5,299,86.6,298.8,87z"/>
		<path fill="#272628" d="M228.3,87c0.9-1.1,0.1-2.6,0.9-3.7c0.2,1.4,1.1,2.8-0.5,4C228.5,87.3,228.4,87.2,228.3,87z"/>
		<path fill="#272628" d="M275.4,84.1c1.2-1.2,2.4-0.9,3.7-0.3c-1.1,0.4-2.3,0-3.3,0.7C275.5,84.5,275.3,84.5,275.4,84.1z"/>
		<path fill="#272628" d="M195.7,84.1c1.2-1.2,2.4-1,4.3-0.3c-1.6,0.4-2.9-0.1-3.8,0.7C195.9,84.4,195.8,84.3,195.7,84.1z"/>
		<path fill="#272628" d="M100.2,82.7c0,0.3-0.1,0.7-0.1,1c-0.1,0.1-0.1,0.1-0.2,0.2c-0.1,0-0.2,0-0.3,0c-0.3,0-0.5-0.1-0.8-0.2
			c-0.4-0.1-0.7-0.2-1-0.5c-0.1-0.2-0.2-0.3-0.2-0.5c-0.1-0.4,0-0.8,0.2-1.1c0.5-0.3,0.9-0.1,1.4,0c0.4,0.1,0.6,0.5,0.8,0.8l0,0
			C100.3,82.5,100.3,82.6,100.2,82.7z"/>
		<path fill="#272628" d="M295,86.8c-0.1,0.1-0.3,0.2-0.4,0.3c-1.3-1-1.2-2,0-3c0.4-0.2,0.6,0,0.7,0.3C295.3,85.2,295.6,86,295,86.8
			z"/>
		<path fill="#272628" d="M156.5,84.5c-0.6,0.7-0.4,1.5,0,2.2c0.1,0.3,0,0.6-0.4,0.3c-1.2-1-1.2-2,0-3
			C156.5,83.8,156.6,84.1,156.5,84.5z"/>
		<path fill="#272628" d="M188.6,87c-1.2-1-1.2-2,0-3c0.5-0.2,0.5,0,0.5,0.4c-0.6,0.7-0.4,1.5,0,2.2C189.1,87,189,87.3,188.6,87z"/>
		<path fill="#272628" d="M298.8,87c-0.1-0.1-0.3-0.3-0.4-0.4c-0.4-0.7-0.2-1.4-0.3-2.2c0.1-0.3,0.3-0.5,0.6-0.3
			C300.1,85,300,86,298.8,87z"/>
		<path fill="#272628" d="M275.4,84.1c0.1,0.1,0.3,0.3,0.4,0.4c-0.6,0.8-0.1,1.6,0,2.6C274.2,85.9,274.2,85.5,275.4,84.1z"/>
		<path fill="#272628" d="M273.4,87c-0.1-0.1-0.2-0.3-0.4-0.4c-0.4-0.7-0.2-1.4-0.3-2.2c0.1-0.3,0.3-0.5,0.6-0.3
			C274.7,85,274.6,86,273.4,87z"/>
		<path fill="#272628" d="M247.5,87c-0.1-0.1-0.2-0.3-0.4-0.4c-0.4-0.7-0.2-1.4-0.3-2.2c0.1-0.3,0.3-0.5,0.6-0.3
			C248.8,85,248.7,86,247.5,87z"/>
		<path fill="#272628" d="M231.2,84.1c0.1,0.1,0.3,0.3,0.4,0.4c-0.6,0.8-0.1,1.6,0,2.6C230,85.9,230,85.5,231.2,84.1z"/>
		<path fill="#272628" d="M204.9,87c-0.1-0.1-0.2-0.3-0.4-0.4c-0.4-0.7-0.2-1.4-0.3-2.2c0.1-0.3,0.3-0.5,0.6-0.3
			C206.2,85,206.1,86,204.9,87z"/>
		<path fill="#272628" d="M191.6,87c0.1-0.4-0.2-1,0.3-1.3c1,2,0.7,2.2-2,2.1C190.1,86.7,191.2,87.6,191.6,87z"/>
		<path fill="#272628" d="M213.7,86.9c0.1-1-1-0.9-1.4-1.5c0.1-0.3,0.3-0.3,0.6-0.4c0.9,0.6,2.6,0.8,1.2,2.4
			C213.6,87.5,213.5,87.3,213.7,86.9z"/>
		<path fill="#272628" d="M262.1,85c0.9,0.6,2.5,0.8,1.2,2.4c-0.4,0.1-0.5-0.1-0.4-0.5c0.1-1-1-0.9-1.4-1.5
			C261.6,85.1,261.9,85.1,262.1,85z"/>
		<path fill="#272628" d="M265.8,85c0.9,0.6,2.6,0.8,1.2,2.4c-0.4,0.1-0.5-0.1-0.4-0.5c0.1-1-1-0.9-1.4-1.5
			C265.4,85.1,265.6,85.1,265.8,85z"/>
		<path fill="#272628" d="M159,87c0.1-0.4-0.2-1,0.3-1.3c1,2,0.7,2.2-2,2.1C157.5,86.7,158.6,87.6,159,87z"/>
		<path fill="#272628" d="M232.1,87.1c0.9,0,1.9,0,2.8,0C234,88,233,87.7,232.1,87.1z"/>
		<path fill="#272628" d="M196.6,87.1c0.9,0,1.8,0,3.3,0c-1.3,1.1-2.4,0.2-3.2,0.7C196.6,87.6,196.6,87.4,196.6,87.1z"/>
		<path fill="#272628" d="M279.5,87.2c-1.3,0.9-2.3,0.5-3.2,0.3C277.2,87,278.2,87.1,279.5,87.2z"/>
		<path fill="#272628" d="M166.9,83.3c0.9,1.3,0.3,2.8,0.3,4.2c0,0.4-0.5-0.2-0.8-0.4C166.8,85.9,166.6,84.6,166.9,83.3z"/>
		<path fill="#272628" d="M243.7,86.8c-0.1,0.1-0.3,0.1-0.4,0.2c-1.2-1.3-1.2-1.9,0-2.5c0.1,0.1,0.2,0.2,0.2,0.2
			C243.8,85.4,244.3,86.1,243.7,86.8z"/>
		<path fill="#272628" d="M304.2,83.3c0.9,1.3,0.3,2.8,0.3,4.2c0,0.4-0.5-0.2-0.8-0.4C304.1,85.9,303.9,84.6,304.2,83.3z"/>
		<path fill="#272628" d="M154,83.3c0.9,1.3,0.3,2.8,0.3,4.2c0,0.4-0.5-0.2-0.8-0.4C153.9,85.9,153.6,84.6,154,83.3z"/>
		<path fill="#272628" d="M210.3,83.3c0.9,1.3,0.3,2.8,0.3,4.2c0,0.4-0.5-0.2-0.8-0.4C210.2,85.9,210,84.6,210.3,83.3z"/>
		<path fill="#272628" d="M186.6,83.3c0.9,1.3,0.3,2.8,0.3,4.2c0,0.4-0.5-0.2-0.8-0.4C186.5,85.9,186.2,84.6,186.6,83.3z"/>
		<path fill="#272628" d="M252.9,83.3c0.9,1.3,0.3,2.8,0.3,4.2c0,0.4-0.5-0.2-0.8-0.4C252.8,85.9,252.5,84.6,252.9,83.3z"/>
		<path fill="#272628" d="M68,53.2c0.2-0.4,0.3-0.9,0.5-1.3c0.4,0.5,1.5-0.3,1.7,0.8c0,0.4-0.1,0.6-0.6,0.5
			C69.1,53.2,68.6,53.2,68,53.2z"/>
		<path fill="#272628" d="M262.1,85c-0.2,0.1-0.4,0.3-0.6,0.4c-1.2-1.1-0.8-1.7,0.6-2.1c0.2,0.1,0.4,0.1,0.5,0.4
			C262.2,84,261.2,84.1,262.1,85z"/>
		<path fill="#272628" d="M212.8,85c-0.2,0.1-0.4,0.3-0.6,0.4c-1.2-1.1-0.8-1.7,0.6-2.1c0.2,0.1,0.4,0.1,0.5,0.4
			C213,84,212,84.1,212.8,85z"/>
		<path fill="#272628" d="M265.8,85c-0.2,0.1-0.4,0.3-0.6,0.4c-1.2-1.1-0.8-1.7,0.6-2.1c0.2,0.1,0.4,0.1,0.5,0.4
			C266,84,265,84.1,265.8,85z"/>
		<path fill="#272628" d="M304.2,83.3c-0.1,1.3,0.3,2.6-0.5,3.8c-0.2-0.2-0.4-0.3-0.6-0.5C304.5,85.8,303.3,84.2,304.2,83.3z"/>
		<path fill="#272628" d="M210.3,83.3c-0.1,1.3,0.3,2.6-0.5,3.8c-0.2-0.2-0.4-0.3-0.6-0.5C210.6,85.8,209.4,84.2,210.3,83.3z"/>
		<path fill="#272628" d="M154,83.3c-0.1,1.3,0.3,2.6-0.5,3.8c-0.2-0.2-0.4-0.3-0.6-0.5C154.3,85.8,153.1,84.2,154,83.3z"/>
		<path fill="#272628" d="M252.9,83.3c-0.1,1.3,0.3,2.6-0.5,3.8c-0.2-0.2-0.4-0.3-0.6-0.5C253.2,85.8,252,84.2,252.9,83.3z"/>
		<path fill="#272628" d="M186.6,83.3c-0.1,1.3,0.3,2.6-0.5,3.8c-0.2-0.2-0.4-0.3-0.6-0.5C186.8,85.8,185.6,84.2,186.6,83.3z"/>
		<path fill="#272628" d="M166.9,83.3c-0.1,1.3,0.3,2.6-0.5,3.8c-0.2-0.2-0.4-0.3-0.6-0.5C167.2,85.8,166,84.2,166.9,83.3z"/>
		<path fill="#272628" d="M269.6,86.8c-0.1,0.1-0.3,0.1-0.4,0.2c-1.1-0.7-1.1-1.5-0.4-2.5c0.4,0.2,0.6,0.5,0.8,0.9
			C269.7,85.9,270.1,86.3,269.6,86.8z"/>
		<path fill="#272628" d="M195.7,85.3c0.1,0.5,0.3,1,0.4,1.5c-1.2-0.5-1.6-1.2-0.7-2.3C195.7,84.7,195.5,85.1,195.7,85.3z"/>
		<path fill="#272628" d="M228.3,87c0.1,0.1,0.3,0.2,0.4,0.3c-0.8,0.7-1.6,0.7-2.5,0.2c0-0.2,0-0.4,0-0.6
			C226.9,87.2,227.6,87.2,228.3,87z"/>
		<path fill="#272628" d="M243.3,84.5c-0.1-1,0.5-1.1,1.3-1.2c0.4,0.6,1.7-0.6,1.6,0.9C245.2,84.7,244.3,85.1,243.3,84.5L243.3,84.5
			z"/>
		<path fill="#272628" d="M262.9,86.9c0.1,0.2,0.3,0.3,0.4,0.5c-0.9,0.9-1.9,0.4-2.9,0.3c0-0.1,0.1-0.3,0.1-0.4
			C261.3,87.2,262.1,87,262.9,86.9z"/>
		<path fill="#272628" d="M159,87c-0.3,0.8-1.2,0.2-1.6,0.7c-0.6,0-1.1-0.2-1.3-0.7c0.1-0.1,0.3-0.2,0.4-0.3
			C157.3,87,158.1,87.3,159,87z"/>
		<path fill="#272628" d="M191.6,87c-0.3,0.8-1.2,0.2-1.6,0.7c-0.6,0-1.1-0.2-1.3-0.7c0.1-0.1,0.3-0.2,0.4-0.3
			C189.8,87,190.7,87.3,191.6,87z"/>
		<path fill="#272628" d="M246.2,84c-0.6-0.2-1.1-0.4-1.7-0.7c1.1-0.2,2.1-0.2,2.9,0.8c-0.1,0.1-0.3,0.2-0.4,0.3
			C246.6,84.8,246.4,84.4,246.2,84z"/>
		<path fill="#272628" d="M273.4,84.1c-0.1,0.1-0.3,0.2-0.4,0.3c-0.3,0.4-0.7,0.1-1,0c-0.5-0.4-1.4-0.1-1.5-1.1
			C271.5,83.1,272.6,83.1,273.4,84.1z"/>
		<path fill="#272628" d="M270.5,83.3c0.6,0.2,1.1,0.4,1.7,0.7c-0.6,0.8-1.5,0.7-2.3,0.7c-0.5-0.1-0.7-0.4-0.6-0.9
			C269.6,83.6,270,83.5,270.5,83.3z"/>
		<path fill="#272628" d="M69.6,53.2c0.2-0.2,0.4-0.3,0.6-0.5c0.6,0.1,1.3,0.4,1,1c-0.3,0.7-0.9,0.3-1.4,0
			C69.8,53.5,69.7,53.4,69.6,53.2z"/>
		<path fill="#272628" d="M266.7,86.9c0.1,0.2,0.3,0.3,0.4,0.5c-0.7,0.8-1.6,0.3-2.6,0.4C265.1,86.8,266.1,87.4,266.7,86.9z"/>
		<path fill="#272628" d="M298.8,84.1c-0.1,0.1-0.3,0.2-0.4,0.3c-0.4,0.4-0.7,0.1-1,0c-0.5-0.4-1.4-0.1-1.5-1.1
			C297,83.1,298,83.1,298.8,84.1z"/>
		<path fill="#272628" d="M295.9,83.3c0.6,0.2,1.1,0.5,1.7,0.7c-0.7,0.8-1.6,0.9-2.5,0.4c-0.2-0.1-0.3-0.3-0.5-0.4
			C294.9,83.6,295.3,83.3,295.9,83.3z"/>
		<path fill="#272628" d="M213.7,86.9c0.1,0.2,0.3,0.3,0.4,0.5c-0.7,0.8-1.6,0.5-2.5,0.3C212.1,86.8,213.1,87.4,213.7,86.9z"/>
		<path fill="#272628" d="M156.5,84.5c-0.2-0.1-0.3-0.3-0.5-0.4c0.3-0.5,0.8-0.7,1.3-0.7c0.4,0.5,1.4-0.4,1.6,0.7
			C158.1,84,157.3,83.9,156.5,84.5z"/>
		<path fill="#272628" d="M200.8,86.5c0,0.2,0,0.4,0,0.5c-1.1-0.7-1.1-1.6-0.4-2.5c0.4,0.2,0.6,0.5,0.7,0.9
			C201.1,85.8,201.1,86.2,200.8,86.5z"/>
		<path fill="#272628" d="M189.1,84.5c-0.2-0.1-0.3-0.3-0.5-0.4c0.3-0.5,0.8-0.7,1.3-0.7c0.4,0.5,1.4-0.4,1.6,0.7
			C190.7,84,189.8,83.9,189.1,84.5z"/>
		<path fill="#272628" d="M200.7,83.8c0.4-0.1,0.9-0.3,1.3-0.4c0.5,0.5,1.6-0.4,1.7,0.8c-0.7,0.6-1.5,0.6-2.4,0.6
			C200.9,84.6,200.7,84.2,200.7,83.8z"/>
		<path fill="#272628" d="M203.7,84c-0.6-0.2-1.1-0.4-1.7-0.7c1.1-0.2,2.1-0.2,2.9,0.8c-0.1,0.1-0.3,0.2-0.4,0.3
			C204,84.8,203.8,84.4,203.7,84z"/>
		<path fill="#272628" d="M131.5,84.1c0,0.4,1.2,0.5,0.5,1.2c-0.4,0.4-0.8,0.3-0.9-0.4C131.2,84.6,131.3,84.3,131.5,84.1z"/>
		<path fill="#272628" d="M257.5,84.1c0,0.4,1.2,0.5,0.5,1.2c-0.4,0.4-0.8,0.3-0.9-0.4C257.2,84.6,257.4,84.3,257.5,84.1z"/>
		<path fill="#272628" d="M115.6,84.1c0,0.4,1.2,0.5,0.5,1.2c-0.4,0.4-0.8,0.3-0.9-0.4C115.3,84.6,115.5,84.3,115.6,84.1z"/>
		<path fill="#272628" d="M283.4,84.1c0,0.4,1.2,0.5,0.5,1.2c-0.4,0.4-0.8,0.3-0.9-0.4C283.1,84.6,283.2,84.3,283.4,84.1z"/>
		<path fill="#272628" d="M136.5,85.8c0.3,0.2,0.6,0.5,0.9,0.7c-0.2,0.2-0.4,0.4-0.6,0.4c-0.5,0-0.7-0.3-0.7-0.8
			C136.1,86,136.3,85.8,136.5,85.8z"/>
		<path fill="#272628" d="M100.5,57.4c-0.1,0-0.2,0-0.3-0.1c-0.4,0-0.7-0.3-0.9-0.6c-0.1-0.2-0.1-0.4,0-0.6c0.2-0.1,0.3-0.3,0.5-0.4
			c0.7,0.1,1,0.6,1.2,1.2C100.8,57.1,100.7,57.3,100.5,57.4z"/>
		<path fill="#272628" d="M282.2,86.2c0.9,0.2,2-0.5,2.9,0.5c-0.8-0.3-1.6-0.2-2.4,0c-0.2,0.2-0.4,0.1-0.6-0.1
			C282.1,86.4,282.2,86.3,282.2,86.2z"/>
		<path fill="#272628" d="M256.3,86.2c0.9,0.2,2-0.5,2.9,0.5c-0.8-0.3-1.6-0.2-2.4,0c-0.2,0.2-0.4,0.1-0.6-0.1
			C256.2,86.4,256.3,86.3,256.3,86.2z"/>
		<path fill="#272628" d="M130.3,86.2c0.9,0.2,2-0.5,2.9,0.5c-0.8-0.3-1.6-0.2-2.4,0c-0.2,0.2-0.4,0.1-0.6-0.1
			C130.2,86.4,130.2,86.3,130.3,86.2z"/>
		<path fill="#272628" d="M114.4,86.2c0.9,0.2,2-0.5,2.9,0.5c-0.8-0.3-1.6-0.2-2.4,0c-0.2,0.2-0.4,0.1-0.6-0.1
			C114.4,86.4,114.4,86.3,114.4,86.2z"/>
		<path fill="#272628" d="M34.7,87.3c0,0.1,0,0.3,0,0.4c-0.9-0.2-1.3-0.9-1.7-1.6l0.1,0.1l0.1,0c0.1-0.1,0.2-0.2,0.3-0.3
			c0.2,0,0.3,0,0.4,0.1c0.2,0.1,0.4,0.3,0.5,0.4c0.1,0.2,0.3,0.4,0.3,0.6C34.6,87.1,34.7,87.2,34.7,87.3z"/>
		<path fill="#272628" d="M135.6,85.4c-0.1,0-0.2-0.1-0.2-0.1c-0.1-0.5-1.1-1.1-0.4-1.5c0.8-0.4,0.7,0.7,0.9,1.2
			C135.9,85.1,135.9,85.3,135.6,85.4z"/>
		<path fill="#272628" d="M191.6,84c-0.5-0.2-1.1-0.4-1.6-0.7c0.7,0,1.3,0,2,0c0.3,0,0.4,0.4,0.2,0.6C192,84,191.7,84,191.6,84z"/>
		<path fill="#272628" d="M138,84.8c0.2-0.6,0.3-1.1,0.8-1.4c0,0,0.4,0.3,0.4,0.4C139.1,84.3,139.1,84.9,138,84.8z"/>
		<path fill="#272628" d="M159,84c-0.5-0.2-1.1-0.4-1.6-0.7c0.7,0,1.3,0,2,0c0.3,0,0.4,0.4,0.2,0.6C159.5,84,159.2,84,159,84z"/>
		<path fill="#272628" d="M266.4,83.7c-0.2-0.1-0.3-0.3-0.5-0.4c0.2,0,0.4-0.1,0.6-0.1c0.3,0.1,1-0.2,0.9,0.5
			C267.2,84.3,266.7,83.8,266.4,83.7z"/>
		<path fill="#272628" d="M262.6,83.7c-0.2-0.1-0.3-0.3-0.5-0.4c0.2,0,0.4-0.1,0.6-0.1c0.3,0.1,1-0.2,0.9,0.5
			C263.5,84.3,263,83.8,262.6,83.7z"/>
		<path fill="#272628" d="M282.1,86.6c0.2,0,0.4,0,0.6,0.1c-0.2,0.5-0.2,1.1-0.9,1.2c-0.1,0-0.4-0.1-0.4-0.1
			C281.5,87.2,281.6,86.8,282.1,86.6z"/>
		<path fill="#272628" d="M256.2,86.6c0.2,0,0.4,0,0.6,0.1c-0.2,0.5-0.2,1.1-0.9,1.2c-0.1,0-0.4-0.1-0.4-0.1
			C255.6,87.2,255.8,86.8,256.2,86.6z"/>
		<path fill="#272628" d="M200.7,83.8c0.1,0.2,0.3,0.5,0.4,0.7c0.3,0.5,0,0.7-0.5,0.9c-0.1-0.3-0.2-0.5-0.3-0.8
			C200.4,84.3,200.2,83.8,200.7,83.8z"/>
		<path fill="#272628" d="M213.4,83.7c-0.2-0.1-0.3-0.3-0.5-0.4c0.2,0,0.4-0.1,0.6-0.1c0.3,0.1,1-0.2,0.9,0.5
			C214.2,84.3,213.7,83.8,213.4,83.7z"/>
		<path fill="#272628" d="M130.2,86.6c0.2,0,0.4,0,0.6,0.1c-0.2,0.5-0.2,1.1-0.9,1.2c-0.1,0-0.4-0.1-0.4-0.1
			C129.6,87.2,129.7,86.8,130.2,86.6z"/>
		<path fill="#272628" d="M114.3,86.6c0.2,0,0.4,0,0.6,0.1c-0.2,0.5-0.2,1.1-0.9,1.2c-0.1,0-0.4-0.1-0.4-0.1
			C113.7,87.2,113.9,86.8,114.3,86.6z"/>
		<path fill="#272628" d="M269.2,83.8c0.1,0.2,0.3,0.5,0.4,0.7c0.3,0.5,0,0.7-0.5,0.9c-0.1-0.3-0.2-0.5-0.3-0.8
			C268.9,84.3,268.6,83.8,269.2,83.8z"/>
		<path fill="#272628" d="M135.6,85.4c0.1-0.2,0.3-0.3,0.4-0.5c0.1,0.3,0.3,0.6,0.4,0.8c-0.1,0.1-0.3,0.3-0.4,0.4
			C135.9,85.9,135.8,85.6,135.6,85.4z"/>
		<path fill="#272628" d="M195.7,85.3c-0.1-0.3-0.2-0.5-0.3-0.8c0.1-0.2,0.3-0.3,0.4-0.5c0.1,0.1,0.3,0.3,0.4,0.4
			C196,84.8,195.8,85,195.7,85.3z"/>
		<path fill="#272628" d="M33.4,86.2c-0.1,0-0.2,0-0.3,0c0-8.2-0.1-16.3-0.1-24.5c0-1.5,0-2.9-0.1-4.4c0-0.1,0.1-0.3,0.1-0.4
			c0.5,0,0.7,0.4,0.8,0.8c0.3,8.5,0.1,17,0.1,25.4C34,84.2,34.2,85.3,33.4,86.2z"/>
		<path fill="#272628" d="M33.4,57.4c-0.1-0.1-0.2-0.3-0.4-0.4c0.3-0.8,0.9-1.4,1.6-1.8c0.1,0,0.3,0,0.4,0.1
			c7.1,0,14.1,0.2,21.2-0.1c0.8,0,1.5,0,2.2,0.5c0.1,0.2,0.3,0.4,0.4,0.5c-0.9,0.7-2,0.5-3,0.5c-6.9,0.1-13.8-0.1-20.7,0.1
			c-0.5,0.1-0.8,0.4-1.2,0.6C33.8,57.5,33.6,57.5,33.4,57.4z"/>
		<path fill="#272628" d="M34.7,55.2c0.7-0.6,1.5-0.3,2.2-0.3c5.6,0,11.2,0,16.8,0c1,0,1.9-0.2,2.7-0.9c0.6,0.2,1.4,0.4,0.8,1.3
			c-5.2,0.3-10.4,0.1-15.6,0.1c-2.3,0-4.6,0.2-6.9-0.1L34.7,55.2z"/>
		<path fill="#272628" d="M57.9,53.5c0.1-0.5-0.4-1.3,0.7-1.2c0.6,0,0.9,0.3,1.2,0.8c0.1,0.7-0.7,0.5-0.9,1L58.9,54
			C58.3,54.3,57.9,54.3,57.9,53.5z"/>
		<path fill="#272628" d="M57.9,53.5c0.2,0.4,0.5,0.5,0.9,0.5c0.1,0.6-0.8,0.3-0.9,0.8c-0.3,0.2-0.5,0.3-0.8,0
			c-0.3-0.3-0.6-0.6-0.9-0.8C56.9,53.9,57.4,53.7,57.9,53.5z"/>
		<path fill="#272628" d="M59.7,53.2c-0.3-0.3-0.7-0.6-1-0.9c-0.2-0.5,0.5-0.4,0.6-0.8c0.6,0,1.1,0,1.7,0c0.1,0.1,0.1,0.2,0.1,0.3
			C61,52,61,52,61,52c-0.3,0.2-0.6,0.4-0.8,0.7C60,52.9,59.9,53.1,59.7,53.2z"/>
		<g>
			<path fill="#272628" d="M246.6,67.7c-0.5-2.3-2.4-3.2-4.5-3.4c-2.4-0.2-4.9-0.1-7.3-0.2c-1,0-0.8,0.7-0.8,1.3c0,3.1,0,6.1,0,9.2
				c0,3.6,0.3,3.8,3.9,3.3c0.7-0.1,0.9-0.3,0.9-1c-0.1-1.2-0.3-2.4,0.2-3.8c1.3,1.7,2.2,3.7,3.8,4.5c1.7,0.8,3.8,0.3,5.9,0.1
				c-1.7-1.8-3.3-3.4-5.1-5.2C245.9,71.5,247.2,70,246.6,67.7z M240,70.3c-1.3,0.1-1.2-0.7-1.2-1.9c0.1-0.4-0.4-1.5,1-1.4
				c1.1,0.1,2.2,0.4,2.2,1.7C242,69.9,241,70.2,240,70.3z"/>
			<path fill="#272628" d="M171.3,70.8c-0.4-0.3-0.9-0.4-0.3-1.2c1.8-2.3,1.1-4.4-1.7-5.2c-2.7-0.8-5.5-0.3-8.3-0.4
				c-0.9,0-0.7,0.6-0.7,1.1c0,1.9,0,3.7,0,5.6c0,0,0,0,0,0c0,1.9,0,3.9,0,5.8c0,0.5-0.3,1.2,0.6,1.2c3.1-0.2,6.3,0.6,9.3-0.7
				C173.3,75.8,173.7,73,171.3,70.8z M165.8,66.6c0.9,0.1,1.6,0.5,1.6,1.5c0,1-0.7,1.4-1.6,1.4c-1.2,0-0.7-0.9-0.8-1.5
				C165,67.4,164.6,66.5,165.8,66.6z M166,75.2c-1.4,0.1-1-1-1-1.4c-0.1-1.1-0.2-2,1.2-1.8c1,0.1,2,0.5,2,1.6
				C168.2,74.9,167.1,75.1,166,75.2z"/>
			<path fill="#272628" d="M183.7,74.5c-0.9,0.2-1.8,0-2.7,0c-0.9,0-1-0.4-1-1.2c0-0.7,0.3-1,1-1c0.9,0,1.8-0.1,2.7,0
				c1.2,0.2,1.5-0.3,1.5-1.5c0-1.4-0.2-2.1-1.8-1.9c-0.7,0.1-1.5,0-2.3,0c-0.6,0-1.1,0-1.1-0.8c0-1,0.6-1,1.2-1c1,0,2.1-0.1,3.1,0
				c1.5,0.1,1.1-0.9,1.1-1.7c0-0.8,0.3-1.7-1.1-1.7c-2.6,0.1-5.3,0-7.9,0c-0.9,0-1.2,0.2-1.1,1.2c0.1,1.9,0,3.7,0,5.6c0,0,0,0,0,0
				c0,1.9,0.1,3.9,0,5.8c0,0.9,0.2,1.2,1.1,1.2c2.7,0,5.4,0,8.1,0c0.8,0,1.2-0.2,1.3-1.1C185.8,75.2,185.6,74.2,183.7,74.5z"/>
			<path fill="#272628" d="M229.2,74.5c-1,0.1-1.9,0-2.9,0c-0.8,0-0.9-0.5-0.9-1.1c0-0.6,0.1-1.1,0.9-1.1c1,0,2.1,0,3.1,0
				c0.8,0,1.1-0.1,1.2-1c0.1-1.5,0-2.8-2.1-2.4c-0.6,0.1-1.2,0-1.9,0c-0.7,0-1.3,0-1.2-1c0-0.8,0.6-0.8,1.1-0.8c0.8,0,1.7,0,2.5,0
				c1.2,0.1,1.9,0,1.9-1.6c0-1.6-0.6-1.9-1.9-1.7c-0.5,0.1-1,0-1.5,0c-2.2,0-5.2-0.8-6.4,0.3c-1.4,1.3-0.2,4.3-0.4,6.2
				c0,2.2,0.1,4.1,0,5.9c-0.1,1,0.2,1.3,1.2,1.3c2.4-0.1,4.9-0.1,7.3,0c1.2,0,2,0,2-1.7C231.2,74.5,230.5,74.4,229.2,74.5z"/>
			<path fill="#272628" d="M194.1,64.6c-2.4,4.3-4.8,8.7-7.3,13.2c1.6-0.3,3.4,0.8,4.7-0.7c1.6-2,5.7-2,7.2,0.1
				c0.4,0.5,0.8,0.6,1.4,0.6c1.3,0,2.6,0,4.1,0c-2.6-4.5-5.1-8.8-7.6-13.1C195.7,63.2,195,63.1,194.1,64.6z M194,72.8
				c0-1,0.6-1.7,1.1-2.7c0.5,0.9,0.9,1.7,1.4,2.7C195.4,72.8,194.8,72.8,194,72.8z"/>
			<path fill="#272628" d="M258.8,70.4c-0.8-0.7-1.8-1.2-2.7-1.9c-0.5-0.3-0.9-0.7-0.6-1.4c0.3-0.6,0.9-0.7,1.4-0.5
				c0.9,0.2,1.8,0.5,2.7,0.8c0.3-3.6,0.2-3.7-3.3-3.7c-1.1,0-2.2,0.2-3.2,0.6c-2.9,1.2-3.6,4.6-1.3,6.8c0.8,0.8,1.9,1.4,2.8,2.1
				c0.4,0.3,1,0.7,0.8,1.3c-0.2,0.7-0.9,0.8-1.6,0.7c-1.4-0.1-2.6-0.7-3.9-1.2c-0.1,1-0.1,1.9-0.2,2.8c0,0.6,0,1.1,0.8,1.2
				c2.4,0.4,4.8,0.7,7.2-0.3C260.8,76.2,261.4,72.7,258.8,70.4z"/>
			<path fill="#272628" d="M217.4,64c-1.8-0.3-2.9,0.4-3.6,2.2c-0.6,1.6-1.6,3-2.5,4.7c-0.7-1.2-1.4-2.1-1.7-3.1
				c-1.1-3.4-3.3-4.6-6.9-3.5c2.5,4.3,5,8.7,7.5,13c0.5,0.9,1,1.5,1.7,0.3c2.5-4.4,5.1-8.8,7.7-13.5C218.7,64,218,64.1,217.4,64z"/>
		</g>
		<path fill="#272628" d="M34.6,87c-0.1-0.1-0.3-0.3-0.4-0.4c0.1-0.3,0.3-0.5,0.6-0.6c0.2,0,0.4,0,0.6,0c0.3,0,0.7,0,1,0
			c10,0,20,0,29.9,0c0.5,0,1,0,1.6,0c0.7,0,1.3,0,2,0c3,0,6.1,0,9.1-0.1c1.4,0,2.7,0.1,4.1,0.6c0.2,0.2,0.3,0.3,0.5,0.5
			C67.3,87,51,87,34.6,87z"/>
		<path fill="#272628" d="M98.1,83.2c0.4,0,0.8,0,1.2,0c0.1,0.1,0.3,0.3,0.4,0.4l0,0c0.2,0.1,0.3,0.2,0.4,0.4c0.4,1,1.1,1.2,2.1,0.8
			c-0.1,0.4-0.3,0.9-0.4,1.3c-0.7,0.2-1.4,0.5-2.1,0.5c-0.7-0.6-1.5-0.9-2.4-0.5c-0.2,0-0.3,0-0.5,0c-0.3,0-0.5-0.1-0.8-0.2
			c-0.5-0.2-0.9-0.9-1.5-0.1c-0.1,0.2-0.2,0.3-0.3,0.4c-0.1,0-0.2,0.1-0.2,0.1c-0.1,0-0.2,0-0.2,0c-0.2-0.1-0.4-0.1-0.7-0.2
			c-0.2,0-0.3-0.1-0.4-0.1c-0.1,0-0.1-0.1-0.2-0.1c-0.1-0.1-0.2-0.2-0.3-0.3c-0.1-0.1-0.2-0.2-0.3-0.2c-0.1,0-0.3-0.1-0.4-0.1
			c-0.1,0-0.3-0.1-0.4-0.2c-0.3-0.1-0.6-0.2-0.8-0.3c-0.3-0.1-0.5-0.3-0.8-0.3c-0.1,0-0.3,0-0.4,0c-0.1,0-0.3,0-0.4,0
			c-0.2,0-0.4,0.1-0.6,0.2c-0.1,0-0.3,0-0.4,0c-0.2,0-0.5,0-0.7,0c-0.2,0-0.3-0.1-0.5-0.1C86,84.3,85.6,84,85.1,84
			c-0.5,0-1,0.2-1.3,0.6c-0.2,0.1-0.3,0.1-0.5,0c-0.7,0.1-0.7,0.8-1,1.2c-0.1,0.2-0.3,0.2-0.5,0.1c-0.6-0.5-1-1.1-1-1.9
			c0,0,0.2-0.3-0.1,0c-0.2,0.2,0-0.1-0.1,0.2c-0.8,0.7-1.9,0.3-2.7,0.8c-0.4,0.2-0.7,0.3-1.1,0.4c-1.1,0.2-2.2,0-3.3-0.3
			c-0.8-0.4-1.4,0.1-1.9,0.6c-0.2,0.1-0.3,0.2-0.5,0.3c-0.9,0-1.9,1.2-2.5-0.4c0-0.3,0-0.6,0.1-0.9c0.1-0.3,0.3-0.5,0.6-0.6
			c0.9-0.2,0.4-1.3,1.1-1.6c0.7-0.1,1.3,0,2,0c0.3,0,0.7-0.1,0.5-0.4c-0.1-0.3-0.1,0-0.1,0.1c0,0.1-0.1,0.2-0.3,0.3
			c-0.8,0.1-1.7-0.2-2.5,0.2c-0.3,0.4-0.5,0.8-1,1c-0.7,0.2-1.4-0.1-2,0.3c-0.3,0.3-0.6,0.6-1.1,0.6c-0.8-0.1-1.6-0.4-2.3,0.2
			C63,84.8,62.4,85,61.8,85c-0.4,0-0.8,0-1.2-0.2c-0.2-0.1-0.3-0.3-0.4-0.5c0-0.2,0-0.4,0-0.6c0.1-0.2,0.2-0.3,0.4-0.5
			c0.7-0.6,0.9-1.7,2-2c0.2-0.1,0.4-0.1,0.5-0.2c0.7-0.2,1-0.5,0.4-1.1c-1.1-1.1-1.4-2.7-2.1-4c-0.3-0.7-0.2-1.5,0.1-2.2
			c-0.2-0.5,1.2,0,0.5-0.8c-0.1-0.1-0.2-0.3-0.3-0.4c-0.3-0.7-0.8-1.2-1.1-1.9c-0.1-0.4-0.2-0.7-0.2-1.1c0-0.6-0.3-1.1-0.1-1.7
			c0.3-0.6,1.1-0.8,1.3-1.4c0.1-0.4,0.2-0.8,0.4-1.2c-0.2,0.4-0.3,0.9-0.5,1.3c-0.4,0.6-1.1,0.9-1.5,1.4c-1.2,0.3-1.8-0.3-1.9-1.4
			c0-0.2,0-0.4,0.1-0.6c0.1-0.4,0.5-0.7,0.6-1.1c0-0.2,0.1-0.3,0.1-0.5c0-0.2,0.1-0.5,0.1-0.7c0.1-0.7-0.4-1.1-0.5-1.8
			c-0.1-1.2-0.4-2.3,0.6-3.3c0.2-0.1,0.4-0.1,0.6,0c0.6,0,0.8-0.4,0.9-0.9c0.3-0.1,0.5-0.1,0.7,0.1c1,0.6,1-0.6,1.6-0.8
			c0.6,0.1,1.1-0.6,1.7,0c1.7-0.1,3.3-0.3,5-0.4c0.7-0.3,1.4,0.1,2.1,0.1c0.7,0.2,1.3,0.5,2,0.7c0.8,0.4,1.8,0.6,2.6,1.1
			c5,3.4,7.9,8,7.8,14.2c0,0.8,0,1.5,0,2.3c0,0.2,0,0.4-0.1,0.6c-0.2,1.1-0.2,2.2-0.3,3.3c0,0.6,0.3,1,0.8,1.2
			c1.6,0.4,3.1,0,4.7,0.1c0.8,0,1.5-0.1,2.2,0.4c0.2,0.2,0.2,0.4,0.2,0.6c-0.3,0.4-0.7,0.4-1.1,0.4c-0.5,0-0.9,0-1.6,0
			c0.5,0,0.9,0,1.2,0c0.4,0,0.9,0,1.3,0.1c0.2,0,0.3,0.1,0.4,0.2c0.2,0.1,0.3,0.3,0.5,0.4c0.2,0,0.4-0.1,0.6-0.2
			c0.2-0.1,0.5-0.1,0.7,0c0.5,0.7,1.2,0.8,1.9,0.3c0.2-0.1,0.4-0.1,0.5,0c0.4,0.1,0.6,0.6,0.9,0.7c0.1,0,0.1,0,0.2,0.1
			c0.1,0,0.1,0.1,0.2,0.1c0.1,0.1,0.2,0.1,0.3,0.2c0.1,0.1,0.2,0.1,0.3,0C97.9,83.3,98.1,83.2,98.1,83.2z"/>
		<path fill="#272628" d="M94.3,86.1c0.1-0.4-0.7-1,0.2-1.3c0.9-0.3,1.3,0.6,1.9,0.9c-0.1,0.4-0.5,0.6-0.8,0.8c-0.1,0-0.3,0-0.4,0
			C95,86.3,94.5,86.5,94.3,86.1z"/>
		<path fill="#272628" d="M85.2,83.6c1-0.8,1,0.7,1.7,0.7c0,0.1,0,0.1,0,0.2c-0.1,0.1-0.1,0.3-0.3,0.4c-0.1,0-0.1,0.1-0.2,0.1
			c-0.6,0.1-1.2,0.3-1.7-0.2c-0.1-0.1-0.2-0.3-0.1-0.5C84.7,84.1,84.9,83.8,85.2,83.6z"/>
		<path fill="#272628" d="M101.9,86.6c0.3,0,0.5,0,0.8,0l0,0c0,0.6,0,1.2-0.9,1.3c-0.6,0-0.9-0.5-1.2-0.9
			C100.7,86.3,100.7,86.3,101.9,86.6z"/>
		<path fill="#272628" d="M88.1,87c-1.2,0-1-1.1-1.3-1.7c0.1,0,0.2-0.1,0.2-0.1c0.2,0,0.4,0,0.5,0c0.4,0.1,0.9,0.2,1.1,0.7
			C88.8,86.5,88.5,86.8,88.1,87z"/>
		<path fill="#272628" d="M93,86.6c-1.1,1.1-1.5,0.6-1.6-0.7c0-0.1,0-0.2,0-0.3c0.2-0.1,0.3-0.2,0.5-0.2c0.3,0,0.5,0.1,0.8,0.3l0,0
			C92.9,86,93,86.2,93,86.6z"/>
		<path fill="#272628" d="M97.3,86.1c0.9-0.5,1.9-1.3,2.4,0.5c0,0.1,0,0.2,0,0.2c-0.1,0.1-0.2,0.1-0.4,0.2c-0.2,0-0.4-0.1-0.6-0.2
			c-0.1-0.1-0.3-0.1-0.4-0.2c-0.1,0-0.3-0.1-0.4-0.1c-0.1-0.1-0.2-0.2-0.3-0.3l-0.2,0L97.3,86.1z"/>
		<path fill="#272628" d="M89.3,84c0.7-0.4,0.9,0.3,1.3,0.6c0.2,0.3,0.2,0.5-0.1,0.8c-0.3,0.1-0.6,0.3-0.8,0.4
			c-0.1,0-0.2-0.1-0.3-0.1c-0.2-0.2-0.4-0.5-0.4-0.8C89,84.5,89.1,84.2,89.3,84z"/>
		<path fill="#272628" d="M84.7,84.6c0,0.1,0,0.2,0,0.3c-0.3,0.3-0.2,1.1-0.8,0.9c-0.6-0.1-0.4-0.9-0.6-1.3l0.2,0
			C83.9,84.2,84.3,84.1,84.7,84.6z"/>
		<path fill="#272628" d="M88.1,87c0.1-0.4,0.3-0.8,0.4-1.2c0.1-0.1,0.1-0.1,0.2-0.2c0.1,0,0.2,0,0.3,0c0.1,0,0.2,0.1,0.3,0.1
			c0.1,0.1,0.3,0.2,0.4,0.4c0.2,0.3,0.5,0.5,0.2,0.9C89.1,87.5,88.6,87.4,88.1,87z"/>
		<path fill="#272628" d="M99.8,86.8c0-0.1,0-0.2,0-0.2c0.7-0.1,1.2-1.3,2.1-0.4c0,0.1,0,0.3,0.1,0.4c-0.2,0.7-1.1-0.5-1.3,0.5
			C100.3,87,100.1,86.9,99.8,86.8z"/>
		<path fill="#272628" d="M95.6,86.6c0-0.5,0.2-0.9,0.8-0.8c0.2,0.1,0.3,0.3,0.5,0.4C96.6,86.8,96.2,86.9,95.6,86.6z"/>
		<path fill="#272628" d="M89.7,87c-0.1-0.3-0.2-0.6-0.4-0.9c-0.1-0.1-0.1-0.2-0.1-0.3c0-0.1,0.1-0.2,0.1-0.2
			c0.2-0.1,0.3-0.1,0.5,0.1l0,0c0.2,0.5,0.9,0.9,0.6,1.5C90.2,87.5,89.8,87.3,89.7,87z"/>
		<path fill="#272628" d="M97.7,86.2c0.1,0,0.3,0,0.4,0c0.2,0.2,0.4,0.3,0.6,0.5c0.1,0.3,0,0.5-0.2,0.7C98,87.2,97.7,86.8,97.7,86.2
			z"/>
		<path fill="#272628" d="M98.5,87.4c0-0.3,0-0.5,0-0.8c-0.1-0.1-0.1-0.2-0.1-0.3c0-0.1,0.1-0.1,0.1-0.1c0.2,0.2,0.3,0.4,0.5,0.6
			c0.2,0.2,0.1,0.4,0,0.6C98.8,87.4,98.7,87.4,98.5,87.4z"/>
		<path fill="#272628" d="M90.6,85.3c0-0.3,0-0.5,0.1-0.8c0.4-0.1,0.7,0,0.8,0.4c-0.1,0.2-0.2,0.4-0.4,0.5
			C90.8,85.4,90.7,85.3,90.6,85.3z"/>
		<path fill="#272628" d="M93,86.6c-0.1-0.3-0.2-0.6-0.3-0.8c0.1,0,0.3,0,0.4,0c0.2,0.2,0.4,0.2,0.5,0.4c0.1,0.2,0,0.3-0.1,0.4
			C93.3,86.6,93.2,86.6,93,86.6z"/>
		<path fill="#272628" d="M91,85.4c0.1-0.2,0.3-0.3,0.4-0.5c0.1,0,0.2,0,0.4,0C92,85,92,85.1,92,85.3c-0.1,0.2-0.4,0.3-0.5,0.4
			c0,0.1-0.1,0.2-0.1,0.2C91.2,85.7,91.1,85.6,91,85.4z"/>
		<path fill="#272628" d="M99,87.4c0-0.2,0-0.4,0-0.6c0.1,0.1,0.3,0.2,0.4,0.3C99.3,87.2,99.3,87.4,99,87.4z"/>
		<path fill="#272628" d="M94.3,86.1c0.3,0.1,0.5,0.3,0.8,0.4c-0.3,0-0.6,0-0.8,0c-0.1-0.1-0.2-0.2-0.1-0.3
			C94.3,86.2,94.3,86.1,94.3,86.1L94.3,86.1z"/>
		<path fill="#272628" d="M86.8,85.3c-0.1,0-0.2-0.1-0.3-0.2c0-0.1,0-0.1,0-0.2c0.2-0.1,0.3-0.1,0.5,0C87,85,87,85.2,86.8,85.3
			L86.8,85.3z"/>
		<path fill="#272628" d="M93.5,86.6c0-0.1,0-0.3,0-0.4c0.1-0.1,0.3-0.2,0.4-0.1l0,0.1c0.1,0.1,0.2,0.1,0.1,0.2
			c0,0.1-0.1,0.1-0.1,0.1l-0.2,0.1L93.5,86.6z"/>
		<path fill="#272628" d="M93.9,86.5c0-0.1,0-0.2,0-0.3c0.2,0,0.3,0,0.5-0.1c0,0.1,0,0.3,0,0.4l-0.2,0L93.9,86.5z"/>
		<path fill="#272628" d="M71.8,57c-0.7,0-1.5,0.1-2.1-0.4c0.1-0.5,0.5-0.6,0.9-0.6c6.4,0,12.8,0.1,19.1,0.1c3.2,0,6.4,0,9.6,0.1
			c0,0.1,0.1,0.2,0.1,0.4c-0.2,0.2-0.4,0.4-0.7,0.4c-4.3,0.3-8.6,0.1-12.9,0.1C81.1,57.1,76.4,57.3,71.8,57z"/>
		<path fill="#272628" d="M34.3,56.6c0.3-0.7,1-0.4,1.5-0.4c7.7,0,15.4,0,23.1,0c0,0.3,0,0.5,0,0.8c-0.1,0.1-0.2,0.1-0.3,0.2
			c-0.2,0-0.5,0-0.7,0c-7.3-0.1-14.7-0.1-22,0c-0.2,0.1-0.5,0.1-0.7,0.1C34.7,57.2,34.4,56.9,34.3,56.6z"/>
		<path fill="#272628" d="M57.2,54.9c0.3,0,0.5,0,0.8,0c0.3,0.1,0.4,0.4,0.5,0.8c-7.6,0-15.2,0.1-22.9,0.1c-0.3,0-0.6-0.2-0.9-0.3
			c6.6,0,13.2,0,19.7-0.1C55.3,55.2,56.3,55.6,57.2,54.9z"/>
		<path fill="#272628" d="M66,51.1c-0.7,1.6,0.8,1.8,1.6,2.4c-1.3,0.2-2.6,1.1-3.7-0.4c-0.1-0.1-0.1-0.2-0.1-0.3
			c0-0.1,0.1-0.1,0.1-0.1c0.9-0.2,2-0.3,1.3-1.7C65.5,50.9,65.7,50.9,66,51.1z"/>
		<path fill="#272628" d="M59.7,53.2c0-0.3,0-0.6,0-0.9c0.8-0.1,1.6-0.8,2.1,0.4c-0.7,1.1-1.8,1.2-2.9,1.3
			C59.2,53.8,59.4,53.5,59.7,53.2z"/>
		<path fill="#272628" d="M61.8,52.8c-0.6-0.8-1.5-0.2-2.1-0.4c0.2-0.7,0.8-0.2,1.2-0.4c0.7-0.2,1.4-0.3,2,0c1.4,0.2,0,0.5,0.1,0.8
			c-0.1,0.2-0.3,0.2-0.5,0C62.3,52.8,62.1,52.8,61.8,52.8z"/>
		<path fill="#272628" d="M64.6,56.9c-0.6-0.2-1.1,0.8-1.7,0C63.5,56.4,64,55.3,64.6,56.9z"/>
		<path fill="#272628" d="M59.7,58.6c-0.1,0-0.2,0-0.3,0.1c-1.3-0.2-0.9-1-0.6-1.7l0.1,0C59.7,57.3,59.7,57.9,59.7,58.6z"/>
		<path fill="#272628" d="M62.6,52.8c0.2,0,0.3,0,0.5,0c0.3,0,0.6,0.1,0.9,0.1c0,0.1,0,0.2-0.1,0.4C63.2,53.9,62.8,53.6,62.6,52.8z"
			/>
		<path fill="#272628" d="M61.3,57.8c-0.2,0-0.5-0.1-0.7-0.1c0.1-0.6,0.6-1.1,1-0.8C62.2,57.1,61.4,57.4,61.3,57.8z"/>
		<path fill="#272628" d="M66,51.1c-0.3,0-0.5,0-0.8,0c-0.3-0.2-0.5-0.5-0.9-0.2c-0.3,0.2-0.7,0.3-0.7-0.2c0-0.2,0.2-0.5,0.4-0.6
			c1-0.4,1.9-0.2,2.8,0.3c0.1,0.3,0.7,0.6,0.4,1C67,51.4,66.4,51.2,66,51.1z"/>
		<path fill="#272628" d="M63.3,49.3c-0.9,0.7-1.4,0.7-2,0.2C62,48.9,62.5,49.1,63.3,49.3z"/>
		<path fill="#272628" d="M63,51.9c-0.7,0-1.4,0-2,0c0-0.1,0-0.2,0-0.3C61.6,51.7,62.4,51.2,63,51.9z"/>
		<path fill="#272628" d="M99,56.5c0.1,0,0.3,0,0.4,0c0.5,0.1,0.7,0.4,0.8,0.8c0,8.4,0,16.7,0,25.1c-0.3-0.2-0.5-0.3-0.8-0.5
			c-0.2-0.2-0.2-0.5-0.2-0.7c0.1-7.4,0-14.8,0-22.2c0-0.7-0.1-1.3-0.3-1.9C98.8,56.9,98.8,56.7,99,56.5z"/>
		<path fill="#272628" d="M102.7,86.6c0-0.4,0-0.8,0.5-0.9c0.1,0,0.2,0.1,0.2,0.2C103.5,86.4,103.1,86.5,102.7,86.6L102.7,86.6z"/>
		<path fill="#272628" d="M100.2,84.1c-0.1-0.1-0.3-0.3-0.4-0.4c0.1,0,0.3,0,0.4,0C100.2,83.8,100.2,83.9,100.2,84.1z"/>
		<path fill="#272628" d="M97.3,81.6c0.3,0,0.6,0.1,0.8,0.1c0,0.4,0,0.7,0,1.1c-0.1,0.2-0.3,0.4-0.6,0.4C97.3,83,97,83,96.8,83.2
			c-0.8,0.3-0.6-0.6-0.9-0.8C96.2,81.8,96.7,81.6,97.3,81.6z"/>
		<path fill="#272628" d="M97.3,82.8c0.3,0,0.5-0.1,0.8-0.1c0,0.2,0,0.3,0,0.5l0,0c-0.1,0.1-0.3,0.2-0.4,0.2c-0.2,0-0.3-0.1-0.4-0.3
			l0,0c-0.1-0.1-0.1-0.2-0.1-0.3C97.2,82.9,97.2,82.8,97.3,82.8z"/>
		<path fill="#272628" d="M99.7,83.7c-0.1-0.1-0.3-0.3-0.4-0.4C99.5,83.4,99.6,83.5,99.7,83.7z"/>
		<path fill="#272628" d="M34.3,56.6c0.1,0.1,0.2,0.2,0.4,0.4c0.2,0.2,0.2,0.5,0.2,0.7c0,9.3-0.1,18.6,0,27.9c0,0.3-0.1,0.5-0.3,0.7
			c-0.1,0.1-0.3,0.2-0.4,0.3c-0.2-0.1-0.3-0.3-0.5-0.4c-0.3-2.5-0.1-5-0.1-7.4c0-7.1-0.2-14.2,0.1-21.4
			C33.9,57.1,33.9,56.7,34.3,56.6z"/>
		<path fill="#272628" d="M33.8,57.4c0,9.6,0,19.2,0,28.8c-0.1,0-0.2,0-0.4,0c0-9.6,0-19.2,0-28.8C33.5,57.4,33.6,57.4,33.8,57.4z"
			/>
		<path fill="#272628" d="M35.5,86.5c0.7-0.6,1.5-0.3,2.2-0.3c6.5,0,13.1,0,19.6,0c0.9,0,1.8,0,2.4-0.8c0.5-0.4,1.1-0.4,1.8-0.4
			c0.8,0,1.6,0,2-0.8c0.9-0.9,1.9-0.5,2.8-0.2c0.1,0.3,0.1,0.5,0,0.8c-0.4,0.7,1.2,1,0.4,1.8C56.3,86.5,45.9,86.5,35.5,86.5z"/>
		<path fill="#272628" d="M35.5,80.7c-0.9,1.8-0.2,3.7-0.5,5.5l-0.2,0l-0.2,0c0-0.2,0-0.3,0-0.5c-0.2-2.1-0.4-4.2,0.1-6.4
			C35.7,79.5,35.8,80,35.5,80.7z"/>
		<path fill="#272628" d="M66.8,86.5c0-0.6-0.5-0.6-0.9-0.8c-1.1-0.4-0.5-0.6,0.2-0.8c0.5-0.3,1.1-0.5,1.6-0.2
			c0.3,0.2,0.5,0.6,0.6,1c0.1,0.3,0,0.6-0.2,0.8C67.6,86.5,67.2,86.5,66.8,86.5z"/>
		<path fill="#272628" d="M68,86.5c0-0.2,0-0.5,0-0.7c0.1-0.4,0.3-0.7,0.8-0.4c0.7,1,1.4-0.1,2.1,0c0.1,0.9-0.9,0.6-1.2,1.1
			C69.2,86.5,68.6,86.5,68,86.5z"/>
		<path fill="#272628" d="M99,56.5c0,0.1-0.1,0.2-0.1,0.4c-0.1,0.1-0.2,0.2-0.3,0.3c-3.7,0.7-7.5,0.4-11.2,0.2
			c-4.4-0.3-8.8-0.5-13.3,0.2c-0.3,0-0.5,0.1-0.7,0.2c-0.6-0.3-1.1-0.5-1.7-0.8c1.1-0.3,2.1-0.4,3.3-0.4C83,56.5,91,56.5,99,56.5z"
			/>
		<path fill="#272628" d="M94.4,80.7c0.6,0.1,1.2-0.1,1.7,0.4c-0.1,0.4-0.6,0.8-0.4,1.3c-1.2,1.6-2,1.1-2.6-0.4
			c-0.1,0-0.2-0.1-0.3-0.1c-0.2-0.2-0.3-0.4-0.3-0.6C92.8,80.1,93.6,80.6,94.4,80.7z"/>
		<path fill="#272628" d="M81.9,85.7c-1.4-0.4-2.9-0.8-4.3-1.3c0.8-1.2,2.3,0.5,3.1-0.8c0.1-0.2,0.2-0.2,0.4,0
			C80.6,84.7,82.1,84.8,81.9,85.7z"/>
		<path fill="#272628" d="M83.5,75.3c0.6,0,0.8,0.6,1.3,0.9c0,0.6-0.3,1.1-0.5,1.6c0,0.7,0,1.4,0,2.1c-0.2,0.2-0.3,0.4-0.5,0.6
			c-0.4-0.4-0.9-0.8-0.7-1.5c0.8-1,0.5-2.2,0.4-3.3C83.5,75.6,83.5,75.5,83.5,75.3z"/>
		<path fill="#272628" d="M59.7,81.9c0-0.1,0-0.2,0-0.3c1-0.4,2-0.4,3,0c-1.2,0.1-0.6,1.8-1.8,2c-0.3-0.2-0.8-0.1-0.9-0.6
			c-0.3-0.8,0.6-0.7,0.9-1.1C60.4,82.3,60,82.3,59.7,81.9z"/>
		<path fill="#272628" d="M61.3,66.5c0.2-1,0.4-1.9,0.6-2.9c1.1,1.1,0.8,2-0.1,2.9C61.6,66.7,61.5,66.7,61.3,66.5z"/>
		<path fill="#272628" d="M67.6,62.3c0.1-0.5,0.2-0.9,0.4-1.4c0.1-0.4-0.3-1.3,0.7-1c0.8,0.2,0.4,1.3,0.2,1.3
			c-0.8,0.3,0.5,2.1-1.2,1.5c-0.2-0.1-0.2-0.1-0.2-0.2C67.5,62.4,67.5,62.3,67.6,62.3z"/>
		<path fill="#272628" d="M95.6,82.5c-0.3-0.1-0.7,0-0.6-0.5c0.1-0.5,0.5-0.8,1-0.8c0.4,0.2,1.1-0.6,1.2,0.4
			c-0.3,0.4-0.8,0.7-1.3,0.9C95.9,82.4,95.8,82.4,95.6,82.5z"/>
		<path fill="#272628" d="M66.7,83.2c0.7-0.3,1.4-0.4,2.1,0c0.7,0,0.7,0.5,0.5,0.9c-0.2,0.1-0.3,0.2-0.5,0.4
			c-0.5,0.1-0.9-0.1-1.4-0.2C67.1,84,66.6,83.9,66.7,83.2z"/>
		<path fill="#272628" d="M68.5,66.4c-1.8,0.5-2.7,0.3-3.5-0.9C66.3,65,67,66.2,68.5,66.4z"/>
		<path fill="#272628" d="M69.3,84.2c-0.1-0.4-0.1-0.7-0.5-0.9c0.2-0.4,0.5-0.7,0.9-0.8c0.1-0.2,0.3-0.2,0.4,0
			C70.7,83.4,71,84.2,69.3,84.2z"/>
		<path fill="#272628" d="M66.7,83.2c0.3,0.3,0.6,0.6,0.9,0.8c0.2,0.3,0.2,0.6,0,0.9c-0.5,0-1.1,0-1.6,0c0.1-0.3,0.2-0.7,0.3-1
			C66.4,83.7,66.6,83.5,66.7,83.2z"/>
		<path fill="#272628" d="M83.5,75.7c0.5,1.2,1.1,2.4-0.4,3.3C83.2,78,83.4,76.8,83.5,75.7z"/>
		<path fill="#272628" d="M70.7,76.9c0.5,0.8,0.2,1.9,0.7,2.8c-1-0.5-1.1-1.3-1.2-2.2C69.9,77,70.2,76.8,70.7,76.9z"/>
		<path fill="#272628" d="M90.2,82c-0.8-0.2-2.4,0.4-2.3-0.2c0.2-1.2,1.5-0.5,2.4-0.6C90.4,81.5,90.4,81.7,90.2,82z"/>
		<path fill="#272628" d="M94.4,80.7c-0.7,0.1-1.6-0.3-1.8,0.8c-0.1,0.1-0.2,0.2-0.4,0.3c-0.2,0-0.3,0-0.5-0.1
			c-0.2-0.1-0.4-0.3-0.4-0.6c0-0.1,0-0.3,0-0.4c-0.1-0.1-0.2-0.2-0.1-0.2c0-0.1,0.1-0.1,0.1-0.1C92.4,80.4,93.4,80.1,94.4,80.7z"/>
		<path fill="#272628" d="M57.2,64.9c0-0.1,0-0.3,0-0.4c0.3-0.3,0.6-0.4,1-0.4c0.2,0,0.4,0.1,0.5,0.2c0.2,0.2,0.3,0.5,0.6,0.6
			c0.2,0.7-0.2,0.9-0.8,1.1C57.8,65.8,57.1,65.9,57.2,64.9z"/>
		<path fill="#272628" d="M70.7,76.9c-0.2,0.2-0.4,0.4-0.6,0.6c-0.5-1-0.4-2-0.3-3c0.1-0.2,0.2-0.2,0.4,0
			C70.3,75.3,70.5,76.1,70.7,76.9z"/>
		<path fill="#272628" d="M76.8,85c-1.3,0.6-2.5,0.6-3.7-0.1c-0.1-0.1-0.1-0.2-0.1-0.3c0-0.1,0.1-0.1,0.1-0.1
			C74.3,84.6,75.5,84.8,76.8,85z"/>
		<path fill="#272628" d="M67.6,84.9c0-0.3,0-0.6,0-0.9c0.5,0,1,0,1.3,0.5c0,0.3,0,0.6-0.1,0.9c-0.3,0.1-0.5,0.3-0.8,0.4
			C67.6,85.7,67.6,85.3,67.6,84.9z"/>
		<path fill="#272628" d="M70.1,74.5l-0.2,0l-0.2,0c-0.2-0.9,0.1-1.7,0.8-2.5C71.8,73.1,69.7,73.6,70.1,74.5z"/>
		<path fill="#272628" d="M57.2,64.9c0.4,0.3,0.9,0.7,1.3,1l0,0c-0.4,0.6-1,0.7-1.5,0.2C56.6,65.7,56.5,65.2,57.2,64.9z"/>
		<path fill="#272628" d="M58.8,64.5c-0.1,0-0.3-0.1-0.4-0.1c-0.7-0.5-1-1.1-0.6-2c0.2-0.2,0.4-0.2,0.6,0l0,0.1
			c0.7,0.2,0.8,0.7,0.9,1.3c0,0.2,0,0.4,0,0.6C59.2,64.6,59,64.6,58.8,64.5z"/>
		<path fill="#272628" d="M73.5,57.7c0-0.1,0-0.2,0-0.4c0.8-0.4,1.5-0.1,2.1,0.4c0.1,0.3,0.3,0.7,0.4,1
			C75.1,58.4,74.3,58.1,73.5,57.7z"/>
		<path fill="#272628" d="M61.8,85.3c-0.7,0-1.4,0-2.1,0c0.1-0.3,0.2-0.6,0.3-1c0.2-0.1,0.4-0.1,0.5,0c0.4,0.1,0.8,0.1,1.2,0.2
			C62,84.8,62,85.1,61.8,85.3z"/>
		<path fill="#272628" d="M84.7,84.6c-0.4,0-0.8,0-1.3-0.1c0.1-1.3,0.9-1.1,1.7-0.9C85.2,84,85.2,84.4,84.7,84.6z"/>
		<path fill="#272628" d="M73.8,61.5c0,0.6,0.3,1.2-0.7,1.8c0-0.9,0-1.5,0-2.2C73.5,61,73.7,61.2,73.8,61.5z"/>
		<path fill="#272628" d="M73.1,84.5c0,0.1,0,0.3,0,0.4c-0.6-0.3-1,1.1-1.8,0.2C71.9,84.9,72,83.6,73.1,84.5z"/>
		<path fill="#272628" d="M61.8,85.3c0-0.3,0-0.5,0-0.8c0.6-0.2,1.1-0.3,1.7-0.5C63.4,85.1,62.7,85.4,61.8,85.3z"/>
		<path fill="#272628" d="M73,64.1c-0.4,0.8-0.7,1.3-1.5,1C71.6,64.3,72.1,64.1,73,64.1z"/>
		<path fill="#272628" d="M67.6,62.3c0,0.1,0.1,0.3,0.1,0.4c-0.1,0-0.1,0.1-0.2,0c-0.8-0.3-0.9,1-1.7,0.7c-0.1,0-0.2-0.3-0.1-0.3
			C66.1,62.3,66.9,62.4,67.6,62.3z"/>
		<path fill="#272628" d="M91.4,81.1c0.1,0.1,0.3,0.3,0.4,0.4c0.1,0.1,0.1,0.2,0.2,0.2c0,0.1-0.1,0.2-0.1,0.3
			c-0.6,0-1.1-0.1-1.7-0.1c0-0.3,0-0.5,0.1-0.8C90.6,81.2,91,81.2,91.4,81.1z"/>
		<path fill="#272628" d="M62.7,81.6c-1-0.2-2-0.2-3,0c1.1-0.8,2.2-0.6,3.3-0.1C62.9,81.6,62.8,81.6,62.7,81.6z"/>
		<path fill="#272628" d="M72.5,81.9c-0.3-0.3-0.5-0.5-0.8-0.8c0.8,0.1,1.6,0.1,1.7,1c0,0.4-0.5,0.3-0.8,0.2
			C72.4,82.2,72.4,82.1,72.5,81.9z"/>
		<path fill="#272628" d="M61.3,66.5c0.2,0,0.3,0,0.5,0c-0.1,0.7-0.7,1-1.2,1.3c-0.1,0.2-0.2,0.2-0.3,0c-0.1,0-0.1-0.1-0.2-0.1
			C60.1,66.9,60.8,66.9,61.3,66.5z"/>
		<path fill="#272628" d="M73.8,61.5c-0.2-0.1-0.5-0.3-0.7-0.4c-0.1-0.4-0.3-1.2,0.4-1C74.2,60.2,73.8,61,73.8,61.5z"/>
		<path fill="#272628" d="M72.5,81.9c0,0.1,0.1,0.3,0.1,0.4c-0.8,0-1.7,0.1-2.5,0.1l-0.2,0l-0.2,0C70.5,81.5,71.7,82.3,72.5,81.9z"
			/>
		<path fill="#272628" d="M68.7,66.2c0.7-0.5,1.2-0.5,1.9-0.4C70.1,66.4,69.7,66.7,68.7,66.2z"/>
		<path fill="#272628" d="M91.4,80.4c0,0.1,0,0.2,0,0.3c-0.8,0-1.7,0-2.5,0C89.7,80.2,90.6,80.4,91.4,80.4z"/>
		<path fill="#272628" d="M61.8,73.7c0.1-0.3,0.3-0.6,0.4-1c0.3,0.4,1,0.7,0.6,1.3C62.8,74.2,62.4,73.3,61.8,73.7z"/>
		<path fill="#272628" d="M62.1,72.4c-1-0.2-1-1-1.2-1.7C61.9,70.9,61.8,71.7,62.1,72.4z"/>
		<path fill="#272628" d="M60.2,67.9c0.1,0,0.2,0,0.3,0c0,0.6,0.6,1,0.3,1.6C59.8,69.2,60.1,68.5,60.2,67.9z"/>
		<path fill="#272628" d="M59.3,63.8c-0.3-0.4-0.6-0.9-0.9-1.3c0.2,0,0.3-0.1,0.5-0.1C59,62.8,60,63,59.3,63.8z"/>
		<path fill="#272628" d="M81,83.7c-0.1,0-0.3,0-0.4,0c0-0.3-0.1-0.7,0-1c0.1-0.2,0.3-0.1,0.4,0.1C81.2,83.1,81.5,83.4,81,83.7z"/>
		<path fill="#272628" d="M97.6,83.3c0.2,0,0.3,0,0.5,0c0.1,0.3,0.4,0.6-0.1,0.8c-0.3,0.1-0.7,0.1-0.7-0.4
			C97.4,83.5,97.5,83.4,97.6,83.3z"/>
		<path fill="#272628" d="M91.8,85.4c0-0.2,0-0.3,0-0.5c0.2,0,0.3,0,0.5,0c0.1,0.1,0.2,0.3,0.4,0.4c0,0.1,0,0.3,0,0.4
			c-0.3,0-0.6,0-0.9,0c-0.1-0.1-0.1-0.2-0.1-0.2C91.7,85.4,91.8,85.4,91.8,85.4z"/>
		<path fill="#272628" d="M60.2,83.3c0.2,0.1,0.6-0.1,0.7,0.3l-0.2,0.1l-0.2,0c-0.1,0.1-0.2,0.2-0.4,0.1C60,83.7,60,83.6,60,83.4
			C60.1,83.4,60.1,83.3,60.2,83.3z"/>
		<path fill="#272628" d="M89.3,84c0,0.3,0,0.7,0,1c-0.1,0-0.2,0-0.2,0.1C89,85,88.9,85,88.8,85c-0.1-0.1-0.1-0.3-0.2-0.5
			c0-0.2,0.1-0.3,0.3-0.4C89,84,89.2,84,89.3,84z"/>
		<path fill="#272628" d="M86.8,85.3c0-0.1,0-0.3,0-0.4c-0.1-0.1-0.1-0.2-0.1-0.3c0-0.1,0.1-0.1,0.1-0.1l0.1-0.2
			c0.1,0,0.3,0.1,0.4,0.1c0.1,0.1,0.1,0.1,0.2,0.2c0,0.2,0.1,0.3,0,0.5c0,0.1-0.1,0.1-0.1,0.2c-0.1,0-0.1,0.1-0.2,0.1
			C87,85.4,86.9,85.3,86.8,85.3z"/>
		<path fill="#272628" d="M87.6,84.5c0.2,0,0.3,0,0.5-0.1c0.1,0,0.2-0.1,0.2-0.1c0.1,0,0.2,0.1,0.2,0.1c0,0.1,0.1,0.2,0.1,0.3
			c0,0.1,0,0.2-0.1,0.3c-0.1,0.1-0.3,0.2-0.5,0.2c-0.1,0-0.2,0-0.3,0c-0.1,0-0.2-0.1-0.2-0.1c0-0.1-0.1-0.2-0.1-0.3
			C87.5,84.7,87.6,84.6,87.6,84.5z"/>
		<path fill="#272628" d="M60.6,84.4c-0.2,0-0.4,0-0.5,0c-0.1-0.1-0.2-0.2-0.3-0.3l0.1-0.2c0.1-0.1,0.2-0.1,0.4,0
			c0.1,0,0.2,0.1,0.3,0.2C60.6,84.2,60.6,84.3,60.6,84.4z"/>
		<path fill="#272628" d="M93.9,86.1c-0.1,0-0.3,0.1-0.4,0.1c-0.1-0.1-0.3-0.3-0.4-0.4C93.4,85.7,93.8,85.7,93.9,86.1z"/>
		<path fill="#272628" d="M92.7,82.4c-0.2,0.1-0.3,0.2-0.5,0.3c-0.1-0.1-0.2-0.3-0.2-0.5c0-0.2,0.1-0.3,0.2-0.4
			c0.2-0.1,0.3,0,0.5,0.1C92.8,82.2,92.8,82.3,92.7,82.4z"/>
		<path fill="#272628" d="M60.5,84.1c-0.2,0-0.3,0-0.5,0c0-0.2,0-0.3,0.2-0.4c0.1,0,0.2,0,0.3,0C60.6,83.8,60.5,83.9,60.5,84.1z"/>
		<path fill="#272628" d="M97.6,83.3c0,0.3-0.1,0.4-0.4,0.4c0-0.1,0-0.3-0.1-0.4C97.4,83.2,97.5,83.3,97.6,83.3z"/>
		<path fill="#272628" d="M92.6,85.3c-0.3,0-0.4-0.1-0.4-0.4C92.5,84.9,92.7,85,92.6,85.3z"/>
		<path fill="#272628" d="M87.3,84.5c0-0.1,0.1-0.2,0.1-0.3c0.1,0.1,0.2,0.2,0.2,0.3l0,0C87.5,84.7,87.4,84.7,87.3,84.5L87.3,84.5z"
			/>
		<path fill="#272628" d="M88.5,84.5c-0.1,0-0.3-0.1-0.4-0.1c0.1-0.1,0.3-0.2,0.4-0.3c0.1,0.1,0.2,0.2,0.1,0.3
			C88.6,84.5,88.5,84.5,88.5,84.5z"/>
		<path fill="#272628" d="M88.5,84.5c0-0.1,0-0.3,0-0.4c0.1,0,0.3,0,0.4,0c0,0.2,0,0.3,0,0.5C88.7,84.7,88.6,84.7,88.5,84.5
			L88.5,84.5z"/>
		<path fill="#272628" d="M92.2,82c0,0.2,0,0.3,0,0.5c-0.1,0.1-0.3,0.1-0.4,0c0-0.1,0-0.2,0-0.4l0-0.2c0.1,0,0.1-0.1,0.2-0.1
			C92.1,81.9,92.2,81.9,92.2,82z"/>
		<path fill="#272628" d="M92.7,82.4c0-0.1,0-0.2,0-0.4c0.1-0.2,0.2-0.2,0.4,0l0,0C93.1,82.3,93,82.4,92.7,82.4z"/>
		<path fill="#272628" d="M58.8,64.5c0.2,0,0.3-0.1,0.5-0.1c0,0.1,0,0.3,0,0.4C59.2,64.7,59,64.6,58.8,64.5z"/>
		<path fill="#272628" d="M91.8,82.4c0.1,0,0.3,0,0.4,0c0,0.1-0.1,0.2,0,0.3C91.9,82.9,91.9,82.7,91.8,82.4z"/>
		<path fill="#272628" d="M97.3,82.8c0,0.1,0,0.3,0,0.4c-0.1,0-0.3,0-0.4,0C96.9,83,97,82.8,97.3,82.8z"/>
		<path fill="#272628" d="M86.8,84.5c0.1,0.1,0.1,0.3,0,0.4c-0.1,0-0.3,0-0.4-0.1C86.4,84.6,86.5,84.5,86.8,84.5z"/>
		<path fill="#272628" d="M88,84.9c0.2,0,0.3,0,0.5,0c0.2,0.3,0.2,0.5,0,0.8l-0.1,0.2c-0.4-0.2-1,0-1.3-0.4c0-0.1,0.1-0.1,0.1-0.2
			c0.1-0.1,0.2-0.2,0.4-0.2C87.8,85.1,87.9,85,88,84.9z"/>
		<path fill="#272628" d="M91.8,85.4c0,0.1,0,0.2,0,0.4c-0.1,0-0.2,0-0.3-0.1C91.5,85.5,91.5,85.3,91.8,85.4z"/>
		<path fill="#272628" d="M98.5,86.2c0,0.1,0,0.3,0,0.4c-0.3,0-0.4-0.1-0.4-0.4C98.2,86.1,98.4,86.2,98.5,86.2z"/>
		<path fill="#272628" d="M88.8,84.9c0.1,0,0.3,0,0.4,0.1c0.2,0.3,0.3,0.5,0.5,0.8c-0.2,0-0.3,0-0.5,0c-0.2,0.1-0.3,0.1-0.4-0.1l0,0
			C88.6,85.5,88.7,85.2,88.8,84.9z"/>
		<path fill="#272628" d="M88.8,84.9c0,0.3,0.1,0.5,0.1,0.8c-0.1,0-0.3,0-0.4-0.1c0-0.3,0-0.5,0-0.8l0,0
			C88.6,84.8,88.8,84.8,88.8,84.9L88.8,84.9z"/>
		<path fill="#272628" d="M88.9,85.7c0.1,0,0.3,0,0.4,0.1c0,0.1,0,0.2,0,0.3C89,86.1,88.9,86,88.9,85.7z"/>
		<path fill="#272628" d="M98.5,74.1c0.2,0.3,0.4,0.5,0.9,1.1c0-4-0.1-7.7,0-11.5c0-1.8-0.5-3.7,0.3-5.5c0,7.4,0,14.7,0,22.1
			c0,0.5,0.1,1-0.4,1.3c-0.2-1.4,0.4-2.9-0.4-4.2c-0.2-0.1-0.3-0.3-0.4-0.5C98.3,76,97.7,75,98.5,74.1z"/>
		<path fill="#272628" d="M98.9,77c0,0.1,0,0.3,0,0.4C96,78.2,93,78,90.2,77c0.1-0.1,0.2-0.2,0.2-0.2c0.7-0.3,1.4-0.3,2-0.2
			C94.6,77.1,96.8,76.5,98.9,77z"/>
		<path fill="#272628" d="M84.7,74.4c0.6-0.2,1.1-0.5,1.7-0.7c0.6,0.2,1.2,0.3,1.5,1c0.2,0.8,0.2,1.5-0.7,1.9
			c-0.6,0-1.2,0.3-1.6-0.4C86.1,75.2,85.4,74.8,84.7,74.4z"/>
		<path fill="#272628" d="M94.3,79.8c-1.9,0-3.8,0-5.7,0c0-0.1,0-0.1,0-0.2c1.9,0,3.8,0,5.7,0C94.3,79.7,94.3,79.7,94.3,79.8z"/>
		<path fill="#272628" d="M87.2,76.5c0.4-0.6,0.5-1.3,0.4-2.1c0.2-0.1,0.3-0.1,0.5,0c0.4,0.4,0.4,1,0.7,1.4c0.4,0.4,1,0.3,1.4,0.7
			c0.1,0.2,0.1,0.3-0.1,0.5l0,0C89.2,76.8,88.1,77.4,87.2,76.5z"/>
		<path fill="#272628" d="M84.7,74.4c0.6,0.2,1.3-0.3,1.6,0.6c0.2,0.6,0,1.1-0.7,1.1c-0.1,0-0.3,0-0.4,0C85,75.6,84.9,75,84.7,74.4z
			"/>
		<path fill="#272628" d="M85.1,77c0.5,0,0.9,0.1,1.6,0.1C85.4,77.8,85.4,77.8,85.1,77L85.1,77z"/>
		<path fill="#272628" d="M84.2,80c0.9,0,1.7,0,2.5,0C85.9,80.3,85.1,80.5,84.2,80z"/>
		<path fill="#272628" d="M84.3,77.8c-0.1-0.6,0.1-1.1,0.5-1.6c0.1,0,0.2,0,0.4,0c0,0.3,0,0.5,0,0.8l0,0
			C84.9,77.2,84.6,77.5,84.3,77.8z"/>
		<path fill="#272628" d="M34.6,57.3c0.1,1-0.3,2.2,0.8,3c-0.7,0.1-0.8,0.6-0.8,1.2c0,5.6,0,11.2,0,16.7c0,0.3,0.3,0.6,0.4,0.9
			c0.1,0.2,0.1,0.3-0.1,0.4c-0.8,2.1-0.1,4.2-0.4,6.3c-0.5-0.5-0.3-1.2-0.3-1.8c0-8.3,0-16.6,0-24.9C34.3,58.5,34.1,57.8,34.6,57.3z
			"/>
		<path fill="#272628" d="M35,79.5c0-0.1,0.1-0.3,0.1-0.4c0.7-0.2,1.3-0.3,2-0.5c0.4,0.1,0.7,0.3,1.1,0.4c0.1,0,0.3,0,0.4,0.1
			c0.1,0,0.3,0,0.4-0.1c0.1-0.1,0.3-0.2,0.3-0.3c0.2-0.7,0-1.5,0.2-2.2c0-0.1,0-0.2,0-0.3c0.1-0.5,0.2-1.2,0.9-1.1
			c0.6,0.1,0.7,0.9,0.8,1.5c0,0.1,0,0.2,0,0.3c0.1,0.7-0.1,1.4,0.5,2c0.5,0.2,1,0.1,1.5,0.1c0.5,0,0.9-0.2,1.3,0.2
			c2,0.6,4,0.4,5.9-0.4c0.6,0.3,1.3,0.3,1.9,0.2c0.8-0.9,0.4-2.1,0.5-3.1c1.4-1.5,1.2,0.5,1.8,0.9c-0.1,0.1-0.2,0.3-0.3,0.4
			c-0.1,0.6-0.1,1.2,0.1,1.8c0.2,0.1,0.4,0.2,0.6,0.2c0.4-0.2,0.2-1,0.8-1.1c1.2,1,2.5,1.8,4.2,1.6c-0.2,0.9-0.9,0.9-1.3,1.3
			c-0.7,0.3-1.5,0.1-2.2,0.1c-1.3,0-2.4,0.1-1.7,1.9c0.1,0.2-0.1,0.4-0.2,0.5c-0.5,0-1.1,0-1.6,0c-0.2-0.3-0.3-0.5-0.4-0.9
			c0-0.9-0.4-1.4-1.4-1.4c-2.8-0.1-5.5,0-8.3,0c-0.9,0-1.4,0.4-1.4,1.4c0,0.2-0.1,0.4-0.2,0.6c-0.5,0.5-1.1,0.3-1.7,0.3
			c-0.3-0.2-0.3-0.5-0.3-0.8c-0.1-1.7-0.4-1.8-3.1-1.3c-0.3,0-0.6-0.1-0.8-0.4C35.6,80.2,35.3,79.9,35,79.5z"/>
		<path fill="#272628" d="M54.7,83.2c-0.2-0.4-0.4-0.8-0.6-1.3c-0.4-0.9-0.3-1.7,1-1.6c1.3,0.1,2.6-0.3,3.8,0.4
			c0.1,0.4,0.3,0.8,0.4,1.2c-0.1,0-0.2,0.1-0.2,0.1C58.7,82,58.3,82,58,82c-0.5-0.5-1.1-0.1-1.6,0C55.6,82.2,55.6,83.3,54.7,83.2z"
			/>
		<path fill="#272628" d="M36.3,81.1c0.9-1.6,2.3-0.8,3.4-0.6c0.7,0.2,0.6,1.2,0,1.8c-1-0.1-1.9-0.6-2.9-0.8
			C36.6,81.4,36.4,81.3,36.3,81.1z"/>
		<path fill="#272628" d="M36.7,81.6c1.2-0.7,2,0.2,2.9,0.8c0,0.3,0,0.6,0,0.8c-0.6-0.1-1.1-0.2-1.7-0.4c-0.8,0.3-1.1-0.1-1.2-0.8
			C36.8,81.9,36.8,81.7,36.7,81.6z"/>
		<path fill="#272628" d="M36.8,82c0.4,0.3,0.8,0.5,1.2,0.8c0,0.3,0.6,0.6,0,0.9c-0.6,0.3-1,0-1.3-0.4C35.7,82.8,36.3,82.4,36.8,82z
			"/>
		<path fill="#272628" d="M59,82.1c0.1,0,0.2,0,0.2-0.1c0.1,0,0.3,0,0.4,0c0.4,0,0.9,0,1.4,0c-0.1,0.7-1.5,0.3-0.9,1.4l-0.1,0l0-0.1
			c-0.1,0.1-0.2,0.1-0.4,0.1c-0.1,0-0.3-0.1-0.4-0.2c-0.1-0.1-0.1-0.2-0.1-0.4C59.1,82.5,59.1,82.3,59,82.1z"/>
		<path fill="#272628" d="M36.7,83.3c0.4,0.1,0.9,0.3,1.3,0.4c-0.6,0.6-1.4,0.3-2.2,0.3C35.9,83.5,36.6,83.7,36.7,83.3z"/>
		<path fill="#272628" d="M59.3,84c-0.2-0.2-0.3-0.3-0.5-0.5l0.2-0.1c0.1,0,0.3,0.1,0.3,0.2C59.4,83.8,59.4,83.9,59.3,84z"/>
		<path fill="#272628" d="M59.3,84c0-0.1-0.1-0.3-0.1-0.4c0.1,0,0.1-0.1,0.2-0.1c0.2,0,0.3,0.1,0.4,0.2c0,0.1-0.1,0.1-0.1,0.2l0,0.1
			C59.6,84.1,59.5,84,59.3,84z"/>
		<path fill="#272628" d="M59.2,82.7L59.2,82.7c0.1,0.1,0.2,0.2,0.2,0.3c0,0.1,0,0.2,0,0.2c-0.1,0-0.1,0.1-0.2,0.1
			c-0.1,0-0.2-0.1-0.2-0.1C59,83.1,59.1,82.9,59.2,82.7z"/>
		<path fill="#272628" d="M58.8,83.6c-0.1,0-0.2-0.1-0.3-0.1c0.1-0.1,0.2-0.2,0.3-0.2l0,0C59.1,83.4,59.1,83.5,58.8,83.6L58.8,83.6z
			"/>
		<path fill="#272628" d="M58.4,62.4c-0.1,0-0.3,0-0.4,0.1c-0.7,0.3-0.5,1.1-1,1.5c-0.6-0.1-1.2-1-1.7,0.2c-0.8,1.9-2.2,3.3-3.6,4.8
			c-0.3,0.2-0.6,0.3-0.9,0.1c-0.2-0.2-0.3-0.5-0.3-0.9c0-0.8,0.4-1.6,0.5-2.3c0-0.2,0.3-0.4,0.1-0.7c0,0.2-0.1,0.4-0.1,0.6
			c-0.1,0.6-0.2,1.1-0.4,1.7c-0.2,0.7-0.3,1.8-1.5,1.1c-0.5-0.7-0.1-1.6-0.3-2.4c0,0.6,0,1.2,0,1.8c0,0.3-0.2,0.6-0.5,0.8
			c-0.6,0.2-1.1,0.1-1.4-0.4c-0.3-0.7-0.1-1.5-0.2-2.1C46.6,67,47,68,46.4,68.7C46,69,45.7,69,45.3,68.9c-0.8-0.7-0.4-1.8-1-2.8
			c0.5,0.9,0.4,1.8,0.6,2.5c0,0.2,0,0.4-0.1,0.6c-1.8,1.3-1.4-0.5-1.8-1.2c-0.2-0.5-0.3-0.9-0.5-1.3c0-0.1-0.1-0.2-0.1-0.3
			c0,0.2,0.1,0.4,0.2,0.6c0.2,0.5,0.3,0.9,0.5,1.4c0.2,0.7,0.5,1.5-0.8,1.2c0-0.8-0.6-0.8-1.2-0.9c0-0.9-0.7-0.9-1.3-0.9
			c-0.5-0.1-0.9-0.3-1.2-0.7c-0.9-1-1.3-2.3-1.4-3.6c-0.1-1-0.5-1.8-1.1-2.6c0.1,0,0.3,0,0.4-0.1c0.7-0.5,0.2-1.9,1.6-2.1
			c1.4-0.1,1.4,1.2,2.1,1.4c1.7,0.5,3.5,0.5,5.3,0.7c2.5,0.3,5-0.5,7.4-0.3c1.4,0.1,1-1.9,2.3-1.6c0.5,0.6,0.2,1.2,0.2,1.7
			c0.3-0.4-0.3-1.4,0.7-1.7c1.4,0.3,0.2,2.2,1.5,2.6C57,62.3,58.3,61.8,58.4,62.4z"/>
		<path fill="#272628" d="M43.1,67.8c0.6,0.3-0.1,2.3,1.6,1.3c0.2-0.2,0.4-0.2,0.5,0c0.1,0.3,0.1,0.6-0.1,0.8
			c-1.6,0.5-3.1-0.1-4.8,0c0.7-0.6,1.3-0.3,1.9-0.4c1.1-0.1,0.6-0.7,0.4-1.3C42.7,68.1,42.8,67.8,43.1,67.8z"/>
		<path fill="#272628" d="M45.1,69.1c-0.2,0-0.3,0-0.5,0c0-0.1,0-0.3,0-0.4c0.1-0.2,0.2-0.2,0.3,0c0.5,0,0.9,0,1.4,0
			c0.2-0.3,0.3-0.6,0.8-0.4c0.3,0.5,0.8,0.4,1.3,0.4c0.2-0.3,0.3-0.6,0.8-0.4c1.2,0.8,0.6-0.8,1.2-0.8c0.4,0.1,0.2,0.7,0.5,0.9
			c0,0.3,0,0.6,0,0.8c-0.3,0.2-0.5,0.3-0.8,0c-0.2,0-0.3,0-0.5,0C48.1,69.3,46.6,69.4,45.1,69.1z"/>
		<path fill="#272628" d="M43.4,79.5c-0.7,0-1.4,0-2.1,0c-0.3-1-0.3-1.9,0-2.9l0,0c0.4,0.4,0.8,0.8,1.3,1.3
			C42.9,78.4,44,78.5,43.4,79.5z"/>
		<path fill="#272628" d="M39.6,67.4c0.6,0.2,1.1-0.7,1.7,0c0.5,0.6-0.1,0.8-0.3,1.2c-0.7-0.1-1.4-0.3-2.1-0.4
			c-0.4-0.2-0.7-0.4-0.4-0.9C38.8,67.2,39.2,67.1,39.6,67.4z"/>
		<path fill="#272628" d="M52.6,79.5c-0.8,0-1.7,0.2-2.1-0.9c0.1-0.1,0.3-0.3,0.4-0.4c0.5-0.3,1-0.7,1.2-1.2c0.1,0,0.3,0,0.4-0.1
			C53.2,77.8,53.1,78.6,52.6,79.5z"/>
		<path fill="#272628" d="M50.1,69.1c0.3,0,0.5,0,0.8,0c0.3,0,0.6,0,0.9,0c0.7,0.2,1.4,0.4,2.1,0.6C52.6,69.7,51.1,70.9,50.1,69.1z"
			/>
		<path fill="#272628" d="M52.6,79.5c0-0.8,0-1.7,0-2.5c0-0.5-0.1-0.9,0.4-1.3C53.4,77,54.2,78.4,52.6,79.5z"/>
		<path fill="#272628" d="M57.1,64c-0.5-1-0.7-1.9,1-1.5c-0.3,0.7,0.4,1.2,0.4,1.9c-0.4,0-0.9,0.1-1.3,0.1
			C57.1,64.3,57.1,64.2,57.1,64z"/>
		<path fill="#272628" d="M55.1,79.5c-0.3,0-0.6,0-0.8,0c-0.3-1-0.3-1.9,0-2.9c0.1,0,0.3,0,0.4,0c0.1,0.4,0.3,0.8,0.4,1.2
			C55.4,78.4,55.5,78.9,55.1,79.5z"/>
		<path fill="#272628" d="M45.1,69.1c1.5,0,3,0,4.5,0c-1.4,0.9-3.2-0.1-4.6,0.8C45.1,69.6,45.1,69.3,45.1,69.1z"/>
		<path fill="#272628" d="M43.4,79.5c-0.3-0.6-0.6-1.1-0.8-1.7c0.9,0.1,1.5,0.7,2.1,1.3C44.2,79.2,43.8,79.3,43.4,79.5z"/>
		<path fill="#272628" d="M38.4,79.5c-0.6,0-1.1-0.3-1.3-0.9c0.3-0.3,0.6-0.5,0.9-0.8C38.8,78.2,38.9,78.8,38.4,79.5z"/>
		<path fill="#272628" d="M55.1,79.5c0-0.6,0-1.1,0-1.7c0.3,0,0.6,0.1,0.9,0.1C55.6,78.3,56.6,79.6,55.1,79.5z"/>
		<path fill="#272628" d="M38.4,79.5c0.1-0.6-0.1-1.1-0.4-1.7c0.1-0.1,0.3-0.3,0.4-0.4c0.2-0.1,0.4-0.1,0.6,0.1
			c0.4,0.7,0.3,1.4-0.2,2C38.7,79.5,38.5,79.5,38.4,79.5z"/>
		<path fill="#272628" d="M38.4,67.4c0.1,0.3,0.3,0.5,0.4,0.8c-0.7,0-1.5,0.3-1.7-0.8C37.6,67.1,38,67.1,38.4,67.4z"/>
		<path fill="#272628" d="M38.4,67.4c-0.4,0-0.9,0-1.3,0c0.3-0.5,0.9-0.4,1.3-0.5c0.4,0,0.9,0,1.1,0.5
			C39.2,67.4,38.8,67.4,38.4,67.4z"/>
		<path fill="#272628" d="M38.8,77.4c-0.1,0-0.3,0-0.4,0c0.3-0.5,0.7-1,1.2-1.3l0,0c0.3,0.3,0.2,0.8,0.2,1.1
			c-0.1,0.2-0.2,0.3-0.5,0.3C39.2,77.6,39,77.5,38.8,77.4z"/>
		<path fill="#272628" d="M52.2,77c0,0.8-0.5,1.2-1.2,1.2C51.2,77.7,51.6,77.3,52.2,77z"/>
		<path fill="#272628" d="M98.9,57c-2,0.8-4.1,0.2-6.1,0.3c-1.9,0.1-3.7,0-5.6,0.1c-0.1,0-0.2,0-0.3,0c-3.2,0-6.4,0-9.6,0
			c-0.6,0-1.3-0.2-1.7,0.4c-0.7-0.1-1.4-0.3-2.1-0.4c0.3-0.5,0.8-0.4,1.3-0.4C82.8,57,90.9,57,98.9,57z"/>
		<path fill="#272628" d="M86.9,57.4c0.1,0,0.2,0,0.3,0c0.6,0.9,1.5,1.7,1.8,2.9c0.1,0.8,1.2,1.3,0.7,2.3c-0.5,0.3-1.1,0.4-1.7,0.4
			c-0.7-0.3-0.7-0.9-0.7-1.5c0-0.6,0-1.1-0.4-1.6C86.9,59,86.9,58.2,86.9,57.4z"/>
		<path fill="#272628" d="M86.8,59.9c0.5,0.3,0.8,0.7,0.8,1.3c0,2.9,0.4,5.9,0.2,8.8c-0.1,1,0.1,2.1-0.4,3c-0.2,0.3-0.4,0.3-0.7,0.2
			C86.8,68.8,86.8,64.3,86.8,59.9z"/>
		<path fill="#272628" d="M86.8,73.2c0.1,0,0.3,0,0.4,0c0.8,0.2,1.7,0.2,1.7,1.3c-0.3,0.2-0.6,0.2-0.8-0.1c-0.1,0-0.3,0-0.4,0
			c-0.6,0-1-0.3-1.2-0.8C86.5,73.5,86.7,73.4,86.8,73.2z"/>
		<path fill="#272628" d="M56,58.7c-0.6,0.6-0.2,1.5-0.8,2.2c-0.1-0.8-0.1-1.5-0.1-2.2C55.3,58.7,55.7,58.7,56,58.7z"/>
		<path fill="#272628" d="M93.1,82l-0.2,0l-0.2,0c-0.2,0-0.3-0.1-0.5-0.1l0,0c-0.1-0.1-0.1-0.2-0.1-0.3c0-0.1,0.1-0.1,0.1-0.1
			c0.1,0,0.3,0,0.4,0C92.8,81.7,92.9,81.9,93.1,82z"/>
		<path fill="#272628" d="M92.2,81.6c0,0.1,0,0.3,0,0.4c-0.1,0-0.3-0.1-0.4-0.1c0-0.1,0-0.2,0-0.3C92,81.6,92.1,81.6,92.2,81.6z"/>
		<path fill="#272628" d="M59.7,83.9c0-0.1,0-0.2,0-0.3c-0.1-0.1-0.1-0.1-0.2-0.2c0.1-0.1,0.1-0.1,0.2-0.2c0.1,0,0.2,0,0.3,0
			c0.1,0.2,0.1,0.3,0.2,0.5c-0.1,0.1-0.1,0.3-0.2,0.4C59.9,84,59.8,84,59.7,83.9z"/>
		<path fill="#272628" d="M88.9,84.9l-0.2,0l-0.2,0c0-0.2,0-0.3,0-0.5c0.1,0,0.3,0,0.4,0.1C88.9,84.7,88.9,84.8,88.9,84.9z"/>
		<path fill="#272628" d="M87.7,85.3c-0.1,0-0.2,0-0.4-0.1c0-0.1,0-0.3-0.1-0.4c0.2-0.1,0.3-0.1,0.4,0.1l0,0
			c0.1,0.1,0.1,0.2,0.1,0.3C87.7,85.3,87.7,85.3,87.7,85.3z"/>
		<path fill="#272628" d="M87.7,84.9c-0.1,0-0.3,0-0.4-0.1c0-0.1,0-0.3,0-0.4c0.1,0,0.3,0,0.4,0C87.7,84.6,87.7,84.8,87.7,84.9z"/>
		<path fill="#272628" d="M87.7,85.3c0-0.1,0-0.3,0-0.4c0.1,0,0.3,0,0.4,0C87.9,85.1,87.8,85.2,87.7,85.3z"/>
		<path fill="#272628" d="M98.9,77c-2.2,0.6-4.4,0.6-6.7,0c-0.2-0.2-0.5-0.3-0.6-0.6c0.5-1.6-0.6-3.1-0.7-4.6
			c0.1-0.6,0.4-1.1,1.1-1.2c0.7,1.3,1.5,2,2.9,0.8c0.3-0.2,0.6-0.1,1,0.1c0.4,1.2,2,1.3,2.5,2.5C98.6,75,98.8,76,98.9,77z"/>
		<path fill="#272628" d="M90.2,62.8c-0.1,0-0.3,0-0.4,0c-0.1-0.1-0.2-0.2-0.1-0.3c0-0.1,0.1-0.1,0.1-0.1c-0.1-0.8-1.3-1.1-0.8-2.1
			C89.8,60.9,90.2,61.7,90.2,62.8z"/>
		<path fill="#272628" d="M91.8,76.6c0.1,0.1,0.3,0.3,0.4,0.4c-0.7,0-1.4,0-2.1,0c0-0.1,0-0.3,0-0.4C90.7,75.7,91.3,75.7,91.8,76.6z
			"/>
		<path fill="#272628" d="M88.9,74.5c0.6,0.7,0.4,1.3-0.3,1.7c-0.7-0.4-0.4-1.1-0.5-1.7C88.3,74.5,88.6,74.5,88.9,74.5z"/>
		<path fill="#272628" d="M39.6,77.4c0-0.4,0-0.8,0-1.3c0.7,1.1,0.7,2.2,0,3.3C39.1,78.8,39.2,78.1,39.6,77.4z"/>
		<path fill="#272628" d="M41.3,76.6c0,1,0,1.9,0,2.9C40.7,78.5,40.7,77.5,41.3,76.6z"/>
		<path fill="#272628" d="M54.3,76.6c0,1,0,1.9,0,2.9C53.6,78.5,53.6,77.6,54.3,76.6z"/>
		<path fill="#272628" d="M39.6,77.4c0,0.7,0,1.4,0,2.1c-0.1,0-0.3,0-0.4,0c-0.3-0.7-0.3-1.4,0-2.1C39.4,77.4,39.5,77.4,39.6,77.4z"
			/>
		<path fill="#272628" d="M39.2,77.4c0,0.7,0,1.4,0,2.1l-0.2,0l-0.2,0c0-0.7,0-1.4,0-2.1C39,77.4,39.1,77.4,39.2,77.4z"/>
		<path fill="#272628" d="M59.3,83.3c0-0.2,0-0.3-0.1-0.5c0.4-0.1,0.5,0.1,0.5,0.5l0,0c-0.1,0.1-0.1,0.1-0.2,0.2
			C59.4,83.4,59.3,83.3,59.3,83.3z"/>
		<path fill="#272628" d="M58.8,83.7c0-0.1,0-0.3,0-0.4c0.1,0,0.3,0,0.4,0l0,0c0.1,0.1,0.2,0.2,0.1,0.3c0,0.1,0,0.2-0.1,0.2l-0.1,0
			l-0.2,0L58.8,83.7z"/>
		<path fill="#272628" d="M59.3,83.7c0-0.2,0-0.3-0.1-0.5c0.1,0,0.3,0,0.4,0c0,0.1,0,0.3,0,0.4l-0.2,0L59.3,83.7z"/>
		<path fill="#272628" d="M45,68.6c-0.1,0-0.2,0-0.3,0c-0.6-1.4-1-2.8-0.5-4.4C44.8,65.6,45.2,67.1,45,68.6z"/>
		<path fill="#272628" d="M45.5,62.8c1.3,0,2.5,0,3.8,0c0.2,0.1,0.3,0.2,0.4,0.4c-1.7,0.7-3.3,0.7-5,0
			C44.9,62.9,45.3,63.1,45.5,62.8z"/>
		<path fill="#272628" d="M47.2,68.2c-0.3,0.1-0.5,0.3-0.8,0.4c-0.1-1.4-0.2-2.8,0.1-4.5C47.6,65.5,47,66.9,47.2,68.2z"/>
		<path fill="#272628" d="M49.2,68.2c-0.3,0.1-0.5,0.3-0.8,0.4c0-0.3,0-0.6,0-0.8c0.4-0.8-0.1-1.8,0.3-2.6c0-0.3,0.1-0.6,0.4-0.6
			c0.5,0,0.5,0.4,0.4,0.7C49.2,66.3,49.3,67.2,49.2,68.2z"/>
		<path fill="#272628" d="M52.8,64.1c0.9,1.1,0.2,1.7-0.2,2.8C52.1,65.6,52.7,65,52.8,64.1z"/>
		<path fill="#272628" d="M50.9,68.2c-0.4-0.1-0.4-0.5-0.5-0.9c0.1-0.6-0.1-1.2,0.5-1.6c0.1-0.2,0.2-0.2,0.3,0
			C51.2,66.5,51.1,67.4,50.9,68.2z"/>
		<path fill="#272628" d="M45.5,62.8c-0.2,0.3-0.5,0.4-0.8,0.4c-1,0-1.9,0-2.9,0c-0.1-0.1-0.1-0.2-0.1-0.3c0-0.1,0.1-0.1,0.1-0.1
			C43,62.8,44.2,62.8,45.5,62.8z"/>
		<path fill="#272628" d="M41.7,62.8c0,0.1,0,0.3,0,0.4c-0.7-0.2-1.4-0.3-2.5-0.6C40.4,62.3,41.1,62.2,41.7,62.8z"/>
		<path fill="#272628" d="M42.2,66.9c-0.1-0.6-0.2-1.2-0.4-2c1,0.4,0.7,1.1,0.8,1.6C42.8,66.9,42.6,67,42.2,66.9z"/>
		<path fill="#272628" d="M49.7,63.2c-0.1-0.1-0.3-0.3-0.4-0.4c0.8,0,1.6,0,2.4,0c0,0.1,0,0.3,0,0.4C51,63.2,50.4,63.2,49.7,63.2z"
			/>
		<path fill="#272628" d="M55.9,61.9c-0.7,1-1.4,0.8-2.4,0.7C54.4,62.4,55,62.2,55.9,61.9z"/>
		<path fill="#272628" d="M40.3,65.3c-0.7-0.5-0.7-0.9-0.7-1.5C40.3,64,40.4,64.5,40.3,65.3z"/>
		<path fill="#272628" d="M48.8,65.2c-0.1,0.9,0.4,1.8-0.3,2.6C48.5,66.9,48.2,66,48.8,65.2z"/>
		<path fill="#272628" d="M51.3,65.7c-0.1,0-0.2,0-0.3,0c0-0.6-0.2-1.2,0.6-1.4C52,64.9,51.5,65.3,51.3,65.7z"/>
		<path fill="#272628" d="M42.2,66.9c0.1-0.1,0.3-0.3,0.4-0.4c0.4,0.3,0.4,0.8,0.5,1.3c-0.2,0.1-0.3,0.3-0.5,0.4
			C42.5,67.8,42.4,67.4,42.2,66.9z"/>
		<path fill="#272628" d="M38.2,62.6c-0.1-0.1-0.3-0.2-0.3-0.3C37.8,62.1,38,62,38.2,62c0.2,0,0.4,0.2,0.4,0.3
			C38.7,62.5,38.6,62.7,38.2,62.6z"/>
		<path fill="#272628" d="M89.4,67.4c-0.6-1.5-1.4-2.9-1.3-4.5c0.4-0.7,1.1-0.4,1.7-0.5c0,0.1,0,0.3,0,0.4c0.4,2.8,1.7,5.3,2.4,8
			c-0.5,0.3-0.8,0.7-0.8,1.3c-0.5-0.9-1.1-1.9-1.2-3C90.2,68.3,90.1,67.7,89.4,67.4z"/>
		<path fill="#272628" d="M89.4,67.4c1.3,0,1.5,0.6,0.9,1.6C89.6,68.7,89.7,67.9,89.4,67.4z"/>
	</g>
</svg>
